<svg width="508" height="464" viewBox="0 0 508 464" fill="none" xmlns="http://www.w3.org/2000/svg">
<g clip-path="url(#clip0)">
<g filter="url(#filter0_d)">
<path d="M346.549 46.5238H63.249V425.531H346.549V46.5238Z" fill="#F2F2F2"/>
</g>
<path d="M182.815 62.5032H85.3359V65.5465H182.815V62.5032Z" fill="#E0E0E0"/>
<path opacity="0.7" d="M182.815 76.2015H85.3359V79.2449H182.815V76.2015Z" fill="#FDC503"/>
<path d="M294.764 62.5032H197.285V65.5465H294.764V62.5032Z" fill="#E0E0E0"/>
<path d="M309.991 149.269H212.512V152.312H309.991V149.269Z" fill="#E0E0E0"/>
<path d="M312.28 157.636H214.801V160.68H312.28V157.636Z" fill="#E0E0E0"/>
<path d="M316.851 166.01H219.373V169.054H316.851V166.01Z" fill="#E0E0E0"/>
<path d="M309.991 283.972H212.512V287.015H309.991V283.972Z" fill="#E0E0E0"/>
<path d="M312.28 292.346H214.801V295.389H312.28V292.346Z" fill="#E0E0E0"/>
<path d="M316.851 300.714H219.373V303.757H316.851V300.714Z" fill="#E0E0E0"/>
<g opacity="0.5">
<path opacity="0.5" d="M189.669 118.059H86.0991V223.085H189.669V118.059Z" fill="url(#paint0_linear)"/>
</g>
<path d="M188.691 120.347H86.7515V220.804H188.691V120.347Z" fill="#F5F5F5"/>
<g opacity="0.5">
<path opacity="0.5" d="M185.423 126.433H90.3442V191.882H185.423V126.433Z" fill="url(#paint1_linear)"/>
</g>
<path d="M184.765 127.196H90.9966V190.364H184.765V127.196Z" fill="white"/>
<path opacity="0.4" d="M83.0474 188.083L106.661 151.549L116.56 167.529L137.884 145.463L156.163 167.529L172.153 134.808L213.275 200.256L80.002 195.688L83.0474 188.083Z" fill="#FDC503"/>
<path opacity="0.4" d="M101.326 143.175C105.112 143.175 108.18 140.109 108.18 136.326C108.18 132.543 105.112 129.477 101.326 129.477C97.5412 129.477 94.4727 132.543 94.4727 136.326C94.4727 140.109 97.5412 143.175 101.326 143.175Z" fill="#FDC503"/>
<g opacity="0.5">
<path opacity="0.5" d="M189.669 252.769H86.0991V357.795H189.669V252.769Z" fill="url(#paint2_linear)"/>
</g>
<path d="M188.691 255.05H86.7515V355.507H188.691V255.05Z" fill="#F5F5F5"/>
<g opacity="0.5">
<path opacity="0.5" d="M185.423 261.143H90.3442V326.592H185.423V261.143Z" fill="url(#paint3_linear)"/>
</g>
<path d="M184.765 261.899H90.9966V325.067H184.765V261.899Z" fill="white"/>
<path opacity="0.4" d="M83.0474 322.786L106.661 286.253L116.56 302.239L137.884 280.166L156.163 302.239L172.153 269.511L213.275 334.96L80.002 330.398L83.0474 322.786Z" fill="#BDBDBD"/>
<path opacity="0.4" d="M101.326 277.885C105.112 277.885 108.18 274.819 108.18 271.036C108.18 267.253 105.112 264.187 101.326 264.187C97.5412 264.187 94.4727 267.253 94.4727 271.036C94.4727 274.819 97.5412 277.885 101.326 277.885Z" fill="#BDBDBD"/>
<g filter="url(#filter1_d)">
<path d="M181.664 27.7586L107.739 399.496L385.605 454.68L459.529 82.9425L181.664 27.7586Z" fill="white"/>
</g>
<path d="M395.65 88.0901L198.452 48.9268L197.859 51.9118L395.057 91.0751L395.65 88.0901Z" fill="#E0E0E0"/>
<path d="M339.54 370.257L142.341 331.094L141.748 334.079L338.946 373.242L339.54 370.257Z" fill="#E0E0E0"/>
<path d="M291.302 378.519L138.921 348.256L138.327 351.241L290.708 381.504L291.302 378.519Z" fill="#E0E0E0"/>
<path opacity="0.7" d="M192.274 376.704L135.508 365.43L134.915 368.415L191.68 379.689L192.274 376.704Z" fill="#FDC503"/>
<path opacity="0.7" d="M293.628 85.6797L195.032 66.0986L194.439 69.0836L293.035 88.6647L293.628 85.6797Z" fill="#FDC503"/>
<path d="M369.399 118.571L191.625 83.2653L191.032 86.2503L368.805 121.556L369.399 118.571Z" fill="#E0E0E0"/>
<path opacity="0.7" d="M231.529 109.041L188.208 100.437L187.614 103.422L230.935 112.026L231.529 109.041Z" fill="#3AD29F"/>
<path d="M381.996 156.769L184.797 117.606L184.204 120.591L381.402 159.754L381.996 156.769Z" fill="#E0E0E0"/>
<g opacity="0.5">
<path opacity="0.5" d="M202.172 190.125L181.984 291.641L359.009 326.798L379.196 225.282L202.172 190.125Z" fill="url(#paint4_linear)"/>
</g>
<path d="M377.961 225.806L203.175 191.094L183.432 290.372L358.218 325.085L377.961 225.806Z" fill="white"/>
<path d="M378.581 173.943L181.383 134.78L180.79 137.765L377.988 176.928L378.581 173.943Z" fill="#E0E0E0"/>
<path d="M240.471 212.467L218.808 208.165L204.409 280.572L226.072 284.874L240.471 212.467Z" fill="#FDC503"/>
<path d="M274.561 244.069L252.897 239.767L243.249 288.288L264.912 292.59L274.561 244.069Z" fill="#3AD29F"/>
<path d="M308.955 274.179L287.291 269.876L282.096 296L303.76 300.302L308.955 274.179Z" fill="#F55F44"/>
<path d="M353.141 255.019L331.477 250.717L320.937 303.718L342.601 308.02L353.141 255.019Z" fill="#FDD835"/>
<path d="M416.345 184.433C406.949 174.667 395.692 166.878 383.239 161.523C370.785 156.169 357.385 153.358 343.829 153.256C330.272 153.154 316.831 155.763 304.298 160.929C291.765 166.095 280.393 173.715 270.851 183.339C232.376 222.101 231.724 285.217 269.357 324.8C285.89 342.19 308.048 353.174 331.907 355.805C355.765 358.436 379.786 352.545 399.716 339.176L473.203 415.56C474.113 416.505 475.361 417.051 476.673 417.077C477.985 417.102 479.254 416.606 480.2 415.697L498.512 398.102C499.458 397.192 500.003 395.945 500.029 394.634C500.055 393.322 499.558 392.055 498.649 391.109L425.181 314.731C439.268 295.439 446.103 271.804 444.487 247.976C442.872 224.148 432.908 201.65 416.345 184.433ZM393.455 307.244C383.088 317.203 369.999 323.868 355.842 326.393C341.685 328.919 327.097 327.193 313.922 321.433C300.746 315.673 289.576 306.138 281.824 294.034C274.071 281.931 270.084 267.801 270.366 253.433C270.649 239.064 275.189 225.102 283.412 213.312C291.635 201.522 303.171 192.434 316.563 187.196C329.954 181.958 344.599 180.807 358.646 183.887C372.693 186.966 385.51 194.14 395.477 204.499C402.095 211.378 407.293 219.492 410.773 228.378C414.254 237.265 415.948 246.749 415.761 256.29C415.573 265.831 413.506 275.241 409.679 283.984C405.852 292.726 400.339 300.63 393.455 307.244V307.244Z" fill="url(#paint5_linear)"/>
<path d="M289.208 234.646C281.03 234.646 281.017 247.347 289.208 247.347C297.398 247.347 297.398 234.646 289.208 234.646Z" fill="url(#paint6_linear)"/>
<path d="M346.209 193.961C324.2 193.466 304.174 204.499 293.525 221.156C290.049 226.591 299.915 231.394 303.372 225.985C312.188 212.195 328.941 203.437 347.064 203.893C366.053 204.369 383.334 215.226 392.484 230.293C395.953 236.008 405.05 230.814 401.613 225.131C390.488 206.884 368.942 194.502 346.209 193.961Z" fill="url(#paint7_linear)"/>
<path d="M424.32 180.575C414.924 170.809 403.668 163.019 391.214 157.665C378.761 152.311 365.361 149.5 351.804 149.398C338.247 149.296 324.807 151.905 312.274 157.071C299.741 162.237 288.369 169.857 278.826 179.481C240.351 218.243 239.699 281.359 277.333 320.942C293.867 338.331 316.025 349.313 339.883 351.943C363.742 354.573 387.762 348.682 407.691 335.312L481.172 411.702C482.082 412.647 483.33 413.193 484.642 413.219C485.954 413.244 487.223 412.748 488.169 411.839L506.481 394.244C507.427 393.334 507.972 392.087 507.998 390.776C508.024 389.464 507.527 388.197 506.618 387.251L433.13 310.867C447.219 291.578 454.058 267.946 452.447 244.119C450.836 220.293 440.877 197.795 424.32 180.575V180.575ZM401.431 303.333C391.064 313.293 377.975 319.957 363.818 322.483C349.661 325.009 335.072 323.282 321.897 317.523C308.722 311.763 297.552 302.228 289.799 290.124C282.046 278.02 278.059 263.891 278.342 249.523C278.625 235.154 283.164 221.192 291.387 209.402C299.61 197.612 311.147 188.524 324.538 183.286C337.93 178.048 352.575 176.897 366.622 179.976C380.668 183.056 393.485 190.229 403.453 200.589C410.071 207.468 415.269 215.582 418.749 224.468C422.229 233.354 423.924 242.839 423.736 252.38C423.548 261.92 421.482 271.331 417.655 280.074C413.828 288.816 408.315 296.72 401.431 303.333V303.333Z" fill="#FDC503"/>
<path d="M297.183 230.781C289.006 230.781 288.993 243.483 297.183 243.483C305.374 243.483 305.374 230.781 297.183 230.781Z" fill="#FDC503"/>
<path d="M354.185 190.103C332.176 189.608 312.149 200.641 301.5 217.298C298.024 222.733 307.891 227.536 311.347 222.127C320.164 208.337 336.917 199.579 355.039 200.035C374.029 200.511 391.31 211.368 400.459 226.435C403.928 232.15 413.025 226.956 409.589 221.273C398.444 202.974 376.924 190.592 354.185 190.103Z" fill="#FDC503"/>
</g>
<defs>
<filter id="filter0_d" x="55.249" y="42.5238" width="299.3" height="395.007" filterUnits="userSpaceOnUse" color-interpolation-filters="sRGB">
<feFlood flood-opacity="0" result="BackgroundImageFix"/>
<feColorMatrix in="SourceAlpha" type="matrix" values="0 0 0 0 0 0 0 0 0 0 0 0 0 0 0 0 0 0 127 0"/>
<feOffset dy="4"/>
<feGaussianBlur stdDeviation="4"/>
<feColorMatrix type="matrix" values="0 0 0 0 0 0 0 0 0 0 0 0 0 0 0 0 0 0 0.25 0"/>
<feBlend mode="normal" in2="BackgroundImageFix" result="effect1_dropShadow"/>
<feBlend mode="normal" in="SourceGraphic" in2="effect1_dropShadow" result="shape"/>
</filter>
<filter id="filter1_d" x="99.7388" y="23.7586" width="367.791" height="442.921" filterUnits="userSpaceOnUse" color-interpolation-filters="sRGB">
<feFlood flood-opacity="0" result="BackgroundImageFix"/>
<feColorMatrix in="SourceAlpha" type="matrix" values="0 0 0 0 0 0 0 0 0 0 0 0 0 0 0 0 0 0 127 0"/>
<feOffset dy="4"/>
<feGaussianBlur stdDeviation="4"/>
<feColorMatrix type="matrix" values="0 0 0 0 0 0 0 0 0 0 0 0 0 0 0 0 0 0 0.25 0"/>
<feBlend mode="normal" in2="BackgroundImageFix" result="effect1_dropShadow"/>
<feBlend mode="normal" in="SourceGraphic" in2="effect1_dropShadow" result="shape"/>
</filter>
<linearGradient id="paint0_linear" x1="28509.7" y1="43107.1" x2="28509.7" y2="26181.2" gradientUnits="userSpaceOnUse">
<stop stop-color="#808080" stop-opacity="0.25"/>
<stop offset="0.54" stop-color="#808080" stop-opacity="0.12"/>
<stop offset="1" stop-color="#808080" stop-opacity="0.1"/>
</linearGradient>
<linearGradient id="paint1_linear" x1="26183.8" y1="23782.2" x2="26183.8" y2="17209.2" gradientUnits="userSpaceOnUse">
<stop stop-color="#808080" stop-opacity="0.25"/>
<stop offset="0.54" stop-color="#808080" stop-opacity="0.12"/>
<stop offset="1" stop-color="#808080" stop-opacity="0.1"/>
</linearGradient>
<linearGradient id="paint2_linear" x1="28509.7" y1="64951.7" x2="28509.7" y2="48025.8" gradientUnits="userSpaceOnUse">
<stop stop-color="#808080" stop-opacity="0.25"/>
<stop offset="0.54" stop-color="#808080" stop-opacity="0.12"/>
<stop offset="1" stop-color="#808080" stop-opacity="0.1"/>
</linearGradient>
<linearGradient id="paint3_linear" x1="26183.8" y1="37445.9" x2="26183.8" y2="30872.9" gradientUnits="userSpaceOnUse">
<stop stop-color="#808080" stop-opacity="0.25"/>
<stop offset="0.54" stop-color="#808080" stop-opacity="0.12"/>
<stop offset="1" stop-color="#808080" stop-opacity="0.1"/>
</linearGradient>
<linearGradient id="paint4_linear" x1="50140.4" y1="114634" x2="55720.6" y2="86536.1" gradientUnits="userSpaceOnUse">
<stop stop-color="#808080" stop-opacity="0.25"/>
<stop offset="0.54" stop-color="#808080" stop-opacity="0.12"/>
<stop offset="1" stop-color="#808080" stop-opacity="0.1"/>
</linearGradient>
<linearGradient id="paint5_linear" x1="370.794" y1="417.079" x2="370.794" y2="153.257" gradientUnits="userSpaceOnUse">
<stop stop-color="#B3B3B3" stop-opacity="0.25"/>
<stop offset="0.54" stop-color="#B3B3B3" stop-opacity="0.1"/>
<stop offset="1" stop-color="#B3B3B3" stop-opacity="0.05"/>
</linearGradient>
<linearGradient id="paint6_linear" x1="289.208" y1="247.341" x2="289.208" y2="234.646" gradientUnits="userSpaceOnUse">
<stop stop-opacity="0.12"/>
<stop offset="0.55" stop-opacity="0.09"/>
<stop offset="1" stop-opacity="0.02"/>
</linearGradient>
<linearGradient id="paint7_linear" x1="85217.4" y1="19015.1" x2="85217.4" y2="16701.8" gradientUnits="userSpaceOnUse">
<stop stop-opacity="0.12"/>
<stop offset="0.55" stop-opacity="0.09"/>
<stop offset="1" stop-opacity="0.02"/>
</linearGradient>
<clipPath id="clip0">
<rect width="508" height="464" fill="white"/>
</clipPath>
</defs>
</svg>
