<svg width="1188" height="697" viewBox="0 0 1188 697" fill="none" xmlns="http://www.w3.org/2000/svg">
<g clip-path="url(#clip0)">
<path d="M354.36 165.86C354.36 165.86 501.36 171.86 521.36 165.86C521.36 165.86 510.36 411.86 514.36 419.86C514.36 419.86 351.36 428.86 339.36 419.86C327.36 410.86 354.36 165.86 354.36 165.86Z" fill="white" stroke="#33313F" stroke-width="3" stroke-miterlimit="10"/>
<path d="M376.36 211.86C376.341 211.876 419.64 283.14 436 293.5Z" fill="white"/>
<path d="M376.36 211.86C376.341 211.876 419.64 283.14 436 293.5" stroke="#33313F" stroke-width="3" stroke-miterlimit="10"/>
<path d="M467.36 211.86C467.36 211.86 402.36 296.86 392.36 325.86Z" fill="white"/>
<path d="M467.36 211.86C467.36 211.86 402.36 296.86 392.36 325.86" stroke="#33313F" stroke-width="3" stroke-miterlimit="10"/>
<path d="M461.36 370.86H382.36C376.36 370.86 376.36 398.86 376.36 398.86H461.36V370.86Z" fill="white" stroke="#33313F" stroke-width="3" stroke-miterlimit="10"/>
<path d="M630.36 165.86C630.36 165.86 771.36 158.86 797.36 165.86C797.36 165.86 786.36 411.86 790.36 419.86C790.36 419.86 610.2 433.95 615.36 419.86C626.36 389.86 630.36 165.86 630.36 165.86Z" fill="white" stroke="#33313F" stroke-width="3" stroke-miterlimit="10"/>
<path d="M685.31 184.62C685.31 184.62 716.69 234.47 727.31 239.08Z" fill="white"/>
<path d="M685.31 184.62C685.31 184.62 716.69 234.47 727.31 239.08" stroke="#33313F" stroke-width="3" stroke-miterlimit="10"/>
<path d="M727.31 184.62C727.31 184.62 697.31 223.85 692.69 237.24Z" fill="white"/>
<path d="M727.31 184.62C727.31 184.62 697.31 223.85 692.69 237.24" stroke="#33313F" stroke-width="3" stroke-miterlimit="10"/>
<path d="M763.12 270.86H657.12C649.12 270.86 649.12 298.86 649.12 298.86H763.12V270.86Z" fill="white" stroke="#33313F" stroke-width="3" stroke-miterlimit="10"/>
<path d="M748.65 359.86H669.65C663.65 359.86 663.65 387.86 663.65 387.86H748.65V359.86Z" fill="white" stroke="#33313F" stroke-width="3" stroke-miterlimit="10"/>
<path d="M763.12 311.86C771.17 311.86 666.5 320.86 657.12 311.86C652.18 307.13 649.12 339.86 649.12 339.86H763.12V311.86Z" fill="white" stroke="#33313F" stroke-width="3" stroke-miterlimit="10"/>
<path d="M695.87 373.36L701.87 379.36L712.87 364.36" fill="white"/>
<path d="M695.87 373.36L701.87 379.36L712.87 364.36" stroke="#33313F" stroke-width="3" stroke-miterlimit="10"/>
<path d="M899.36 167.86C899.36 167.86 1039.36 184.86 1066.36 167.86C1066.36 167.86 1055.36 413.86 1059.36 421.86C1059.36 421.86 873.56 432.27 884.36 421.86C911.36 395.86 899.36 167.86 899.36 167.86Z" fill="white" stroke="#33313F" stroke-width="3" stroke-miterlimit="10"/>
<path d="M918.81 211.36C918.81 211.36 938.98 243.36 945.81 246.36Z" fill="white"/>
<path d="M918.81 211.36C918.81 211.36 938.98 243.36 945.81 246.36" stroke="#33313F" stroke-width="3" stroke-miterlimit="10"/>
<path d="M945.81 211.36C945.81 211.36 926.53 236.62 923.6 245.18Z" fill="white"/>
<path d="M945.81 211.36C945.81 211.36 926.53 236.62 923.6 245.18" stroke="#33313F" stroke-width="3" stroke-miterlimit="10"/>
<path d="M1034.12 277.36H928.12C920.12 277.36 920.12 292.18 920.12 292.18H1034.12V277.36Z" fill="white" stroke="#33313F" stroke-width="3" stroke-miterlimit="10"/>
<path d="M976.33 321.36H1031.54C1039.54 321.36 1039.54 336.18 1039.54 336.18H1039.78" fill="white"/>
<path d="M976.33 321.36H1031.54C1039.54 321.36 1039.54 336.18 1039.54 336.18H1039.78" stroke="#33313F" stroke-width="3" stroke-miterlimit="10"/>
<path d="M1034.12 299.05C1042.17 299.05 937.5 303.81 928.12 299.05C923.18 296.55 920.12 313.86 920.12 313.86H1034.12V299.05Z" fill="white" stroke="#33313F" stroke-width="3" stroke-miterlimit="10"/>
<path d="M900.2 186.62C900.2 186.62 1055.4 198.09 1065.38 190.47Z" fill="white"/>
<path d="M900.2 186.62C900.2 186.62 1055.4 198.09 1065.38 190.47" stroke="#33313F" stroke-width="3" stroke-miterlimit="10"/>
<path d="M1045.85 179.53C1047.97 179.08 1050.15 179.72 1052.3 180.05C1054.45 180.38 1056.89 180.34 1058.45 178.84" fill="white"/>
<path d="M1045.85 179.53C1047.97 179.08 1050.15 179.72 1052.3 180.05C1054.45 180.38 1056.89 180.34 1058.45 178.84" stroke="#33313F" stroke-width="2" stroke-miterlimit="10"/>
<path d="M1044.78 183.47C1049.26 184.259 1053.82 184.511 1058.36 184.22Z" fill="white"/>
<path d="M1044.78 183.47C1049.26 184.259 1053.82 184.511 1058.36 184.22" stroke="#33313F" stroke-width="2" stroke-miterlimit="10"/>
<path d="M1044.76 189.06C1048.6 188.408 1052.48 187.974 1056.37 187.76Z" fill="white"/>
<path d="M1044.76 189.06C1048.6 188.408 1052.48 187.974 1056.37 187.76" stroke="#33313F" stroke-width="2" stroke-miterlimit="10"/>
<path d="M908.93 181.62C910.808 182.488 912.863 182.903 914.93 182.83C916.233 183.008 917.558 182.721 918.67 182.02C919.98 180.96 920.09 179.02 920.09 177.33C920.128 176.817 920.053 176.301 919.87 175.82C919.618 175.359 919.249 174.973 918.8 174.7C916.33 172.98 911.74 172.28 908.85 173.45C904.89 175.05 905.53 179.77 908.93 181.62Z" fill="white" stroke="#33313F" stroke-width="2" stroke-miterlimit="10"/>
<path d="M953.18 205.1C952.6 212.5 954.37 219.85 955.56 227.18C957.061 236.433 957.657 245.811 957.34 255.18C941.56 256.14 925.76 256.37 909.94 255.87C911.41 255.92 911.04 222.43 911.18 219.35C911.36 215.41 910.52 208.63 915.09 207.15C919.89 205.58 926.65 206.55 931.69 206.31C938.85 205.977 946.013 205.573 953.18 205.1Z" fill="white" stroke="#33313F" stroke-width="3" stroke-miterlimit="10"/>
<path d="M544.36 280.86C544.36 280.86 583.36 278.86 590.36 280.86" stroke="#33313F" stroke-width="3" stroke-miterlimit="10"/>
<path d="M590.36 259.86C590.36 259.86 607.36 276.86 607.36 280.86C607.36 284.86 585.36 298.86 585.36 298.86" stroke="#33313F" stroke-width="3" stroke-miterlimit="10"/>
<path d="M814.36 280.86C814.36 280.86 853.36 278.86 860.36 280.86" stroke="#33313F" stroke-width="3" stroke-miterlimit="10"/>
<path d="M860.36 259.86C860.36 259.86 877.36 276.86 877.36 280.86C877.36 284.86 855.36 298.86 855.36 298.86" stroke="#33313F" stroke-width="3" stroke-miterlimit="10"/>
<path d="M1075.09 386.76C1075.06 385.551 1074.91 384.349 1074.64 383.17C1073.73 379.8 1071.71 375.71 1068.36 374.69C1064.92 373.632 1061.59 372.225 1058.43 370.49C1057.82 359.77 1060.29 348.8 1057.6 338.41C1056.6 334.61 1054.96 330.97 1054.51 327.07C1053.96 322.24 1055.29 317.07 1053.36 312.61C1051.84 309.1 1048.5 306.61 1044.9 305.31C1041.3 304.01 1037.44 303.67 1033.63 303.31C1028.83 302.91 1013.29 301.07 1007.88 305.37C1007.5 305.658 1007.17 305.994 1006.88 306.37V306.37C1006.76 306.533 1006.64 306.707 1006.55 306.89C1006.55 306.916 1006.55 306.943 1006.55 306.97C1006.45 307.181 1006.36 307.398 1006.28 307.62V307.62C1006.2 307.861 1006.15 308.108 1006.12 308.36C1006.11 308.443 1006.11 308.527 1006.12 308.61C1006.11 308.786 1006.11 308.963 1006.12 309.14V309.4C1006.12 309.59 1006.12 309.77 1006.12 309.95C1006.12 310.13 1006.12 310.1 1006.12 310.17C1006.19 311.06 1006.33 311.97 1006.33 312.86C1006.34 313.303 1006.3 313.746 1006.21 314.18C1005.87 315.355 1005.31 316.453 1004.55 317.41V317.41L1004.37 317.67L1004.04 318.15L1003.78 318.56L1003.56 318.92C1003.46 319.09 1003.38 319.26 1003.29 319.44L1003.14 319.72C1003.02 319.995 1002.92 320.28 1002.84 320.57C1002.63 321.44 1002.63 322.35 1002.84 323.22C1003.11 324.343 1003.57 325.412 1004.2 326.38C1004.45 326.79 1004.73 327.19 1005.01 327.59C1005.29 327.99 1005.47 328.22 1005.71 328.53C1005.57 329.46 1005.5 330.399 1005.49 331.34C1005.49 334.471 1006.2 337.561 1007.57 340.376C1008.94 343.191 1010.94 345.658 1013.4 347.59C1013.79 351.813 1013.75 356.065 1013.27 360.28C1013.17 361.17 1013.07 362.05 1012.95 362.93C1012.83 363.81 1012.73 364.4 1012.62 365.13C1011.15 365.336 1009.66 365.22 1008.24 364.79C1007.59 364.498 1006.92 364.241 1006.24 364.02C1003.32 363.3 1000.35 366.2 997.48 365.32C997.48 365.45 997.39 365.58 997.35 365.72C996.747 365.35 996.057 365.146 995.35 365.13C993.65 365.05 992.25 363.81 991.01 362.64L987.21 359.05C986.959 358.833 986.737 358.584 986.55 358.31C986.343 357.922 986.188 357.509 986.09 357.08C985.282 355.057 984.019 353.247 982.4 351.79C982.113 351.43 981.732 351.157 981.3 351C981.138 350.97 980.972 350.97 980.81 351C980.7 350.86 980.6 350.72 980.48 350.59C980.21 350.3 979.93 350.02 979.64 349.76C977.83 348.08 977.64 346.64 976.06 344.76C974.683 342.968 973.436 341.08 972.33 339.11C972.19 338.11 972.01 336.99 971.79 335.89C971.29 333.398 970.561 330.957 969.61 328.6L970.98 327.1V325.61L973.42 322.76L973.25 322.61L976.25 319.79L973.25 319.68L971.85 321.62L971.74 321.52L969.24 324.02L967.49 324.22L967.26 324.46C965.81 322.3 964.26 321.12 962.88 321.4C960.55 321.88 959.39 326.4 959.76 332.31L952.83 339.56L952.05 340.38L948.47 344.97L951.28 347.67L955.59 343.67L956.28 342.92L960.57 338.27C960.57 338.42 960.64 338.57 960.67 338.72C960.532 339.432 960.458 340.155 960.45 340.88C960.45 341.73 961.24 342.34 961.64 343.1C962.305 344.112 962.654 345.299 962.64 346.51C962.64 346.93 962.46 347.34 962.45 347.77C962.499 348.706 962.822 349.607 963.38 350.36C965.053 353.16 966.72 355.96 968.38 358.76C968.72 359.35 969.08 359.94 969.38 360.52C969.383 360.55 969.383 360.58 969.38 360.61C969.696 361.221 970.156 361.746 970.72 362.14C970.916 364.246 971.474 366.303 972.37 368.22C972.55 368.59 972.74 368.96 972.94 369.32C974.281 371.526 975.861 373.579 977.65 375.44L980.04 378.11C982.38 380.74 984.73 383.36 987.28 385.79C988.196 386.759 989.302 387.529 990.53 388.05C991.127 388.293 991.778 388.373 992.416 388.282C993.053 388.191 993.656 387.931 994.16 387.53C994.16 388.77 994.16 390.01 994.16 391.24C994.514 391.301 994.851 391.434 995.152 391.63C995.453 391.826 995.711 392.081 995.91 392.38C996.042 392.73 996.095 393.106 996.066 393.479C996.036 393.852 995.925 394.214 995.74 394.54C993.65 399.93 991.53 405.36 988.34 410.2C990.586 411.523 992.667 413.107 994.54 414.92C995.763 416.269 996.848 417.736 997.78 419.3C997.86 420.03 997.93 420.77 997.98 421.5C998.72 433.42 994.11 445.25 989.98 456.61C988.8 459.82 987.49 463.2 987.6 466.54C986.815 467.029 986.063 467.57 985.35 468.16C986.17 470.29 985.85 472.16 985.77 474.49C985.737 475.863 985.452 477.219 984.93 478.49C984.54 479.38 983.93 480.21 983.5 481.06C980.91 485.63 980.33 491.06 979.81 496.27C979.5 499.43 980.73 503.27 979.29 506.09C976.83 510.94 974.64 516.09 974.24 521.47C974.226 522.683 974.076 523.891 973.79 525.07C973.48 526.07 972.92 526.92 972.64 527.9C972.354 529.213 972.29 530.565 972.45 531.9C972.638 536.694 971.922 541.481 970.34 546.01C969.09 549.59 967.72 553.41 968.7 557.08C966.286 559.609 964.795 562.879 964.47 566.36C964.441 567.251 964.33 568.138 964.14 569.01C963.836 569.903 963.437 570.762 962.95 571.57C960.937 575.237 959.992 579.393 960.22 583.57C957.22 587.63 955.73 592.66 954.84 597.65C953.95 602.64 953.55 607.72 952.41 612.65C950.9 619.18 948.15 625.77 947.6 632.44C944.36 634.52 942.97 638.53 942.34 642.32C941.71 646.11 941.62 650.08 940.04 653.59C939.22 655.41 938.04 657.04 937.26 658.89C936.706 660.369 936.301 661.9 936.05 663.46C935.57 665.91 935.15 668.62 935.75 670.96C934.903 671.862 933.913 672.619 932.82 673.2C932.97 672.58 933.11 671.95 933.21 671.32C930.63 673.67 925.96 672.85 923.89 675.66C923.277 676.567 923.038 677.677 923.224 678.756C923.411 679.836 924.008 680.801 924.89 681.45C925.539 681.842 926.239 682.141 926.97 682.34C931.92 683.93 937.11 685.55 942.24 684.7C942.848 684.629 943.436 684.439 943.97 684.14C944.643 683.653 945.194 683.016 945.58 682.28L947.89 678.62C949.732 679.173 951.605 679.614 953.5 679.94C953.687 681.533 953.817 683.133 953.89 684.74C954.89 684.94 956.23 684.99 956.7 684.07C956.845 683.719 956.907 683.339 956.88 682.96C956.88 682.24 956.97 681.3 957.04 680.34H957.24C960.292 680.46 963.328 679.842 966.09 678.54C965.01 669.69 968.54 661.03 971.61 652.65C974.84 643.83 977.61 634.84 980.39 625.86C982.39 619.55 984.61 613.42 986.56 607.1C989.04 599.1 991.517 591.1 993.99 583.1C995.08 579.58 996.16 576.1 997.41 572.6C1000.02 565.515 1003.11 558.619 1006.67 551.96C1007.67 550.08 1008.67 548.21 1009.5 546.24C1010.5 543.85 1011.21 541.35 1012 538.89C1013.75 533.819 1015.85 528.877 1018.29 524.1L1018.47 523.73C1019.28 527.04 1020.1 530.41 1020.63 533.73C1021.37 537.812 1021.42 541.989 1020.8 546.09C1020.32 548.88 1019.41 551.64 1019.53 554.46C1019.68 558.38 1021.76 561.92 1022.79 565.7C1023.45 568.522 1023.83 571.403 1023.92 574.3C1024.19 578.79 1026.64 583.84 1024.92 588.01C1019.58 601.22 1022.17 616.14 1019.11 630.01C1017.55 637.13 1012.74 643.83 1013.11 651.11C1013.38 656.277 1013.83 661.43 1014.47 666.57C1014.58 668.139 1014.95 669.68 1015.56 671.13C1015.97 671.902 1016.43 672.646 1016.93 673.36C1016.5 673.54 1016.12 673.99 1015.81 674.94C1015.35 676.188 1015.32 677.552 1015.72 678.819C1016.13 680.086 1016.94 681.184 1018.03 681.94C1018.93 682.424 1019.9 682.761 1020.91 682.94C1022.27 683.321 1023.68 683.516 1025.09 683.52C1025.53 683.498 1025.97 683.442 1026.4 683.35C1027.95 684.002 1029.53 684.57 1031.14 685.05C1031.14 685.463 1031.18 685.873 1031.26 686.28C1031.26 686.496 1031.31 686.709 1031.4 686.904C1031.49 687.099 1031.62 687.272 1031.79 687.41C1032.04 687.536 1032.31 687.588 1032.59 687.56H1038.02C1038.02 687.11 1038.02 686.65 1038.02 686.2C1038.64 686.266 1039.27 686.199 1039.87 686.005C1040.46 685.81 1041.01 685.491 1041.47 685.07C1041.96 684.465 1042.3 683.757 1042.47 683C1043.95 677.973 1045.42 672.95 1046.89 667.93C1047.56 665.807 1048.08 663.638 1048.44 661.44C1049.07 657.904 1049.27 654.304 1049.03 650.72C1047.11 632.29 1051.35 613.8 1049.97 595.32C1049.13 584.216 1049.71 573.051 1051.67 562.09C1052.12 559.61 1052.67 557.09 1052.87 554.62C1053.3 549.96 1052.77 545.25 1053.09 540.62C1053.21 539 1053.43 537.39 1053.63 535.78C1055.06 525.788 1055.85 515.713 1055.97 505.62C1055.95 502.278 1055.74 498.94 1055.36 495.62C1056.4 495.344 1057.34 494.791 1058.08 494.02C1058.98 492.85 1058.75 491.23 1058.74 489.75C1058.74 486.21 1060.23 482.86 1061.42 479.52C1062.96 474.932 1064.22 470.257 1065.21 465.52C1066.24 461.685 1066.81 457.74 1066.89 453.77C1066.89 453.37 1066.89 452.97 1066.83 452.56C1067.21 452.3 1067.52 451.958 1067.74 451.56C1068 450.975 1068.17 450.349 1068.22 449.71C1068.59 447.15 1068.95 444.6 1069.32 442.04C1069.58 440.207 1069.84 438.373 1070.11 436.54C1071.17 429.153 1072.23 421.76 1073.28 414.36C1073.56 412.43 1073.83 410.51 1074.11 408.58L1074.93 402.85C1075.03 402.17 1075.12 401.49 1075.2 400.8C1077.68 396.85 1075.34 391.4 1075.09 386.76ZM1048.6 469.84C1047.41 467.05 1046.31 464.18 1046.6 461.15H1046.5C1046.75 460.219 1046.71 459.231 1046.36 458.33C1046.05 457.59 1045.52 456.97 1045.19 456.25C1044.83 455.356 1044.65 454.402 1044.65 453.44C1044.4 447.362 1044.88 441.276 1046.07 435.31C1046.2 434.6 1046.34 433.9 1046.48 433.19C1046.89 432.948 1047.27 432.652 1047.61 432.31C1048.14 431.71 1048.57 431.036 1048.9 430.31C1050.03 428.043 1051.07 425.733 1052.02 423.38C1052.33 422.61 1052.78 421.74 1053.55 421.55C1053.39 427.4 1053.99 433.37 1051.55 438.65C1051.1 439.5 1050.76 440.409 1050.55 441.35C1050.33 442.83 1050.95 444.35 1050.73 445.83C1050.62 446.59 1050.29 447.31 1050.15 448.06C1050.05 448.434 1050.06 448.827 1050.16 449.199C1050.26 449.571 1050.46 449.909 1050.74 450.18C1050.87 450.278 1051.01 450.355 1051.16 450.41C1051.1 450.81 1051.05 451.22 1051.02 451.61C1050.93 452.43 1050.9 453.2 1050.85 453.68C1050.62 456.123 1050.52 458.577 1050.57 461.03C1050.57 463.68 1050.68 466.34 1050.63 469.03C1050.67 469.805 1050.54 470.58 1050.25 471.3C1050.05 471.672 1049.8 472.01 1049.49 472.3C1049.21 471.41 1048.89 470.62 1048.6 469.84Z" fill="url(#paint0_linear)"/>
<path d="M973.01 324.14L976.37 321.01L973.37 320.9L971.8 323.3L973.01 324.14Z" fill="#33313F"/>
<path d="M948.84 346.06L952.4 341.49L953.19 340.67L964.09 329.26L967.8 325.37L969.54 325.17L972.04 322.68L973.51 323.97L971.08 326.81L971.13 328.3L967.33 332.42L956.63 344.03L955.94 344.77L951.64 348.75L948.84 346.06Z" fill="#65617D"/>
<path d="M953.19 340.67L964.09 329.26L967.33 332.42L956.63 344.03L953.19 340.67Z" fill="#33313F"/>
<path d="M969.623 353.812C972.675 353.187 973.713 345.675 971.943 337.035C970.172 328.394 966.263 321.897 963.212 322.522C960.16 323.147 959.122 330.659 960.892 339.299C962.663 347.939 966.572 354.437 969.623 353.812Z" fill="#FBBEBE"/>
<path d="M1016.22 675.24C1015.78 676.479 1015.75 677.83 1016.15 679.084C1016.55 680.338 1017.35 681.426 1018.43 682.18C1019.33 682.661 1020.3 682.999 1021.31 683.18C1022.66 683.561 1024.06 683.756 1025.47 683.76C1027.21 683.67 1028.87 683 1030.59 682.76C1030.79 682.717 1031 682.749 1031.18 682.85C1031.27 682.942 1031.33 683.051 1031.37 683.17C1031.41 683.289 1031.42 683.415 1031.41 683.54C1031.43 684.527 1031.5 685.512 1031.63 686.49C1031.61 686.667 1031.62 686.848 1031.68 687.017C1031.74 687.186 1031.84 687.338 1031.97 687.462C1032.09 687.586 1032.25 687.678 1032.42 687.73C1032.59 687.781 1032.77 687.792 1032.95 687.76H1038.36C1038.49 682.997 1037.96 678.239 1036.79 673.62C1036.72 673.266 1036.58 672.927 1036.39 672.62C1035.94 672.112 1035.34 671.762 1034.67 671.62C1033.34 671.069 1031.91 670.82 1030.47 670.89C1028.73 671.11 1027.26 672.25 1025.77 673.19C1024.28 674.13 1022.25 674.96 1020.44 674.47C1018.63 673.98 1017.14 672.46 1016.22 675.24Z" fill="#3F3D56"/>
<path d="M936.6 670.85C935.08 672.479 933.214 673.747 931.14 674.56L930.21 675.01C930.146 675.029 930.086 675.062 930.035 675.105C929.983 675.147 929.941 675.2 929.91 675.26C929.891 675.337 929.889 675.417 929.905 675.495C929.921 675.573 929.953 675.646 930 675.71C930.768 676.892 931.899 677.791 933.224 678.273C934.548 678.755 935.993 678.792 937.34 678.38C937.939 678.231 938.494 677.943 938.96 677.54C939.719 676.63 940.155 675.494 940.2 674.31C940.492 673.093 940.44 671.819 940.05 670.63C938.69 667.49 938.18 668.91 936.6 670.85Z" fill="#FBBEBE"/>
<path d="M957.42 683.17C957.452 683.549 957.39 683.93 957.24 684.28C956.78 685.2 955.46 685.14 954.44 684.95C954.29 681.554 953.882 678.174 953.22 674.84C951.28 674.75 949.87 676.6 948.84 678.24L946.16 682.5C945.771 683.231 945.221 683.864 944.55 684.35C944.019 684.648 943.435 684.838 942.83 684.91C937.71 685.75 932.54 684.14 927.6 682.55C926.873 682.352 926.177 682.056 925.53 681.67C924.646 681.024 924.048 680.061 923.862 678.982C923.675 677.904 923.915 676.795 924.53 675.89C926.59 673.09 931.25 673.89 933.82 671.57C933.555 673.204 933.113 674.803 932.5 676.34C935.96 675.82 938.27 672.66 941.06 670.55C941.753 669.947 942.596 669.543 943.5 669.38C944.175 669.328 944.853 669.402 945.5 669.6C948.706 670.405 951.706 671.881 954.3 673.93C955.35 674.76 956.99 675.93 957.45 677.21C957.94 678.74 957.41 681.54 957.42 683.17Z" fill="#3F3D56"/>
<path d="M1026.21 353.22C1037.62 353.22 1046.87 343.97 1046.87 332.56C1046.87 321.15 1037.62 311.9 1026.21 311.9C1014.8 311.9 1005.55 321.15 1005.55 332.56C1005.55 343.97 1014.8 353.22 1026.21 353.22Z" fill="#FBBEBE"/>
<path d="M1066.91 454.55C1066.83 458.507 1066.26 462.439 1065.23 466.26C1064.26 470.998 1063 475.673 1061.46 480.26C1060.27 483.59 1058.77 486.93 1058.78 490.46C1058.78 491.93 1059.02 493.55 1058.13 494.72C1057.32 495.531 1056.31 496.108 1055.2 496.39C1054.65 496.536 1054.14 496.81 1053.72 497.188C1053.29 497.567 1052.96 498.04 1052.75 498.57C1051.81 497.172 1051.1 495.628 1050.66 494C1048.87 488.507 1047.21 482.983 1045.66 477.43C1045.52 477.111 1045.46 476.762 1045.48 476.414C1045.5 476.065 1045.61 475.728 1045.79 475.43C1046.05 475.206 1046.35 475.039 1046.67 474.94C1047.69 474.518 1048.63 473.911 1049.43 473.15C1049.81 472.818 1050.13 472.417 1050.36 471.97C1050.65 471.25 1050.78 470.475 1050.74 469.7C1050.74 467.06 1050.74 464.41 1050.68 461.77C1050.63 459.324 1050.72 456.876 1050.95 454.44C1050.95 453.95 1051.04 453.19 1051.12 452.37C1051.27 450.79 1051.57 448.98 1052.43 448.37C1053.69 447.51 1057.49 448.66 1058.94 448.85C1061.42 449.2 1063.89 449.6 1066.35 450.07C1066.7 451.538 1066.89 453.04 1066.91 454.55V454.55Z" fill="#3F3D56"/>
<path d="M983.48 355.7C982.68 357.3 980.76 358.06 979.28 359.08L974.21 362.56C973.871 362.862 973.476 363.094 973.047 363.241C972.617 363.389 972.163 363.45 971.71 363.42C971.298 363.268 970.92 363.034 970.599 362.734C970.277 362.433 970.02 362.072 969.84 361.67L969.78 361.58L968.78 359.83L963.78 351.45C963.227 350.694 962.904 349.795 962.85 348.86C962.85 348.44 963 348.03 963.05 347.61C963.055 346.403 962.708 345.222 962.05 344.21C961.65 343.45 960.84 342.84 960.87 342C960.827 340.893 961.018 339.789 961.43 338.76C961.954 337.813 962.703 337.009 963.61 336.42C964.08 336.08 964.61 335.76 965.06 335.42C965.33 335.242 965.627 335.11 965.94 335.03C966.76 334.86 967.58 335.54 968.42 335.57C972.04 337.99 973.42 342.57 976.27 345.88C977.87 347.75 978.03 349.19 979.84 350.88C980.134 351.139 980.411 351.416 980.67 351.71C981.037 352.096 981.343 352.534 981.58 353.01C981.9 353.86 983.9 354.88 983.48 355.7Z" fill="#3F3D56"/>
<path d="M1018.94 353.28C1020.43 356.43 1021.59 359.89 1021.16 363.35C1021.07 364.286 1020.78 365.192 1020.3 366C1018.86 368.21 1015.84 368.6 1013.2 368.74C1012.65 368.695 1012.09 368.761 1011.56 368.932C1011.04 369.104 1010.55 369.379 1010.13 369.74C1009.78 370.249 1009.6 370.863 1009.64 371.483C1009.67 372.102 1009.91 372.693 1010.32 373.16C1011.16 374.069 1012.21 374.757 1013.38 375.16C1017.54 377 1022.02 378.51 1026.55 378.08C1028.65 377.88 1030.69 377.28 1032.78 376.97C1035.05 376.729 1037.32 376.613 1039.6 376.62C1042.32 376.52 1045.03 376.25 1047.74 375.98L1054.91 375.27C1055.3 375.277 1055.68 375.138 1055.98 374.88C1056.52 374.26 1055.83 373.35 1055.18 372.88C1051.36 370.05 1046.51 368.12 1044.35 363.88C1043.35 361.88 1043.03 359.51 1042.29 357.34C1041.55 355.17 1040.37 353.24 1039.92 351.03C1039.67 349.103 1039.56 347.162 1039.59 345.22C1039.62 343.257 1038.91 341.356 1037.59 339.9C1036.17 338.57 1034.1 338.23 1032.15 338.14C1027.37 337.94 1022.29 339.08 1018.89 342.45C1017.98 343.36 1017.21 344.4 1016.26 345.27C1015.31 346.14 1014.05 346.33 1014.67 347.41C1015.29 348.49 1016.5 349.15 1017.16 350.11C1017.84 351.117 1018.43 352.177 1018.94 353.28V353.28Z" fill="#FBBEBE"/>
<path d="M1059.68 382.32C1058.43 390.017 1056.39 397.566 1053.6 404.85C1052.18 408.139 1050.98 411.516 1050 414.96C1049.22 418.06 1049.38 421.38 1048.66 424.49C1047.78 428.35 1046.9 432.24 1046.19 436.14C1045 442.089 1044.52 448.158 1044.77 454.22C1044.77 455.179 1044.96 456.129 1045.31 457.02C1045.64 457.74 1046.18 458.36 1046.48 459.09C1046.72 459.738 1046.82 460.429 1046.77 461.119C1046.72 461.808 1046.53 462.479 1046.21 463.09C1045.7 464.237 1045 465.294 1044.15 466.22C1034.82 469 1024.86 468.08 1015.15 468.67C1006.15 469.22 997.15 471.06 988.33 469.52C987.33 465.52 988.99 461.34 990.43 457.44C994.57 446.11 999.17 434.31 998.43 422.44C998.349 421.058 998.189 419.683 997.95 418.32C996.51 409.91 998.08 401.2 1000.61 393.04C1002.19 387.97 1002.12 382.55 1001.75 377.26C1001.57 375.545 1001.55 373.819 1001.68 372.1C1001.83 370.343 1002.48 368.667 1003.56 367.27L1003.71 367.06C1003.82 366.89 1004.15 366.99 1004.45 367.06C1004.53 367.093 1004.61 367.11 1004.7 367.11C1004.79 367.11 1004.87 367.093 1004.95 367.06C1004.98 367.026 1005.02 367.002 1005.06 366.99C1005.1 366.963 1005.15 366.949 1005.21 366.949C1005.26 366.949 1005.31 366.963 1005.35 366.99C1005.58 367.14 1005.7 367.61 1006.2 367.7C1006.94 367.815 1007.68 367.888 1008.43 367.92C1009.33 367.946 1010.22 368.073 1011.09 368.3H1011.21C1012.51 368.515 1013.84 368.401 1015.09 367.97C1015.92 367.762 1016.72 367.453 1017.47 367.05C1018.08 366.803 1018.71 366.592 1019.35 366.42C1020.27 365.86 1020.07 363.28 1020.26 362.23C1020.36 361.167 1020.61 360.124 1021 359.13C1021.45 358.395 1022.08 357.784 1022.83 357.35C1023.58 356.916 1024.42 356.672 1025.28 356.64C1027.01 356.589 1028.73 356.743 1030.42 357.1C1034.14 357.63 1037.96 357.53 1041.63 358.39C1043.47 358.82 1045.47 359.48 1047.17 358.64C1047.62 358.74 1047.69 359.15 1047.69 359.64C1047.66 360.107 1047.56 360.567 1047.41 361.01C1046.78 363.77 1048.95 366.3 1050.94 368.31C1051.8 369.254 1052.82 370.048 1053.94 370.66C1054.94 371.12 1055.94 371.31 1056.94 371.81C1057.75 372.236 1058.44 372.867 1058.94 373.64C1059.52 374.518 1059.91 375.51 1060.08 376.55C1060.27 378.482 1060.14 380.433 1059.68 382.32V382.32Z" fill="#3F3D56"/>
<path opacity="0.1" d="M1059.68 382.32C1058.43 390.017 1056.39 397.566 1053.6 404.85C1052.18 408.139 1050.98 411.516 1050 414.96C1049.22 418.06 1049.38 421.38 1048.66 424.49C1047.78 428.35 1046.9 432.24 1046.19 436.14C1045.98 436.26 1045.77 436.36 1045.55 436.46C1044.31 437.056 1042.99 437.483 1041.63 437.73C1039.19 438.02 1036.72 437.939 1034.3 437.49L1020 435.62C1014.3 434.86 1008.23 433.93 1004 430.07C1001.66 427.95 1000.11 425.15 998.43 422.44C998.349 421.059 998.189 419.683 997.95 418.32C996.51 409.91 998.08 401.2 1000.61 393.04C1002.19 387.97 1002.12 382.55 1001.75 377.26C1001.57 375.546 1001.55 373.819 1001.68 372.1C1001.83 370.343 1002.48 368.667 1003.56 367.27C1003.85 367.182 1004.15 367.112 1004.45 367.06V367.06C1004.65 367.022 1004.86 366.998 1005.06 366.99H1005.35C1005.69 366.991 1006.02 367.031 1006.35 367.11C1007.02 367.28 1007.64 367.64 1008.3 367.88H1008.42C1009.28 368.157 1010.18 368.285 1011.08 368.26C1012.4 368.26 1013.76 368.04 1015.08 367.96C1016.71 367.701 1018.38 367.997 1019.82 368.8C1020.75 369.548 1021.63 370.357 1022.46 371.22C1023.47 371.999 1024.6 372.61 1025.8 373.03C1034.41 376.317 1043.95 376.113 1052.41 372.46C1053.23 372.006 1054.15 371.775 1055.08 371.79C1055.77 371.925 1056.43 372.2 1057.01 372.6C1057.6 372.95 1058.2 373.29 1058.8 373.6C1059.38 374.478 1059.77 375.47 1059.94 376.51C1060.18 378.447 1060.09 380.412 1059.68 382.32V382.32Z" fill="black"/>
<path d="M1068.38 375.7C1064.4 374.49 1060.58 372.812 1056.99 370.7C1056.41 370.295 1055.75 370.016 1055.06 369.88C1054.13 369.864 1053.2 370.099 1052.39 370.56C1043.93 374.204 1034.38 374.405 1025.78 371.12C1024.57 370.704 1023.45 370.092 1022.44 369.31C1021.61 368.449 1020.74 367.641 1019.81 366.89C1016.52 364.76 1011.97 367.27 1008.28 365.89C1007.64 365.6 1006.99 365.343 1006.33 365.12C1003.42 364.4 1000.46 367.29 997.59 366.42C996.522 369.31 995.738 372.298 995.25 375.34C994.843 378.832 994.626 382.344 994.6 385.86C994.54 387.96 994.49 390.07 994.6 392.18C994.954 392.242 995.291 392.374 995.592 392.57C995.893 392.766 996.151 393.021 996.35 393.32C996.479 393.668 996.531 394.039 996.502 394.409C996.473 394.779 996.363 395.137 996.18 395.46C994.09 400.84 991.98 406.26 988.8 411.08C991.04 412.403 993.114 413.987 994.98 415.8C998.49 419.5 1000.2 424.68 1003.98 428.1C1008.24 431.96 1014.32 432.89 1019.98 433.66L1034.26 435.62C1036.68 436.069 1039.15 436.15 1041.59 435.86C1042.95 435.613 1044.27 435.186 1045.51 434.59C1046.32 434.251 1047.06 433.763 1047.69 433.15C1048.21 432.549 1048.65 431.876 1048.98 431.15C1050.1 428.89 1051.14 426.58 1052.08 424.24C1052.42 423.41 1052.92 422.43 1053.82 422.37C1059.11 417.59 1064.12 412.69 1069.41 407.91C1071.54 406.145 1073.45 404.131 1075.1 401.91C1077.74 398.02 1075.34 392.5 1075.1 387.81C1075.08 386.605 1074.93 385.405 1074.66 384.23C1073.73 380.8 1071.71 376.72 1068.38 375.7Z" fill="#FED136"/>
<path opacity="0.1" d="M983.48 355.7C982.68 357.3 980.76 358.06 979.28 359.08L974.21 362.56C973.871 362.862 973.476 363.094 973.047 363.241C972.617 363.389 972.163 363.45 971.71 363.42C971.297 363.268 970.92 363.034 970.598 362.734C970.277 362.433 970.019 362.072 969.84 361.67C969.84 361.43 969.84 361.19 969.84 360.95C969.8 360.14 969.909 359.33 970.16 358.56C970.66 357.431 971.429 356.442 972.4 355.68C974.279 353.893 976.519 352.529 978.97 351.68C979.354 351.527 979.774 351.485 980.18 351.56C980.332 351.601 980.477 351.665 980.61 351.75C980.976 352.136 981.283 352.574 981.52 353.05C981.9 353.86 983.9 354.88 983.48 355.7Z" fill="black"/>
<path d="M995.42 366.27C993.72 366.19 992.33 364.95 991.1 363.78L987.3 360.2C987.047 359.985 986.825 359.736 986.64 359.46C986.44 359.074 986.289 358.664 986.19 358.24C985.379 356.224 984.121 354.418 982.51 352.96C982.22 352.604 981.84 352.331 981.41 352.17C981.003 352.098 980.583 352.143 980.2 352.3C977.749 353.149 975.509 354.513 973.63 356.3C972.654 357.058 971.884 358.048 971.39 359.18C971.139 359.951 971.03 360.76 971.07 361.57C971.091 364.226 971.688 366.847 972.82 369.25C973 369.62 973.18 369.99 973.38 370.35C974.724 372.546 976.299 374.591 978.08 376.45L980.46 379.12C982.8 381.73 985.14 384.35 987.69 386.77C988.597 387.741 989.697 388.511 990.92 389.03C991.536 389.281 992.21 389.357 992.866 389.249C993.522 389.141 994.136 388.855 994.64 388.42C995.123 387.868 995.484 387.221 995.7 386.52C997.25 382.52 998.7 378.37 998.79 374.06C998.82 372.334 998.75 370.608 998.58 368.89C998.41 367.06 997.13 366.35 995.42 366.27Z" fill="#FED136"/>
<path d="M1056.02 506.27C1055.97 516.329 1055.25 526.374 1053.89 536.34C1053.69 537.94 1053.47 539.55 1053.36 541.17C1053.03 545.83 1053.56 550.53 1053.13 555.17C1052.89 557.67 1052.38 560.17 1051.93 562.62C1049.97 573.552 1049.41 584.686 1050.24 595.76C1051.61 614.19 1047.39 632.63 1049.3 651.01C1049.54 654.584 1049.34 658.173 1048.72 661.7C1048.36 663.891 1047.84 666.053 1047.17 668.17C1045.7 673.183 1044.23 678.183 1042.77 683.17C1042.59 683.925 1042.25 684.632 1041.77 685.24C1041.26 685.685 1040.66 686.015 1040.02 686.208C1039.37 686.401 1038.69 686.453 1038.02 686.36C1032.25 686.17 1026.83 683.69 1021.59 681.25C1020.98 681.019 1020.43 680.68 1019.94 680.25C1018.85 679.12 1018.94 677.33 1018.46 675.85C1017.98 674.37 1016.67 672.96 1015.93 671.42C1015.33 669.973 1014.96 668.441 1014.84 666.88C1014.17 661.753 1013.72 656.613 1013.48 651.46C1013.11 644.2 1017.9 637.52 1019.48 630.46C1022.53 616.58 1019.95 601.7 1025.28 588.52C1026.95 584.37 1024.52 579.33 1024.28 574.85C1024.2 571.959 1023.82 569.085 1023.16 566.27C1022.16 562.5 1020.06 558.97 1019.91 555.07C1019.79 552.25 1020.7 549.5 1021.18 546.71C1021.79 542.622 1021.74 538.46 1021.01 534.39C1020.48 531.03 1019.66 527.67 1018.85 524.39L1018.67 524.76C1016.23 529.522 1014.14 534.451 1012.4 539.51C1011.61 541.96 1010.9 544.45 1009.9 546.84C1009.08 548.84 1008.08 550.66 1007.09 552.54C1003.54 559.178 1000.45 566.055 997.85 573.12C996.61 576.58 995.53 580.12 994.44 583.59C991.98 591.59 989.513 599.59 987.04 607.59C985.09 613.9 982.84 620 980.89 626.3C978.12 635.3 975.35 644.22 972.13 653.01C969.07 661.37 965.55 670.01 966.62 678.84C963.866 680.134 960.841 680.748 957.8 680.63C952.646 680.17 947.59 678.939 942.8 676.98C940.834 676.43 939.049 675.367 937.63 673.9C935.4 671.19 935.96 667.22 936.63 663.78C936.88 662.223 937.285 660.696 937.84 659.22C938.59 657.37 939.79 655.74 940.61 653.93C942.19 650.43 942.29 646.48 942.91 642.69C943.53 638.9 944.91 634.91 948.15 632.84C948.69 626.19 951.44 619.61 952.95 613.11C954.09 608.18 954.47 603.11 955.36 598.11C956.25 593.11 957.72 588.11 960.74 584.11C960.5 579.935 961.439 575.777 963.45 572.11C963.939 571.306 964.338 570.451 964.64 569.56C964.831 568.692 964.941 567.808 964.97 566.92C965.295 563.448 966.778 560.187 969.18 557.66C968.18 554 969.58 550.2 970.82 546.66C972.403 542.145 973.115 537.371 972.92 532.59C972.768 531.255 972.836 529.904 973.12 528.59C973.4 527.59 973.95 526.74 974.26 525.77C974.556 524.596 974.707 523.391 974.71 522.18C975.11 516.78 977.29 511.68 979.71 506.85C981.14 504.03 979.92 500.2 980.23 497.05C980.75 491.83 981.32 486.44 983.9 481.88C984.425 481.051 984.903 480.193 985.33 479.31C985.856 478.041 986.137 476.684 986.16 475.31C986.25 473.03 986.57 471.12 985.75 469C991.1 464.54 998.41 463.3 1005.36 463.05C1012.31 462.8 1019.36 463.38 1026.17 461.89C1028.17 461.45 1030.17 460.82 1032.28 460.52C1037.08 459.82 1041.93 460.92 1046.66 462C1046.33 465 1047.43 467.88 1048.61 470.67C1053.4 481.934 1055.91 494.032 1056.02 506.27V506.27Z" fill="#33313F"/>
<path d="M439.448 296.518L436.49 293.005L436.23 295.996L438.548 297.685L439.448 296.518Z" fill="#33313F"/>
<path d="M460.128 321.757L455.743 317.973L454.963 317.142L444.114 305.684L440.415 301.784L440.303 300.036L437.941 297.414L439.304 296.01L442.018 298.58L443.509 298.605L447.433 302.606L458.492 313.875L459.196 314.602L462.955 319.096L460.128 321.757Z" fill="#65617D"/>
<path d="M454.964 317.142L444.115 305.684L447.433 302.606L458.492 313.875L454.964 317.142Z" fill="#33313F"/>
<path d="M444.034 325.978C444.944 327.225 446.035 328.33 447.271 329.255C448.082 329.922 448.904 330.599 449.764 331.188L450.518 331.691C450.488 331.734 450.462 331.779 450.44 331.826C450.237 332.194 450.159 332.618 450.218 333.035C450.403 333.538 450.741 333.97 451.184 334.272C453.196 336.141 454.551 338.609 455.05 341.309C455.349 342.875 454.296 344.548 454.363 346.143C454.516 347.703 454.931 349.226 455.591 350.647C456.905 354.002 458.306 357.472 460.944 359.918C461.566 365.304 463.641 370.42 466.945 374.717C469.718 378.275 473.419 380.953 477.062 383.592C478.217 384.517 479.475 385.305 480.811 385.941C482.012 386.379 483.251 386.702 484.512 386.907C495.212 389.078 506.078 390.326 516.99 390.639C517.299 397.135 517.432 403.637 517.386 410.146C517.445 411.215 517.294 412.286 516.942 413.297C516.401 414.248 515.752 415.134 515.009 415.936C512.507 419.262 512.381 423.757 512.594 427.913C512.838 432.779 513.402 437.623 514.285 442.413C515.415 448.542 514.381 455.319 516.555 461.148C517.415 463.448 518.275 465.759 519.126 468.059C519.415 468.704 519.588 469.394 519.638 470.099C519.638 471.617 518.672 472.902 517.899 474.217C516.826 476.128 516.304 478.3 516.391 480.491C516.382 480.739 516.446 480.984 516.575 481.196C516.855 481.573 517.425 481.544 517.899 481.467C519.821 481.192 521.756 481.015 523.696 480.935C523.342 481.369 523.019 481.828 522.73 482.308C522.266 483.121 521.856 483.964 521.503 484.831C520.809 486.277 520.262 487.79 519.87 489.345C519.8 489.57 519.745 489.799 519.706 490.032C519.599 490.496 519.503 490.998 519.425 491.433C519.012 494.178 518.843 496.953 518.923 499.727C518.652 504.899 518.391 510.293 517.889 511.878C517.184 514.111 518.063 517.678 518.933 521.091C518.978 523.444 519.402 525.775 520.189 527.993C520.258 530.439 520.539 532.875 521.029 535.272C524.012 552.098 527.195 568.896 530.577 585.664C530.876 587.114 531.166 588.564 531.543 589.995C532.8 594.656 535 599.009 538.008 602.784C540.652 606.131 542.92 609.759 544.772 613.601C544.579 614.51 544.376 615.428 544.153 616.337C542.221 624.36 539.747 632.268 538.868 640.504C538.52 643.771 538.423 647.135 537.128 650.17C536.471 651.707 535.505 653.167 535.37 654.839C535.292 655.898 535.542 656.954 536.085 657.865L535.447 658.387L535.089 658.677C532.635 660.61 529.349 661.026 526.325 661.819C523.3 662.611 520.053 664.197 519.116 667.203C519.054 667.39 519.006 667.58 518.971 667.774C518.42 670.538 520.092 673.477 522.45 675.101C524.962 676.831 528.093 677.363 531.147 677.759C534.2 678.156 537.293 678.436 540.027 679.799C542.395 680.969 544.385 682.892 546.888 683.743L547.342 683.869C546.772 684.207 546.212 684.536 545.622 684.835C543.03 686.176 540.23 687.069 537.341 687.474C534.442 687.871 530.944 688.064 529.446 690.606C528.219 692.704 529.108 695.546 530.876 697.209C532.645 698.871 535.099 699.606 537.466 700.109C542.888 701.172 548.377 701.853 553.894 702.148L559.247 702.564C564.475 702.96 569.712 703.366 574.969 703.386C581.449 703.407 587.917 702.844 594.295 701.704C594.548 701.725 594.801 701.689 595.037 701.597C595.273 701.504 595.484 701.359 595.655 701.173C595.826 700.986 595.952 700.762 596.023 700.519C596.094 700.276 596.108 700.02 596.064 699.77C595.95 693.203 595.153 686.665 593.687 680.263C593.242 678.33 590.623 680.969 589.164 682.622C588.961 681.655 588.749 680.688 588.497 679.789L589.647 679.248C590.526 678.912 591.267 678.293 591.754 677.489C591.988 676.839 592.064 676.143 591.976 675.459C591.764 671.244 591.503 666.875 589.502 663.172C588.198 660.957 586.569 658.95 584.671 657.217C584.215 643.961 582.599 630.77 579.839 617.797C578.361 611.194 576.525 604.515 572.708 598.927C572.225 598.231 571.742 597.535 571.191 596.83C570.778 590.479 570.01 584.157 568.891 577.892C568.668 577.066 568.668 576.196 568.891 575.369C569.257 574.66 569.726 574.008 570.282 573.436C572.582 570.468 571.645 566.254 571.374 562.503C570.998 557.128 572.263 551.783 573.529 546.534L578.197 527.113C578.578 525.272 579.128 523.469 579.839 521.729C581.067 519.37 582.472 517.108 584.043 514.962C588.402 508.091 590.453 500.007 589.899 491.888C590.788 492.207 591.667 492.526 592.537 492.854C593.194 487.431 590.904 481.254 592.537 476.179C595.348 474.131 597.617 471.426 599.146 468.301C600.431 465.401 600.789 462.211 602.132 459.369C602.886 457.764 603.949 456.295 604.393 454.536C605.05 451.964 604.219 449.257 604.258 446.599C604.345 440.799 608.529 435.453 607.63 429.75C607.196 427.043 605.621 424.52 605.698 421.775C605.828 420.286 606.203 418.83 606.809 417.464C609.998 409.044 613.119 400.064 611.496 391.219C611.08 388.947 610.346 386.695 610.471 384.394C610.607 381.755 611.853 379.193 611.438 376.573C611.281 375.579 610.879 374.639 610.269 373.838C611.407 372.087 612.378 370.232 613.167 368.299C613.691 367.191 613.952 365.977 613.931 364.751C613.82 363.917 613.541 363.114 613.113 362.39C612.685 361.666 612.115 361.035 611.438 360.536C610.074 359.561 608.617 358.722 607.089 358.033C606.61 357.819 606.179 357.51 605.823 357.124C605.551 356.688 605.312 356.233 605.108 355.761C604.258 354.282 602.403 353.828 600.953 352.929C595.687 349.71 596.189 341.425 591.696 337.191C590.166 335.82 588.214 335.013 586.163 334.904C584.112 334.795 582.085 335.39 580.419 336.592C579.995 337.026 579.436 337.302 578.834 337.375C578.253 337.257 577.719 336.972 577.298 336.553C576.18 335.8 574.847 335.43 573.5 335.5C572.674 332.202 572.316 328.805 572.437 325.408H572.843C573.374 325.424 573.905 325.362 574.418 325.224C576.728 324.557 578.042 322.16 578.989 319.936C579.806 318.055 580.484 316.116 581.018 314.136C581.067 313.943 581.105 313.759 581.154 313.566C585.579 316.679 590.72 319.936 591.957 319.25C594.218 318.003 581.811 309.168 581.811 309.168C583.27 307.872 584.081 305.533 584.449 303.464C585.326 299.354 585.359 295.108 584.545 290.984C583.579 286.915 581.134 283.038 577.424 281.134C575.781 280.283 573.79 279.703 572.592 278.398C572.41 278.205 572.251 277.991 572.118 277.76V277.76C572.052 277.651 571.99 277.538 571.935 277.422C571.808 277.061 571.632 276.72 571.413 276.407C570.737 275.614 569.48 275.856 568.514 275.982H568.176H567.905H567.625C563.943 276.059 560.378 274 556.657 274C552.58 274 549.101 276.368 545.516 277.992C544.791 278.321 544.105 278.621 543.458 278.959C541.206 280.013 539.438 281.124 538.307 283.657C537.593 284.496 537.08 285.488 536.809 286.557C536.698 287.046 536.633 287.545 536.616 288.046C533.521 291.111 531.292 294.941 530.154 299.146C529.017 303.352 529.011 307.783 530.139 311.991C531.266 316.2 533.486 320.035 536.574 323.107C539.661 326.18 543.507 328.381 547.719 329.487C547.806 329.729 547.903 329.97 547.98 330.222C548.717 332.444 549.08 334.773 549.053 337.114C549.053 337.278 549.053 337.443 549.053 337.617C547.177 338.06 545.381 338.79 543.728 339.782C541.62 341.029 540.024 342.986 539.225 345.302C539.177 345.485 539.129 345.659 539.09 345.824C537.779 345.392 536.411 345.157 535.031 345.128C534.409 345.039 533.775 345.087 533.173 345.267C532.57 345.447 532.014 345.756 531.543 346.172C531.226 346.565 531.001 347.024 530.886 347.515C530.412 347.95 530.325 348.714 529.987 349.294C528.953 351.111 526.257 350.512 524.189 351.015C521.986 351.556 520.247 353.625 517.986 353.634C517.123 353.502 516.247 353.469 515.377 353.538C514.526 353.75 513.859 354.92 514.507 355.471C513.998 355.419 513.485 355.508 513.025 355.73C512.564 355.952 512.174 356.297 511.898 356.728C511.27 357.54 510.864 358.506 510.168 359.27C509.871 358.853 509.458 358.532 508.981 358.347C508.504 358.161 507.982 358.119 507.482 358.226C506.481 358.447 505.522 358.825 504.641 359.347C504.248 359.558 503.824 359.705 503.385 359.782C502.872 359.815 502.357 359.769 501.858 359.647C499.431 359.242 496.939 359.578 494.707 360.614C492.774 361.58 490.842 359.831 488.677 359.695C487.884 359.739 487.102 359.495 486.474 359.009C486.067 358.501 485.782 357.905 485.643 357.269C485.156 355.873 484.32 354.626 483.213 353.646C482.107 352.666 480.767 351.986 479.323 351.672C479.887 349.893 479.754 347.967 478.952 346.282C478.15 344.597 476.739 343.279 475.004 342.595C475.145 341.32 474.972 340.03 474.5 338.837C474.029 337.644 473.273 336.585 472.298 335.751C471.821 335.432 471.368 335.077 470.945 334.688C470.371 334.009 469.943 333.219 469.689 332.368C469.045 330.679 468.401 328.987 467.757 327.293C466.916 327.119 466.249 326.771 465.447 326.635C465.447 326.461 465.447 326.287 465.447 326.113C465.422 324.377 465.128 322.656 464.577 321.009C463.592 318.337 462.211 315.828 460.48 313.566C458.654 311.004 456.615 308.491 453.9 306.944C452.992 306.458 452.056 306.025 451.097 305.649L446.159 303.609C445.877 303.476 445.572 303.397 445.261 303.377C443.927 303.377 443.686 305.427 444.439 306.529C445.947 308.742 449.329 309.361 450.286 311.874C449.482 311.902 448.708 312.184 448.075 312.679C447.441 313.174 446.98 313.856 446.759 314.629C446.722 315.037 446.556 315.423 446.285 315.731C445.85 316.089 445.164 315.886 444.671 316.157C443.792 316.621 444.179 317.935 444.082 318.931C443.869 319.794 443.568 320.633 443.183 321.435C442.975 322.207 442.944 323.017 443.091 323.803C443.238 324.59 443.56 325.333 444.034 325.978V325.978ZM562.407 672.307L562.291 670.78C562.397 671.051 562.494 671.331 562.6 671.602C563.47 673.883 564.436 676.138 565.499 678.368L565.316 678.281C564.568 677.938 563.773 677.709 562.958 677.605C562.745 677.605 562.523 677.556 562.301 677.547C562.586 675.814 562.622 674.05 562.407 672.307V672.307Z" fill="url(#paint1_linear)"/>
<path d="M549.023 339.086C548.927 342.691 547.709 346.191 547.516 349.787C558.145 350.318 568.61 345.166 579.114 346.742C576.215 344.808 574.611 341.415 573.684 338.042C572.506 333.689 572.155 329.154 572.65 324.673C572.677 324.422 572.719 324.174 572.775 323.928C573.171 322.169 574.176 319.675 573.906 318.283C573.548 316.446 571.819 316.814 570.263 316.92C565.512 317.277 560.783 317.887 556.097 318.747C554.869 318.96 542.974 321.927 542.8 321.647C544.885 325.001 546.612 328.565 547.951 332.28C548.682 334.474 549.044 336.774 549.023 339.086Z" fill="#EE8E9E"/>
<path d="M444.034 327.94C444.942 329.19 446.033 330.295 447.271 331.217C448.083 331.875 448.904 332.551 449.764 333.151C451.309 334.337 453.145 335.082 455.079 335.306C457.601 335.48 462.974 333.992 464.549 331.826C465.208 330.736 465.521 329.473 465.448 328.201C465.423 326.475 465.129 324.763 464.578 323.126C463.592 320.463 462.211 317.963 460.481 315.712C458.655 313.169 456.616 310.666 453.9 309.129C452.994 308.642 452.058 308.212 451.098 307.843L446.16 305.794C445.878 305.66 445.573 305.582 445.261 305.562C443.928 305.562 443.686 307.601 444.44 308.694C445.947 310.898 449.33 311.516 450.286 314.02C449.484 314.041 448.709 314.317 448.074 314.81C447.44 315.302 446.979 315.983 446.759 316.756C446.722 317.164 446.556 317.55 446.286 317.858C445.851 318.206 445.165 318.012 444.672 318.273C443.793 318.737 444.179 320.052 444.082 321.038C443.867 321.897 443.566 322.733 443.184 323.532C442.991 324.284 442.967 325.069 443.114 325.832C443.261 326.594 443.575 327.314 444.034 327.94V327.94Z" fill="#EE8E9E"/>
<path d="M590.43 689.562C589.609 688.75 588.275 688.886 587.135 689.069C580.99 690.026 574.781 690.514 568.562 690.529C567.789 686.74 570.041 683.047 570.765 679.248C570.866 678.25 571.113 677.273 571.5 676.348C572.379 674.666 574.399 673.902 576.196 673.516C579.53 672.81 584.748 671.582 586.613 674.937C588.845 679.026 589.56 685.009 590.43 689.562Z" fill="#65617D"/>
<path d="M522.528 675.188C525.04 676.909 528.171 677.44 531.224 677.837C534.278 678.233 537.37 678.513 540.105 679.857C542.472 681.027 544.463 682.941 546.966 683.782C549.295 684.424 551.749 684.464 554.097 683.898C556.909 683.366 559.895 682.341 561.422 679.915C562.775 677.75 562.63 675.014 562.446 672.472C562.224 669.572 562.021 666.672 561.808 663.839C561.814 663.108 561.627 662.388 561.267 661.751C559.238 658.784 554.29 662.989 551.604 662.989C547.41 662.989 542.907 660.707 539.883 657.923C539.616 657.65 539.31 657.418 538.974 657.237C537.776 656.705 536.587 657.691 535.524 658.561L535.167 658.851C532.713 660.785 529.427 661.191 526.402 661.974C523.378 662.757 520.131 664.342 519.194 667.329C519.132 667.519 519.083 667.712 519.049 667.909C518.498 670.654 520.17 673.583 522.528 675.188Z" fill="#3F3D56"/>
<path opacity="0.05" d="M522.528 675.188C525.04 676.909 528.171 677.44 531.224 677.837C534.278 678.233 537.37 678.513 540.105 679.857C542.472 681.027 544.463 682.941 546.966 683.782C549.295 684.424 551.749 684.464 554.097 683.898C556.909 683.366 559.895 682.341 561.422 679.915C562.775 677.75 562.63 675.014 562.446 672.472C562.224 669.572 562.021 666.672 561.808 663.839C561.814 663.108 561.627 662.388 561.267 661.751C559.238 658.784 554.29 662.989 551.604 662.989C547.41 662.989 542.907 660.707 539.883 657.923C539.616 657.65 539.31 657.418 538.974 657.237C537.776 656.705 536.587 657.691 535.524 658.561L535.167 658.851C532.713 660.785 529.427 661.191 526.402 661.974C523.378 662.757 520.131 664.342 519.194 667.329C519.132 667.519 519.083 667.712 519.049 667.909C518.498 670.654 520.17 673.583 522.528 675.188Z" fill="black"/>
<path d="M522.527 676.155C525.04 677.875 528.171 678.407 531.224 678.803C534.278 679.2 537.37 679.48 540.105 680.824C542.472 681.993 544.463 683.907 546.965 684.748C549.294 685.391 551.748 685.431 554.097 684.864C557.088 684.228 559.715 682.453 561.422 679.915C562.774 677.75 562.629 675.014 562.446 672.472C562.224 669.572 562.021 666.672 561.808 663.839C561.814 663.108 561.627 662.388 561.267 661.751C559.238 658.784 554.29 662.989 551.604 662.989C547.41 662.989 542.907 660.707 539.882 657.923C539.616 657.65 539.31 657.418 538.974 657.237C537.776 656.705 536.587 657.691 535.524 658.561C536.212 660.713 537.187 662.761 538.423 664.651C539.436 666.243 540.791 667.59 542.389 668.593C543.986 669.596 545.788 670.231 547.661 670.451C549.536 670.587 551.459 670.219 553.275 670.703C555.092 671.186 556.774 673.042 556.174 674.801C555.575 676.561 553.324 676.899 551.498 676.996C548.948 677.288 546.366 677.105 543.883 676.454C542.395 675.961 540.984 675.14 539.593 674.521C533.437 671.979 525.678 673.4 520.604 669.098C520.123 668.656 519.602 668.258 519.049 667.909C517.715 670.693 520.17 674.55 522.527 676.155Z" fill="#E8EAF2"/>
<path opacity="0.05" d="M522.527 676.155C525.04 677.875 528.171 678.407 531.224 678.803C534.278 679.2 537.37 679.48 540.105 680.824C542.472 681.993 544.463 683.907 546.965 684.748C549.294 685.391 551.748 685.431 554.097 684.864C557.088 684.228 559.715 682.453 561.422 679.915C562.774 677.75 562.629 675.014 562.446 672.472C562.224 669.572 562.021 666.672 561.808 663.839C561.814 663.108 561.627 662.388 561.267 661.751C559.238 658.784 554.29 662.989 551.604 662.989C547.41 662.989 542.907 660.707 539.882 657.923C539.616 657.65 539.31 657.418 538.974 657.237C537.776 656.705 536.587 657.691 535.524 658.561C536.212 660.713 537.187 662.761 538.423 664.651C539.436 666.243 540.791 667.59 542.389 668.593C543.986 669.596 545.788 670.231 547.661 670.451C549.536 670.587 551.459 670.219 553.275 670.703C555.092 671.186 556.774 673.042 556.174 674.801C555.575 676.561 553.324 676.899 551.498 676.996C548.948 677.288 546.366 677.105 543.883 676.454C542.395 675.961 540.984 675.14 539.593 674.521C533.437 671.979 525.678 673.4 520.604 669.098C520.123 668.656 519.602 668.258 519.049 667.909C517.715 670.693 520.17 674.55 522.527 676.155Z" fill="black"/>
<path d="M589.233 487.992C591.19 497.613 589.329 507.618 584.043 515.89C582.471 518.035 581.066 520.297 579.84 522.657C579.128 524.388 578.579 526.18 578.197 528.012L573.53 547.346C572.264 552.566 570.998 557.882 571.375 563.228C571.646 566.959 572.583 571.155 570.283 574.103C569.728 574.677 569.259 575.328 568.892 576.036C568.67 576.86 568.67 577.727 568.892 578.55C571.249 592.576 572.998 607.241 568.737 620.813C564.872 633.118 564.649 646.748 561.364 659.209C561.097 660.793 560.391 662.27 559.325 663.472C558.444 664.207 557.389 664.706 556.262 664.922C551.43 666.082 546.309 664.729 541.767 662.631C538.598 661.162 535.177 658.581 535.447 655.091C535.583 653.438 536.549 651.978 537.206 650.451C538.501 647.454 538.598 644.1 538.946 640.852C539.825 632.703 542.337 624.824 544.231 616.849C546.125 608.874 547.42 600.542 545.816 592.499C542.536 575.865 537.277 559.684 530.152 544.301C529.844 543.484 529.355 542.747 528.722 542.145C527.993 541.72 527.302 541.235 526.654 540.695C526.146 539.937 525.816 539.075 525.688 538.172C524.982 535.63 522.885 533.754 521.475 531.512C517.919 525.866 519.049 518.636 519.184 511.966C519.31 505.489 518.373 498.944 519.436 492.545C520.499 486.146 524.161 479.601 530.326 477.6C533.38 476.634 536.684 476.837 539.883 477.146C556.89 478.828 573.337 481.902 589.233 487.992Z" fill="#303D5C"/>
<path opacity="0.05" d="M589.233 487.992C591.19 497.613 589.329 507.618 584.043 515.89C582.471 518.035 581.066 520.297 579.84 522.657C579.128 524.388 578.579 526.18 578.197 528.012L573.53 547.346C572.264 552.566 570.998 557.882 571.375 563.228C571.646 566.959 572.583 571.155 570.283 574.103C569.728 574.677 569.259 575.328 568.892 576.036C568.67 576.86 568.67 577.727 568.892 578.55C571.249 592.576 572.998 607.241 568.737 620.813C564.872 633.118 564.649 646.748 561.364 659.209C561.097 660.793 560.391 662.27 559.325 663.472C558.444 664.207 557.389 664.706 556.262 664.922C551.43 666.082 546.309 664.729 541.767 662.631C538.598 661.162 535.177 658.581 535.447 655.091C535.583 653.438 536.549 651.978 537.206 650.451C538.501 647.454 538.598 644.1 538.946 640.852C539.825 632.703 542.337 624.824 544.231 616.849C546.125 608.874 547.42 600.542 545.816 592.499C542.536 575.865 537.277 559.684 530.152 544.301C529.844 543.484 529.355 542.747 528.722 542.145C527.993 541.72 527.302 541.235 526.654 540.695C526.146 539.937 525.816 539.075 525.688 538.172C524.982 535.63 522.885 533.754 521.475 531.512C517.919 525.866 519.049 518.636 519.184 511.966C519.31 505.489 518.373 498.944 519.436 492.545C520.499 486.146 524.161 479.601 530.326 477.6C533.38 476.634 536.684 476.837 539.883 477.146C556.89 478.828 573.337 481.902 589.233 487.992Z" fill="black"/>
<path d="M520.266 528.65C520.323 531.171 520.607 533.682 521.117 536.152C524.099 552.907 527.282 569.615 530.664 586.274C530.963 587.724 531.253 589.174 531.63 590.585C532.885 595.226 535.086 599.557 538.095 603.306C552.164 620.851 553.382 646.323 561.006 667.484C561.528 668.914 562.04 670.384 562.591 671.766C563.969 675.351 565.54 678.859 567.297 682.274C567.502 682.771 567.835 683.205 568.263 683.53C568.74 683.763 569.271 683.863 569.799 683.82C576.667 683.862 583.452 682.321 589.628 679.316C590.506 678.984 591.247 678.368 591.735 677.566C591.968 676.92 592.045 676.227 591.957 675.546C591.744 671.35 591.484 667.01 589.483 663.317C588.176 661.116 586.547 659.122 584.652 657.401C584.197 644.215 582.58 631.095 579.82 618.193C578.342 611.62 576.506 604.979 572.689 599.42C569.877 595.322 565.838 591.271 566.33 586.322C566.553 584.147 567.461 581.44 565.693 580.164C564.92 579.604 563.76 579.536 563.258 578.734C563.045 578.359 562.929 577.937 562.919 577.506C562.554 574.112 562.763 570.68 563.538 567.356C564.185 565.183 564.692 562.972 565.055 560.734C565.228 559.612 565.169 558.466 564.883 557.368C564.598 556.269 564.09 555.24 563.393 554.344C563.296 549.82 563.393 545.132 563.335 540.618C563.155 538.049 563.367 535.467 563.963 532.962C564.311 531.782 564.833 530.651 565.094 529.443C566.06 525.103 563.683 519.902 566.485 516.461C567.654 515.04 569.461 514.324 570.988 513.29C573.99 511.105 576.168 507.972 577.172 504.397C578.163 500.846 578.75 497.194 578.921 493.512C579.004 492.731 579.004 491.944 578.921 491.163C578.868 490.761 578.76 490.367 578.603 489.993C577.733 488.06 575.385 487.267 573.298 486.765C560.037 483.586 546.445 481.996 532.809 482.028C527.765 478.596 524.924 479.824 522.788 483.468C521.606 485.686 520.651 488.018 519.938 490.428C518.971 493.386 518.904 509.907 517.947 512.874C516.739 516.731 520.315 524.61 520.266 528.65Z" fill="#303D5C"/>
<path d="M611.476 378.294C611.843 380.894 610.597 383.446 610.51 386.027C610.384 388.328 611.119 390.561 611.534 392.794C613.158 401.6 610.036 410.523 606.848 418.894C606.243 420.254 605.867 421.704 605.736 423.186C605.649 425.922 607.224 428.426 607.669 431.123C608.568 436.797 604.383 442.133 604.296 447.875C604.296 450.524 605.089 453.211 604.432 455.773C603.828 457.432 603.071 459.03 602.171 460.548C600.827 463.371 600.47 466.58 599.185 469.432C596.875 474.594 591.908 477.958 587.173 481.032C584.487 480.133 581.579 479.099 580.1 476.653C579.449 475.453 579.03 474.141 578.863 472.786C577.839 466.909 577.897 460.906 577.897 454.941C577.809 449.812 578.081 444.682 578.709 439.591C579.675 433.104 581.772 426.86 583.279 420.489C585.212 412.447 586.178 404.143 589.077 396.429C591.676 389.662 595.735 383.572 599.996 377.753C601.63 375.529 602.895 372.349 606.075 372.861C607.426 373.096 608.672 373.745 609.639 374.718C610.607 375.691 611.249 376.941 611.476 378.294V378.294Z" fill="#3F3D56"/>
<path opacity="0.05" d="M611.476 378.294C611.843 380.894 610.597 383.446 610.51 386.027C610.384 388.328 611.119 390.561 611.534 392.794C613.158 401.6 610.036 410.523 606.848 418.894C606.243 420.254 605.867 421.704 605.736 423.186C605.649 425.922 607.224 428.426 607.669 431.123C608.568 436.797 604.383 442.133 604.296 447.875C604.296 450.524 605.089 453.211 604.432 455.773C603.828 457.432 603.071 459.03 602.171 460.548C600.827 463.371 600.47 466.58 599.185 469.432C596.875 474.594 591.908 477.958 587.173 481.032C584.487 480.133 581.579 479.099 580.1 476.653C579.449 475.453 579.03 474.141 578.863 472.786C577.839 466.909 577.897 460.906 577.897 454.941C577.809 449.812 578.081 444.682 578.709 439.591C579.675 433.104 581.772 426.86 583.279 420.489C585.212 412.447 586.178 404.143 589.077 396.429C591.676 389.662 595.735 383.572 599.996 377.753C601.63 375.529 602.895 372.349 606.075 372.861C607.426 373.096 608.672 373.745 609.639 374.718C610.607 375.691 611.249 376.941 611.476 378.294V378.294Z" fill="black"/>
<path opacity="0.1" d="M542.8 321.609C544.885 324.963 546.612 328.527 547.951 332.242C549.864 332.713 551.827 332.95 553.797 332.948C561.45 332.948 566.871 328.598 571.364 323.097C571.751 321.328 574.176 319.685 573.906 318.264C573.548 316.427 571.819 316.795 570.263 316.901C565.512 317.258 560.783 317.868 556.097 318.728C554.869 318.95 542.974 321.918 542.8 321.609Z" fill="black"/>
<path d="M553.798 332.271C567.337 332.271 578.313 321.291 578.313 307.747C578.313 294.202 567.337 283.222 553.798 283.222C540.258 283.222 529.282 294.202 529.282 307.747C529.282 321.291 540.258 332.271 553.798 332.271Z" fill="#EE8E9E"/>
<path opacity="0.1" d="M522.788 483.468C527.03 483.217 531.301 483.381 535.563 483.555C538.226 483.583 540.882 483.855 543.496 484.367C546.714 485.102 549.729 486.571 552.898 487.489C557.991 488.968 563.354 489.036 568.62 489.548C572.082 489.888 575.521 490.427 578.921 491.163C578.867 490.76 578.76 490.367 578.602 489.993C577.733 488.06 575.385 487.267 573.297 486.764C560.036 483.586 546.445 481.996 532.809 482.028C527.794 478.596 524.953 479.795 522.788 483.468Z" fill="black"/>
<path d="M539.525 347.892C540.597 349.129 542.028 350.492 543.612 350.096C544.186 349.895 544.724 349.604 545.207 349.236C548.028 347.418 551.497 346.993 554.822 346.49C561.525 345.477 568.148 343.987 574.641 342.034C576.522 341.348 578.496 340.948 580.496 340.845C584.652 340.845 588.333 343.629 590.942 346.867C593.551 350.106 595.387 353.895 597.948 357.172C599.765 359.511 601.929 361.57 603.63 363.997C607.93 370.116 608.848 378.1 607.737 385.496C606.626 392.891 603.678 399.86 600.75 406.762C599.19 410.76 597.283 414.612 595.049 418.275C596.015 423.892 595.513 430.32 592.846 435.356C591.976 437 590.913 438.595 590.623 440.431C590.491 441.673 590.543 442.927 590.778 444.153L592.025 453.037C592.401 455.744 592.778 458.45 593.271 461.128C594.17 466.048 595.397 471.384 593.117 475.831C590.392 481.157 593.261 487.982 592.537 493.927C584.868 490.961 576.832 489.052 568.649 488.253C563.383 487.731 558.02 487.663 552.928 486.184C549.758 485.217 546.743 483.796 543.525 483.062C540.911 482.549 538.256 482.278 535.592 482.25C529.717 482.018 523.803 481.776 517.986 482.646C517.512 482.714 516.942 482.752 516.662 482.375C516.534 482.166 516.47 481.924 516.478 481.679C516.391 479.498 516.913 477.336 517.986 475.435C518.73 474.13 519.754 472.844 519.725 471.336C519.674 470.635 519.5 469.948 519.213 469.306L516.642 462.394C514.468 456.594 515.502 449.827 514.372 443.757C513.489 438.992 512.925 434.174 512.681 429.334C512.468 425.197 512.594 420.721 515.096 417.415C515.841 416.621 516.49 415.742 517.029 414.795C517.381 413.791 517.532 412.726 517.473 411.663C517.531 403.389 517.306 395.117 516.797 386.849C518.971 382.982 521.232 378.941 523.416 375.036C525.948 370.483 528.509 365.843 529.533 360.739C530.209 357.356 530.19 353.885 530.673 350.473C530.654 349.933 530.762 349.397 530.988 348.907C531.215 348.416 531.554 347.986 531.977 347.651C532.4 347.316 532.896 347.086 533.425 346.978C533.954 346.87 534.501 346.889 535.022 347.032C536.558 347.089 538.076 347.379 539.525 347.892V347.892Z" fill="#3F3D56"/>
<path opacity="0.1" d="M449.764 333.16C451.308 334.346 453.145 335.091 455.078 335.316C457.6 335.49 462.973 334.001 464.548 331.836C465.207 330.746 465.52 329.482 465.447 328.211C465.107 328.096 464.752 328.028 464.394 328.008C461.652 327.695 458.878 327.806 456.17 328.337C454.811 328.609 453.53 329.185 452.424 330.022C451.318 330.859 450.415 331.935 449.783 333.17C449.783 333.17 449.773 333.151 449.764 333.16Z" fill="black"/>
<path d="M531.34 386.201C529.842 388.057 528.286 389.971 526.17 391.035C523.735 392.301 520.865 392.33 518.121 392.272C506.824 392.031 495.571 390.792 484.493 388.57C483.233 388.36 481.994 388.037 480.792 387.603C479.458 386.967 478.2 386.182 477.043 385.264C473.4 382.644 469.699 379.966 466.925 376.428C463.634 372.165 461.566 367.085 460.944 361.735C458.306 359.299 456.905 355.848 455.591 352.513C454.933 351.097 454.518 349.581 454.363 348.027C454.296 346.442 455.33 344.779 455.049 343.194C454.546 340.507 453.191 338.053 451.184 336.195C450.739 335.9 450.401 335.47 450.218 334.968C450.161 334.555 450.239 334.134 450.44 333.769C451.076 332.537 451.979 331.463 453.085 330.626C454.19 329.79 455.469 329.212 456.827 328.936C459.539 328.41 462.315 328.299 465.06 328.607C465.972 328.78 466.87 329.019 467.747 329.322L469.679 334.368C469.934 335.217 470.362 336.004 470.936 336.679C471.358 337.068 471.811 337.423 472.288 337.742C473.257 338.564 474.009 339.61 474.481 340.789C474.953 341.969 475.129 343.246 474.994 344.509C476.727 345.181 478.139 346.49 478.942 348.167C479.744 349.845 479.877 351.765 479.314 353.538C480.755 353.847 482.093 354.522 483.199 355.497C484.306 356.472 485.144 357.714 485.633 359.106C485.773 359.739 486.057 360.331 486.464 360.836C487.094 361.318 487.875 361.561 488.667 361.522C490.832 361.648 492.726 363.359 494.697 362.431C496.929 361.396 499.422 361.059 501.848 361.464C502.349 361.577 502.862 361.622 503.375 361.6C503.814 361.522 504.238 361.375 504.631 361.165C505.515 360.647 506.473 360.269 507.472 360.043C507.973 359.939 508.493 359.982 508.97 360.168C509.446 360.353 509.859 360.672 510.158 361.087C510.854 360.333 511.26 359.367 511.888 358.555C512.166 358.127 512.557 357.784 513.017 357.564C513.478 357.344 513.99 357.255 514.497 357.308C513.85 356.728 514.497 355.568 515.367 355.374C516.237 355.31 517.112 355.343 517.976 355.471C520.237 355.471 521.976 353.402 524.18 352.861C526.209 352.368 528.905 352.958 529.977 351.15C530.345 350.512 530.422 349.642 531.05 349.217C531.472 349.005 531.954 348.95 532.413 349.062C533.852 349.245 535.25 349.67 536.548 350.319C538.674 358.622 537.515 367.245 535.94 375.674C535.346 379.523 533.761 383.152 531.34 386.201Z" fill="#3F3D56"/>
<path opacity="0.1" d="M531.398 415.994L541.96 437.261C540.82 435.328 538.414 434.525 536.51 433.269C534.097 431.526 532.278 429.083 531.301 426.27C530.343 423.469 529.676 420.576 529.311 417.638C529.098 416.284 528.644 414.39 529.311 413.172C530.519 413.423 530.905 414.97 531.398 415.994Z" fill="black"/>
<path opacity="0.1" d="M561.779 434.052C564.166 436.411 567.075 438.141 569.703 440.229C575.82 445.062 580.187 451.829 584.449 458.373C585.655 460.086 586.666 461.927 587.464 463.864C586.961 464.289 586.217 463.864 585.724 463.41L577.433 456.121C576.415 455.291 575.489 454.354 574.67 453.327C573.23 451.394 572.592 448.968 571.288 446.938C569.862 444.99 568.163 443.258 566.244 441.795C564.311 440.161 555.614 432.766 557.721 429.885C559.267 430.669 560.523 432.805 561.779 434.052Z" fill="black"/>
<path d="M543.67 341.735C546.388 340.229 549.364 339.245 552.444 338.834C554.272 338.418 556.152 338.285 558.02 338.438C559.75 338.651 561.402 339.318 563.141 339.405C565.576 339.54 567.915 338.554 570.273 337.907C572.631 337.259 575.346 337.017 577.327 338.438C577.748 338.856 578.282 339.142 578.863 339.26C579.465 339.187 580.024 338.91 580.448 338.477C582.117 337.282 584.142 336.691 586.191 336.8C588.241 336.909 590.192 337.711 591.725 339.076C596.218 343.291 595.716 351.527 600.982 354.727C602.432 355.606 604.287 356.07 605.137 357.549C605.351 358.039 605.603 358.511 605.891 358.961C606.245 359.347 606.676 359.653 607.157 359.86C608.687 360.545 610.144 361.384 611.505 362.363C612.182 362.856 612.752 363.481 613.18 364.201C613.609 364.92 613.887 365.719 613.998 366.549C614.019 367.768 613.758 368.976 613.235 370.077C610.654 376.401 606.18 381.77 600.428 385.45C594.675 389.129 587.926 390.938 581.105 390.629C579.895 390.687 578.703 390.314 577.742 389.575C577.238 389.006 576.839 388.351 576.563 387.642C574.08 382.451 569.432 378.613 566.475 373.673C564.716 370.725 563.576 367.438 561.76 364.538C558.977 360.14 554.754 356.892 550.618 353.75C548.289 351.972 545.69 350.106 542.762 350.232C540.153 350.338 538.249 350.483 539.206 347.274C539.988 344.955 541.571 342.991 543.67 341.735V341.735Z" fill="#3F3D56"/>
<path opacity="0.05" d="M543.67 341.735C546.388 340.229 549.364 339.245 552.444 338.834C554.272 338.418 556.152 338.285 558.02 338.438C559.75 338.651 561.402 339.318 563.141 339.405C565.576 339.54 567.915 338.554 570.273 337.907C572.631 337.259 575.346 337.017 577.327 338.438C577.748 338.856 578.282 339.142 578.863 339.26C579.465 339.187 580.024 338.91 580.448 338.477C582.117 337.282 584.142 336.691 586.191 336.8C588.241 336.909 590.192 337.711 591.725 339.076C596.218 343.291 595.716 351.527 600.982 354.727C602.432 355.606 604.287 356.07 605.137 357.549C605.351 358.039 605.603 358.511 605.891 358.961C606.245 359.347 606.676 359.653 607.157 359.86C608.687 360.545 610.144 361.384 611.505 362.363C612.182 362.856 612.752 363.481 613.18 364.201C613.609 364.92 613.887 365.719 613.998 366.549C614.019 367.768 613.758 368.976 613.235 370.077C610.654 376.401 606.18 381.77 600.428 385.45C594.675 389.129 587.926 390.938 581.105 390.629C579.895 390.687 578.703 390.314 577.742 389.575C577.238 389.006 576.839 388.351 576.563 387.642C574.08 382.451 569.432 378.613 566.475 373.673C564.716 370.725 563.576 367.438 561.76 364.538C558.977 360.14 554.754 356.892 550.618 353.75C548.289 351.972 545.69 350.106 542.762 350.232C540.153 350.338 538.249 350.483 539.206 347.274C539.988 344.955 541.571 342.991 543.67 341.735V341.735Z" fill="black"/>
<path d="M530.905 697.209C532.683 698.871 535.128 699.596 537.495 700.109C542.917 701.169 548.406 701.847 553.923 702.139L559.276 702.545C564.504 702.941 569.741 703.347 574.998 703.367C581.477 703.391 587.945 702.831 594.324 701.694C594.577 701.72 594.833 701.686 595.071 701.595C595.309 701.504 595.522 701.359 595.694 701.172C595.865 700.984 595.991 700.758 596.06 700.513C596.129 700.269 596.141 700.011 596.093 699.761C595.979 693.229 595.182 686.726 593.716 680.36C593.107 677.74 588.42 683.608 588.208 683.849C587.724 684.534 587.086 685.097 586.346 685.491C585.606 685.886 584.784 686.101 583.946 686.121C578.554 686.411 572.515 683.134 568.224 680.215C567.31 679.533 566.34 678.928 565.325 678.407C564.576 678.071 563.782 677.846 562.967 677.74C560.192 677.478 557.402 678.043 554.947 679.364C551.729 680.959 548.898 683.231 545.709 684.903C543.116 686.238 540.316 687.124 537.428 687.523C534.529 687.929 531.031 688.122 529.533 690.645C528.248 692.733 529.137 695.556 530.905 697.209Z" fill="#3F3D56"/>
<path d="M530.905 698.175C532.683 699.838 535.128 700.563 537.496 701.075C542.917 702.135 548.407 702.814 553.923 703.105L559.276 703.511C564.504 703.908 569.742 704.314 574.998 704.333C581.478 704.357 587.946 703.798 594.325 702.661C594.617 702.651 594.905 702.581 595.17 702.454C595.434 702.328 595.669 702.148 595.861 701.926C596.366 701.257 596.769 700.518 597.059 699.732C596.943 693.207 595.185 686.691 593.716 680.331C593.107 677.711 588.42 683.579 588.208 683.82C587.724 684.505 587.087 685.068 586.347 685.462C585.607 685.857 584.785 686.072 583.946 686.092C578.554 686.382 572.515 683.105 568.224 680.186C567.31 679.504 566.34 678.899 565.326 678.378C564.576 678.042 563.782 677.817 562.968 677.711C563.663 681.578 569.229 686.276 572.099 687.706C577.897 690.606 584.816 689.156 591.3 689.495C591.776 689.474 592.248 689.588 592.663 689.823C593.436 690.336 593.484 691.438 593.465 692.366C593.407 693.912 593.213 695.73 591.87 696.522C591.198 696.841 590.459 696.994 589.715 696.967C573.739 697.664 557.732 697.101 541.844 695.285C539.171 695.112 536.541 694.529 534.046 693.555C532.415 692.796 530.894 691.821 529.524 690.655C527.436 692.24 529.137 696.522 530.905 698.175Z" fill="#E8EAF2"/>
<path d="M544.26 307.476C544.347 310.008 542.617 314.929 547.362 313.556C550.184 312.744 550.986 309.39 554.571 310.134C558.156 310.878 558.977 315.306 560.195 318.196C561.188 320.493 562.723 322.514 564.668 324.087C566.614 325.659 568.912 326.736 571.365 327.225C572.379 327.467 573.434 327.467 574.448 327.225C576.757 326.568 578.071 324.18 579.018 321.966C579.837 320.085 580.515 318.147 581.048 316.166C581.412 314.778 581.658 313.362 581.782 311.932V311.932C581.858 310.967 581.858 309.997 581.782 309.032C581.357 303.232 578.071 298.002 573.868 294.029C569.664 290.056 564.572 287.185 559.528 284.363C557.884 283.338 556.105 282.547 554.242 282.014C552.405 281.637 550.519 281.558 548.657 281.782C546.205 281.885 543.795 282.452 541.554 283.454C540.635 283.905 539.791 284.495 539.052 285.204C538.001 286.182 537.25 287.439 536.887 288.829C535.979 292.55 538.346 295.905 540.279 298.853C542.009 301.434 544.134 304.208 544.26 307.476Z" fill="#3F3D56"/>
<path opacity="0.1" d="M464.481 361.909C465.496 359.347 469.747 352.291 468.52 349.855C467.243 351.672 466.155 353.615 465.273 355.655C464.471 357.627 465.128 360.275 464.481 361.909Z" fill="black"/>
<path opacity="0.1" d="M540.183 298.824C538.25 295.875 535.873 292.521 536.781 288.79C537.232 287.151 538.202 285.703 539.545 284.662C539.234 285.209 538.997 285.794 538.839 286.402C537.931 290.133 540.308 293.488 542.241 296.436C543.961 299.046 546.106 301.83 546.203 305.088C546.299 307.621 544.57 312.551 549.314 311.168C552.136 310.356 552.938 307.002 556.523 307.746C560.108 308.491 560.929 312.908 562.147 315.808C563.14 318.105 564.675 320.126 566.621 321.699C568.566 323.271 570.864 324.348 573.317 324.837C574.327 325.079 575.38 325.079 576.39 324.837C576.92 324.703 577.421 324.474 577.869 324.16C577.15 325.612 575.89 326.722 574.361 327.254C573.351 327.495 572.298 327.495 571.288 327.254C568.835 326.765 566.537 325.688 564.591 324.115C562.646 322.543 561.111 320.522 560.118 318.225C558.9 315.325 558.108 310.927 554.494 310.163C550.88 309.399 550.107 312.773 547.285 313.585C542.54 314.967 544.27 310.037 544.173 307.505C544.048 304.218 541.903 301.434 540.183 298.824Z" fill="black"/>
<path opacity="0.1" d="M539.129 293.788C539.575 294.505 540.062 295.195 540.588 295.857C541.59 297.123 542.713 298.288 543.941 299.337C544.664 299.964 545.419 300.554 546.202 301.106C547.666 302.141 549.207 303.062 550.811 303.861C555.518 306.062 560.419 307.819 565.451 309.11L575.24 311.961C576.448 312.87 578.641 314.513 581.038 316.205C581.403 314.817 581.648 313.401 581.772 311.971C581.848 311.006 581.848 310.036 581.772 309.071C581.347 303.271 578.061 298.041 573.858 294.068C569.654 290.095 564.562 287.224 559.518 284.401C557.874 283.377 556.095 282.586 554.232 282.052C552.395 281.675 550.509 281.597 548.647 281.82C546.195 281.924 543.785 282.491 541.544 283.493C540.625 283.944 539.781 284.534 539.042 285.242C538.49 286.059 538.066 286.956 537.785 287.901C537.186 289.844 538.037 292 539.129 293.788Z" fill="black"/>
<path d="M539.129 293.121C539.575 293.841 540.062 294.535 540.588 295.199C541.587 296.464 542.71 297.627 543.941 298.669C544.662 299.303 545.417 299.896 546.202 300.448C547.668 301.473 549.209 302.387 550.811 303.184C555.519 305.38 560.42 307.138 565.451 308.433L575.24 311.284C578.661 313.865 590.092 322.333 592.015 321.28C594.276 320.033 581.869 311.246 581.869 311.246L581.299 311.681C583.115 310.53 584.062 307.882 584.478 305.591C585.355 301.503 585.388 297.279 584.574 293.179C583.608 289.128 581.163 285.271 577.453 283.377C575.81 282.526 573.819 281.956 572.621 280.65C572.439 280.46 572.28 280.25 572.148 280.022C572.081 279.913 572.019 279.8 571.964 279.684C571.837 279.323 571.662 278.982 571.442 278.669C570.766 277.886 569.51 278.128 568.543 278.253H568.205H567.654C563.973 278.331 560.407 276.32 556.687 276.32C552.609 276.32 549.13 278.678 545.545 280.293L543.487 281.26C540.887 282.468 538.935 283.754 537.863 287.195C537.186 289.177 538.037 291.342 539.129 293.121Z" fill="#303D5C"/>
<path opacity="0.1" d="M567.596 278.311C567.452 278.565 567.373 278.851 567.364 279.143C567.365 279.394 567.421 279.641 567.528 279.868C567.635 280.096 567.79 280.297 567.983 280.457C568.434 280.786 568.971 280.977 569.529 281.008C569.929 281.065 570.332 281.097 570.737 281.105C571.279 281.148 571.824 281.055 572.321 280.834C572.418 280.779 572.512 280.717 572.602 280.651C572.42 280.461 572.261 280.25 572.128 280.022C572.041 280.09 571.945 280.071 571.577 280.022C570.923 279.986 570.275 279.876 569.645 279.694C569.379 279.616 569.127 279.495 568.901 279.336C568.569 279.052 568.325 278.68 568.195 278.263L567.596 278.311Z" fill="black"/>
<path opacity="0.1" d="M581.598 311.149C581.077 311.468 580.499 311.681 579.897 311.778C579.141 311.998 578.345 312.051 577.566 311.934C576.787 311.818 576.043 311.533 575.384 311.101" fill="black"/>
<path opacity="0.1" d="M1032.47 508.53L1020.99 534.37C1020.46 531.01 1019.64 527.65 1018.83 524.37L1018.65 524.74L1018.7 524.2L1024.96 510.42L1032.47 508.53Z" fill="black"/>
<path opacity="0.1" d="M1066.91 454.55C1066.24 455.036 1065.45 455.33 1064.63 455.4C1063.36 455.44 1062.09 455.268 1060.88 454.89L1051.93 452.62C1051.65 452.558 1051.37 452.464 1051.11 452.34C1051.26 450.76 1051.56 448.95 1052.42 448.34C1053.68 447.48 1057.48 448.63 1058.93 448.82C1061.41 449.17 1063.88 449.57 1066.34 450.04C1066.7 451.517 1066.89 453.03 1066.91 454.55V454.55Z" fill="black"/>
<path d="M1074.51 395.05C1074.71 395.88 1074.98 396.7 1075.13 397.54C1075.4 399.597 1075.33 401.684 1074.93 403.72L1074.11 409.44L1073.29 415.2L1070.12 437.33L1069.33 442.81L1068.24 450.46C1068.18 451.096 1068.02 451.717 1067.76 452.3C1067.43 452.843 1066.97 453.296 1066.42 453.619C1065.87 453.942 1065.26 454.124 1064.62 454.15C1063.35 454.189 1062.09 454.017 1060.88 453.64L1051.93 451.38C1051.54 451.308 1051.17 451.155 1050.84 450.93C1050.56 450.662 1050.36 450.325 1050.26 449.955C1050.16 449.584 1050.15 449.192 1050.25 448.82C1050.38 448.06 1050.71 447.35 1050.83 446.59C1051.05 445.11 1050.42 443.59 1050.65 442.12C1050.86 441.178 1051.19 440.269 1051.65 439.42C1054.65 432.79 1052.91 425.06 1053.93 417.86C1054.81 412.199 1057.17 406.87 1060.77 402.41C1063 399.601 1065.57 397.078 1068.42 394.9C1069.55 394.03 1071.33 392.23 1072.73 391.9C1074.6 391.52 1074.22 393.79 1074.51 395.05Z" fill="#FED136"/>
<path d="M1006.41 308.91C1005.75 311 1006.78 313.31 1006.31 315.46C1005.79 317.82 1003.58 319.46 1002.95 321.83C1001.95 325.44 1005.01 328.73 1007.24 331.73C1015.54 342.86 1014.45 358.28 1011.61 371.88C1009.33 382.784 1006.17 393.486 1002.16 403.88C1000.92 407.1 999.53 410.39 997.08 412.81C1001.68 411.49 1006.56 410.16 1011.18 411.44C1017.02 413.06 1022.06 418.73 1027.97 417.44C1031.54 416.64 1034.03 413.44 1037.24 411.74C1043.24 408.51 1050.46 410.54 1057.16 411.57C1058.6 411.92 1060.11 411.843 1061.51 411.35C1062.58 410.776 1063.49 409.944 1064.15 408.93C1067.13 405.098 1068.92 400.471 1069.28 395.63C1069.44 393.218 1069.09 390.799 1068.24 388.535C1067.39 386.271 1066.07 384.214 1064.37 382.5C1062.96 381.16 1061.26 380.08 1060.17 378.5C1059.1 376.657 1058.53 374.569 1058.52 372.44C1057.72 361.44 1060.4 350.22 1057.65 339.58C1056.65 335.79 1055.01 332.16 1054.57 328.27C1054.02 323.45 1055.34 318.27 1053.42 313.85C1051.9 310.35 1048.57 307.85 1044.99 306.58C1041.35 305.407 1037.57 304.734 1033.75 304.58C1028.27 304.1 1008.7 301.76 1006.41 308.91Z" fill="#33313F"/>
<g opacity="0.1">
<path opacity="0.1" d="M1011.6 371.88C1009.33 382.738 1006.18 393.396 1002.2 403.75C1002.89 402.38 1003.48 400.94 1004.03 399.51C1008.04 389.116 1011.2 378.414 1013.48 367.51C1016.32 353.92 1017.41 338.51 1009.11 327.36C1007.11 324.71 1004.54 321.83 1004.64 318.7C1003.9 319.645 1003.32 320.71 1002.94 321.85C1001.94 325.46 1005 328.75 1007.23 331.75C1015.54 342.86 1014.45 358.28 1011.6 371.88Z" fill="black"/>
<path opacity="0.1" d="M1006.43 314.44C1007.23 313.439 1007.82 312.295 1008.19 311.07C1008.34 309.584 1008.3 308.085 1008.07 306.61C1007.3 307.193 1006.72 307.994 1006.41 308.91C1005.85 310.68 1006.5 312.62 1006.43 314.44Z" fill="black"/>
<path opacity="0.1" d="M1066.03 404.52C1065.36 405.537 1064.45 406.372 1063.38 406.95C1061.99 407.443 1060.48 407.52 1059.04 407.17C1052.34 406.17 1045.04 404.1 1039.12 407.34C1035.91 409.08 1033.41 412.24 1029.85 413.03C1023.93 414.35 1018.85 408.69 1013.05 407.03C1008.92 405.88 1004.56 406.83 1000.38 408.03C999.555 409.799 998.44 411.419 997.08 412.82C1001.68 411.5 1006.56 410.17 1011.18 411.45C1017.02 413.07 1022.06 418.74 1027.97 417.45C1031.53 416.65 1034.03 413.45 1037.24 411.75C1043.24 408.52 1050.46 410.55 1057.16 411.58C1058.6 411.93 1060.11 411.853 1061.51 411.36C1062.58 410.786 1063.49 409.954 1064.15 408.94C1065.95 406.543 1067.35 403.868 1068.29 401.02C1067.62 402.238 1066.87 403.408 1066.03 404.52V404.52Z" fill="black"/>
</g>
<path opacity="0.5" d="M142.476 479.905H68.6665V538.952H142.476V479.905Z" fill="#FED136"/>
<path opacity="0.2" d="M219.238 479.905H143.952V538.952H219.238V479.905Z" fill="#FED136"/>
<path d="M156.5 691C233.544 691 296 628.544 296 551.5C296 474.456 233.544 412 156.5 412C79.4563 412 17 474.456 17 551.5C17 628.544 79.4563 691 156.5 691Z" fill="url(#paint2_linear)"/>
<path d="M156.5 688.048C231.098 688.048 291.572 627.244 291.572 552.238C291.572 477.232 231.098 416.428 156.5 416.428C81.9022 416.428 21.4287 477.232 21.4287 552.238C21.4287 627.244 81.9022 688.048 156.5 688.048Z" fill="#FED136"/>
<path d="M156.5 661.476C217.238 661.476 266.476 612.238 266.476 551.5C266.476 490.762 217.238 441.524 156.5 441.524C95.7619 441.524 46.5239 490.762 46.5239 551.5C46.5239 612.238 95.7619 661.476 156.5 661.476Z" fill="white"/>
<path d="M156.5 558.143C160.169 558.143 163.143 555.169 163.143 551.5C163.143 547.831 160.169 544.857 156.5 544.857C152.831 544.857 149.857 547.831 149.857 551.5C149.857 555.169 152.831 558.143 156.5 558.143Z" fill="url(#paint3_linear)"/>
<path d="M158.419 552.238L154.286 550.871L191.486 465.143L195.619 467.056L158.419 552.238Z" fill="url(#paint4_linear)"/>
<path d="M188.817 465L153 549.833L160.37 552.944L196.187 468.112L188.817 465Z" fill="#BDBDBD"/>
<path d="M179.685 596.524L155.762 553.82L159.061 552.238L183.809 594.151L179.685 596.524Z" fill="url(#paint5_linear)"/>
<path d="M161.029 552L154 555.82L177.564 599.183L184.593 595.363L161.029 552Z" fill="#BDBDBD"/>
<path opacity="0.2" d="M52.1583 561.757C52.1656 537.425 60.179 513.776 74.9536 494.485C89.7283 475.194 110.437 461.341 133.863 455.076C157.288 448.812 182.119 450.488 204.498 459.844C226.877 469.201 245.551 485.713 257.619 506.816C251.697 493.009 243.03 480.562 232.147 470.235C221.265 459.909 208.397 451.921 194.331 446.76C180.265 441.599 165.298 439.375 150.345 440.224C135.393 441.072 120.771 444.975 107.374 451.694C93.9768 458.412 82.0875 467.805 72.4339 479.297C62.7803 490.788 55.5656 504.137 51.2318 518.525C46.898 532.913 45.5362 548.038 47.2298 562.973C48.9235 577.908 53.637 592.338 61.0815 605.381C55.176 591.602 52.1395 576.757 52.1583 561.757V561.757Z" fill="#FED136"/>
<path d="M157 560C161.418 560 165 556.418 165 552C165 547.582 161.418 544 157 544C152.582 544 149 547.582 149 552C149 556.418 152.582 560 157 560Z" fill="#4F4F4F"/>
</g>
<defs>
<linearGradient id="paint0_linear" x1="923.33" y1="495.12" x2="1076.33" y2="495.12" gradientUnits="userSpaceOnUse">
<stop stop-color="#808080" stop-opacity="0.25"/>
<stop offset="0.54" stop-color="#808080" stop-opacity="0.12"/>
<stop offset="1" stop-color="#808080" stop-opacity="0.1"/>
</linearGradient>
<linearGradient id="paint1_linear" x1="528.489" y1="703.366" x2="528.489" y2="274.097" gradientUnits="userSpaceOnUse">
<stop stop-color="#808080" stop-opacity="0.25"/>
<stop offset="0.54" stop-color="#808080" stop-opacity="0.12"/>
<stop offset="1" stop-color="#808080" stop-opacity="0.1"/>
</linearGradient>
<linearGradient id="paint2_linear" x1="47879.4" y1="184566" x2="47879.4" y2="88841.1" gradientUnits="userSpaceOnUse">
<stop stop-color="#808080" stop-opacity="0.25"/>
<stop offset="0.54" stop-color="#808080" stop-opacity="0.12"/>
<stop offset="1" stop-color="#808080" stop-opacity="0.1"/>
</linearGradient>
<linearGradient id="paint3_linear" x1="2429.02" y1="7142.68" x2="2429.02" y2="6927.05" gradientUnits="userSpaceOnUse">
<stop stop-color="#808080" stop-opacity="0.25"/>
<stop offset="0.54" stop-color="#808080" stop-opacity="0.12"/>
<stop offset="1" stop-color="#808080" stop-opacity="0.1"/>
</linearGradient>
<linearGradient id="paint4_linear" x1="8198.17" y1="43098.3" x2="8198.17" y2="33779.1" gradientUnits="userSpaceOnUse">
<stop stop-color="#808080" stop-opacity="0.25"/>
<stop offset="0.54" stop-color="#808080" stop-opacity="0.12"/>
<stop offset="1" stop-color="#808080" stop-opacity="0.1"/>
</linearGradient>
<linearGradient id="paint5_linear" x1="5417.78" y1="24665.8" x2="5417.78" y2="22185.8" gradientUnits="userSpaceOnUse">
<stop stop-color="#808080" stop-opacity="0.25"/>
<stop offset="0.54" stop-color="#808080" stop-opacity="0.12"/>
<stop offset="1" stop-color="#808080" stop-opacity="0.1"/>
</linearGradient>
<clipPath id="clip0">
<rect width="1188" height="697" fill="white"/>
</clipPath>
</defs>
</svg>
