<svg width="42" height="36" viewBox="0 0 42 36" fill="none" xmlns="http://www.w3.org/2000/svg">
<path d="M29 2H13C11.9 2 11.01 2.9 11.01 4L11 16C11 17.1 11.9 18 13 18H29C30.1 18 31 17.1 31 16V4C31 2.9 30.1 2 29 2ZM28.6 6.25L21.53 10.67C21.21 10.87 20.79 10.87 20.47 10.67L13.4 6.25C13.15 6.09 13 5.82 13 5.53C13 4.86 13.73 4.46 14.3 4.81L21 9L27.7 4.81C28.27 4.46 29 4.86 29 5.53C29 5.82 28.85 6.09 28.6 6.25Z" fill="white"/>
<path d="M5.61617 26.715V28.015H2.62617V29.715H4.91617V30.965H2.62617V32.7H5.61617V34H0.926172V26.715H5.61617ZM6.58047 34V28.815H7.54047C7.63714 28.815 7.71714 28.8367 7.78047 28.88C7.84714 28.9233 7.8938 28.9883 7.92047 29.075L8.00547 29.355C8.09214 29.265 8.18214 29.1833 8.27547 29.11C8.3688 29.0333 8.4688 28.9683 8.57547 28.915C8.68547 28.8583 8.80214 28.815 8.92547 28.785C9.05214 28.7517 9.19047 28.735 9.34047 28.735C9.6538 28.735 9.91214 28.8167 10.1155 28.98C10.3221 29.14 10.4788 29.355 10.5855 29.625C10.6721 29.465 10.7771 29.3283 10.9005 29.215C11.0271 29.1017 11.1621 29.01 11.3055 28.94C11.4521 28.87 11.6055 28.8183 11.7655 28.785C11.9288 28.7517 12.0905 28.735 12.2505 28.735C12.5471 28.735 12.8105 28.78 13.0405 28.87C13.2705 28.9567 13.4621 29.085 13.6155 29.255C13.7721 29.4217 13.8905 29.6283 13.9705 29.875C14.0505 30.1183 14.0905 30.395 14.0905 30.705V34H12.5405V30.705C12.5405 30.1683 12.3105 29.9 11.8505 29.9C11.6405 29.9 11.4655 29.97 11.3255 30.11C11.1888 30.2467 11.1205 30.445 11.1205 30.705V34H9.57047V30.705C9.57047 30.4083 9.51214 30.2 9.39547 30.08C9.2788 29.96 9.10714 29.9 8.88047 29.9C8.74047 29.9 8.60714 29.9317 8.48047 29.995C8.35714 30.0583 8.24047 30.1433 8.13047 30.25V34H6.58047ZM18.7738 34C18.6271 34 18.5154 33.98 18.4388 33.94C18.3654 33.9 18.3038 33.8167 18.2538 33.69L18.1438 33.405C18.0138 33.515 17.8888 33.6117 17.7688 33.695C17.6488 33.7783 17.5238 33.85 17.3938 33.91C17.2671 33.9667 17.1304 34.0083 16.9838 34.035C16.8404 34.065 16.6804 34.08 16.5038 34.08C16.2671 34.08 16.0521 34.05 15.8588 33.99C15.6654 33.9267 15.5004 33.835 15.3638 33.715C15.2304 33.595 15.1271 33.4467 15.0538 33.27C14.9804 33.09 14.9438 32.8833 14.9438 32.65C14.9438 32.4667 14.9904 32.2783 15.0838 32.085C15.1771 31.8917 15.3388 31.7167 15.5688 31.56C15.7988 31.4 16.1088 31.2667 16.4988 31.16C16.8888 31.0533 17.3804 30.9933 17.9738 30.98V30.76C17.9738 30.4567 17.9104 30.2383 17.7838 30.105C17.6604 29.9683 17.4838 29.9 17.2538 29.9C17.0704 29.9 16.9204 29.92 16.8038 29.96C16.6871 30 16.5821 30.045 16.4888 30.095C16.3988 30.145 16.3104 30.19 16.2238 30.23C16.1371 30.27 16.0338 30.29 15.9137 30.29C15.8071 30.29 15.7154 30.265 15.6388 30.215C15.5654 30.1617 15.5071 30.0967 15.4638 30.02L15.1838 29.535C15.4971 29.2583 15.8438 29.0533 16.2238 28.92C16.6071 28.7833 17.0171 28.715 17.4538 28.715C17.7671 28.715 18.0488 28.7667 18.2988 28.87C18.5521 28.97 18.7654 29.1117 18.9388 29.295C19.1154 29.475 19.2504 29.69 19.3438 29.94C19.4371 30.19 19.4838 30.4633 19.4838 30.76V34H18.7738ZM16.9938 33.055C17.1938 33.055 17.3688 33.02 17.5188 32.95C17.6688 32.88 17.8204 32.7667 17.9738 32.61V31.89C17.6638 31.9033 17.4088 31.93 17.2088 31.97C17.0088 32.01 16.8504 32.06 16.7338 32.12C16.6171 32.18 16.5354 32.2483 16.4888 32.325C16.4454 32.4017 16.4238 32.485 16.4238 32.575C16.4238 32.7517 16.4721 32.8767 16.5688 32.95C16.6654 33.02 16.8071 33.055 16.9938 33.055ZM22.1844 28.815V34H20.6344V28.815H22.1844ZM22.3644 27.395C22.3644 27.5183 22.3394 27.635 22.2894 27.745C22.2394 27.8517 22.171 27.9467 22.0844 28.03C21.9977 28.11 21.896 28.175 21.7794 28.225C21.666 28.2717 21.5444 28.295 21.4144 28.295C21.2877 28.295 21.1694 28.2717 21.0594 28.225C20.9494 28.175 20.851 28.11 20.7644 28.03C20.681 27.9467 20.6144 27.8517 20.5644 27.745C20.5177 27.635 20.4944 27.5183 20.4944 27.395C20.4944 27.2683 20.5177 27.15 20.5644 27.04C20.6144 26.93 20.681 26.8333 20.7644 26.75C20.851 26.6667 20.9494 26.6017 21.0594 26.555C21.1694 26.5083 21.2877 26.485 21.4144 26.485C21.5444 26.485 21.666 26.5083 21.7794 26.555C21.896 26.6017 21.9977 26.6667 22.0844 26.75C22.171 26.8333 22.2394 26.93 22.2894 27.04C22.3394 27.15 22.3644 27.2683 22.3644 27.395ZM25.0359 26.515V34H23.4859V26.515H25.0359ZM28.2211 34V28.815H29.1811C29.2778 28.815 29.3578 28.8367 29.4211 28.88C29.4878 28.9233 29.5344 28.9883 29.5611 29.075L29.6461 29.355C29.7328 29.265 29.8228 29.1833 29.9161 29.11C30.0094 29.0333 30.1094 28.9683 30.2161 28.915C30.3261 28.8583 30.4428 28.815 30.5661 28.785C30.6928 28.7517 30.8311 28.735 30.9811 28.735C31.2944 28.735 31.5528 28.8167 31.7561 28.98C31.9628 29.14 32.1194 29.355 32.2261 29.625C32.3128 29.465 32.4178 29.3283 32.5411 29.215C32.6678 29.1017 32.8028 29.01 32.9461 28.94C33.0928 28.87 33.2461 28.8183 33.4061 28.785C33.5694 28.7517 33.7311 28.735 33.8911 28.735C34.1878 28.735 34.4511 28.78 34.6811 28.87C34.9111 28.9567 35.1028 29.085 35.2561 29.255C35.4128 29.4217 35.5311 29.6283 35.6111 29.875C35.6911 30.1183 35.7311 30.395 35.7311 30.705V34H34.1811V30.705C34.1811 30.1683 33.9511 29.9 33.4911 29.9C33.2811 29.9 33.1061 29.97 32.9661 30.11C32.8294 30.2467 32.7611 30.445 32.7611 30.705V34H31.2111V30.705C31.2111 30.4083 31.1528 30.2 31.0361 30.08C30.9194 29.96 30.7478 29.9 30.5211 29.9C30.3811 29.9 30.2478 29.9317 30.1211 29.995C29.9978 30.0583 29.8811 30.1433 29.7711 30.25V34H28.2211ZM39.0544 28.735C39.3977 28.735 39.711 28.7883 39.9944 28.895C40.281 29.0017 40.526 29.1567 40.7294 29.36C40.936 29.5633 41.096 29.8133 41.2094 30.11C41.326 30.4033 41.3844 30.7367 41.3844 31.11C41.3844 31.2267 41.3794 31.3217 41.3694 31.395C41.3594 31.4683 41.341 31.5267 41.3144 31.57C41.2877 31.6133 41.251 31.6433 41.2044 31.66C41.161 31.6767 41.1044 31.685 41.0344 31.685H38.0444C38.0944 32.1183 38.226 32.4333 38.4394 32.63C38.6527 32.8233 38.9277 32.92 39.2644 32.92C39.4444 32.92 39.5994 32.8983 39.7294 32.855C39.8594 32.8117 39.9744 32.7633 40.0744 32.71C40.1777 32.6567 40.271 32.6083 40.3544 32.565C40.441 32.5217 40.531 32.5 40.6244 32.5C40.7477 32.5 40.841 32.545 40.9044 32.635L41.3544 33.19C41.1944 33.3733 41.021 33.5233 40.8344 33.64C40.651 33.7533 40.461 33.8433 40.2644 33.91C40.071 33.9733 39.876 34.0167 39.6794 34.04C39.486 34.0667 39.301 34.08 39.1244 34.08C38.761 34.08 38.4194 34.0217 38.0994 33.905C37.7827 33.785 37.5044 33.6083 37.2644 33.375C37.0277 33.1417 36.8394 32.8517 36.6994 32.505C36.5627 32.1583 36.4944 31.755 36.4944 31.295C36.4944 30.9483 36.5527 30.62 36.6694 30.31C36.7894 30 36.9594 29.7283 37.1794 29.495C37.4027 29.2617 37.671 29.0767 37.9844 28.94C38.301 28.8033 38.6577 28.735 39.0544 28.735ZM39.0844 29.805C38.7877 29.805 38.556 29.89 38.3894 30.06C38.2227 30.2267 38.1127 30.4683 38.0594 30.785H39.9944C39.9944 30.6617 39.9777 30.5417 39.9444 30.425C39.9144 30.3083 39.8627 30.205 39.7894 30.115C39.7194 30.0217 39.626 29.9467 39.5094 29.89C39.3927 29.8333 39.251 29.805 39.0844 29.805Z" fill="white"/>
</svg>
