<svg width="1060" height="593" viewBox="0 0 1060 593" fill="none" xmlns="http://www.w3.org/2000/svg">
<path d="M811.5 521.07C877.498 521.07 931 510.325 931 497.07C931 483.815 877.498 473.07 811.5 473.07C745.502 473.07 692 483.815 692 497.07C692 510.325 745.502 521.07 811.5 521.07Z" stroke="#444053" stroke-opacity="0.2" stroke-miterlimit="10"/>
<path d="M360.54 305.89C360.891 306.78 361.288 307.651 361.73 308.5V308.61C361.73 308.61 367.39 329.52 370.04 333.91C370.81 335.18 371.68 336.56 372.54 337.91C372.37 338.903 372.37 339.917 372.54 340.91C373.34 345.57 374.31 351.98 373.87 353.39C373.43 354.8 374.4 358.31 372.87 359.53C371.34 360.75 369.77 362.87 374.46 365.68C374.46 365.68 375.34 368.05 374.55 368.58C374.46 368.64 374.55 368.77 374.77 368.94C373.48 372.76 371.59 378.94 372.77 379.38C373.42 379.63 375.18 378.71 377.11 377.47C377.16 377.72 377.2 377.99 377.25 378.26C377.557 380.319 378.032 382.349 378.67 384.33C379.53 386.24 380.39 389.46 379.93 390.52C379.47 391.58 381.19 393.94 380.79 394.87C380.39 395.8 382.12 398.82 382.12 398.82C382.12 398.82 383.84 404.68 383.77 406.66C383.7 408.64 385.63 421.41 385.63 421.41C385.63 421.41 383.63 428 384.63 429.91C385.63 431.82 386.28 438.41 384.63 440.85C382.98 443.29 380.91 448.68 381.58 450.13C382.25 451.58 380.65 469.5 384.69 476.88C385.207 479.626 385.584 482.396 385.82 485.18C385.82 487.18 389 492.49 389 492.49C389 492.49 387.08 500.49 391.79 501.84C392.115 501.941 392.45 502.005 392.79 502.03C392.934 502.905 392.815 503.802 392.45 504.61C391.645 505.724 391.074 506.989 390.77 508.33V508.33C390.701 508.582 390.733 508.851 390.86 509.08C391.39 509.67 392.86 517.58 392.86 517.58C392.86 517.58 394.98 526.47 406.65 524.3C406.65 524.3 414.54 523.84 413.88 521.07C413.663 520.156 413.375 519.26 413.02 518.39C412.742 517.827 412.495 517.25 412.28 516.66C412.15 516 410.49 514.15 410.36 512.9C410.23 511.65 409.17 509.21 409.36 508.42C409.55 507.63 407.57 501.97 407.43 500.71C407.268 499.833 407.017 498.975 406.68 498.15L407.1 497.95C407.1 497.95 408.16 492.02 407.24 489.85C406.32 487.68 402.66 484.85 402.66 484.85C402.66 484.85 403.19 470.29 402.53 468.31C401.87 466.33 402.86 458.83 402.86 458.83C402.86 458.83 405.11 448.22 404.98 445.83C404.905 444.35 405.129 442.871 405.64 441.48C405.64 441.48 407.04 425.87 407.96 423.89C408.88 421.91 409.96 402.55 409.96 402.55L410.58 404.33C411.451 407.001 412.487 409.616 413.68 412.16C414.19 412.96 415.68 415.52 416.96 417.66L418.85 420.86C418.85 420.86 419.71 423.96 419.11 425.86C418.51 427.76 425.28 438.04 425.28 438.04C424.844 438.898 424.618 439.847 424.62 440.81C424.81 441.81 422.56 444.96 422.56 444.96C422.56 444.96 421.7 447.79 422.23 448.78C422.76 449.77 421.37 455.63 421.37 455.63C421.37 455.63 419.11 468.54 418.58 470.06C418.05 471.58 418.85 481.98 418.85 481.98C418.85 481.98 414.69 492.63 416.62 496.17C416.7 497.48 416.71 499.48 416.2 500.29C415.51 501.37 415.71 505.36 415.78 506.46C415.78 506.65 415.78 506.75 415.78 506.75C415.78 506.75 413.52 509.75 416.37 510.97C419.22 512.19 428.91 513.07 428.91 513.07C428.91 513.07 438.12 515.71 442.56 516.43C447 517.15 456.29 516.89 456.95 514.19C457.185 513.351 457.266 512.477 457.19 511.61C457.13 511.062 456.931 510.539 456.61 510.09C456.29 509.642 455.859 509.284 455.36 509.05C452.63 507.964 449.838 507.039 447 506.28C447 506.28 442.62 505.28 442.22 503.38C441.82 501.48 435.59 496.2 435.59 496.2C435.59 496.2 435.52 495.83 435.39 495.33H435.59L435.29 495.03C434.98 494.03 434.48 492.71 433.87 492.96C433.775 492.781 433.717 492.585 433.699 492.382C433.682 492.18 433.706 491.977 433.769 491.784C433.833 491.592 433.935 491.414 434.069 491.262C434.203 491.11 434.367 490.987 434.55 490.9C436.94 489.59 438.4 485.44 437.73 480.96C437.06 476.48 436.94 477.27 438.33 474.7C439.192 472.758 439.537 470.625 439.33 468.51L443 454.83C443.575 453.149 443.931 451.401 444.06 449.63C444.122 448.236 444.484 446.872 445.12 445.63C445.12 445.63 446.78 436.14 448.24 433.97C449.7 431.8 447.24 424.15 447.24 424.15C447.24 424.15 444.99 412.3 445.12 406.89C445.25 401.48 439.28 382.72 439.28 382.72C438.514 381.502 438.189 380.058 438.36 378.63C438.48 377.51 437.78 375.69 436.99 374.06L436.74 373.55C437.045 373.158 437.413 372.82 437.83 372.55C439.47 371.55 440.24 368.92 440.25 367.07L417.64 313.78C417.64 313.62 428.11 292.23 428.08 292.07C427.46 288.56 421.54 279.25 421.54 279.25C421.483 279.133 421.397 279.033 421.29 278.96C419.96 278.35 415.46 275.8 415.46 275.8C411.93 271.44 408.62 270.54 406.46 270.57C405.781 270.561 405.105 270.666 404.46 270.88C404.23 270.951 404.005 271.042 403.79 271.15L403.69 272.02C403.506 270.008 403.665 267.979 404.16 266.02C404.21 265.85 404.26 265.67 404.3 265.5C404.63 265.5 404.96 265.5 405.3 265.5C407.417 265.506 409.514 265.096 411.473 264.292C413.431 263.488 415.212 262.306 416.713 260.814C418.215 259.322 419.408 257.548 420.224 255.595C421.04 253.642 421.463 251.547 421.47 249.43C421.469 247.925 421.261 246.428 420.85 244.98L420.77 244.75L421.27 244.53C423.27 243.79 425.78 245.05 427.4 243.71C427.987 243.128 428.408 242.399 428.62 241.6C429.069 240.529 429.368 239.402 429.51 238.25C429.51 238.05 429.51 237.85 429.51 237.65C429.515 237.59 429.515 237.53 429.51 237.47C429.515 237.397 429.515 237.323 429.51 237.25C429.51 237.16 429.51 237.07 429.51 236.98C429.51 236.89 429.51 236.98 429.51 236.98C429.419 236.245 429.121 235.551 428.65 234.98C427.59 233.74 425.82 233.44 424.48 232.53C423.384 231.681 422.475 230.615 421.81 229.4C421.143 228.191 420.266 227.111 419.22 226.21C418.689 225.764 418.045 225.471 417.36 225.363C416.674 225.256 415.972 225.338 415.33 225.6C414.938 225.868 414.506 226.07 414.05 226.2C413.554 226.207 413.065 226.075 412.64 225.82C408.04 223.67 402.64 224.05 397.64 224.69C395.608 224.852 393.614 225.331 391.73 226.11C390.788 226.497 389.943 227.085 389.252 227.833C388.561 228.581 388.042 229.471 387.73 230.44C387.32 231.99 387.63 233.67 387.14 235.2C386.8 236.2 386.14 237.12 385.72 238.13C385.516 238.659 385.388 239.215 385.34 239.78V239.78C385.34 239.78 385.34 239.89 385.34 239.94C385.17 242.21 386.06 244.6 386.49 246.94C387.08 250.13 386.78 253.6 388.15 256.62C388.287 256.99 388.461 257.345 388.67 257.68C388.19 258.68 387.67 259.74 387.17 260.73C386.43 260.52 384.17 260.02 384.09 262C384.074 263.609 383.698 265.195 382.99 266.64C382.885 266.723 382.774 266.8 382.66 266.87C382.538 266.926 382.436 267.019 382.37 267.135C382.304 267.252 382.276 267.386 382.29 267.52V267.52L382.03 267.72C381.915 267.727 381.805 267.765 381.71 267.83C381.57 267.59 381.11 267.57 379.65 269.31C377.707 271.331 375.472 273.05 373.02 274.41C373.02 274.41 363.2 281.26 362.67 284.41C362.14 287.56 358.86 301.32 360.54 305.89ZM403.66 272.47C403.66 272.47 403.66 272.4 403.66 272.36L403.78 272.42L403.66 272.47ZM430.34 496.47C430.074 496.583 429.789 496.64 429.5 496.64L430.34 496.47Z" fill="url(#paint0_linear)"/>
<path d="M407.73 524.33C396.2 526.49 394.1 517.65 394.1 517.65C394.1 517.65 392.66 509.79 392.1 509.2C391.973 508.971 391.941 508.702 392.01 508.45V508.45C392.311 507.118 392.875 505.86 393.67 504.75C394.39 503.9 393.8 500.36 393.8 500.36L407.16 496.96C407.731 498.221 408.17 499.538 408.47 500.89C408.61 502.13 410.57 507.77 410.37 508.55C410.17 509.33 411.23 511.76 411.37 513.01C411.51 514.26 413.14 516.09 413.27 516.74C413.471 517.332 413.711 517.91 413.99 518.47C414.346 519.332 414.631 520.221 414.84 521.13C415.52 523.87 407.73 524.33 407.73 524.33Z" fill="#444053"/>
<path opacity="0.1" d="M407.73 524.33C396.2 526.49 394.1 517.65 394.1 517.65C394.1 517.65 392.66 509.79 392.1 509.2C391.973 508.971 391.941 508.702 392.01 508.45L394.78 516.45C394.78 516.45 397.08 521.24 405.59 520.51C410.44 520.11 412.82 519.21 413.98 518.51C414.336 519.372 414.621 520.261 414.83 521.17C415.52 523.87 407.73 524.33 407.73 524.33Z" fill="black"/>
<path opacity="0.1" d="M398.75 511.88C398.75 511.88 401.64 511.95 401.83 509.59L398.75 511.88Z" fill="black"/>
<path d="M448.87 434.45C447.43 436.61 445.79 446.04 445.79 446.04C445.18 447.289 444.84 448.651 444.79 450.04C444.684 451.803 444.348 453.544 443.79 455.22L440 468.78C440.202 470.882 439.857 473 439 474.93C437.63 477.49 437.76 476.7 438.41 481.16C439.06 485.62 437.63 489.74 435.27 491.05C432.91 492.36 436.32 495.44 436.32 495.44C436.32 495.44 421.25 499.5 418.1 497.01C414.95 494.52 419.74 482.21 419.74 482.21C419.74 482.21 418.96 471.86 419.48 470.35C420 468.84 422.23 456 422.23 456C422.23 456 423.61 450.17 423.08 449.19C422.55 448.21 423.41 445.39 423.41 445.39C423.41 445.39 425.64 442.24 425.41 441.26C425.414 440.305 425.64 439.363 426.07 438.51C426.07 438.51 419.39 428.29 419.97 426.39C420.55 424.49 419.71 421.39 419.71 421.39C419.71 421.39 418.87 419.94 417.85 418.21C416.61 416.08 415.11 413.54 414.6 412.74C413.429 410.21 412.411 407.612 411.55 404.96L410.93 403.18C410.93 403.18 409.93 422.44 408.93 424.4C407.93 426.36 406.64 441.9 406.64 441.9C406.13 443.281 405.906 444.75 405.98 446.22C406.11 448.64 403.88 459.22 403.88 459.22C403.88 459.22 402.88 466.69 403.56 468.66C404.24 470.63 403.69 485.1 403.69 485.1C403.69 485.1 407.29 487.92 408.21 490.1C409.13 492.28 408.08 498.16 408.08 498.16C408.08 498.16 397.6 503.4 392.94 502.02C388.28 500.64 390.19 492.72 390.19 492.72C390.19 492.72 387.05 487.48 387.05 485.45C386.817 482.68 386.443 479.923 385.93 477.19C381.93 469.85 383.51 452.04 382.86 450.59C382.21 449.14 384.23 443.78 385.86 441.36C387.49 438.94 386.86 432.36 385.86 430.48C384.86 428.6 386.86 422.03 386.86 422.03C386.86 422.03 384.96 409.32 385.03 407.36C385.1 405.4 383.39 399.56 383.39 399.56C383.39 399.56 381.69 396.56 382.08 395.63C382.47 394.7 380.77 392.35 381.23 391.31C381.69 390.27 380.83 387.05 379.98 385.15C379.358 383.19 378.89 381.183 378.58 379.15C378.18 376.89 377.89 374.9 377.89 374.9L388.7 366.19L415.7 359.11L425.94 355.78L435.83 371.37C435.83 371.37 436.83 373 437.76 374.88C438.54 376.5 439.23 378.31 439.11 379.43C438.945 380.849 439.27 382.281 440.03 383.49C440.03 383.49 445.92 402.16 445.79 407.49C445.66 412.82 447.89 424.66 447.89 424.66C447.89 424.66 450.31 432.29 448.87 434.45Z" fill="#3F3D56"/>
<path opacity="0.1" d="M388.21 444.21C388.21 444.21 399.74 439.3 403.14 442.77C406.54 446.24 388.21 444.21 388.21 444.21Z" fill="black"/>
<path opacity="0.1" d="M394.69 446.17C394.69 446.17 383 452.78 387 453.84C391 454.9 394.69 446.17 394.69 446.17Z" fill="black"/>
<path opacity="0.1" d="M429.54 440.48C429.54 440.48 424.54 440.8 426.46 441.79C428.38 442.78 429.54 440.48 429.54 440.48Z" fill="black"/>
<path opacity="0.1" d="M435.77 441.98C435.7 442.31 421.29 446.98 424.11 449.06C426.93 451.14 435.77 441.98 435.77 441.98Z" fill="black"/>
<path opacity="0.1" d="M389.91 482.07C392.07 481.75 404.13 476.18 399.41 480.18C398.147 481.328 396.596 482.11 394.922 482.443C393.249 482.776 391.516 482.647 389.91 482.07Z" fill="black"/>
<path opacity="0.1" d="M395.87 486.46C395.87 486.46 396.92 490.53 400.92 490C404.92 489.47 395.87 486.46 395.87 486.46Z" fill="black"/>
<path opacity="0.1" d="M392.53 494.72C393.25 494.52 401.83 490.59 402.03 492.43C402.23 494.27 393.84 497.43 393.19 496.49C392.813 495.971 392.584 495.359 392.53 494.72V494.72Z" fill="black"/>
<path opacity="0.1" d="M420.31 490C421.31 489.94 431.18 486.79 433.15 489.61L420.31 490Z" fill="black"/>
<path opacity="0.1" d="M429.22 491.84C429.22 491.84 430.92 490.33 432.62 491.12C434.32 491.91 429.22 491.84 429.22 491.84Z" fill="black"/>
<path opacity="0.1" d="M407.47 508.08C407.577 508.638 407.843 509.152 408.238 509.561C408.632 509.969 409.137 510.254 409.69 510.38L407.47 508.08Z" fill="black"/>
<path d="M457.45 514.24C456.8 516.93 447.62 517.19 443.24 516.47C438.86 515.75 429.74 513.13 429.74 513.13C429.74 513.13 420.18 512.21 417.36 511.03C414.54 509.85 416.77 506.84 416.77 506.84C416.77 506.84 416.77 506.74 416.77 506.56C416.7 505.46 416.51 501.49 417.18 500.42C417.97 499.17 417.51 495.11 417.51 495.11C417.51 495.11 431.07 497.73 431.33 496.49C431.59 495.25 433.69 493.49 434.67 493.08C435.65 492.67 436.38 496.36 436.38 496.36C436.38 496.36 442.54 501.6 442.93 503.5C443.32 505.4 447.64 506.38 447.64 506.38C450.446 507.132 453.204 508.051 455.9 509.13C456.395 509.362 456.821 509.718 457.138 510.163C457.455 510.608 457.652 511.127 457.71 511.67C457.78 512.536 457.692 513.406 457.45 514.24V514.24Z" fill="#444053"/>
<path opacity="0.1" d="M457.45 514.24C456.8 516.93 447.62 517.19 443.24 516.47C438.86 515.75 429.74 513.13 429.74 513.13C429.74 513.13 420.18 512.21 417.36 511.03C414.54 509.85 416.77 506.84 416.77 506.84C416.77 506.84 416.77 506.74 416.77 506.56L430.48 509.56C430.48 509.56 437.23 512.44 441.55 512.44C445.33 512.44 453.78 513.99 457.71 511.64C457.784 512.515 457.696 513.397 457.45 514.24V514.24Z" fill="black"/>
<path opacity="0.1" d="M438.91 503.89C438.91 503.89 438.26 508.21 435.64 509.66L438.91 503.89Z" fill="black"/>
<path d="M480.9 344.65C477 346.13 468 346.29 464 346.29C462.78 346.29 462 346.29 462 346.29L459.43 341.05L462 336.68C462 336.68 464.36 336.03 467.5 335.46C472.13 334.63 478.5 333.98 481.5 335.85C486.54 338.98 486 342.78 480.9 344.65Z" fill="#A1616A"/>
<path d="M421.33 281.94L422.47 280.63C422.47 280.63 428.32 289.89 428.93 293.38C429.54 296.87 430.33 300.89 430.33 300.89C430.33 300.89 431.81 305.43 432.78 307.44C433.606 308.963 434.25 310.577 434.7 312.25C434.78 313.12 434.35 315.04 436.18 316.25C438.01 317.46 438.45 320.79 438.45 320.79C438.45 320.79 445.09 327.25 448.59 327.43C452.09 327.61 462.12 329.35 461.78 331.09C461.44 332.83 465.97 333.89 467.78 334.33C469.59 334.77 456 340.02 464 346.78C464 346.78 458.93 347.78 458.41 349.05C457.89 350.32 452.56 348.35 452.56 348.35C452.56 348.35 451.42 345.64 447.49 345.47C443.56 345.3 441.55 343.55 441.55 343.29C441.55 343.03 437.62 340.84 435.44 340.23C433.26 339.62 430.37 339.36 430.28 338.74C430.19 338.12 417.18 281.97 417.18 281.97L421.33 281.94Z" fill="#FED136"/>
<path opacity="0.05" d="M421.33 282.16L422.47 280.85C422.47 280.85 428.32 290.11 428.93 293.61C429.54 297.11 430.33 301.12 430.33 301.12C430.33 301.12 431.81 305.66 432.78 307.67C433.604 309.19 434.248 310.801 434.7 312.47C434.78 313.35 434.35 315.27 436.18 316.47C438.01 317.67 438.45 321.01 438.45 321.01C438.45 321.01 445.09 327.48 448.59 327.65C452.09 327.82 462.12 329.57 461.78 331.32C461.44 333.07 465.97 334.12 467.78 334.55C469.59 334.98 456 340.25 464 346.98C464 346.98 458.93 347.98 458.41 349.25C457.89 350.52 452.56 348.55 452.56 348.55C452.56 348.55 451.42 345.84 447.49 345.67C443.56 345.5 441.55 343.75 441.55 343.48C441.55 343.21 437.62 341.04 435.44 340.43C433.26 339.82 430.37 339.55 430.28 338.94C430.19 338.33 417.18 282.16 417.18 282.16H421.33Z" fill="black"/>
<path d="M555 519.56C621 519.56 674.5 530.31 674.5 543.56C674.5 556.81 621 567.56 555 567.56C489 567.56 435.5 556.82 435.5 543.56" stroke="#444053" stroke-miterlimit="10"/>
<path d="M530.443 24.9573L513.594 22.0984L492.337 147.378L509.186 150.237L530.443 24.9573Z" fill="#444053"/>
<path d="M550.34 527.75L554.08 554.45L557.28 526.69L550.34 527.75Z" fill="#D0D2D5"/>
<path d="M430.2 512.8V529.36L433.94 543.77H436.61L439.82 528.29L441.42 509.6L430.2 512.8Z" fill="#3F3D56"/>
<path d="M422.59 448.2L430.59 449.8C430.59 449.8 421.52 474.89 427.92 480.23H417.79C417.79 480.23 414.05 461.01 422.59 448.2Z" fill="#D0D2D5"/>
<path opacity="0.1" d="M422.59 448.2L430.59 449.8C430.59 449.8 421.52 474.89 427.92 480.23H417.79C417.79 480.23 414.05 461.01 422.59 448.2Z" fill="black"/>
<path d="M476.12 146.53L450.49 308.84C450.49 308.84 412.59 481.84 427 516.01H445.16L499.62 183.91L476.12 146.53Z" fill="#D0D2D5"/>
<path d="M541.12 126.37L560.77 289.51C560.77 289.51 575.08 497.34 559.41 530.95H543.93L516.27 162.86L541.12 126.37Z" fill="#D0D2D5"/>
<path d="M473.73 87.23C475.049 82.7986 477.794 78.9265 481.539 76.2143C485.283 73.5022 489.818 72.1017 494.44 72.23C510.25 72.63 534.69 75.51 547.44 88.57C567.2 108.86 534.09 177.2 534.09 177.2C534.09 177.2 503.09 234.33 474.83 161.72C474.79 161.78 463.07 122.9 473.73 87.23Z" fill="#444053"/>
<path opacity="0.1" d="M473.73 87.23C475.049 82.7986 477.794 78.9265 481.539 76.2143C485.283 73.5022 489.818 72.1017 494.44 72.23C510.25 72.63 534.69 75.51 547.44 88.57C567.2 108.86 534.09 177.2 534.09 177.2C534.09 177.2 503.09 234.33 474.83 161.72C474.79 161.78 463.07 122.9 473.73 87.23Z" fill="black"/>
<path d="M484.6 101.11C485.55 97.962 487.509 95.2135 490.174 93.2875C492.839 91.3614 496.063 90.3644 499.35 90.4499C510.6 90.7399 528 92.7899 537.05 102.09C551.12 116.53 527.55 165.19 527.55 165.19C527.55 165.19 505.55 205.86 485.35 154.19C485.35 154.16 477 126.51 484.6 101.11Z" fill="#444053"/>
<path d="M539.33 516.9C539.5 519.48 539.9 522.19 541.53 524.21C544.23 527.55 549.14 527.81 553.34 528.86C556.565 529.782 559.693 531.015 562.68 532.54L571.77 536.84C569.439 536.975 567.141 537.453 564.95 538.26C563.78 538.69 562.5 539.4 562.33 540.62C562.308 541.129 562.44 541.632 562.71 542.064C562.979 542.496 563.373 542.836 563.84 543.04C564.79 543.431 565.813 543.612 566.84 543.57C572.254 543.722 577.671 543.438 583.04 542.72L583.68 542.63C586.44 543.997 589.187 545.393 591.92 546.82C593.06 547.42 594.43 546.82 595.39 545.98C596.562 544.942 597.597 543.759 598.47 542.46C598.63 542.74 598.79 543.01 598.92 543.28C599.8 544.97 600.63 547.18 599.37 548.62C598.37 549.74 596.48 549.93 595.91 551.29C595.755 551.782 595.761 552.31 595.928 552.798C596.096 553.286 596.415 553.707 596.84 554C597.71 554.574 598.711 554.918 599.75 555C602.223 555.34 604.733 555.32 607.2 554.94C608.537 554.846 609.804 554.308 610.8 553.41C611.651 552.252 612.1 550.847 612.08 549.41L613.79 529.98C613.946 529.057 613.877 528.111 613.59 527.22C612.91 525.57 610.94 524.88 609.16 524.59H608.97C610.45 524.59 611.97 524.52 613.57 524.52C614.964 524.61 616.362 524.433 617.69 524C620.23 523 621.6 520.33 622.69 517.87C624.69 513.55 626.99 508.87 626.69 504.07L625.91 503.72C625.84 498.61 623.7 493.84 622.91 488.85C623.778 487.51 624.24 485.947 624.24 484.35C624.136 482.594 623.755 480.866 623.11 479.23C619.94 469.81 616.77 460.36 612.53 451.36C609.787 445.366 606.436 439.67 602.53 434.36C601.51 433.027 600.45 431.693 599.35 430.36C598.55 429.44 596.76 428.14 596.43 426.97C596.1 425.8 596.8 424.66 596.43 423.46C596.335 423.147 596.215 422.843 596.07 422.55C598.41 419.45 597.75 414.97 596.93 411.11L595.93 406.3C595.716 404.973 595.298 403.688 594.69 402.49C594.046 401.462 593.239 400.547 592.3 399.78C587.38 395.34 581.3 392.39 575.77 388.71C569.92 384.82 564.69 380.09 559.45 375.42C557.85 374 555.84 372.47 553.77 373.07C551.7 373.67 550.84 375.91 550.77 377.95C550.751 379.365 551.031 380.767 551.591 382.067C552.151 383.366 552.978 384.532 554.02 385.49C557.64 388.8 563.11 389.07 567.42 391.41C568.901 392.27 570.309 393.25 571.63 394.34L584.15 404.17C585.099 404.738 585.796 405.646 586.1 406.71C586.149 407.351 586.046 407.996 585.8 408.59C585.33 410.03 584.53 411.84 583.94 413.67L582.94 412.95C580.867 411.401 578.646 410.061 576.31 408.95C573.211 407.684 569.936 406.898 566.6 406.62C559.21 405.79 552.6 406.93 548.08 413.1C547.143 414.51 545.953 415.734 544.57 416.71C543.545 417.187 542.587 417.795 541.72 418.52C539.4 421.09 540.72 425.35 542.9 427.52C544.745 429.234 547.018 430.419 549.48 430.95C550.837 433.978 553.26 436.401 556.288 437.758C559.316 439.115 562.737 439.312 565.9 438.31C566.055 439.597 566.085 440.897 565.99 442.19C565.942 442.856 566.044 443.524 566.288 444.145C566.532 444.766 566.912 445.325 567.4 445.78C567.926 446.138 568.507 446.408 569.12 446.58C571.332 447.381 573.427 448.474 575.35 449.83C573.092 452.276 571.23 455.059 569.83 458.08C568.97 460.085 568.611 462.269 568.785 464.444C568.96 466.618 569.661 468.718 570.83 470.56L570.89 470.64C570.722 471.263 570.41 471.838 569.98 472.32C569.37 472.796 568.6 473.018 567.831 472.94C567.061 472.861 566.351 472.489 565.85 471.9C564.992 470.886 564.266 469.767 563.69 468.57C562.701 466.954 561.392 465.556 559.845 464.463C558.298 463.369 556.544 462.603 554.69 462.21C553.32 461.859 551.877 461.919 550.54 462.38C549.882 462.616 549.306 463.035 548.879 463.588C548.452 464.141 548.192 464.804 548.13 465.5C548.13 467.01 549.23 468.26 550.31 469.33C553.623 472.766 557.313 475.819 561.31 478.43C562.399 479.104 563.524 479.718 564.68 480.27C562.68 479.85 560.707 479.44 558.76 479.04C556.032 478.36 553.214 478.113 550.41 478.31C549.011 478.419 547.655 478.843 546.443 479.549C545.231 480.256 544.194 481.227 543.41 482.39C542.308 484.483 542.075 486.926 542.76 489.19C543.453 491.435 544.489 493.56 545.83 495.49C547.934 499.027 550.515 502.257 553.5 505.09C551 505.84 548.5 506.66 546.06 507.56C543.62 508.46 541.06 509.56 539.94 511.8C539.283 513.414 539.072 515.176 539.33 516.9ZM576.14 482.9H576.23C576.761 482.659 577.215 482.275 577.54 481.79C579.06 479.756 580.137 477.426 580.7 474.95C581.281 474.872 581.851 474.727 582.4 474.52C582.026 474.876 581.729 475.304 581.526 475.778C581.323 476.253 581.219 476.764 581.22 477.28L586.86 480.04C587.267 480.193 587.616 480.469 587.86 480.83C588.015 481.203 588.053 481.614 587.97 482.01C587.81 483.3 587.56 484.59 587.4 485.87C585.71 485.37 584.05 484.97 582.56 484.57C580.44 483.99 578.29 483.45 576.14 482.91V482.9Z" fill="url(#paint1_linear)"/>
<path d="M577.19 429.78C578.609 430.135 580.085 430.198 581.528 429.966C582.972 429.734 584.354 429.211 585.59 428.43C586.085 428.083 586.636 427.826 587.22 427.67C587.738 427.624 588.259 427.701 588.742 427.894C589.225 428.087 589.656 428.39 590 428.78C592.4 431.17 592.68 435.11 591.44 438.26C590.2 441.41 587.71 443.89 585.1 446.04C582.992 447.776 580.763 449.36 578.43 450.78C577.787 449.274 576.852 447.91 575.677 446.768C574.503 445.627 573.114 444.73 571.59 444.13C568.85 443.07 566.85 440.23 565.28 437.75C564.11 435.91 563.07 435.99 564.12 434.09C565.305 432.266 566.702 430.587 568.28 429.09C569.14 428.18 569.891 427.173 570.52 426.09C571.22 424.83 571.06 424.01 572.14 425.01C572.85 425.67 573.14 427.1 573.96 427.87C574.87 428.754 575.977 429.408 577.19 429.78V429.78Z" fill="#FABDBD"/>
<path d="M585.78 410.28C586.014 409.693 586.113 409.061 586.07 408.43C585.771 407.383 585.089 406.488 584.16 405.92L571.93 396.22C570.647 395.144 569.275 394.177 567.83 393.33C563.61 391.02 558.28 390.75 554.74 387.49C553.722 386.537 552.914 385.382 552.366 384.1C551.819 382.817 551.544 381.435 551.56 380.04C551.56 378.04 552.56 375.78 554.45 375.22C556.34 374.66 558.45 376.14 560.01 377.55C565.12 382.15 570.22 386.82 575.93 390.66C581.33 394.3 587.28 397.2 592.09 401.59C592.967 402.337 593.72 403.218 594.32 404.2C594.908 405.39 595.316 406.66 595.53 407.97L596.53 412.71C597.37 416.71 598.05 421.36 595.36 424.43C594.969 424.922 594.474 425.321 593.91 425.599C593.347 425.878 592.729 426.028 592.1 426.04C591.213 425.931 590.358 425.638 589.59 425.18C587.59 424.18 583.97 423.18 583.36 420.68C582.58 417.55 584.83 413.18 585.78 410.28Z" fill="#FABDBD"/>
<path d="M566.27 472.78C565.436 471.777 564.727 470.675 564.16 469.5C563.202 467.91 561.929 466.532 560.419 465.452C558.91 464.372 557.195 463.613 555.38 463.22C554.059 462.886 552.67 462.942 551.38 463.38C550.735 463.618 550.171 464.035 549.755 464.582C549.338 465.13 549.087 465.785 549.03 466.47C549.03 467.95 550.1 469.19 551.15 470.24C554.385 473.637 557.995 476.657 561.91 479.24C565.831 481.812 570.329 483.371 575 483.78C575.471 483.838 575.948 483.793 576.4 483.65C576.918 483.41 577.361 483.033 577.68 482.56C580.16 479.38 581.02 475.25 581.68 471.28C581.44 472.71 573.39 469.37 572.48 469.8C571.14 470.43 571.27 472.31 570.3 473.21C569.706 473.681 568.951 473.9 568.197 473.82C567.443 473.739 566.751 473.366 566.27 472.78V472.78Z" fill="#FABDBD"/>
<path d="M624.92 504.2C624.966 504.7 624.869 505.203 624.64 505.65C624.09 506.51 622.85 506.52 621.84 506.37C619.508 505.976 617.205 505.422 614.95 504.71L594.42 498.78C594.093 498.717 593.79 498.569 593.54 498.35C593.323 498.093 593.181 497.782 593.13 497.45C592.416 494.505 592.264 491.452 592.68 488.45C592.705 488.017 592.846 487.599 593.09 487.24C593.552 486.814 594.162 486.584 594.79 486.6C598.006 486.274 601.237 486.127 604.47 486.16C606.567 486.248 608.668 486.202 610.76 486.02C613.46 485.7 616.57 484.15 619.28 484.39C621.63 484.59 621.53 486.39 621.77 488.39C622.44 493.7 624.87 498.78 624.92 504.2Z" fill="#FABDBD"/>
<path d="M559.37 479.83C556.707 479.15 553.952 478.904 551.21 479.1C549.844 479.208 548.519 479.624 547.336 480.317C546.153 481.009 545.143 481.961 544.38 483.1C543.292 485.169 543.062 487.583 543.74 489.82C544.426 492.028 545.437 494.121 546.74 496.03C549.047 500.02 552.012 503.59 555.51 506.59C557.26 507.98 559.19 509.13 560.87 510.59C564.45 513.72 566.67 518.09 568.8 522.34C570.8 526.34 572.8 530.42 573.66 534.82C573.668 534.99 573.709 535.156 573.783 535.309C573.857 535.462 573.962 535.599 574.09 535.71C574.368 535.845 574.687 535.866 574.98 535.77L584.83 533.95C585.109 533.962 585.385 533.898 585.63 533.764C585.876 533.631 586.08 533.434 586.222 533.194C586.363 532.953 586.437 532.679 586.435 532.4C586.433 532.121 586.355 531.848 586.21 531.61C584.073 522.425 580.074 513.777 574.46 506.2C577.069 508.665 580.228 510.472 583.675 511.47C587.122 512.468 590.758 512.629 594.28 511.94C595.657 511.744 596.956 511.181 598.04 510.31C600.24 508.31 600.14 504.9 599.65 501.99C599.209 499.397 598.601 496.835 597.83 494.32C595.98 488.32 588 486.7 582.59 485.24C574.91 483.207 567.17 481.403 559.37 479.83Z" fill="#3F3D56"/>
<path opacity="0.1" d="M566.66 501.09C568.066 501.647 569.34 502.491 570.4 503.57C568.63 501.57 563.57 500.57 561.09 499.64C558.02 498.5 554.67 497.33 552.09 495.3C557.081 496.874 561.95 498.809 566.66 501.09Z" fill="black"/>
<path d="M598.56 543.24C599.41 544.92 600.22 547.09 599 548.52C598.06 549.62 596.18 549.81 595.62 551.15C595.467 551.635 595.472 552.157 595.636 552.639C595.799 553.121 596.113 553.538 596.53 553.83C597.374 554.404 598.353 554.749 599.37 554.83C601.787 555.16 604.239 555.14 606.65 554.77C607.956 554.674 609.192 554.143 610.16 553.26C611.002 552.098 611.44 550.694 611.41 549.26L613.08 530.08C613.228 529.167 613.163 528.233 612.89 527.35C612.22 525.72 610.3 525.05 608.56 524.76C606.615 524.43 604.636 524.35 602.67 524.52C601.344 524.538 600.058 524.979 599 525.78C598.018 526.899 597.413 528.298 597.27 529.78C596.82 532.06 595.56 535.22 595.83 537.53C596 539.44 597.72 541.56 598.56 543.24Z" fill="#FED136"/>
<path d="M576.48 537.04C572.73 536.551 568.918 536.98 565.37 538.29C564.23 538.71 562.98 539.42 562.81 540.62C562.787 541.121 562.917 541.617 563.181 542.044C563.445 542.47 563.831 542.807 564.29 543.01C565.221 543.396 566.223 543.577 567.23 543.54C572.517 543.68 577.807 543.399 583.05 542.7C584.412 542.611 585.732 542.196 586.9 541.49C587.477 541.123 587.912 540.57 588.132 539.923C588.352 539.276 588.344 538.572 588.11 537.93C587.48 536.61 585.76 536.2 584.93 535.01C584.33 534.15 584.18 532.88 583.24 532.43C582.53 532.204 581.759 532.261 581.09 532.59C580.09 532.94 577.69 533.29 577 534.12C576.701 535.067 576.527 536.048 576.48 537.04Z" fill="#FED136"/>
<path d="M562.32 440.27C569.571 440.27 575.45 434.392 575.45 427.14C575.45 419.889 569.571 414.01 562.32 414.01C555.068 414.01 549.19 419.889 549.19 427.14C549.19 434.392 555.068 440.27 562.32 440.27Z" fill="#FABDBD"/>
<path d="M593.46 421.36C591.35 419.81 588.69 419.28 586.12 418.8C585.252 418.529 584.317 418.576 583.48 418.93C582.927 419.33 582.49 419.868 582.21 420.49C581.418 421.774 580.831 423.175 580.47 424.64C580.294 425.374 580.292 426.139 580.466 426.874C580.64 427.609 580.984 428.292 581.47 428.87C582.25 429.67 583.37 430.07 584.17 430.87C584.689 431.449 585.066 432.141 585.271 432.89C585.475 433.64 585.503 434.428 585.35 435.19C585.027 436.707 584.434 438.153 583.6 439.46C581.672 442.859 579.471 446.096 577.02 449.14C574.47 452.31 571.61 455.36 570.11 459.14C569.274 461.123 568.928 463.278 569.102 465.422C569.276 467.567 569.965 469.638 571.11 471.46C573.54 475 578.38 476.9 582.39 475.37C582.024 475.722 581.735 476.144 581.539 476.612C581.343 477.08 581.244 477.583 581.25 478.09L586.75 480.82C587.156 480.969 587.506 481.242 587.75 481.6C587.897 481.968 587.932 482.372 587.85 482.76C587.419 484.978 587.194 487.231 587.18 489.49C587.33 491.74 588.36 494.11 590.4 495.09C592.27 495.99 594.49 495.51 596.53 495.09C601.294 494.125 606.139 493.616 611 493.57C613.42 493.57 615.92 493.63 618.15 492.69C619.645 492.031 620.918 490.955 621.817 489.591C622.716 488.227 623.203 486.633 623.22 485C623.12 483.265 622.746 481.557 622.11 479.94C619.02 470.64 615.92 461.32 611.78 452.43C609.083 446.514 605.797 440.886 601.97 435.63C600.97 434.3 599.97 432.99 598.86 431.72C598.08 430.81 596.33 429.53 596.01 428.37C595.69 427.21 596.37 426.09 596.01 424.91C595.561 423.485 594.667 422.241 593.46 421.36Z" fill="#FED136"/>
<path d="M625.68 504.47C619.92 501.81 614.16 499.15 608.17 497.08C603.76 495.56 598.84 494.37 594.51 496.08C593.21 496.6 592.03 497.35 590.78 497.96C586.59 499.96 581.78 500.3 577.15 500.81C566.847 501.97 556.723 504.378 547 507.98C544.67 508.84 542.16 509.98 541 512.16C540.344 513.739 540.123 515.466 540.36 517.16C540.53 519.71 540.92 522.39 542.51 524.38C545.15 527.68 549.94 527.93 554.04 528.97C557.195 529.884 560.252 531.103 563.17 532.61C572.75 537.18 582.34 541.75 591.74 546.7C592.84 547.29 594.18 546.7 595.12 545.87C597.952 543.241 599.995 539.875 601.02 536.15C602.039 532.443 602.544 528.614 602.52 524.77C606.2 524.77 609.19 524.61 612.87 524.61C614.224 524.695 615.581 524.522 616.87 524.1C619.34 523.1 620.68 520.47 621.79 518.05C623.77 513.78 626 509.15 625.68 504.47Z" fill="#3F3D56"/>
<path opacity="0.1" d="M558.8 518.14C561.39 516.88 564.39 516.85 567.28 516.87C569.042 516.838 570.803 516.972 572.54 517.27C575.192 517.977 577.768 518.945 580.23 520.16C586.363 522.734 592.958 524.027 599.61 523.96" fill="black"/>
<path d="M543.86 429C545.839 430.825 548.293 432.056 550.94 432.55C553.54 433.15 556.22 433.38 558.84 433.96C562.06 434.67 565.58 436.37 566.31 439.59C566.478 440.88 566.512 442.183 566.41 443.48C566.362 444.128 566.459 444.779 566.692 445.386C566.925 445.993 567.29 446.541 567.76 446.99C568.275 447.339 568.842 447.605 569.44 447.78C574.685 449.785 579.207 453.322 582.417 457.93C585.627 462.538 587.377 468.005 587.44 473.62C589.087 472.66 590.498 471.342 591.567 469.763C592.637 468.185 593.339 466.386 593.62 464.5C593.62 467.98 596.62 471.5 594.92 474.61C596.774 473.398 598.357 471.814 599.567 469.959C600.778 468.103 601.59 466.016 601.952 463.831C602.313 461.645 602.218 459.408 601.67 457.261C601.122 455.115 600.135 453.105 598.77 451.36C597.45 449.68 595.77 448.28 594.39 446.67C592.431 444.409 590.959 441.767 590.068 438.911C589.176 436.054 588.884 433.045 589.21 430.07C589.5 427.54 590.21 424.98 589.68 422.49C588.91 419.04 585.88 416.64 583 414.59C580.975 413.066 578.805 411.746 576.52 410.65C573.494 409.397 570.293 408.618 567.03 408.34C559.82 407.53 553.41 408.65 548.94 414.74C548.034 416.132 546.874 417.34 545.52 418.3C544.517 418.774 543.579 419.376 542.73 420.09C540.44 422.63 541.74 426.83 543.86 429Z" fill="#3F3D56"/>
<path d="M409 282.59C408.59 282.42 380.09 270.65 384 268.31C386.33 266.92 389.2 261.04 391.16 256.43C392.53 253.22 393.46 250.62 393.46 250.62C393.46 250.62 416.34 246.56 408.15 260.62C406.859 262.772 405.886 265.1 405.26 267.53C402.9 277.03 408.77 282.41 409 282.59Z" fill="#A1616A"/>
<path opacity="0.1" d="M408.12 260.58C406.829 262.732 405.856 265.06 405.23 267.49C402.329 267.283 399.539 266.289 397.16 264.616C394.781 262.942 392.904 260.651 391.73 257.99C391.499 257.482 391.299 256.962 391.13 256.43C392.5 253.22 393.43 250.62 393.43 250.62C393.43 250.62 416.31 246.56 408.12 260.58Z" fill="black"/>
<path d="M422.34 251.02C422.324 254.678 421.054 258.22 418.743 261.056C416.432 263.891 413.219 265.849 409.639 266.604C406.06 267.358 402.33 266.863 399.071 265.201C395.812 263.539 393.221 260.81 391.73 257.47C390.828 255.44 390.365 253.242 390.37 251.02C390.39 247.179 391.791 243.473 394.318 240.579C396.845 237.686 400.328 235.798 404.131 235.261C407.935 234.723 411.805 235.572 415.034 237.652C418.263 239.732 420.637 242.905 421.72 246.59C422.131 248.031 422.34 249.522 422.34 251.02Z" fill="#A1616A"/>
<path opacity="0.1" d="M437.76 374.87C436.616 376.117 435.816 377.64 435.44 379.29C435.44 379.29 427.58 384.66 428.1 381.29C428.62 377.92 424 364.09 424 364.09L424.52 382.83C424.52 382.83 399.37 381.65 397.52 379.83C395.67 378.01 385 374.44 385 374.44C385 374.44 381.71 377.08 378.68 379.08C378.28 376.82 377.99 374.83 377.99 374.83L388.8 366.12L415.8 359.04L425.94 355.78L435.83 371.37C435.83 371.37 436.85 372.99 437.76 374.87Z" fill="black"/>
<path d="M438.58 373.39C436.49 374.7 435.7 378.24 435.7 378.24C435.7 378.24 427.84 383.61 428.36 380.24C428.88 376.87 424.3 363.08 424.3 363.08L424.83 381.82C424.83 381.82 399.67 380.64 397.83 378.82C395.99 377 385.25 373.45 385.25 373.45C385.25 373.45 375.95 380.92 374.25 380.26C372.55 379.6 377.25 366.9 377.25 366.9L382.09 292.48C382.09 292.48 380.78 270.34 382.75 269.55C383.054 269.43 383.332 269.253 383.57 269.03C384.87 267.87 385.26 265.51 385.37 263.52C385.5 261.17 388.64 262.34 388.64 262.34L386.81 264.7L403.05 274.57L403.19 274.66C403.839 274.326 404.507 274.029 405.19 273.77C406.63 273.22 408.54 272.7 409.79 273.22C410.488 273.578 411.081 274.113 411.51 274.77C412.439 276.161 413.182 277.667 413.72 279.25L419.62 289.2C419.62 289.2 422.62 302.44 422.62 302.96C422.62 303.48 423.54 315.54 424.62 316.85C425.7 318.16 426.72 324.71 426.33 326.68C425.94 328.65 426.98 335.98 426.98 335.98C431.31 339.52 433.53 351.57 433.53 351.57C433.53 351.57 440.35 365.07 440.87 366.64C441.39 368.21 440.68 372.08 438.58 373.39Z" fill="#444053"/>
<path opacity="0.1" d="M403.07 275.04C401.47 277.4 396.87 280.71 396.87 280.71L383.59 269.5C384.89 268.34 385.28 265.97 385.39 263.99C385.52 261.63 388.66 262.81 388.66 262.81L388.28 263.3C388.098 263.535 387.969 263.806 387.899 264.095C387.829 264.384 387.821 264.685 387.874 264.977C387.928 265.269 388.043 265.547 388.211 265.792C388.379 266.037 388.597 266.244 388.85 266.4L403.07 275.04Z" fill="black"/>
<path d="M403.07 274.51C401.47 276.87 396.87 280.19 396.87 280.19L383.59 268.97C384.89 267.81 385.28 265.45 385.39 263.46C385.52 261.11 388.66 262.28 388.66 262.28L388.28 262.77C388.098 263.005 387.969 263.276 387.899 263.565C387.829 263.854 387.821 264.155 387.874 264.447C387.928 264.739 388.043 265.017 388.211 265.262C388.379 265.507 388.597 265.714 388.85 265.87L403.07 274.51Z" fill="#444053"/>
<path opacity="0.1" d="M409.21 276.28C407.49 278.33 405.06 280.66 405.21 279.49C405.36 278.32 403.76 275.75 402.77 274.6C404.327 274.11 406.002 274.156 407.53 274.73C408.214 275.094 408.792 275.628 409.21 276.28V276.28Z" fill="black"/>
<path d="M409.47 275.49C407.75 277.55 405.32 279.87 405.47 278.71C405.62 277.55 404.18 275.65 403.18 274.5C404.62 273.95 406.53 273.43 407.78 273.95C408.469 274.305 409.052 274.837 409.47 275.49V275.49Z" fill="#444053"/>
<path opacity="0.1" d="M383.6 269.62C383.6 269.62 383.77 268.05 381.5 270.76C379.595 272.747 377.404 274.439 375 275.78C375 275.78 365.31 282.6 364.78 285.78C364.25 288.96 361.11 302.55 362.78 307.09C364.45 311.63 377.11 333.39 377.11 333.39C377.11 333.39 373.79 337.32 374.57 341.95C375.35 346.58 376.32 352.95 375.88 354.35C375.44 355.75 376.41 359.24 374.88 360.46C373.35 361.68 371.83 363.78 376.46 366.58C376.46 366.58 377.33 368.94 376.54 369.46C375.75 369.98 388.16 375.4 393.05 372.52C397.94 369.64 406.77 346.58 406.94 341.42C407.11 336.26 404.23 319.24 402.66 315.22C401.09 311.2 396.37 295.56 394.36 292.07C392.35 288.58 383.6 269.62 383.6 269.62Z" fill="black"/>
<path d="M383.07 269.62C383.07 269.62 383.25 268.05 380.98 270.76C379.063 272.765 376.855 274.471 374.43 275.82C374.43 275.82 364.73 282.64 364.21 285.82C363.69 289 360.54 302.59 362.21 307.13C363.88 311.67 376.53 333.43 376.53 333.43C376.53 333.43 373.21 337.36 374 341.99C374.79 346.62 375.75 352.99 375.31 354.39C374.87 355.79 375.83 359.28 374.31 360.5C372.79 361.72 371.25 363.82 375.88 366.62C375.88 366.62 376.76 368.98 375.97 369.5C375.18 370.02 387.59 375.44 392.48 372.56C397.37 369.68 406.19 346.62 406.37 341.46C406.55 336.3 403.66 319.28 402.09 315.26C400.52 311.24 395.8 295.6 393.79 292.11C391.78 288.62 383.07 269.62 383.07 269.62Z" fill="#FED136"/>
<path opacity="0.1" d="M379.58 284.47C379.58 284.47 387.09 292.77 386.83 298.27C386.83 298.27 386.92 289.36 379.58 284.47Z" fill="black"/>
<path opacity="0.1" d="M404.93 272.59C404.93 272.59 409.8 269.59 415.93 277.22C415.93 277.22 420.38 279.75 421.69 280.37C423 280.99 424.49 297.22 424.49 297.22C424.49 297.22 427.37 304.22 426.58 308.22C425.79 312.22 428.86 326.04 428.86 326.04C428.86 326.04 433.92 350.85 433.75 351.54C433.58 352.23 428.59 343.77 428.68 339.54C428.77 335.31 424.49 322.24 423.88 321.46C423.27 320.68 419.07 298.22 419.07 298.22C419.07 298.22 415.67 288.7 413.48 285.56C411.29 282.42 408.59 276.47 407.48 275.42C406.665 274.717 405.756 274.132 404.78 273.68L404.93 272.59Z" fill="black"/>
<path d="M404.87 272.59C404.87 272.59 410.33 269.59 416.44 277.22C416.44 277.22 420.9 279.75 422.21 280.37C423.52 280.99 425 297.22 425 297.22C425 297.22 427.88 304.22 427.1 308.22C426.32 312.22 429.37 326.04 429.37 326.04C429.37 326.04 434.44 350.85 434.26 351.54C434.08 352.23 429.11 343.77 429.19 339.54C429.27 335.31 425 322.24 424.39 321.46C423.78 320.68 419.59 298.22 419.59 298.22C419.59 298.22 416.18 288.78 414 285.61C411.82 282.44 409.1 276.52 408 275.47C407.029 274.712 405.937 274.124 404.77 273.73L404.87 272.59Z" fill="#FED136"/>
<path d="M428.85 327.18C428.85 327.18 439.24 320.37 444.26 323.73C449.28 327.09 457.5 331.86 449.42 335.31C441.34 338.76 430.16 338.1 430.16 338.1L428.85 327.18Z" fill="#A1616A"/>
<path opacity="0.1" d="M421.62 392.91C420.07 396.24 418.79 412.91 417.92 418.23C416.68 416.1 415.18 413.56 414.67 412.76C413.499 410.23 412.481 407.632 411.62 404.98C412.62 402.58 415.33 395.7 415.33 393.18C415.33 390.1 420.33 386.23 420.33 386.23C421.224 387.064 421.83 388.16 422.062 389.36C422.294 390.56 422.139 391.803 421.62 392.91V392.91Z" fill="black"/>
<path opacity="0.1" d="M421.72 246.59C421.47 246.72 421.209 246.827 420.94 246.91C419.71 247.24 418.51 246.41 417.42 245.75C416.33 245.09 414.82 244.6 413.87 245.46C412.64 246.58 413.53 248.97 412.26 250.05C411.46 250.74 410.19 250.5 409.26 251.05C408.33 251.6 408.1 252.85 407.87 253.91C407.64 254.97 407.2 256.19 406.15 256.5C405.1 256.81 404.15 256.13 403.15 256.16C402.94 256.16 402.69 256.16 402.55 256.04C402.457 255.902 402.421 255.734 402.45 255.57C402.575 254.296 402.459 253.011 402.11 251.78C401.927 251.165 401.585 250.61 401.117 250.171C400.65 249.732 400.075 249.425 399.45 249.28C397.61 249 396.06 250.61 394.98 252.13C393.846 253.73 392.813 255.4 391.89 257.13C391.84 257.22 391.79 257.34 391.73 257.48C390.828 255.45 390.365 253.252 390.37 251.03C390.39 247.189 391.791 243.483 394.318 240.589C396.845 237.696 400.328 235.808 404.131 235.271C407.935 234.733 411.805 235.582 415.034 237.662C418.263 239.742 420.637 242.915 421.72 246.6V246.59Z" fill="black"/>
<path d="M395 251.88C396.08 250.36 397.63 248.75 399.47 249.03C400.093 249.175 400.667 249.481 401.134 249.918C401.601 250.355 401.945 250.908 402.13 251.52C402.48 252.751 402.592 254.037 402.46 255.31C402.437 255.478 402.477 255.649 402.57 255.79C402.71 255.95 402.96 255.92 403.17 255.91C404.17 255.91 405.22 256.54 406.17 256.25C407.12 255.96 407.67 254.72 407.89 253.66C408.11 252.6 408.36 251.38 409.28 250.8C410.2 250.22 411.45 250.47 412.28 249.8C413.55 248.72 412.66 246.32 413.89 245.21C414.84 244.35 416.35 244.84 417.44 245.5C418.53 246.16 419.73 246.99 420.96 246.66C421.367 246.515 421.764 246.344 422.15 246.15C424.1 245.41 426.62 246.67 428.21 245.34C428.79 244.757 429.207 244.033 429.42 243.24C429.861 242.174 430.157 241.054 430.3 239.91C430.443 238.75 430.127 237.58 429.42 236.65C428.42 235.43 426.62 235.12 425.29 234.22C424.212 233.372 423.317 232.314 422.66 231.11C422.004 229.906 421.136 228.829 420.1 227.93C419.574 227.488 418.938 227.198 418.259 227.092C417.58 226.986 416.885 227.069 416.25 227.33C415.868 227.599 415.441 227.798 414.99 227.92C414.5 227.931 414.017 227.799 413.6 227.54C409.06 225.4 403.77 225.78 398.79 226.42C396.781 226.578 394.81 227.054 392.95 227.83C392.022 228.222 391.189 228.811 390.509 229.554C389.829 230.298 389.318 231.18 389.01 232.14C388.61 233.68 388.92 235.35 388.43 236.87C388.1 237.87 387.43 238.78 387.03 239.79C385.97 242.55 387.24 245.59 387.78 248.5C388.37 251.68 388.07 255.12 389.42 258.13C389.69 258.72 389.98 259.75 390.65 259.36C391.14 259.07 391.65 257.36 391.9 256.87C392.831 255.145 393.866 253.479 395 251.88V251.88Z" fill="#3F3D56"/>
<path opacity="0.1" d="M366.22 303.08L363.86 309.78C363.86 309.78 369.45 330.57 372.07 334.94C374.69 339.31 378.53 344.94 378.53 344.94C382.917 346.909 387.794 347.516 392.53 346.68C400.04 345.2 421.96 341.27 421.96 341.27C422.478 341.364 423.012 341.315 423.504 341.131C423.997 340.946 424.431 340.631 424.76 340.22C425.76 338.82 430.7 338.12 430.7 338.12C430.7 338.12 436.46 329.74 429.39 326.24C429.39 326.24 428.52 328.17 424.76 326.85C421 325.53 419.87 327.9 419.87 327.9C419.87 327.9 413.75 329.13 410.35 328.69C406.95 328.25 398.47 328.08 397.59 327.38C397.481 327.282 397.354 327.208 397.216 327.159C397.078 327.111 396.932 327.091 396.786 327.099C396.64 327.107 396.498 327.144 396.366 327.208C396.235 327.272 396.117 327.361 396.02 327.47C395.007 327.105 394.064 326.57 393.23 325.89C392.53 325.11 391.57 326.77 391.57 326.77C391.57 326.77 390.34 326.07 390.69 325.2C391.04 324.33 389.56 321 389.56 321C389.165 319.729 389.076 318.382 389.3 317.07C389.73 315.32 387.11 309.07 387.11 309.07C387.079 308.009 387.196 306.948 387.46 305.92C387.9 304.35 384.14 301.2 384.14 301.2C384.14 301.2 380.47 283.39 372.7 289.2C364.93 295.01 366.22 303.08 366.22 303.08Z" fill="black"/>
<path d="M365.69 303.08L363.33 309.78C363.33 309.78 368.92 330.57 371.54 334.94C374.16 339.31 378.01 344.94 378.01 344.94C382.396 346.913 387.275 347.519 392.01 346.68C399.53 345.2 421.45 341.27 421.45 341.27C421.968 341.364 422.502 341.315 422.995 341.131C423.488 340.946 423.921 340.631 424.25 340.22C425.25 338.82 430.19 338.12 430.19 338.12C430.19 338.12 435.95 329.74 428.88 326.24C428.88 326.24 428 328.17 424.25 326.85C420.5 325.53 419.35 327.9 419.35 327.9C419.35 327.9 413.24 329.13 409.83 328.69C406.42 328.25 397.95 328.08 397.08 327.38C396.971 327.282 396.844 327.208 396.706 327.159C396.568 327.111 396.422 327.091 396.276 327.099C396.131 327.107 395.988 327.144 395.856 327.208C395.725 327.272 395.607 327.361 395.51 327.47C394.494 327.105 393.547 326.571 392.71 325.89C392.01 325.11 391.05 326.77 391.05 326.77C391.05 326.77 389.83 326.07 390.18 325.2C390.53 324.33 389.04 321 389.04 321C388.651 319.728 388.562 318.382 388.78 317.07C389.22 315.32 386.6 309.07 386.6 309.07C386.563 308.008 386.681 306.947 386.95 305.92C387.38 304.35 383.63 301.2 383.63 301.2C383.63 301.2 379.96 283.39 372.19 289.2C364.42 295.01 365.69 303.08 365.69 303.08Z" fill="#FED136"/>
<path opacity="0.1" d="M387.27 323.34C387.27 323.34 378.71 325.09 381.59 326.57C384.47 328.05 387.27 323.34 387.27 323.34Z" fill="black"/>
<g opacity="0.1">
<path opacity="0.1" d="M402.11 250.04C401.928 249.426 401.586 248.871 401.118 248.434C400.651 247.996 400.075 247.691 399.45 247.55C397.61 247.27 396.06 248.88 394.98 250.39C393.846 251.992 392.811 253.662 391.88 255.39C391.6 255.91 391.12 257.59 390.63 257.88C389.96 258.27 389.63 257.23 389.4 256.64C388.05 253.64 388.4 250.19 387.76 247.01C387.288 245.161 386.91 243.288 386.63 241.4C386.43 243.68 387.33 246.08 387.76 248.4C388.35 251.58 388.05 255.02 389.4 258.03C389.67 258.62 389.96 259.65 390.63 259.26C391.12 258.97 391.63 257.26 391.88 256.78C392.809 255.05 393.844 253.381 394.98 251.78C396.06 250.26 397.61 248.65 399.45 248.94C400.075 249.081 400.651 249.386 401.118 249.824C401.586 250.261 401.928 250.816 402.11 251.43C402.326 252.075 402.444 252.75 402.46 253.43C402.56 252.288 402.442 251.137 402.11 250.04V250.04Z" fill="black"/>
<path opacity="0.1" d="M429.4 241.78C429.189 242.572 428.772 243.293 428.19 243.87C426.6 245.2 424.08 243.95 422.13 244.69C421.73 244.84 421.36 245.08 420.94 245.2C419.71 245.52 418.51 244.7 417.42 244.04C416.33 243.38 414.82 242.88 413.87 243.74C412.64 244.86 413.53 247.25 412.26 248.33C411.46 249.02 410.19 248.78 409.26 249.33C408.33 249.88 408.1 251.12 407.87 252.18C407.64 253.24 407.2 254.46 406.15 254.77C405.1 255.08 404.15 254.4 403.15 254.44C402.94 254.44 402.69 254.44 402.55 254.32C402.516 254.284 402.491 254.239 402.48 254.19C402.48 254.54 402.48 254.89 402.48 255.24C402.459 255.405 402.498 255.572 402.59 255.71C402.73 255.87 402.98 255.84 403.19 255.84C404.19 255.84 405.24 256.46 406.19 256.17C407.14 255.88 407.69 254.65 407.91 253.58C408.13 252.51 408.38 251.31 409.3 250.73C410.22 250.15 411.47 250.4 412.3 249.73C413.57 248.65 412.68 246.26 413.91 245.14C414.86 244.28 416.37 244.77 417.46 245.43C418.55 246.09 419.75 246.92 420.98 246.59C421.385 246.444 421.782 246.277 422.17 246.09C424.12 245.35 426.64 246.6 428.23 245.27C428.81 244.691 429.227 243.971 429.44 243.18C429.88 242.11 430.176 240.987 430.32 239.84C430.365 239.451 430.365 239.059 430.32 238.67C430.128 239.737 429.82 240.78 429.4 241.78V241.78Z" fill="black"/>
</g>
<path d="M255 521.57C320.998 521.57 374.5 510.825 374.5 497.57C374.5 484.315 320.998 473.57 255 473.57C189.002 473.57 135.5 484.315 135.5 497.57C135.5 510.825 189.002 521.57 255 521.57Z" stroke="#444053" stroke-opacity="0.2" stroke-miterlimit="10"/>
<defs>
<linearGradient id="paint0_linear" x1="408.64" y1="524.67" x2="408.64" y2="224.26" gradientUnits="userSpaceOnUse">
<stop stop-color="#808080" stop-opacity="0.25"/>
<stop offset="0.54" stop-color="#808080" stop-opacity="0.12"/>
<stop offset="1" stop-color="#808080" stop-opacity="0.1"/>
</linearGradient>
<linearGradient id="paint1_linear" x1="-45610.3" y1="119473" x2="-53263.3" y2="119473" gradientUnits="userSpaceOnUse">
<stop stop-color="#808080" stop-opacity="0.25"/>
<stop offset="0.54" stop-color="#808080" stop-opacity="0.12"/>
<stop offset="1" stop-color="#808080" stop-opacity="0.1"/>
</linearGradient>
</defs>
</svg>
