<svg width="600" height="410" viewBox="0 0 600 410" fill="none" xmlns="http://www.w3.org/2000/svg">
<path opacity="0.1" d="M312.022 283.492H243.543V292.359H312.022V283.492Z" fill="#FDC503"/>
<path opacity="0.1" d="M312.022 310.421H243.543V319.287H312.022V310.421Z" fill="#FDC503"/>
<path opacity="0.1" d="M161.304 169.58H148.57V182.32H161.304V169.58Z" fill="#FDC503"/>
<path opacity="0.1" d="M161.304 199.18H148.57V211.921H161.304V199.18Z" fill="#FDC503"/>
<path opacity="0.1" d="M161.304 228.777H148.57V241.517H161.304V228.777Z" fill="#FDC503"/>
<path opacity="0.1" d="M161.304 258.377H148.57V271.117H161.304V258.377Z" fill="#FDC503"/>
<path opacity="0.1" d="M161.304 287.978H148.57V300.718H161.304V287.978Z" fill="#FDC503"/>
<path opacity="0.1" d="M161.304 317.574H148.57V330.314H161.304V317.574Z" fill="#FDC503"/>
<path opacity="0.1" d="M119.173 332.406C119.584 332.639 120 332.863 120.42 333.087V332.863H123.995V334.882L124.757 335.23V332.863H128.332V336.742L129.094 337.034V332.863H132.897V338.345L133.66 338.583V332.406H119.173Z" fill="#FDC503"/>
<path opacity="0.1" d="M209.786 254.115C209.786 254.115 206.065 264.37 213.744 265.307C214.096 265.48 214.494 265.537 214.88 265.47C215.266 265.402 215.622 265.214 215.894 264.932C215.894 264.932 215.36 264.754 215.853 263.758C216.029 263.402 216.161 263.027 216.246 262.639C216.364 262.116 216.306 261.569 216.081 261.082V261.082C216.081 261.082 215.739 257.788 211.283 255.23C211.283 255.23 210.489 254.074 210.21 254.029L210.438 256.011C210.438 256.011 211.89 255.787 212.803 256.573C212.803 256.573 210.521 255.956 210.461 256.308C210.461 256.381 210.63 257.354 210.63 257.354C210.63 257.354 213.15 256.975 214.525 258.231C214.525 258.231 211.886 257.13 210.694 257.724L211.05 259.181C211.05 259.181 213.694 258.647 215.314 260.022C215.314 260.022 212.52 258.962 211.151 259.492L211.694 260.862C211.694 260.862 214.283 260.405 215.625 261.543C215.625 261.543 212.269 260.629 211.84 261.173C212.074 261.705 212.371 262.206 212.726 262.667C212.726 262.667 214.593 262.37 215.314 263.123C215.314 263.123 213.004 262.763 212.922 263.005C212.922 263.005 214.105 264.416 215.082 264.832C214.164 264.51 213.347 263.952 212.712 263.215C212.652 263.811 212.768 264.411 213.045 264.941C213.045 264.941 212.05 264.485 212.429 262.868C212.429 262.868 211.557 261.726 211.552 261.497C211.552 261.497 210.95 263.041 211.096 264.124C211.096 264.124 210.365 262.991 211.397 261.136L210.822 259.766C210.822 259.766 209.909 261.762 209.977 262.735C209.977 262.735 209.411 261.465 210.708 259.405L210.343 257.984C209.864 258.847 209.5 259.768 209.26 260.725C209.26 260.725 208.987 259.428 210.251 257.555L210.119 256.573C210.119 256.573 209.48 257.797 209.329 258.167C209.178 258.537 209.064 258.524 209.064 258.524C209.17 257.659 209.514 256.841 210.059 256.162C210.059 256.162 209.909 254.115 209.786 254.115Z" fill="#FDC503"/>
<path opacity="0.1" d="M195.021 157.461C195.021 157.461 191.304 167.711 198.979 168.648C199.332 168.82 199.729 168.878 200.116 168.811C200.503 168.745 200.859 168.558 201.134 168.278C201.134 168.278 200.595 168.1 201.093 167.099C201.265 166.742 201.395 166.367 201.481 165.98C201.598 165.459 201.542 164.913 201.321 164.427C201.321 164.427 200.979 161.133 196.518 158.571C196.518 158.571 195.724 157.415 195.445 157.369L195.678 159.356C195.678 159.356 197.125 159.128 198.039 159.914C198.039 159.914 195.756 159.297 195.696 159.653C195.696 159.722 195.865 160.699 195.865 160.699C195.865 160.699 198.386 160.316 199.764 161.576C199.764 161.576 197.125 160.471 195.929 161.069L196.285 162.522C196.285 162.522 198.929 161.987 200.554 163.362C200.554 163.362 197.755 162.303 196.386 162.837L196.929 164.208C196.929 164.208 199.518 163.751 200.86 164.893C200.86 164.893 197.504 163.979 197.075 164.518C197.309 165.05 197.606 165.552 197.961 166.012C197.961 166.012 199.828 165.72 200.55 166.469C200.55 166.469 198.244 166.108 198.162 166.345C198.162 166.345 199.34 167.761 200.317 168.173C199.4 167.847 198.583 167.288 197.947 166.551C197.887 167.148 198.003 167.75 198.28 168.282C198.28 168.282 197.285 167.825 197.669 166.204C197.669 166.204 196.792 165.066 196.788 164.833C196.788 164.833 196.189 166.373 196.331 167.46C196.331 167.46 195.596 166.323 196.632 164.472L196.052 163.102C196.052 163.102 195.139 165.098 195.208 166.076C195.208 166.076 194.642 164.801 195.938 162.741L195.573 161.321C195.095 162.183 194.732 163.105 194.491 164.061C194.491 164.061 194.222 162.769 195.482 160.891L195.354 159.914C195.354 159.914 194.71 161.138 194.56 161.503C194.409 161.869 194.295 161.864 194.295 161.864C194.4 161 194.745 160.182 195.29 159.502C195.29 159.502 195.148 157.461 195.021 157.461Z" fill="#FDC503"/>
<path opacity="0.1" d="M222.614 213.282C222.614 213.282 225.486 223.788 232.298 220.134C232.685 220.072 233.043 219.89 233.32 219.612C233.597 219.335 233.779 218.977 233.841 218.59C233.841 218.59 233.302 218.754 233.133 217.654C233.069 217.263 232.959 216.881 232.805 216.516C232.602 216.02 232.241 215.606 231.777 215.338C231.777 215.338 229.6 212.843 224.472 213.318C224.472 213.318 223.158 212.839 222.902 212.962L224.235 214.447C224.235 214.447 225.29 213.428 226.49 213.533C226.49 213.533 224.258 214.355 224.422 214.671C224.459 214.735 225.162 215.429 225.162 215.429C225.162 215.429 226.988 213.661 228.851 213.894C228.851 213.894 226.061 214.515 225.431 215.694L226.559 216.676C226.559 216.676 228.413 214.716 230.531 214.899C230.531 214.899 227.632 215.648 226.819 216.872L228.061 217.69C228.061 217.69 229.887 215.813 231.668 215.982C231.668 215.982 228.408 217.183 228.358 217.859C228.856 218.159 229.39 218.397 229.947 218.567C229.947 218.567 231.316 217.252 232.316 217.439C232.316 217.439 230.22 218.476 230.294 218.718C230.294 218.718 232.074 219.175 233.101 218.955C232.166 219.221 231.178 219.236 230.234 219.001C230.528 219.524 230.969 219.948 231.503 220.221C231.503 220.221 230.426 220.417 229.805 218.878C229.805 218.878 228.435 218.453 228.289 218.261C228.289 218.261 228.691 219.869 229.431 220.673C229.431 220.673 228.18 220.166 227.956 218.055L226.691 217.265C226.691 217.265 227.107 219.417 227.709 220.18C227.709 220.18 226.513 219.467 226.385 217.037L225.271 216.087C225.38 217.072 225.616 218.04 225.975 218.965C225.975 218.965 225.011 218.051 224.961 215.803L224.29 215.077C224.29 215.077 224.472 216.448 224.559 216.836C224.646 217.224 224.559 217.293 224.559 217.293C224.148 216.525 223.958 215.658 224.011 214.789C224.011 214.789 222.719 213.213 222.614 213.282Z" fill="#FDC503"/>
<path d="M271.292 328.176C271.292 328.176 294.979 320.196 290.075 291.92L259.988 284.104L253.003 307.305L271.292 328.176Z" fill="#CED7E7"/>
<path opacity="0.1" d="M253.003 307.305L271.288 328.177C271.288 328.177 294.974 320.196 290.071 291.92L253.003 307.305Z" fill="black"/>
<path d="M153.474 98.4096C153.474 98.4096 156.67 103.613 161.039 101.013C165.408 98.4142 161.217 91.2333 161.217 91.2333C161.217 91.2333 152.848 90.0867 153.474 98.4096Z" fill="#FED253"/>
<path opacity="0.1" d="M161.039 101.014C160.524 101.347 159.946 101.572 159.34 101.674C158.735 101.776 158.115 101.754 157.519 101.607C155.917 101.201 154.684 99.9675 154.022 99.1589C153.824 98.9221 153.641 98.6734 153.474 98.4144C153.25 95.4452 154.172 93.6773 155.451 92.6358C157.209 91.2061 159.642 91.1467 160.692 91.1924C161.016 91.1924 161.203 91.238 161.203 91.238L161.29 91.3842C161.413 91.6172 161.683 92.1334 161.97 92.8231C162.947 95.0843 164.112 99.1818 161.039 101.014Z" fill="black"/>
<path d="M273.621 290.591L290.057 291.92L320.646 292.171L296.544 321.863C296.544 321.863 288.897 322.279 287.322 323.357C285.747 324.435 263.631 323.86 263.631 323.86L260.061 308.639L273.621 290.591Z" fill="#FFA2A2"/>
<path opacity="0.05" d="M273.621 290.591L290.057 291.92L320.646 292.171L296.544 321.863C296.544 321.863 288.897 322.279 287.322 323.357C285.747 324.435 263.631 323.86 263.631 323.86L260.061 308.639L273.621 290.591Z" fill="black"/>
<path d="M256.998 210.76L260.819 217.247L261.65 228.557C261.65 228.557 264.312 238.2 266.307 241.028C268.302 243.856 269.133 251.343 269.133 251.343C269.133 251.343 269.964 258.327 270.959 259.821C271.954 261.315 273.288 272.154 273.288 272.154C273.288 272.154 282.099 289.782 290.075 291.943C290.075 291.943 250.515 304.916 271.292 328.199C271.292 328.199 256.5 331.854 253.007 327.702C249.515 323.549 240.375 262.009 240.375 262.009L243.201 210.116L256.998 210.76Z" fill="#CED7E7"/>
<path opacity="0.05" d="M256.998 210.76L260.819 217.247L261.65 228.557C261.65 228.557 264.312 238.2 266.307 241.028C268.302 243.856 269.133 251.343 269.133 251.343C269.133 251.343 269.964 258.327 270.959 259.821C271.954 261.315 273.288 272.154 273.288 272.154C273.288 272.154 282.099 289.782 290.075 291.943C290.075 291.943 250.515 304.916 271.292 328.199C271.292 328.199 256.5 331.854 253.007 327.702C249.515 323.549 240.375 262.009 240.375 262.009L243.201 210.116L256.998 210.76Z" fill="black"/>
<path d="M209 147.543C207.89 153.305 208.219 159.252 209.959 164.856L203.804 182.484C203.804 182.484 156.93 156.373 160.92 150.051C163.18 146.465 163.468 136.978 163.285 129.44C163.153 123.712 162.746 119.117 162.746 119.117C162.746 119.117 220.272 124.776 212.616 137.914C210.883 140.9 209.661 144.155 209 147.543V147.543Z" fill="#FFA2A2"/>
<path opacity="0.1" d="M212.616 137.914C210.883 140.9 209.661 144.155 209 147.543C200.463 150.276 191.244 149.966 182.91 146.665C174.575 143.365 167.641 137.278 163.285 129.44C163.153 123.712 162.747 119.117 162.747 119.117C162.747 119.117 220.259 124.776 212.616 137.914Z" fill="black"/>
<path d="M235.887 109.638C235.891 115.736 234.456 121.748 231.701 127.187C228.945 132.626 224.945 137.337 220.027 140.938C215.109 144.539 209.411 146.928 203.396 147.911C197.382 148.894 191.22 148.443 185.412 146.595C179.605 144.747 174.315 141.554 169.973 137.275C165.631 132.996 162.359 127.753 160.423 121.97C158.488 116.188 157.944 110.031 158.834 103.999C159.725 97.9665 162.026 92.2297 165.55 87.2546C166.098 86.4841 166.674 85.7319 167.28 84.998C170.731 80.801 175.026 77.3771 179.886 74.9484V74.9484C182.522 73.6287 185.303 72.62 188.172 71.9426C193.353 70.7146 198.731 70.5664 203.971 71.5071C209.212 72.4478 214.203 74.4574 218.634 77.4108C223.065 80.3643 226.841 84.1983 229.727 88.6746C232.614 93.1508 234.549 98.1734 235.412 103.43C235.734 105.483 235.893 107.559 235.887 109.638Z" fill="#FFA2A2"/>
<path d="M249.424 269.095C248.844 272.192 249.57 277.852 250.67 283.612C250.716 283.864 250.766 284.115 250.816 284.366C250.866 284.617 250.94 285.006 251.003 285.321C251.51 287.797 252.063 290.25 252.601 292.479C253.14 294.708 253.624 296.617 254.035 298.189C254.656 300.541 255.08 302.021 255.08 302.021C255.08 302.021 255.135 303.474 255.208 305.785C255.249 307.119 255.295 308.746 255.341 310.541C255.341 311.062 255.373 311.591 255.386 312.14C255.409 313.094 255.432 314.086 255.455 315.1C255.455 315.429 255.455 315.757 255.478 316.091C255.478 317.183 255.519 318.297 255.537 319.407C255.56 320.933 255.578 322.459 255.587 323.939C255.587 324.505 255.587 325.063 255.587 325.611C255.587 327.027 255.587 328.383 255.587 329.631C255.537 333.171 255.395 335.843 255.094 336.615C254.989 336.88 254.893 337.168 254.802 337.469C254.406 338.887 254.119 340.333 253.944 341.795L253.167 341.16C251.684 339.936 250.214 338.684 248.721 337.469C246.239 335.389 243.605 333.499 240.841 331.814C240.653 331.704 240.466 331.595 240.274 331.49C239.763 331.193 239.243 330.914 238.713 330.649C237.622 330.099 236.503 329.605 235.362 329.169C230.089 327.159 224.441 326.428 218.716 326.552C216.433 327.424 214.949 328.05 214.949 328.05L212.046 328.927L211.562 329.073C208.416 330.033 203.992 331.394 202.399 331.96C199.824 332.874 177.466 337.529 177.466 337.529C175.424 338.087 173.337 338.469 171.23 338.671C167.392 339.751 163.486 340.569 159.537 341.119C150.565 342.267 141.452 341.533 132.779 338.963C132.52 338.978 132.26 338.971 132.002 338.94C132.162 338.94 132.317 338.904 132.459 338.876L131.902 338.712L131.14 338.474C129.861 338.072 128.594 337.632 127.336 337.154L126.574 336.862C125.357 336.393 124.165 335.889 122.999 335.35L122.237 335.003C121.019 334.436 119.828 333.838 118.662 333.207C118.242 332.988 117.826 332.751 117.416 332.527C116.174 331.832 114.956 331.105 113.763 330.343C113.562 328.621 113.457 327.47 113.457 327.47L111.677 318.599L111.585 318.142L110.307 311.747L110.216 311.29L107.435 297.376L107.344 296.919L106.066 290.524L105.974 290.067L103.157 276.162L103.066 275.705L101.788 269.31L101.696 268.853L98.9022 254.921L98.8109 254.464L97.5326 248.091L97.4413 247.635L96.9345 245.122L96.172 241.317C96.172 241.317 93.7386 237.836 90.9993 233.72L90.6934 233.264C89.9127 232.108 89.1091 230.906 88.3284 229.728C88.0682 229.34 87.8171 228.956 87.566 228.577C87.1855 228.001 86.8172 227.439 86.4611 226.891L86.2146 226.512L86.1644 226.434C82.2289 220.341 84.8632 217.691 84.8632 217.691C84.8632 217.691 86.5159 215.453 88.648 212.493C88.753 212.342 88.8626 212.191 88.9767 212.036C89.8898 210.757 90.8943 209.359 91.8804 207.961L92.6429 206.874C92.9305 206.468 93.2136 206.061 93.4875 205.659C93.5971 205.508 93.7021 205.353 93.8025 205.202C95.9072 202.16 97.6421 199.506 97.9983 198.565C98.5553 197.08 102.107 192.69 105.646 188.84C108.435 185.797 111.211 183.093 112.457 182.444C115.283 180.951 116.448 176.122 116.448 176.122C116.448 176.122 122.597 173.966 123.428 172.303C124.259 170.641 135.897 163.167 135.897 163.167C135.897 163.167 140.604 160.134 142.508 158.307C142.777 158.068 143.012 157.793 143.206 157.489C143.868 156.302 148.192 155.324 149.95 154.972C150.406 154.881 150.689 154.831 150.689 154.831C151.399 153.541 152.296 152.363 153.351 151.336C154.068 150.701 154.963 148.513 155.716 146.394C156.533 144.082 157.168 141.857 157.168 141.857C158.501 137.367 161.158 138.696 161.158 138.696C161.154 139.31 161.213 139.922 161.332 140.524C162.441 146.005 168.467 148.289 171.631 150.852C175.124 153.675 180.607 160.997 184.931 162.491C188.51 163.729 192.66 168.398 193.975 169.955L194.076 170.074C194.295 170.33 195.856 169.955 195.856 169.955C195.856 169.955 197.226 175.742 198.349 170.321H198.892C199.196 170.29 199.484 170.173 199.723 169.983C201.207 168.973 203.417 166.013 204.38 165.333C205.54 164.497 206.708 151.025 206.708 151.025L206.768 150.998C210.909 149.057 215.351 168.489 215.351 168.489C215.351 168.489 223.163 170.819 223.829 172.481C223.957 172.81 224.546 173.395 225.432 174.103C229.465 177.187 233.757 179.915 238.261 182.257C238.361 182.307 238.457 182.358 238.558 182.399C238.648 182.447 238.741 182.492 238.836 182.531C239.005 182.613 239.17 182.686 239.325 182.755C239.571 182.865 239.8 182.956 240.01 183.029L240.284 183.125C240.938 183.343 241.554 183.662 242.11 184.071C242.274 184.189 242.438 184.313 242.598 184.445C243.22 184.963 243.792 185.538 244.306 186.163C244.383 186.254 244.456 186.35 244.529 186.441C244.876 186.875 245.187 187.305 245.443 187.702C245.862 188.315 246.245 188.953 246.589 189.612C246.589 189.612 253.4 201.255 255.564 202.58C257.728 203.905 259.057 217.385 259.057 217.385L251.752 244.478C251.752 244.478 251.41 251.33 250.771 258.319C250.414 262.239 249.962 266.226 249.424 269.095Z" fill="#CED7E7"/>
<path opacity="0.1" d="M235.393 103.43C235.22 103.676 235.023 103.904 234.804 104.111C232.403 106.395 228.139 105.449 224.865 104.919C222.021 104.454 219.242 103.65 216.588 102.526C214.278 101.539 211.506 100.333 209.429 101.749C208.63 102.288 208.082 103.151 207.251 103.626C206.42 104.101 205.361 104.133 204.38 104.147C201.184 104.147 197.988 104.184 194.87 103.462C190.217 102.375 185.405 99.6385 180.981 101.443C177.521 102.85 175.644 106.618 174.708 110.241C174.252 112.018 173.914 113.895 172.882 115.403C171.85 116.91 169.855 117.979 168.157 117.271C165.65 116.225 165.28 111.968 162.258 111.753C158.939 111.52 158.98 114.951 159.948 117.431C161.381 121.085 163.258 124.74 163.34 128.55C159.773 122.157 158.087 114.885 158.478 107.573C158.869 100.262 161.321 93.2115 165.55 87.2363C166.286 86.7803 166.862 86.1066 167.198 85.3086C167.232 85.2007 167.259 85.0908 167.28 84.9797C167.531 83.7052 166.823 82.3668 166.782 81.0329C166.623 77.7759 170.147 75.5056 173.38 75.0945C175.53 74.8204 177.731 75.0305 179.886 74.962C180.971 74.9381 182.05 74.7941 183.104 74.5326C184.922 73.9875 186.625 73.1127 188.126 71.9517C193.307 70.7236 198.685 70.5754 203.925 71.5161C209.166 72.4569 214.157 74.4664 218.588 77.4199C223.019 80.3733 226.795 84.2074 229.681 88.6837C232.568 93.1599 234.503 98.1825 235.366 103.439L235.393 103.43Z" fill="black"/>
<path d="M236.174 100.739C235.946 101.643 235.472 102.465 234.804 103.115C232.403 105.399 228.139 104.449 224.865 103.919C222.02 103.464 219.241 102.666 216.588 101.543C214.278 100.561 211.506 99.3552 209.429 100.771C208.63 101.31 208.082 102.174 207.251 102.649C206.42 103.124 205.361 103.156 204.379 103.165C201.184 103.188 197.988 103.206 194.869 102.484C190.217 101.393 185.405 98.6609 180.981 100.461C177.52 101.868 175.644 105.641 174.708 109.263C174.251 111.04 173.914 112.918 172.882 114.421C171.85 115.923 169.855 117.001 168.156 116.293C165.65 115.247 165.28 110.99 162.258 110.775C158.939 110.542 158.98 113.973 159.948 116.453C161.646 120.779 163.956 125.082 163.198 129.669C162.445 129.669 161.199 129.641 160.459 129.623C161.034 128.641 159.939 127.471 158.847 127.138C157.756 126.804 156.482 126.809 155.651 126.014C154.821 125.219 154.816 123.991 154.903 122.89C155.092 120.537 155.667 118.231 156.606 116.065C157.204 114.695 157.975 113.21 157.519 111.776C157.245 111.126 156.915 110.5 156.533 109.907C155.583 108.08 155.807 105.796 156.619 103.91C156.966 103.106 157.217 102.347 157.505 101.626C157.868 100.6 158.394 99.6387 159.062 98.7797C160.107 97.4778 161.13 95.5181 159.975 94.3076C159.683 94.0015 160.267 93.7914 160.08 93.394C160.047 93.3261 160.024 93.2538 160.012 93.1793C159.958 92.6981 160.074 92.2133 160.34 91.8089C160.394 91.7038 160.454 91.6016 160.518 91.5028C160.571 91.3984 160.63 91.2977 160.696 91.2013C161.707 89.5125 163.051 88.0469 164.646 86.8937C165.636 86.1765 166.796 85.4867 167.189 84.3265C167.645 82.9561 166.842 81.4989 166.773 80.0508C166.613 76.7938 170.138 74.5235 173.37 74.1124C176.603 73.7013 179.954 74.3819 183.104 73.5459C187.574 72.3674 190.715 68.4206 194.774 66.2051C196.994 65.0173 199.456 64.3528 201.973 64.2626C204.489 64.1723 206.992 64.6586 209.292 65.6844C214.031 67.8496 217.606 72.2258 222.555 73.8703C224.308 74.455 226.207 74.6879 227.787 75.6564C229.613 76.7801 230.723 78.7443 231.672 80.6812C233.12 83.6184 233.412 86.5694 234.412 89.6802C235.206 92.1469 236.306 95.3719 236.398 98.2132C236.449 99.0617 236.374 99.9131 236.174 100.739V100.739Z" fill="#896363"/>
<g opacity="0.1">
<path opacity="0.1" d="M160.569 95.0156C160.642 94.7232 160.649 94.4183 160.59 94.1228C160.531 93.8273 160.407 93.5487 160.227 93.3071C160.345 93.6634 159.829 93.869 160.112 94.1659C160.338 94.4031 160.496 94.6966 160.569 95.0156Z" fill="black"/>
<path opacity="0.1" d="M160.213 92.2611C160.159 92.4205 160.127 92.5865 160.117 92.7544C160.203 92.6083 160.322 92.4575 160.213 92.2611Z" fill="black"/>
<path opacity="0.1" d="M234.933 102C232.527 104.284 228.267 103.339 224.984 102.804C222.142 102.346 219.365 101.544 216.716 100.415C214.402 99.4284 211.635 98.2224 209.553 99.6385C208.759 100.178 208.211 101.041 207.375 101.516C206.54 101.991 205.485 102.023 204.503 102.032C201.308 102.032 198.112 102.073 194.989 101.347C190.341 100.26 185.529 97.5327 181.105 99.3279C177.644 100.739 175.768 104.508 174.832 108.13C174.375 109.907 174.042 111.785 173.006 113.292C171.969 114.8 169.974 115.869 168.28 115.165C165.774 114.115 165.404 109.862 162.382 109.647C160.021 109.478 159.364 111.168 159.524 113.046C159.661 111.611 160.437 110.506 162.382 110.643C165.404 110.858 165.774 115.115 168.28 116.161C169.974 116.869 171.974 115.805 173.006 114.288C174.038 112.772 174.375 110.903 174.832 109.131C175.768 105.508 177.644 101.735 181.105 100.328C185.529 98.5285 190.341 101.242 194.989 102.347C198.093 103.074 201.317 103.051 204.503 103.028C205.485 103.028 206.521 103.001 207.375 102.516C208.229 102.032 208.745 101.178 209.553 100.634C211.635 99.2228 214.402 100.429 216.716 101.411C219.366 102.539 222.142 103.343 224.984 103.805C228.267 104.334 232.527 105.289 234.933 102.996C236.239 101.749 236.631 99.9446 236.544 97.9712C236.471 99.538 236.015 100.959 234.933 102Z" fill="black"/>
<path opacity="0.1" d="M166.933 79.224C166.908 79.4515 166.899 79.6804 166.906 79.9092C166.951 80.8594 167.312 81.8095 167.426 82.7368C167.595 81.5994 167.07 80.4117 166.933 79.224Z" fill="black"/>
<path opacity="0.1" d="M157.656 111.634C157.694 111.771 157.723 111.91 157.743 112.05C157.817 111.579 157.787 111.097 157.656 110.638C157.384 109.986 157.054 109.359 156.67 108.765C156.327 108.09 156.124 107.352 156.072 106.596C155.979 107.687 156.186 108.783 156.67 109.766C157.055 110.357 157.385 110.983 157.656 111.634Z" fill="black"/>
<path opacity="0.1" d="M163.322 128.527L160.651 128.486C160.713 128.647 160.738 128.82 160.724 128.993C160.71 129.165 160.657 129.332 160.569 129.481C161.322 129.481 162.573 129.509 163.308 129.527C163.436 128.745 163.48 127.952 163.441 127.161C163.43 127.618 163.391 128.074 163.322 128.527Z" fill="black"/>
<path opacity="0.1" d="M158.953 126C157.862 125.672 156.592 125.667 155.78 124.868C155.301 124.344 155.032 123.663 155.022 122.954C154.953 124.004 155.022 125.137 155.78 125.868C156.592 126.667 157.862 126.672 158.953 127.001C159.308 127.104 159.638 127.279 159.923 127.515C160.208 127.75 160.442 128.042 160.61 128.371C161.071 127.426 160.012 126.316 158.953 126Z" fill="black"/>
</g>
<path d="M238.462 97.085C238.462 97.085 236.718 99.3325 235.143 99.3325C233.568 99.3325 227.436 99.0812 224.24 98.0854C221.044 97.0896 205.375 96.3358 205.375 96.3358C205.375 96.3358 183.187 96.4181 182.438 95.6689C181.689 94.9198 168.641 90.9273 167.312 91.1785C167.034 91.2334 166.354 91.3521 165.445 91.5029L164.404 91.6719C162.829 91.9231 160.861 92.2155 159.063 92.4302C156.839 92.6906 154.885 92.823 154.264 92.5946V90.6806C154.264 90.6806 156.839 86.9349 157.003 85.8614C157.168 84.7879 159.332 69.2246 164.984 63.6562C167.319 59.1901 171.098 55.6476 175.704 53.6066C183.351 50.2765 190.998 47.4534 190.998 47.4534L192.336 47.2616L196.651 46.6221C196.782 46.4914 196.924 46.3722 197.075 46.2658C198.271 45.3522 201.896 43.3651 206.622 47.6362L207.457 48.97C207.457 48.97 221.998 52.3778 228.728 64.2683C235.458 76.1589 235.796 87.8028 236.293 93.1245C236.293 93.1245 235.96 94.6228 236.626 95.203C236.868 95.4163 237.098 95.6419 237.316 95.879C237.375 95.9384 237.435 95.9978 237.489 96.0618C237.681 96.2536 237.859 96.4546 238.005 96.6191C238.023 96.6319 238.038 96.6473 238.051 96.6647C238.087 96.708 238.125 96.7492 238.165 96.7881L238.462 97.085Z" fill="#FED253"/>
<path opacity="0.05" d="M238.461 97.0849C238.461 97.0849 236.717 99.3324 235.142 99.3324C233.567 99.3324 227.436 99.0811 224.24 98.0853C221.044 97.0895 205.375 96.3358 205.375 96.3358C205.375 96.3358 183.186 96.418 182.438 95.6688C181.689 94.9197 168.641 90.9272 167.312 91.1785C167.034 91.2333 166.353 91.3521 165.445 91.5028L165.207 90.0411L165.148 89.6802C165.148 89.6802 190.331 84.2762 207.119 87.1084C223.906 89.9406 236.293 93.0925 236.293 93.0925C236.293 93.0925 235.96 94.5908 236.626 95.1709C236.867 95.3842 237.098 95.6099 237.315 95.847C237.375 95.9064 237.434 95.9658 237.489 96.0297C237.681 96.2216 237.859 96.4226 238.005 96.587C238.022 96.5998 238.038 96.6152 238.051 96.6327C238.086 96.6759 238.124 96.7171 238.165 96.756L238.461 97.0849Z" fill="black"/>
<path opacity="0.1" d="M236.174 100.739C233.065 100.982 227.335 100.223 224.829 99.8532C224.116 99.7482 223.418 99.6203 222.715 99.4649C220.026 98.8802 211.757 97.2403 206.735 97.9986C200.668 98.9122 183.547 97.2494 183.547 97.2494C183.547 97.2494 172.991 95.0888 168.75 93.3438C167.193 92.6997 164.591 92.4987 162.002 92.8184C161.342 92.9008 160.687 93.0182 160.039 93.1702C156.505 94.0061 153.524 95.911 154.04 99.1589C153.842 98.922 153.659 98.6733 153.492 98.4143C153.268 95.4451 154.191 93.6772 155.469 92.6357L155.77 92.5124C157.332 92.0684 158.921 91.7281 160.528 91.4937C160.779 91.4526 161.039 91.4161 161.304 91.3841C165.846 90.772 172.416 90.6349 177.959 93.426C177.959 93.426 183.109 95.8425 186.601 95.8425C190.094 95.8425 218.514 96.0937 225.166 98.0032C226.491 98.386 227.841 98.6715 229.207 98.8574C231.632 99.1702 234.097 98.9377 236.42 98.1768C236.468 99.0385 236.385 99.9025 236.174 100.739V100.739Z" fill="black"/>
<path opacity="0.1" d="M238.462 97.0849C238.462 97.0849 236.718 99.3324 235.143 99.3324C233.568 99.3324 227.436 99.0811 224.24 98.0853C221.044 97.0895 205.375 96.3358 205.375 96.3358C205.375 96.3358 183.187 96.418 182.438 95.6688C181.689 94.9197 168.641 90.9272 167.312 91.1785C167.034 91.2333 166.354 91.352 165.445 91.5028L164.404 91.6718C162.596 91.6626 160.797 91.918 159.063 92.4301C156.839 92.6905 154.885 92.823 154.264 92.5946V92.2154C154.743 91.9374 155.242 91.6962 155.757 91.4937C158.838 90.6305 162.01 90.1367 165.208 90.0228C169.193 89.8766 173.855 90.3425 177.95 92.4073C177.95 92.4073 183.1 94.8237 186.593 94.8237C190.085 94.8237 218.506 95.0704 225.158 96.9844C226.483 97.3636 227.833 97.6476 229.198 97.8341C232.194 98.2118 235.237 97.7747 238.005 96.5687C238.023 96.5816 238.038 96.597 238.051 96.6144C238.087 96.6576 238.125 96.6988 238.165 96.7377L238.462 97.0849Z" fill="black"/>
<path d="M154.104 99.0813C154.104 99.0813 148.534 94.8375 155.766 92.0099C155.766 92.0099 168.399 88.1043 177.959 92.9235C177.959 92.9235 183.109 95.3309 186.602 95.3309C190.094 95.3309 218.515 95.5821 225.167 97.4961C226.492 97.8758 227.842 98.1598 229.207 98.3458C232.746 98.7751 236.331 98.0935 239.466 96.3952C239.923 96.144 240.334 96.0161 240.457 96.1623C240.872 96.6648 240.544 99.5746 236.887 100.155C234.033 100.612 227.55 99.7482 224.824 99.3508C224.117 99.2457 223.414 99.1132 222.715 98.9625C220.026 98.3778 211.758 96.7379 206.713 97.4961C200.65 98.4098 183.524 96.747 183.524 96.747C183.524 96.747 172.973 94.5863 168.732 92.8367C164.491 91.0872 152.524 92.5946 154.104 99.0813Z" fill="#FED253"/>
<path opacity="0.1" d="M201.061 54.4927C200.604 53.8349 194.738 49.1344 192.345 47.2341L196.66 46.5946C196.791 46.464 196.933 46.3448 197.084 46.2383C200.221 49.5318 201.061 54.4927 201.061 54.4927Z" fill="black"/>
<path opacity="0.1" d="M182.032 79.7037L180.119 82.5313L187.433 82.2846L187.597 79.1235L182.032 79.7037Z" fill="black"/>
<path opacity="0.1" d="M226.659 83.116L227.49 85.6923L232.147 86.4414L230.152 83.3626L226.659 83.116Z" fill="black"/>
<path opacity="0.1" d="M146.708 169.607C147.206 170.438 163.578 191.99 167.901 191.392C172.225 190.794 146.708 169.607 146.708 169.607Z" fill="black"/>
<path opacity="0.1" d="M158.012 215.584C158.012 215.584 154.519 231.965 156.35 232.486C158.181 233.007 158.012 215.584 158.012 215.584Z" fill="black"/>
<path opacity="0.1" d="M202.892 279.198C203.471 280.861 208.293 291.673 209.375 292.254C210.457 292.834 202.892 279.198 202.892 279.198Z" fill="black"/>
<path opacity="0.1" d="M258.911 234.793C258.742 235.373 254.587 238.785 255.5 240.032C256.413 241.279 258.911 234.793 258.911 234.793Z" fill="black"/>
<path opacity="0.1" d="M269.247 310.421C268.042 311.092 266.795 311.741 265.526 312.362C264.156 313.029 262.787 313.664 261.39 314.262C260.833 314.504 260.276 314.742 259.723 314.97C258.883 315.318 258.052 315.651 257.231 315.971C254.733 316.948 252.327 317.798 250.186 318.515C249.355 318.794 248.561 319.05 247.821 319.287C244.095 320.47 241.621 321.114 241.621 321.114C241.056 320.993 240.477 320.946 239.9 320.973C239.74 320.973 239.576 320.973 239.407 320.973C238.633 321.029 237.864 321.126 237.101 321.265C232.001 322.179 224.797 324.741 220.455 326.418C218.172 327.29 216.689 327.916 216.689 327.916L213.785 328.793L213.301 328.939C210.155 329.899 205.731 331.26 204.138 331.826C201.563 332.74 179.205 337.395 179.205 337.395C177.163 337.953 175.076 338.335 172.969 338.537C167.775 339.014 162.555 339.133 157.346 338.893C152.113 339.231 143.649 338.08 138.723 337.303L137.937 337.18C136.034 336.87 134.824 336.646 134.824 336.646L135.463 335.764L148.571 317.67L148.648 317.56L160.861 300.709L161.318 300.097L162.427 298.567C162.427 298.567 163.094 297.653 165.659 297.594C165.961 297.594 166.289 297.594 166.65 297.594C168.805 297.767 170.932 298.201 172.983 298.886L173.576 299.065C182.42 301.6 196.089 300.965 196.089 300.965C196.089 300.965 204.594 299.594 211.278 298.772L211.776 298.708C213.96 298.399 216.159 298.209 218.364 298.137C222.437 298.219 231.248 296.059 231.248 296.059C233.143 295.652 233.942 295.31 235.01 294.547C235.152 294.446 235.302 294.337 235.467 294.218C235.923 293.875 236.448 293.455 237.124 292.934C238.357 291.989 240.087 290.705 242.808 288.905C243.045 288.75 243.297 288.595 243.566 288.448C243.835 288.302 244.178 288.106 244.506 287.941C247.142 286.693 249.92 285.772 252.779 285.201C255.151 284.69 257.558 284.359 259.979 284.209H260.34C267.188 283.844 274.182 285.018 278.273 288.869C278.988 289.545 279.612 290.313 280.127 291.153C280.377 291.551 280.599 291.966 280.793 292.395C281.167 293.213 281.444 294.072 281.62 294.953C281.653 295.118 281.681 295.282 281.702 295.447C281.702 295.497 281.702 295.543 281.702 295.593C281.702 295.725 281.729 295.858 281.738 295.99C282.104 301.458 276.433 306.401 269.247 310.421Z" fill="black"/>
<path d="M134.824 335.664C134.824 335.664 149.616 338.405 157.346 337.907C157.346 337.907 171.558 338.656 179.205 336.413C179.205 336.413 201.577 331.754 204.138 330.84C206.699 329.926 216.689 326.93 216.689 326.93C216.689 326.93 236.138 318.78 241.621 320.11C241.621 320.11 284.674 308.968 281.597 293.917C278.52 278.865 251.346 282.277 242.79 287.928C234.234 293.579 235.485 294.168 231.239 295.081C231.239 295.081 222.427 297.242 218.355 297.16C214.283 297.078 196.08 299.987 196.08 299.987C196.08 299.987 181.785 300.654 172.978 297.909C164.171 295.164 162.422 297.576 162.422 297.576L134.824 335.664Z" fill="#FFA2A2"/>
<path opacity="0.1" d="M166.901 296.598C166.903 296.616 166.903 296.635 166.901 296.653C166.869 296.992 166.781 297.324 166.641 297.635C164.888 301.938 154.935 313.545 154.935 313.545C154.481 314.924 153.934 316.27 153.296 317.574C151.924 320.362 150.345 323.042 148.571 325.591C145.94 329.406 143.069 333.048 139.974 336.495H139.951C139.557 336.787 139.147 337.057 138.723 337.304C137.65 337.943 136.038 338.733 134.518 338.829C134.259 338.845 133.999 338.837 133.742 338.806C133.901 338.806 134.057 338.77 134.198 338.743L133.641 338.578L132.879 338.341C131.6 337.939 130.333 337.499 129.076 337.02L128.313 336.728C127.096 336.259 125.904 335.755 124.738 335.216L123.976 334.869C122.758 334.302 121.567 333.704 120.401 333.074C119.981 332.854 119.566 332.617 119.155 332.393C117.913 331.699 116.695 330.971 115.502 330.209C114.236 329.402 112.997 328.56 111.786 327.683C110.873 325.989 110.12 324.486 109.709 323.677C108.96 322.174 108.896 320.023 108.987 318.465C108.987 318.305 108.987 318.154 109.015 318.008C109.092 317.031 109.211 316.359 109.211 316.359C108.534 315.454 107.924 314.502 107.385 313.509C107.075 313.016 106.899 312.451 106.873 311.869C106.894 311.635 106.872 311.4 106.809 311.175C106.458 309.731 104.947 307.251 103.55 305.693C102.509 304.546 102.445 300.262 102.545 297.224C102.605 295.397 102.719 294.054 102.719 294.054C102.514 293.922 102.361 293.723 102.285 293.492C101.918 292.492 101.67 291.452 101.545 290.395C101.545 290.244 101.504 290.093 101.481 289.938C101.189 287.841 101.057 285.735 101.057 285.735C97.6784 283.273 96.0713 279.431 95.3226 276.005L95.2267 275.549C94.8155 273.443 94.6409 271.298 94.7062 269.153C94.7062 268.948 94.7062 268.793 94.7062 268.697C94.7062 268.601 94.7062 268.582 94.7062 268.582C94.7062 268.582 95.1536 258.684 96.4046 254.819C96.4548 254.655 96.5096 254.504 96.5644 254.362C96.6566 254.119 96.776 253.888 96.9205 253.672C97.3771 253.065 97.7012 251.918 97.9706 250.562C98.1578 249.621 98.313 248.575 98.4271 247.533C98.5321 246.665 98.6143 245.802 98.6782 245.002C98.8563 242.864 98.9111 241.197 98.9111 241.197L98.0665 237.031C97.8336 235.894 97.6556 234.747 97.5323 233.601C97.5323 233.45 97.4958 233.299 97.4775 233.144C97.264 231.026 97.2258 228.895 97.3634 226.771C97.3634 226.616 97.3634 226.465 97.3908 226.315C97.7472 221.478 99.0111 216.751 101.116 212.382L101.345 211.925C101.649 211.316 101.968 210.718 102.303 210.13C102.545 209.696 102.801 209.267 103.066 208.842C103.768 207.704 104.53 206.605 105.349 205.548C105.467 205.393 105.59 205.242 105.714 205.092C107.138 203.324 108.722 201.691 110.444 200.213C115.055 196.248 119.287 194.526 123.131 194.393C139.942 193.799 149.37 223.546 150.894 228.758C151.041 229.261 151.114 229.535 151.114 229.535C151.114 229.535 157.925 236.355 155.93 239.347C155.543 240.006 155.308 240.742 155.241 241.503C154.693 245.528 156.263 252.156 156.263 252.156C156.263 252.156 156.82 253.983 158.446 258.359L158.925 259.638C159.943 262.379 160.181 266.979 159.596 271.099C159.035 275.046 157.715 278.536 155.601 279.431C151.278 281.259 152.442 283.086 153.437 284.589C154.029 285.666 154.522 286.794 154.912 287.96C155.538 289.646 156.117 291.418 156.337 292.108C156.4 292.3 156.432 292.405 156.432 292.405C157.038 292.17 157.667 292.002 158.309 291.902C159.126 291.788 159.934 291.87 160.089 292.569C160.172 292.944 160.642 293.387 161.304 293.83C163.267 295.182 166.901 296.598 166.901 296.598Z" fill="black"/>
<path d="M165.906 296.598C165.878 296.946 165.79 297.286 165.646 297.603C163.902 301.911 153.94 313.545 153.94 313.545C153.484 314.923 152.937 316.269 152.301 317.574C151.199 319.825 149.953 322.003 148.571 324.093C145.709 328.412 142.538 332.519 139.084 336.381L138.979 336.495C138.979 336.495 138.577 336.801 137.938 337.194C136.795 337.923 135.537 338.452 134.217 338.756L133.66 338.592L132.897 338.354C131.619 337.952 130.351 337.512 129.094 337.034L128.332 336.742C127.114 336.273 125.923 335.769 124.757 335.23L123.994 334.883C122.777 334.316 121.585 333.718 120.42 333.087C120 332.868 119.584 332.631 119.173 332.407C117.931 331.712 116.714 330.984 115.521 330.223C114.255 329.416 113.016 328.574 111.804 327.697C111.244 327.295 110.69 326.882 110.143 326.459C109.526 325.29 109.033 324.303 108.727 323.691C107.978 322.188 107.915 320.036 108.006 318.479C108.006 318.319 108.006 318.168 108.033 318.022C108.111 317.044 108.23 316.373 108.23 316.373C108.23 316.373 107.86 315.875 107.412 315.199C107.161 314.824 106.892 314.39 106.65 313.961C106.193 313.157 105.837 312.344 105.906 311.883C105.915 311.804 105.915 311.724 105.906 311.645C105.899 311.491 105.876 311.338 105.837 311.188C105.486 309.745 103.97 307.264 102.573 305.707C101.532 304.56 101.468 300.275 101.564 297.238C101.564 297.082 101.564 296.931 101.564 296.781C101.628 295.205 101.724 294.067 101.724 294.067C101.208 293.843 100.811 292.185 100.555 290.413L100.486 289.956C100.194 287.859 100.062 285.754 100.062 285.754C96.6833 283.291 95.0762 279.45 94.3321 276.024C93.8136 273.624 93.6141 271.167 93.7385 268.715C93.7385 268.642 93.7385 268.601 93.7385 268.601C93.7385 268.601 94.1312 258.651 95.3821 254.782C95.4324 254.618 95.4871 254.467 95.5419 254.326C95.6515 254.088 95.7878 253.865 95.9483 253.659C96.6422 252.69 97.1034 250.36 97.4047 247.976L97.4595 247.519C97.8384 244.322 97.9434 241.183 97.9434 241.183L97.0942 237.017C96.8629 235.875 96.6848 234.732 96.56 233.587C96.5372 233.436 96.5235 233.281 96.5053 233.13C96.2918 231.013 96.2536 228.881 96.3911 226.758C96.3911 226.602 96.3911 226.451 96.4231 226.301C96.7774 221.463 98.0414 216.736 100.149 212.368C100.222 212.213 100.295 212.062 100.377 211.911C100.964 210.725 101.616 209.572 102.331 208.458C102.577 208.07 102.829 207.686 103.093 207.307C103.509 206.704 103.943 206.11 104.395 205.535L104.76 205.078C106.172 203.317 107.742 201.689 109.449 200.213C114.471 195.905 119.036 194.242 123.145 194.393C139.33 194.973 148.416 223.651 149.908 228.758C150.055 229.261 150.128 229.535 150.128 229.535C150.128 229.535 156.944 236.355 154.949 239.347C154.562 240.006 154.326 240.742 154.259 241.503C153.707 245.528 155.282 252.156 155.282 252.156C155.282 252.156 155.839 253.983 157.464 258.359C157.611 258.766 157.77 259.19 157.921 259.638C158.939 262.379 159.177 266.979 158.592 271.099C158.031 275.051 156.716 278.536 154.597 279.431C150.278 281.259 151.438 283.086 152.438 284.589C153.029 285.666 153.523 286.794 153.912 287.96C154.702 290.111 155.428 292.405 155.428 292.405C155.727 292.289 156.032 292.19 156.341 292.108C156.976 291.899 157.649 291.829 158.314 291.902C158.498 291.916 158.672 291.989 158.812 292.108C158.953 292.228 159.051 292.389 159.094 292.569C159.218 293.117 160.163 293.798 161.309 294.442C162.797 295.252 164.332 295.972 165.906 296.598V296.598Z" fill="#CED7E7"/>
<path opacity="0.1" d="M105.814 252.672C107.394 252.59 124.35 246.021 127.843 248.264C131.335 250.507 152.953 265.06 152.953 265.06C152.953 265.06 139.407 247.35 127.605 243.193C115.803 239.036 105.814 252.672 105.814 252.672Z" fill="black"/>
<path opacity="0.1" d="M130.19 279.45C130.19 279.45 147.146 282.857 149.721 285.187L130.19 279.45Z" fill="black"/>
<path opacity="0.1" d="M126.925 304.82C126.679 305.072 120.534 318.871 121.027 318.871C121.52 318.871 126.761 310.649 126.761 310.649L126.925 304.82Z" fill="black"/>
<path opacity="0.1" d="M138.481 288.261C138.481 288.261 133.495 290.011 134.075 290.176C134.655 290.34 138.312 289.011 138.481 288.261Z" fill="black"/>
<path opacity="0.1" d="M133.495 309.137C134.326 310.882 136.983 316.122 137.568 315.29C138.152 314.459 133.495 309.137 133.495 309.137Z" fill="black"/>
<path opacity="0.1" d="M195.733 170.827L195.02 171.841C195.02 171.841 189.364 167.853 187.04 165.857C184.716 163.86 179.228 173.006 174.905 175.5C170.581 177.994 163.272 178.661 163.272 178.661C163.272 178.661 157.62 173.006 157.793 171.352C157.966 169.698 155.136 169.191 154.967 168.026C154.798 166.862 153.803 163.536 152.474 161.873C151.771 160.996 151.671 158.251 151.735 155.862C152.191 155.77 152.474 155.72 152.474 155.72C153.184 154.43 154.081 153.252 155.136 152.226C156.633 150.896 158.957 142.747 158.957 142.747C160.286 138.257 162.943 139.586 162.943 139.586C162.943 146.406 169.928 148.9 173.416 151.728C176.904 154.555 182.392 161.873 186.716 163.372C190.263 164.582 194.413 169.264 195.733 170.827Z" fill="black"/>
<path d="M195.733 169.826L195.02 170.845C195.02 170.845 189.341 166.866 187.017 164.856C184.693 162.846 179.205 172.005 174.882 174.499C170.558 176.993 163.249 177.665 163.249 177.665C163.249 177.665 157.597 172.005 157.77 170.356C157.944 168.707 155.113 168.195 154.944 167.026C154.775 165.857 153.78 162.536 152.451 160.873C151.748 159.996 151.648 157.25 151.712 154.861L152.451 154.724C153.161 153.434 154.058 152.256 155.113 151.23C156.61 149.896 158.934 141.751 158.934 141.751C160.263 137.261 162.92 138.585 162.92 138.585C162.92 145.406 169.905 147.904 173.393 150.732C176.881 153.559 182.369 160.873 186.693 162.371C190.263 163.6 194.413 168.264 195.733 169.826Z" fill="#CED7E7"/>
<path opacity="0.1" d="M227.742 179.163C225.582 179.163 217.935 174.335 216.273 171.178C214.611 168.022 212.283 171.507 210.123 172.677C208.753 173.426 203.325 171.859 200.398 170.721C201.882 169.712 205.169 166.871 206.133 166.19C207.292 165.354 208.461 151.883 208.461 151.883C212.616 149.722 217.104 169.346 217.104 169.346C217.104 169.346 224.92 171.676 225.582 173.339C225.71 173.668 226.299 174.253 227.185 174.961C228.098 177.263 228.6 179.163 227.742 179.163Z" fill="black"/>
<path d="M227.742 178.163C225.582 178.163 217.935 173.339 216.273 170.183C214.611 167.026 212.283 170.511 210.123 171.676C208.754 172.425 204.403 170.977 201.476 169.849C202.96 168.844 205.17 165.884 206.133 165.199C207.293 164.367 208.461 150.896 208.461 150.896C212.616 148.736 217.104 168.36 217.104 168.36C217.104 168.36 224.92 170.69 225.582 172.352C225.71 172.681 226.299 173.266 227.185 173.974C228.098 176.263 228.6 178.163 227.742 178.163Z" fill="#CED7E7"/>
<path d="M257.276 323.869L329.553 263.571C330.274 262.962 331.193 262.637 332.137 262.658L359.101 263.366C359.101 263.366 360.969 264.736 358.229 267.733L290.047 323.714C289.311 324.316 288.396 324.66 287.445 324.691L257.961 325.669C257.749 325.675 257.54 325.616 257.364 325.498C257.188 325.381 257.053 325.211 256.977 325.013C256.902 324.815 256.89 324.598 256.944 324.393C256.997 324.188 257.113 324.005 257.276 323.869Z" fill="#FDC503"/>
<path d="M292.239 316.45C292.239 316.45 308.027 339.071 325.568 318.031C343.109 296.991 338.036 285.936 332.718 285.351C327.399 284.766 297.471 307.803 292.239 316.45Z" fill="#FFA2A2"/>
<path d="M424.59 238.552C444.762 238.552 461.115 222.191 461.115 202.008C461.115 181.825 444.762 165.464 424.59 165.464C404.418 165.464 388.066 181.825 388.066 202.008C388.066 222.191 404.418 238.552 424.59 238.552Z" fill="#FBBEBE"/>
<path d="M438.011 255.435C446.223 253.915 454.92 251.155 462.647 254.336C464.68 255.171 466.55 256.391 468.633 257.09C470.717 257.789 473 257.96 475.169 258.453C482.789 260.179 488.967 265.979 492.934 272.72C496.901 279.462 498.956 287.088 500.968 294.636L505.891 313.063C510.172 329.079 514.453 345.23 515.445 361.788C455.845 365.199 396.11 365.539 336.475 362.808C340.356 355.432 331.781 354.926 331.453 346.586C331.125 338.246 338.865 322.701 340.599 314.483C341.705 309.246 345.287 304.93 347.477 300.058C353.72 286.132 348.861 267.391 359.834 256.79C364.772 252.025 371.964 250.22 378.834 250.448C387.596 250.741 396.564 253.473 405.233 254.807C416.335 256.491 426.823 257.489 438.011 255.435Z" fill="#FF6584"/>
<path d="M401.202 213.218C401.259 218.213 398.939 222.924 396.97 227.541C389.802 244.36 386.697 262.623 387.906 280.857C388.429 288.707 389.753 296.557 388.429 304.336C387.104 312.115 382.393 319.872 374.826 322.106C387.376 329.564 404.366 328.779 416.18 320.208C422.473 315.64 427.162 309.267 431.752 303.002C431.207 314.257 427.937 325.214 422.222 334.937C432.552 334.026 442.575 330.961 451.641 325.943C460.708 320.925 468.615 314.065 474.853 305.806C477.938 301.66 480.623 297.107 481.812 292.083C484.024 282.805 480.938 273.164 478.583 263.894C476.614 256.144 475.139 248.279 474.165 240.344C473.857 237.803 473.607 235.191 474.237 232.708C474.953 229.803 476.864 227.348 478.275 224.7C482.284 217.179 482.377 208.073 480.322 199.809C478.268 191.545 474.244 183.923 470.256 176.394C467.063 170.356 463.598 164.041 457.755 160.494C454.104 158.282 449.88 157.361 445.67 156.469L427.506 152.594C423.532 151.745 419.444 150.895 415.428 151.516C408.648 152.572 403.872 157.454 399.677 162.464C396.39 166.36 388.357 173.675 387.792 178.777C387.276 183.48 391.443 191.359 392.152 196.319C393.083 202.742 393.741 200.601 397.378 204.54C399.677 206.981 401.159 209.8 401.202 213.218Z" fill="#3F3D56"/>
<path d="M478.464 184.477C478.464 184.477 476.563 186.933 474.846 186.933C473.13 186.933 466.447 186.659 462.964 185.57C459.48 184.482 442.403 183.658 442.403 183.658C442.403 183.658 418.219 183.748 417.403 182.929C416.587 182.11 402.366 177.747 400.918 178.021C400.614 178.081 399.873 178.211 398.882 178.376L397.748 178.561C396.031 178.835 393.887 179.155 391.926 179.389C389.503 179.674 387.373 179.819 386.696 179.569V179.569C383.672 179.258 383.303 174.801 386.181 173.822C388.209 173.133 389.632 172.537 389.682 172.21C389.861 171.037 392.22 154.026 398.38 147.94C400.925 143.059 405.043 139.187 410.064 136.956C418.398 133.316 426.733 130.231 426.733 130.231L428.191 130.021L432.893 129.322C433.036 129.179 433.191 129.049 433.356 128.933C434.66 127.934 438.611 125.762 443.761 130.43L444.672 131.888C444.672 131.888 460.52 135.613 467.855 148.609C475.19 161.605 475.558 174.332 476.1 180.148C476.1 180.148 475.737 181.786 476.463 182.42C476.726 182.653 476.977 182.9 477.215 183.159C477.28 183.224 477.344 183.289 477.404 183.359C477.613 183.568 477.807 183.788 477.966 183.968C477.985 183.982 478.002 183.999 478.016 184.018C478.055 184.065 478.096 184.11 478.14 184.152L478.464 184.477Z" fill="#FED253"/>
<path opacity="0.06" d="M442.389 137.862C441.601 137.717 431.888 135.794 428.692 134.664L426.866 131.01C428.464 130.781 430.942 130.507 430.975 130.325C435.52 130.452 442.389 137.862 442.389 137.862Z" fill="black"/>
<path opacity="0.1" d="M424.677 164.674L422.764 167.501L430.078 167.254L430.242 164.093L424.677 164.674Z" fill="black"/>
<path opacity="0.1" d="M462.484 167.291L463.315 169.867L467.972 170.617L465.977 167.538L462.484 167.291Z" fill="black"/>
</svg>
