<svg width="1078" height="778" viewBox="0 0 1078 778" fill="none" xmlns="http://www.w3.org/2000/svg">
<g clip-path="url(#clip0)">
<path d="M790.733 261.598L790.886 261.634L788.617 483.815C730.071 464.889 666.502 455.411 617.517 450.665C592.931 448.283 572.015 447.091 557.244 446.496C549.858 446.198 544.008 446.049 540.005 445.974C538.003 445.937 536.462 445.919 535.422 445.909C534.968 445.905 534.609 445.903 534.349 445.902L538.142 225.837C554.449 223.636 578.264 224.732 604.888 227.637C631.731 230.566 661.388 235.33 689.004 240.381C716.618 245.431 742.187 250.768 760.851 254.842C770.184 256.879 777.79 258.6 783.063 259.812C785.699 260.418 787.752 260.897 789.146 261.224C789.843 261.387 790.375 261.513 790.733 261.598Z" fill="#F2F2F2" stroke="#F2F2F2"/>
<g opacity="0.1">
<path opacity="0.1" d="M471.41 235.73L475.22 456.73C475.22 456.73 337.3 456.73 219.96 494.83L217.67 271.57C217.67 271.57 405.88 226.63 471.41 235.73Z" fill="black"/>
</g>
<path d="M407.172 232.988C433.796 230.08 457.61 228.978 473.917 231.167L477.711 451.232C477.451 451.233 477.092 451.235 476.638 451.239C475.598 451.249 474.057 451.267 472.055 451.305C468.051 451.379 462.202 451.528 454.816 451.826C440.045 452.421 419.129 453.613 394.544 455.995C345.56 460.742 281.993 470.219 223.453 489.145L221.174 266.964L221.327 266.928C221.685 266.843 222.217 266.718 222.914 266.554C224.308 266.228 226.361 265.749 228.997 265.144C234.27 263.933 241.876 262.214 251.208 260.179C269.873 256.109 295.441 250.777 323.056 245.729C350.672 240.682 380.329 235.92 407.172 232.988Z" fill="#F2F2F2" stroke="#F2F2F2"/>
<g opacity="0.2">
<path opacity="0.6" d="M412.46 256.51L414.51 375.02C414.51 375.02 340.51 375.02 277.61 395.45L276.38 275.72C276.38 275.72 377.32 251.63 412.46 256.51Z" fill="#FED136"/>
</g>
<g opacity="0.1">
<path opacity="0.1" d="M875.68 310.69V529.38C875.68 529.38 920.68 524.04 1015.13 640.63L1023.51 421.94C1023.51 421.94 925.21 316.02 875.68 310.69Z" fill="black"/>
</g>
<path d="M1012.68 636.283C965.857 578.661 931.225 551.051 908.235 537.85C896.671 531.21 888.048 528.214 882.3 526.88C879.426 526.213 877.271 525.962 875.827 525.879C875.105 525.837 874.561 525.838 874.194 525.849C874.189 525.849 874.185 525.849 874.18 525.849V308.251C886.343 309.733 901.47 317.226 917.399 327.739C933.552 338.4 950.464 352.123 965.838 365.689C981.211 379.253 995.038 392.651 1005.02 402.66C1010.01 407.664 1014.05 411.82 1016.83 414.724C1018.22 416.176 1019.3 417.316 1020.03 418.092C1020.4 418.48 1020.67 418.777 1020.86 418.977C1020.92 419.036 1020.96 419.087 1021 419.129L1012.68 636.283Z" fill="#F2F2F2" stroke="#F2F2F2"/>
<g opacity="0.1">
<path opacity="0.1" d="M148.33 311.69V530.38C148.33 530.38 103.37 525.04 8.94001 641.63L0.51001 422.94C0.51001 422.94 98.8 317.02 148.33 311.69Z" fill="black"/>
</g>
<path d="M150.83 525.849C150.826 525.849 150.821 525.849 150.817 525.849C150.45 525.838 149.906 525.837 149.185 525.879C147.742 525.962 145.589 526.213 142.716 526.88C136.972 528.214 128.356 531.21 116.797 537.85C93.8197 551.051 59.2029 578.661 12.3885 636.283L4.01765 419.128C4.05671 419.087 4.10378 419.036 4.15875 418.977C4.34581 418.777 4.62436 418.48 4.9899 418.092C5.72099 417.316 6.80006 416.176 8.19122 414.724C10.9735 411.82 15.0041 407.664 19.9957 402.66C29.9794 392.651 43.8055 379.253 59.1771 365.689C74.5504 352.123 91.4605 338.4 107.613 327.739C123.541 317.226 138.667 309.733 150.83 308.251V525.849Z" fill="#F2F2F2" stroke="#F2F2F2"/>
<g opacity="0.2">
<path opacity="0.6" d="M574.5 271.37L667.93 288.08V301.69L574.5 283.75V271.37Z" fill="#FED136"/>
</g>
<path d="M394.5 402.87L301.08 419.58V433.19L394.5 415.25V402.87Z" fill="#E0E0E0"/>
<path d="M575.74 296.74L746.5 332.01V345.62L575.74 309.12V296.74Z" fill="#E0E0E0"/>
<path d="M575.74 322.11L746.5 357.37V370.99L575.74 334.48V322.11Z" fill="#E0E0E0"/>
<g opacity="0.2">
<path opacity="0.2" d="M913.5 378.31V390.32L950.13 420.08L951.85 409.78L913.5 378.31Z" fill="#FED136"/>
</g>
<path d="M913.5 494.31V506.32L950.13 536.08L951.85 525.78L913.5 494.31Z" fill="#E0E0E0"/>
<path d="M914.08 398.91L913.5 410.93L982.75 476.16L981.61 462.43L914.08 398.91Z" fill="#E0E0E0"/>
<path d="M913.5 421.23V432.67L982.75 499.06V484.18L913.5 421.23Z" fill="#E0E0E0"/>
<g opacity="0.2">
<path opacity="0.6" d="M110.93 380.91L111.5 392.93L42.26 458.16L43.4 444.43L110.93 380.91Z" fill="#FED136"/>
</g>
<g opacity="0.2">
<path opacity="0.6" d="M111.5 403.23V414.67L42.26 481.06V466.18L111.5 403.23Z" fill="#FED136"/>
</g>
<path opacity="0.1" d="M544.12 574.48C544.12 574.48 544.12 574.68 544.12 575.01V575.27L542.02 578.84L535.34 577.91L531.89 575.57C532.173 575.111 532.423 574.633 532.64 574.14C534.32 573.66 538.16 575.02 538.16 575.02C538.16 575.02 542.31 575.81 544.06 574.54C544.06 574.53 544.08 574.5 544.12 574.48Z" fill="black"/>
<path opacity="0.1" d="M129.18 628.24C140.866 628.24 150.34 627.282 150.34 626.1C150.34 624.918 140.866 623.96 129.18 623.96C117.494 623.96 108.02 624.918 108.02 626.1C108.02 627.282 117.494 628.24 129.18 628.24Z" fill="#FED136"/>
<path d="M163.77 616.1C166.66 617.81 171.18 618.92 176.87 615.25L176.81 623.36C177.22 628.93 184.09 649.19 184.09 649.19L188.94 665.87C192.419 677.648 194.216 689.859 194.28 702.14C194.156 706.007 194.68 709.867 195.83 713.56C198.41 720.56 194.83 729.56 193.25 732.89C190.37 733.89 187.4 734.64 185.25 735.14C185.005 735.197 184.765 735.27 184.53 735.36V735.31C184.53 735.31 177.25 738.2 174.01 737.8C171.6 737.5 170.09 740.51 172.01 742.72C170.441 743.203 168.801 743.42 167.16 743.36C163.92 742.96 162.31 748.53 168.37 750.12C174.43 751.71 208.83 750.12 208.83 750.12C209.798 749.636 210.578 748.844 211.047 747.868C211.516 746.893 211.647 745.788 211.42 744.73C214.06 744.63 215.71 744.55 215.71 744.55C215.71 744.55 221.78 741.77 215.71 734.22L215.39 734.47L214.09 730.65V725.48C214.09 725.48 221.78 688.48 219.35 684.16C216.92 679.84 215.71 657.54 215.71 657.54L216.52 633.3C218.71 628.77 219.84 621.68 220.41 616.13C221.234 613.481 221.754 610.747 221.96 607.98C222.05 606.68 222.13 605.31 222.18 603.89C222.212 600.779 221.715 597.685 220.71 594.74C223.446 590.661 226.509 586.812 229.87 583.23C231.267 581.931 232.328 580.313 232.962 578.513C233.596 576.714 233.784 574.788 233.51 572.9L231.51 559.39L226.65 536.39C227.26 529.99 225.93 526.31 224.45 524.23C224.8 522.17 225.13 520.1 225.38 518.03C226.455 509.015 225.974 499.883 223.96 491.03C223.26 487.94 222.3 484.77 220.14 482.43C217.68 479.78 213.7 478.16 212.79 474.69C212.65 473.811 212.463 472.94 212.23 472.08C211.34 469.8 208.53 468.98 206.07 468.68C201.69 468.15 195.36 467.74 191.15 469.46C188.22 470.67 184.15 473.97 182.56 477.52C181.601 478.998 181.244 480.787 181.56 482.52C181.713 483.113 181.949 483.682 182.26 484.21C181.61 485.913 181.272 487.718 181.26 489.54C181.276 492.654 182.229 495.691 183.995 498.255C185.76 500.82 188.257 502.794 191.16 503.92C191.25 504.22 191.34 504.52 191.42 504.82C191.603 505.53 191.733 506.252 191.81 506.98C191.74 508.39 191.65 509.8 191.58 511.2C191.542 511.393 191.492 511.583 191.43 511.77C187.947 513.312 184.552 515.045 181.26 516.96C183.69 520.53 180.86 535.63 180.86 535.63C174.79 539.21 168.72 548.35 175.19 557.88C181.66 567.41 178.02 577.63 178.02 577.63L177.02 593.17L176.82 596.27H176.9L176.82 597.45H176.99V598.72C174.14 599.72 169.99 601.86 167.52 605.72C166.346 607.636 164.92 609.384 163.28 610.92C162.879 611.244 162.564 611.662 162.364 612.137C162.164 612.612 162.085 613.129 162.133 613.642C162.182 614.155 162.357 614.648 162.642 615.077C162.928 615.506 163.315 615.857 163.77 616.1ZM212.62 574.82C212.377 572.134 212.875 569.433 214.06 567.01C215.01 567.01 215.97 567.01 216.92 567.01C217.02 567.68 217.13 568.32 217.27 568.9C218.09 572.44 214.81 574.11 212.62 574.82Z" fill="url(#paint0_linear)"/>
<path d="M213.42 728.83L214.98 733.5L209.94 738.56L193.2 742.45L181.13 741.28L181.91 737C182.139 736.08 182.618 735.241 183.294 734.576C183.97 733.911 184.816 733.445 185.74 733.23C190.74 732.06 200.16 729.41 202.15 725.71L213.42 728.83Z" fill="#DB8B8B"/>
<path opacity="0.1" d="M213.42 728.83L214.98 733.5L209.94 738.56L193.2 742.45L181.13 741.28L181.91 737C182.139 736.08 182.618 735.241 183.294 734.576C183.97 733.911 184.816 733.445 185.74 733.23C190.74 732.06 200.16 729.41 202.15 725.71L213.42 728.83Z" fill="black"/>
<path d="M185 740.12L187.34 737L185 733.4C185 733.4 178 736.22 174.88 735.83C171.76 735.44 170.21 740.9 176.05 742.45C181.89 744 214.98 742.45 214.98 742.45C214.98 742.45 220.82 739.73 214.98 732.33L209.94 736.22C209.94 736.22 201.37 740.9 197.09 740.12H185Z" fill="#2E3037"/>
<path d="M174.49 746.74L186.56 747.9L203.3 744.01L208.36 738.95L207.95 737.71L207.37 735.97L206.81 734.28L195.52 731.16C194.948 732.096 194.163 732.883 193.23 733.46C189.56 735.96 182.97 737.77 179.11 738.68L178.62 738.82C177.87 739.065 177.186 739.479 176.62 740.03C175.942 740.692 175.461 741.53 175.23 742.45L174.49 746.74Z" fill="#DB8B8B"/>
<path opacity="0.1" d="M174.49 746.74L186.56 747.9L203.3 744.01L208.36 738.95L207.95 737.71L203.3 741.28C203.3 741.28 194.74 745.96 190.45 745.18H178.39L180.72 742.06L178.62 738.82C177.87 739.065 177.186 739.479 176.62 740.03C175.942 740.692 175.461 741.53 175.23 742.45L174.49 746.74Z" fill="black"/>
<path d="M178.39 745.57L180.72 742.45L178.39 738.85C178.39 738.85 171.39 741.67 168.26 741.28C165.13 740.89 163.59 746.35 169.43 747.9C175.27 749.45 208.36 747.9 208.36 747.9C208.36 747.9 214.2 745.18 208.36 737.78L203.3 741.63C203.3 741.63 194.74 746.31 190.45 745.53L178.39 745.57Z" fill="#2E3037"/>
<path d="M188.12 519.77C188.12 519.77 206.81 521.71 204.12 513.93C203.362 511.72 203.162 509.356 203.54 507.05C204.029 504.193 205.16 501.485 206.85 499.13L189.33 501.86C190.376 503.615 191.174 505.506 191.7 507.48C193.75 515.74 188.12 519.77 188.12 519.77Z" fill="#DB8B8B"/>
<path d="M220.04 608.53C220.04 608.53 219.65 625.27 215.76 633.45L214.94 657.19C214.94 657.19 216.11 678.99 218.44 683.28C220.77 687.57 213.38 723.77 213.38 723.77V729.99C213.38 729.99 200.93 734.67 197.38 729.22L200.94 682.89L199.41 618.63L220.04 608.53Z" fill="#474463"/>
<path opacity="0.1" d="M220.04 608.53C220.04 608.53 219.65 625.27 215.76 633.45L214.94 657.19C214.94 657.19 216.11 678.99 218.44 683.28C220.77 687.57 213.38 723.77 213.38 723.77V729.99C213.38 729.99 200.93 734.67 197.38 729.22L200.94 682.89L199.41 618.63L220.04 608.53Z" fill="black"/>
<path d="M227.83 554.8L230.16 561.03L232.11 574.27C232.374 576.114 232.195 577.994 231.586 579.754C230.977 581.514 229.957 583.104 228.61 584.39C223.94 589.06 217.71 598.8 217.71 598.8L210.31 576.63C210.31 576.63 217.71 575.46 216.54 570.4C215.37 565.34 215.76 555.99 215.76 555.99L227.83 554.8Z" fill="#FED136"/>
<path opacity="0.05" d="M227.83 554.8L230.16 561.03L232.11 574.27C232.374 576.114 232.195 577.994 231.586 579.754C230.977 581.514 229.957 583.104 228.61 584.39C223.94 589.06 217.71 598.8 217.71 598.8L210.31 576.63C210.31 576.63 217.71 575.46 216.54 570.4C215.37 565.34 215.76 555.99 215.76 555.99L227.83 554.8Z" fill="black"/>
<path opacity="0.1" d="M193.23 733.46C198.23 741.32 205.99 736.86 207.37 735.97L206.81 734.28L195.52 731.16C194.947 732.096 194.163 732.883 193.23 733.46Z" fill="black"/>
<path d="M177.61 623.71C178 629.16 184.61 649.02 184.61 649.02L189.28 665.36C192.631 676.911 194.358 688.873 194.41 700.9C194.311 704.688 194.827 708.467 195.94 712.09C199.06 720.65 192.83 732.33 192.83 732.33C198.28 742.06 207.62 735.45 207.62 735.45V729.22C207.62 729.22 215.02 695.35 213.07 688.73C211.12 682.11 210.35 664.2 210.35 664.2V631.89C216.57 625.662 220.345 617.408 220.99 608.63C221.09 607.36 221.16 606.02 221.21 604.63C221.53 595.84 215.52 585.55 213.21 581.87C212.65 580.99 212.3 580.49 212.3 580.49L177.88 594.13H177.8V595.46V598.41L177.61 623.71Z" fill="#474463"/>
<path opacity="0.1" d="M189.29 501.86C190.336 503.615 191.134 505.506 191.66 507.48C193.561 508.207 195.59 508.544 197.624 508.47C199.658 508.397 201.657 507.913 203.5 507.05C203.988 504.193 205.12 501.485 206.81 499.13L189.29 501.86Z" fill="black"/>
<path d="M197.07 507.7C205.454 507.7 212.25 500.904 212.25 492.52C212.25 484.136 205.454 477.34 197.07 477.34C188.686 477.34 181.89 484.136 181.89 492.52C181.89 500.904 188.686 507.7 197.07 507.7Z" fill="#DB8B8B"/>
<path opacity="0.1" d="M177.61 598.41H177.77C194.1 601.76 214.59 584.75 214.59 584.75C214.042 583.821 213.568 582.852 213.17 581.85C212.61 580.97 212.26 580.47 212.26 580.47L177.88 594.13L177.79 595.49L177.61 598.41Z" fill="black"/>
<path d="M181.94 519.38C181.94 519.38 203.74 506.14 210.75 511.59L220.48 524.05C220.48 524.05 226.71 525.99 225.54 538.45L230.21 561.03L216.21 564.54C216.21 564.54 207.94 572.32 214.59 583.63C214.59 583.63 193.96 600.76 177.59 597.26L178.75 578.96C178.75 578.96 182.26 568.84 176.03 559.5C169.8 550.16 175.64 541.2 181.48 537.69C181.5 537.63 184.23 522.88 181.94 519.38Z" fill="#FED136"/>
<path d="M180.72 598.8C180.72 598.8 172.55 600.35 168.65 606.58C167.53 608.453 166.161 610.166 164.58 611.67C164.224 611.994 163.949 612.396 163.776 612.845C163.603 613.294 163.537 613.777 163.583 614.255C163.63 614.734 163.788 615.195 164.044 615.602C164.3 616.009 164.648 616.351 165.06 616.6C168.15 618.45 173.19 619.6 179.55 614.37C190.45 605.41 180.72 598.8 180.72 598.8Z" fill="#DB8B8B"/>
<path opacity="0.1" d="M192.79 526.77C192.79 526.77 200.58 525.99 202.52 546.24C204.46 566.49 207.58 571.16 207.58 571.16C207.58 571.16 209.53 581.67 204.86 587.9C200.19 594.13 191.23 607.36 191.23 607.36C191.23 607.36 181.5 610.09 179.55 600.36L191.62 577.78C191.62 577.78 193.57 570 188.9 564.55C184.23 559.1 180.72 522.88 192.79 526.77Z" fill="black"/>
<path d="M192.01 525.63C192.01 525.63 199.8 524.85 201.74 545.09C203.68 565.33 206.81 570.01 206.81 570.01C206.81 570.01 208.75 580.52 204.08 586.75C199.41 592.98 190.45 606.21 190.45 606.21C190.45 606.21 180.72 608.94 178.77 599.21L190.84 576.63C190.84 576.63 192.79 568.84 188.12 563.39C183.45 557.94 179.94 521.71 192.01 525.63Z" fill="#FED136"/>
<path opacity="0.1" d="M185.59 540.2C185.59 540.2 184.81 552.27 188.31 558.89C191.81 565.51 191.82 574.07 188.31 578.75" fill="black"/>
<path opacity="0.1" d="M183.64 525.41C183.64 525.41 186.76 522.3 195.71 521.91C204.66 521.52 208.56 518.79 208.56 518.79" fill="black"/>
<path opacity="0.1" d="M205.3 472.89C207.66 473.18 210.37 473.99 211.22 476.22C211.445 477.063 211.625 477.918 211.76 478.78C212.64 482.18 216.47 483.78 218.83 486.37C220.92 488.66 221.83 491.77 222.51 494.79C224.448 503.467 224.912 512.409 223.88 521.24C223.12 527.7 221.57 534.06 221.13 540.54C220.69 547.02 221.49 553.85 225.04 559.3C226.56 561.64 228.57 563.7 229.65 566.3C227.42 568.11 224.34 568.37 221.47 568.47C218.137 568.577 214.804 568.577 211.47 568.47C209.706 568.544 207.95 568.18 206.36 567.41C205.236 566.694 204.313 565.703 203.68 564.53C201.77 561.28 201.28 557.38 201.36 553.6C201.44 549.82 202.04 546.08 202.11 542.31C202.11 540.25 201.99 538.07 200.81 536.39C199.84 535.267 198.743 534.26 197.54 533.39C193.38 529.7 191.95 523.77 191.81 518.21C191.67 512.65 192.58 507.07 192.11 501.52C191.93 499.35 191.11 496.74 188.98 496.32C188.308 496.283 187.64 496.196 186.98 496.06C185.26 495.4 185.43 492.98 184.98 491.21C184.43 489.21 182.74 487.69 182.26 485.68C181.14 480.97 187.13 475.35 191.06 473.68C194.99 472.01 201.08 472.37 205.3 472.89Z" fill="black"/>
<path d="M205.69 472.11C208.05 472.41 210.75 473.22 211.61 475.44C211.836 476.286 212.016 477.144 212.15 478.01C213.03 481.41 216.86 483.01 219.22 485.59C221.31 487.88 222.22 490.99 222.9 494.01C224.838 502.687 225.301 511.629 224.27 520.46C223.51 526.92 221.96 533.28 221.52 539.76C221.08 546.24 221.88 553.07 225.43 558.52C226.95 560.86 228.96 562.92 230.04 565.52C227.81 567.33 224.73 567.59 221.86 567.69C218.527 567.797 215.177 567.797 211.81 567.69C210.045 567.764 208.29 567.4 206.7 566.63C205.578 565.915 204.656 564.928 204.02 563.76C202.1 560.5 201.62 556.6 201.7 552.82C201.78 549.04 202.38 545.3 202.45 541.53C202.45 539.48 202.33 537.29 201.15 535.61C200.177 534.489 199.08 533.483 197.88 532.61C193.72 528.92 192.28 523 192.14 517.43C192 511.86 192.92 506.29 192.45 500.74C192.27 498.57 191.45 495.96 189.32 495.54C188.648 495.503 187.979 495.416 187.32 495.28C185.6 494.62 185.77 492.2 185.32 490.43C184.77 488.43 183.08 486.91 182.6 484.9C181.48 480.2 187.47 474.57 191.4 472.9C195.33 471.23 201.47 471.63 205.69 472.11Z" fill="#472727"/>
<path opacity="0.1" d="M622.26 760.72C634.957 760.72 645.25 759.569 645.25 758.15C645.25 756.731 634.957 755.58 622.26 755.58C609.563 755.58 599.27 756.731 599.27 758.15C599.27 759.569 609.563 760.72 622.26 760.72Z" fill="#FED136"/>
<path d="M551.103 377.02C559.433 377.02 566.185 370.268 566.185 361.938C566.185 353.609 559.433 346.857 551.103 346.857C542.774 346.857 536.022 353.609 536.022 361.938C536.022 370.268 542.774 377.02 551.103 377.02Z" fill="#2F2E41"/>
<path d="M534.834 550.926L531.965 563.221H538.932L541.801 549.287L534.834 550.926Z" fill="#9F616A"/>
<path d="M568.439 550.927V562.402L575.406 563.221V550.927H568.439Z" fill="#9F616A"/>
<path d="M532.784 420.603C532.784 420.603 533.604 438.226 534.423 439.455C535.243 440.685 542.62 458.307 542.62 458.307L546.308 446.832C546.308 446.832 540.571 437.406 541.39 432.078C542.21 426.751 541.694 420.195 541.694 420.195L532.784 420.603Z" fill="#9F616A"/>
<path d="M556.144 377.982C562.482 377.982 567.619 372.844 567.619 366.507C567.619 360.169 562.482 355.032 556.144 355.032C549.807 355.032 544.669 360.169 544.669 366.507C544.669 372.844 549.807 377.982 556.144 377.982Z" fill="#9F616A"/>
<path d="M546.718 367.736C546.718 367.736 547.128 384.129 544.259 386.588C541.39 389.047 560.652 386.998 560.652 386.998C560.652 386.998 556.554 375.523 559.832 373.064C563.111 370.605 546.718 367.736 546.718 367.736Z" fill="#9F616A"/>
<path d="M561.882 386.178C561.882 386.178 559.423 381.67 556.144 382.08C552.866 382.49 542.21 383.31 541.8 384.129C541.391 384.949 540.161 387.818 539.341 388.637C538.522 389.457 532.375 390.686 531.965 395.604C531.555 400.522 546.718 430.439 546.718 430.439C546.718 430.439 544.669 437.406 545.079 439.045C545.489 440.685 543.03 445.602 543.44 447.651C543.85 449.701 537.292 461.995 540.571 477.978V503.797C540.571 503.797 529.506 548.468 532.784 551.746C536.063 555.025 547.128 552.976 549.177 551.746C551.226 550.517 559.833 488.634 559.833 488.634L563.931 467.733L564.341 513.633C564.341 513.633 563.521 552.156 566.39 553.385C569.258 554.615 580.324 555.025 581.143 552.566C581.783 550.648 584.915 499.621 586.262 477.254C586.729 469.534 586.122 461.786 584.458 454.232C582.752 446.496 580.276 437.407 577.455 433.718C572.127 426.751 568.849 404.62 568.849 404.62L575.816 391.916C575.816 391.916 571.717 387.818 569.258 387.818C566.8 387.818 561.882 386.178 561.882 386.178Z" fill="#2F2E41"/>
<path d="M534.423 392.735L532.262 394.206C532.262 394.206 530.735 420.603 531.964 422.243C533.194 423.882 541.742 423.082 542.386 421.638C543.03 420.194 534.423 392.735 534.423 392.735Z" fill="#2F2E41"/>
<path d="M568.029 417.325C568.029 417.325 568.439 434.537 570.898 439.455C573.356 444.373 582.373 464.864 582.373 464.864C582.373 464.864 581.849 487.417 586.414 481.878C590.979 476.339 588.11 463.225 588.11 463.225L580.323 432.898C580.323 432.898 576.225 419.374 576.635 415.276C577.045 411.177 568.029 417.325 568.029 417.325Z" fill="#9F616A"/>
<path d="M575.406 555.762C575.406 555.762 575.816 555.435 577.045 556.664C578.275 557.893 581.553 559.533 581.144 564.041C580.734 568.549 578.275 569.368 578.275 569.368V568.139H577.045V570.188C577.045 570.188 574.996 576.745 565.57 572.647C565.57 572.647 565.161 569.368 565.57 567.319C565.98 565.27 565.98 555.435 567.21 555.844C568.439 556.254 571.718 556.664 572.537 558.303C573.357 559.943 575.816 559.368 575.406 555.762Z" fill="#2F2E41"/>
<path d="M533.194 556.172C533.194 556.172 532.784 555.844 531.555 557.074C530.325 558.303 527.047 559.943 527.457 564.451C527.866 568.959 530.325 569.778 530.325 569.778V568.549H531.555V570.598C531.555 570.598 533.604 577.155 543.03 573.057C543.03 573.057 543.44 569.778 543.03 567.729C542.62 565.68 542.62 555.844 541.391 556.254C540.161 556.664 536.882 557.074 536.063 558.713C535.243 560.352 532.784 559.778 533.194 556.172Z" fill="#2F2E41"/>
<path d="M570.078 390.686L575.816 391.916C575.816 391.916 575.816 400.932 577.455 404.62C579.095 408.309 581.963 416.915 580.734 417.325C579.504 417.735 568.029 423.472 567.21 420.194C566.39 416.915 564.341 390.686 570.078 390.686Z" fill="#2F2E41"/>
<path d="M534.765 357.163C543.095 357.163 549.847 350.411 549.847 342.081C549.847 333.752 543.095 327 534.765 327C526.436 327 519.684 333.752 519.684 342.081C519.684 350.411 526.436 357.163 534.765 357.163Z" fill="#2F2E41"/>
<path d="M521.757 354.57C523.709 355.98 525.97 356.903 528.352 357.261C530.734 357.619 533.167 357.401 535.447 356.625C537.727 355.85 539.789 354.54 541.459 352.804C543.129 351.069 544.359 348.959 545.047 346.651C544.786 348.719 544.1 350.712 543.031 352.502C541.963 354.292 540.534 355.841 538.836 357.051C537.139 358.261 535.208 359.106 533.168 359.532C531.127 359.959 529.02 359.958 526.979 359.529C524.939 359.1 523.01 358.252 521.314 357.04C519.617 355.828 518.191 354.278 517.124 352.486C516.057 350.695 515.373 348.702 515.116 346.633C514.858 344.564 515.032 342.464 515.627 340.466C515.289 343.151 515.68 345.877 516.759 348.358C517.837 350.84 519.564 352.985 521.757 354.57V354.57Z" fill="#2F2E41"/>
<path d="M547.082 375.512C553.19 375.512 558.141 370.56 558.141 364.452C558.141 358.344 553.19 353.392 547.082 353.392C540.974 353.392 536.022 358.344 536.022 364.452C536.022 370.56 540.974 375.512 547.082 375.512Z" fill="#2F2E41"/>
<path d="M556.382 367.971C561.796 367.971 566.185 364.539 566.185 360.305C566.185 356.071 561.796 352.638 556.382 352.638C550.968 352.638 546.579 356.071 546.579 360.305C546.579 364.539 550.968 367.971 556.382 367.971Z" fill="#2F2E41"/>
<path d="M558.997 371.452C560.024 371.452 560.857 369.978 560.857 368.16C560.857 366.343 560.024 364.869 558.997 364.869C557.969 364.869 557.136 366.343 557.136 368.16C557.136 369.978 557.969 371.452 558.997 371.452Z" fill="#A0616A"/>
<path d="M881.308 483.83C881.37 486.234 882.184 488.564 882.312 490.963C875.232 491.316 868.248 487.881 861.238 488.934C863.198 487.665 864.246 485.38 864.862 483.13C865.648 480.227 865.882 477.203 865.553 474.214C865.535 474.048 865.505 473.883 865.465 473.721C865.206 472.545 864.532 470.88 864.712 469.956C864.95 468.732 866.104 468.974 867.143 469.044C870.312 469.286 873.466 469.693 876.592 470.264C877.407 470.405 885.341 472.386 885.46 472.179C884.069 474.411 882.918 476.782 882.026 479.255C881.53 480.729 881.288 482.276 881.308 483.83Z" fill="#A0616A"/>
<path d="M951.328 476.402C950.719 477.232 949.991 477.967 949.166 478.582C948.628 479.022 948.078 479.471 947.501 479.876C946.474 480.669 945.25 481.167 943.961 481.316C942.275 481.431 938.695 480.44 937.647 478.996C937.205 478.27 936.995 477.427 937.044 476.578C937.061 475.428 937.257 474.287 937.625 473.197C938.282 471.422 939.202 469.757 940.355 468.256C941.574 466.561 942.931 464.892 944.745 463.866C945.349 463.543 945.973 463.256 946.612 463.008C947.712 462.558 948.809 462.105 949.91 461.656C950.097 461.564 950.3 461.51 950.508 461.497C951.394 461.506 951.556 462.858 951.054 463.589C950.051 465.059 947.792 465.469 947.158 467.138C947.692 467.154 948.207 467.34 948.63 467.667C949.052 467.995 949.36 468.447 949.509 468.961C949.534 469.233 949.645 469.491 949.826 469.696C950.117 469.929 950.57 469.797 950.9 469.973C951.486 470.286 951.231 471.158 951.292 471.818C951.436 472.391 951.638 472.947 951.895 473.478C952.02 473.978 952.033 474.498 951.935 475.003C951.837 475.508 951.63 475.986 951.328 476.402Z" fill="#A0616A"/>
<path d="M853.729 717.446C854.274 716.902 855.164 716.994 855.925 717.114C860.01 717.76 864.139 718.094 868.275 718.113C868.793 715.585 867.29 713.127 866.805 710.592C866.735 709.938 866.571 709.297 866.316 708.69C865.734 707.573 864.42 707.061 863.187 706.801C860.961 706.332 857.482 705.504 856.239 707.754C854.748 710.454 854.271 714.441 853.729 717.446Z" fill="#65617D"/>
<path d="M898.978 707.895C897.3 709.04 895.218 709.396 893.201 709.656C891.18 709.912 889.106 710.11 887.279 711.008C885.702 711.787 884.373 713.064 882.704 713.623C881.152 714.049 879.517 714.075 877.953 713.698C876.077 713.346 874.078 712.664 873.065 711.043C872.163 709.603 872.259 707.776 872.383 706.081C872.528 704.165 872.67 702.247 872.81 700.326C872.803 699.839 872.926 699.358 873.166 698.934C874.523 696.957 877.821 699.762 879.586 699.758C882.382 699.753 885.385 698.239 887.402 696.385C887.578 696.201 887.784 696.046 888.01 695.927C888.807 695.57 889.603 696.231 890.312 696.808C890.392 696.874 890.471 696.94 890.55 697.001C892.184 698.296 894.377 698.56 896.393 699.084C898.414 699.608 900.576 700.665 901.201 702.655C901.242 702.781 901.274 702.909 901.298 703.038C901.664 704.87 900.55 706.821 898.978 707.895Z" fill="#3F3D56"/>
<path d="M898.978 707.895C897.3 709.04 895.218 709.396 893.201 709.656C891.18 709.912 889.106 710.11 887.279 711.008C885.702 711.787 884.373 713.064 882.704 713.623C881.152 714.049 879.517 714.075 877.953 713.698C876.077 713.346 874.078 712.664 873.065 711.043C872.163 709.603 872.259 707.776 872.383 706.081C872.528 704.165 872.67 702.247 872.81 700.326C872.803 699.839 872.926 699.358 873.166 698.934C874.523 696.957 877.821 699.762 879.586 699.758C882.382 699.753 885.385 698.239 887.402 696.385C887.578 696.201 887.784 696.046 888.01 695.927C888.807 695.57 889.603 696.231 890.312 696.808C890.392 696.874 890.471 696.94 890.55 697.001C892.184 698.296 894.377 698.56 896.393 699.084C898.414 699.608 900.576 700.665 901.201 702.655C901.242 702.781 901.274 702.909 901.298 703.038C901.664 704.87 900.55 706.821 898.978 707.895Z" fill="#2F2E41"/>
<path d="M898.978 708.539C897.3 709.684 895.218 710.041 893.201 710.301C891.18 710.556 889.106 710.754 887.279 711.652C885.702 712.432 884.373 713.709 882.704 714.268C881.152 714.694 879.517 714.719 877.953 714.343C875.956 713.92 874.203 712.737 873.065 711.043C872.163 709.603 872.259 707.776 872.383 706.081C872.528 704.165 872.67 702.247 872.81 700.326C872.803 699.839 872.926 699.358 873.166 698.934C874.523 696.957 877.821 699.762 879.586 699.758C882.382 699.753 885.385 698.239 887.402 696.385C887.578 696.201 887.784 696.046 888.01 695.927C888.807 695.57 889.603 696.231 890.312 696.808C889.846 698.244 889.185 699.61 888.349 700.867C887.673 701.927 886.77 702.823 885.704 703.49C884.638 704.156 883.437 704.577 882.189 704.72C880.938 704.813 879.657 704.566 878.446 704.888C877.239 705.209 876.112 706.446 876.539 707.622C876.957 708.767 878.437 709.018 879.657 709.084C881.365 709.176 883.118 709.26 884.738 708.727C885.729 708.397 886.636 707.851 887.6 707.45C891.699 705.751 896.878 706.702 900.264 703.831C900.585 703.537 900.931 703.272 901.298 703.038C902.185 704.894 900.55 707.465 898.978 708.539Z" fill="#E8EAF2"/>
<path opacity="0.05" d="M898.978 708.539C897.3 709.684 895.218 710.041 893.201 710.301C891.18 710.556 889.106 710.754 887.279 711.652C885.702 712.432 884.373 713.709 882.704 714.268C881.152 714.694 879.517 714.719 877.953 714.343C875.956 713.92 874.203 712.737 873.065 711.043C872.163 709.603 872.259 707.776 872.383 706.081C872.528 704.165 872.67 702.247 872.81 700.326C872.803 699.839 872.926 699.358 873.166 698.934C874.523 696.957 877.821 699.762 879.586 699.758C882.382 699.753 885.385 698.239 887.402 696.385C887.578 696.201 887.784 696.046 888.01 695.927C888.807 695.57 889.603 696.231 890.312 696.808C889.846 698.244 889.185 699.61 888.349 700.867C887.673 701.927 886.77 702.823 885.704 703.49C884.638 704.156 883.437 704.577 882.189 704.72C880.938 704.813 879.657 704.566 878.446 704.888C877.239 705.209 876.112 706.446 876.539 707.622C876.957 708.767 878.437 709.018 879.657 709.084C881.365 709.176 883.118 709.26 884.738 708.727C885.729 708.397 886.636 707.851 887.6 707.45C891.699 705.751 896.878 706.702 900.264 703.831C900.585 703.537 900.931 703.272 901.298 703.038C902.185 704.894 900.55 707.465 898.978 708.539Z" fill="black"/>
<path d="M854.495 583.095C853.189 589.509 854.428 596.179 857.95 601.695C858.911 603.183 860.036 604.58 860.758 606.198C861.232 607.351 861.598 608.546 861.854 609.766L864.966 622.647C865.806 626.124 866.653 629.669 866.4 633.238C866.224 635.724 865.598 638.52 867.13 640.486C867.5 640.862 867.812 641.29 868.056 641.756C868.209 642.303 868.214 642.881 868.071 643.43C866.497 652.782 865.329 662.56 868.173 671.607C870.751 679.807 870.898 688.893 873.09 697.205C873.361 698.234 873.671 699.319 874.451 700.043C875.037 700.536 875.74 700.87 876.492 701.013C879.722 701.782 883.133 700.881 886.145 699.486C888.262 698.505 890.541 696.784 890.36 694.458C890.274 693.352 889.628 692.382 889.189 691.362C888.328 689.362 888.259 687.129 888.027 684.964C887.444 679.529 885.768 674.281 884.502 668.963C883.236 663.646 882.375 658.089 883.446 652.729C885.637 641.641 889.143 630.855 893.891 620.598C894.097 620.053 894.424 619.561 894.847 619.16C895.324 618.89 895.776 618.58 896.201 618.235C896.53 617.727 896.742 617.151 896.821 616.551C897.292 614.854 898.691 613.603 899.629 612.113C901.998 608.35 901.247 603.527 901.159 599.082C901.074 594.76 901.696 590.397 900.988 586.132C900.279 581.867 897.836 577.508 893.724 576.171C891.687 575.509 889.485 575.66 887.354 575.871C876.063 576.988 865.092 579.039 854.495 583.095Z" fill="#2F2E41"/>
<path opacity="0.1" d="M854.495 583.095C853.189 589.509 854.428 596.179 857.95 601.695C858.911 603.183 860.036 604.58 860.758 606.198C861.232 607.351 861.598 608.546 861.854 609.766L864.966 622.647C865.806 626.124 866.653 629.669 866.4 633.238C866.224 635.724 865.598 638.52 867.13 640.486C867.5 640.862 867.812 641.29 868.056 641.756C868.209 642.303 868.214 642.881 868.071 643.43C866.497 652.782 865.329 662.56 868.173 671.607C870.751 679.807 870.898 688.893 873.09 697.205C873.361 698.234 873.671 699.319 874.451 700.043C875.037 700.536 875.74 700.87 876.492 701.013C879.722 701.782 883.133 700.881 886.145 699.486C888.262 698.505 890.541 696.784 890.36 694.458C890.274 693.352 889.628 692.382 889.189 691.362C888.328 689.362 888.259 687.129 888.027 684.964C887.444 679.529 885.768 674.281 884.502 668.963C883.236 663.646 882.375 658.089 883.446 652.729C885.637 641.641 889.143 630.855 893.891 620.598C894.097 620.053 894.424 619.561 894.847 619.16C895.324 618.89 895.776 618.58 896.201 618.235C896.53 617.727 896.742 617.151 896.821 616.551C897.292 614.854 898.691 613.603 899.629 612.113C901.998 608.35 901.247 603.527 901.159 599.082C901.074 594.76 901.696 590.397 900.988 586.132C900.279 581.867 897.836 577.508 893.724 576.171C891.687 575.509 889.485 575.66 887.354 575.871C876.063 576.988 865.092 579.039 854.495 583.095Z" fill="black"/>
<path d="M900.484 610.206C900.451 611.886 900.261 613.559 899.916 615.204C897.926 626.366 895.805 637.504 893.554 648.619C893.356 649.584 893.162 650.548 892.902 651.495C892.063 654.588 890.596 657.475 888.591 659.975C879.208 671.67 878.398 688.653 873.308 702.756C872.964 703.712 872.621 704.667 872.255 705.61C871.336 708 870.288 710.338 869.116 712.615C868.979 712.947 868.756 713.236 868.469 713.452C868.153 713.611 867.799 713.679 867.447 713.65C862.867 713.676 858.343 712.647 854.224 710.643C853.637 710.426 853.141 710.014 852.82 709.476C852.662 709.047 852.61 708.586 852.67 708.133C852.811 705.337 852.983 702.439 854.317 699.982C855.202 698.512 856.3 697.181 857.575 696.033C857.972 687.257 858.839 678.464 860.768 669.895C861.758 665.514 862.982 661.085 865.527 657.382C867.403 654.647 870.094 651.948 869.763 648.65C869.618 647.201 869.01 645.396 870.19 644.546C870.706 644.172 871.467 644.124 871.815 643.591C871.955 643.34 872.034 643.059 872.044 642.772C872.287 640.508 872.145 638.22 871.626 636.004C871.197 634.556 870.86 633.083 870.617 631.592C870.468 630.086 870.723 628.457 871.727 627.33C871.789 624.318 871.705 621.192 871.767 618.184C871.885 616.47 871.743 614.748 871.344 613.077C871.115 612.289 870.767 611.536 870.591 610.73C869.961 607.837 871.533 604.372 869.662 602.078C868.883 601.127 867.681 600.651 866.659 599.964C864.62 598.604 863.282 596.376 862.538 594.037C861.877 591.67 861.486 589.236 861.371 586.781C861.31 586.261 861.304 585.735 861.353 585.213C861.386 584.944 861.457 584.68 861.564 584.43C862.146 583.122 863.709 582.616 865.1 582.281C873.943 580.16 883.007 579.1 892.101 579.124C895.465 576.834 897.358 577.653 898.785 580.079C899.572 581.56 900.21 583.117 900.687 584.725C901.338 586.693 901.378 597.71 902.012 599.687C902.836 602.258 900.453 607.507 900.484 610.206Z" fill="#2F2E41"/>
<path d="M839.661 509.953C839.411 511.687 840.244 513.39 840.337 515.139C840.417 516.667 839.931 518.16 839.652 519.665C838.566 525.537 840.653 531.485 842.777 537.067C843.181 537.973 843.431 538.94 843.518 539.929C843.575 541.751 842.526 543.42 842.239 545.22C841.635 549.002 844.425 552.56 844.482 556.389C844.509 558.152 843.954 559.947 844.395 561.654C844.689 562.794 845.4 563.773 845.905 564.836C846.799 566.72 847.039 568.857 847.893 570.76C849.436 574.198 852.75 576.443 855.904 578.505C857.698 577.907 859.638 577.197 860.623 575.582C861.055 574.787 861.335 573.917 861.447 573.019C862.129 569.102 862.105 565.101 862.079 561.125C862.137 557.704 861.955 554.283 861.535 550.888C860.898 546.568 859.497 542.403 858.491 538.154C857.223 532.796 856.573 527.259 854.598 522.118C852.863 517.601 850.159 513.546 847.314 509.662C846.228 508.18 845.371 506.062 843.264 506.404C842.372 506.556 841.548 506.978 840.904 507.612C840.26 508.247 839.826 509.064 839.661 509.953V509.953Z" fill="#FED136"/>
<path opacity="0.05" d="M839.661 509.953C839.411 511.687 840.244 513.39 840.337 515.139C840.417 516.667 839.931 518.16 839.652 519.665C838.566 525.537 840.653 531.485 842.777 537.067C843.181 537.973 843.431 538.94 843.518 539.929C843.575 541.751 842.526 543.42 842.239 545.22C841.635 549.002 844.425 552.56 844.482 556.389C844.509 558.152 843.954 559.947 844.395 561.654C844.689 562.794 845.4 563.773 845.905 564.836C846.799 566.72 847.039 568.857 847.893 570.76C849.436 574.198 852.75 576.443 855.904 578.505C857.698 577.907 859.638 577.197 860.623 575.582C861.055 574.787 861.335 573.917 861.447 573.019C862.129 569.102 862.105 565.101 862.079 561.125C862.137 557.704 861.955 554.283 861.535 550.888C860.898 546.568 859.497 542.403 858.491 538.154C857.223 532.796 856.573 527.259 854.598 522.118C852.863 517.601 850.159 513.546 847.314 509.662C846.228 508.18 845.371 506.062 843.264 506.404C842.372 506.556 841.548 506.978 840.904 507.612C840.26 508.247 839.826 509.064 839.661 509.953V509.953Z" fill="black"/>
<path opacity="0.1" d="M885.461 472.179C884.07 474.411 882.919 476.782 882.026 479.255C880.749 479.569 879.44 479.727 878.125 479.726C873.022 479.726 869.407 476.823 866.408 473.155C866.149 471.979 864.532 470.88 864.713 469.956C864.951 468.732 866.104 468.974 867.143 469.044C870.312 469.286 873.466 469.693 876.593 470.264C877.407 470.405 885.342 472.386 885.461 472.179Z" fill="black"/>
<path d="M878.126 479.284C887.156 479.284 894.477 471.964 894.477 462.933C894.477 453.903 887.156 446.583 878.126 446.583C869.096 446.583 861.775 453.903 861.775 462.933C861.775 471.964 869.096 479.284 878.126 479.284Z" fill="#A0616A"/>
<path opacity="0.1" d="M898.784 580.079C895.953 579.912 893.104 580.027 890.264 580.141C888.488 580.158 886.718 580.339 884.976 580.683C882.827 581.171 880.819 582.149 878.701 582.761C875.311 583.747 871.731 583.791 868.217 584.139C865.91 584.363 863.618 584.722 861.353 585.213C861.386 584.944 861.457 584.68 861.564 584.43C862.145 583.122 863.708 582.616 865.1 582.281C873.942 580.16 883.006 579.1 892.1 579.124C895.464 576.834 897.357 577.653 898.784 580.079Z" fill="black"/>
<path d="M887.641 489.7C886.929 490.524 885.972 491.433 884.915 491.167C884.533 491.037 884.174 490.845 883.854 490.6C881.969 489.385 879.656 489.1 877.438 488.766C872.969 488.092 868.553 487.099 864.225 485.795C862.969 485.338 861.652 485.07 860.317 485C857.546 485.015 855.09 486.857 853.353 489.017C851.617 491.176 850.386 493.703 848.682 495.889C847.468 497.446 846.022 498.818 844.888 500.434C842.025 504.515 841.41 509.84 842.149 514.769C842.888 519.699 844.858 524.347 846.81 528.934C847.853 531.597 849.126 534.164 850.615 536.606C849.956 540.352 850.304 544.635 852.085 547.996C852.665 549.09 853.376 550.157 853.568 551.381C853.655 552.209 853.621 553.045 853.465 553.863L852.633 559.783C852.379 561.585 852.126 563.389 851.798 565.179C851.197 568.456 850.382 572.012 851.9 574.978C853.717 578.529 851.808 583.081 852.286 587.042C857.401 585.066 862.761 583.793 868.219 583.256C871.732 582.912 875.311 582.868 878.701 581.882C880.818 581.266 882.826 580.291 884.976 579.8C886.719 579.458 888.49 579.277 890.266 579.26C894.184 579.102 898.13 578.945 902.008 579.523C902.322 579.569 902.705 579.595 902.893 579.339C902.977 579.199 903.018 579.039 903.011 578.876C903.07 577.423 902.723 575.981 902.008 574.714C901.514 573.841 900.827 572.988 900.846 571.985C900.882 571.517 900.996 571.059 901.185 570.63L902.904 566.047C904.355 562.178 903.664 557.684 904.418 553.621C905.007 550.446 905.384 547.234 905.547 544.009C905.687 541.252 905.6 538.266 903.936 536.063C903.45 535.532 903.028 534.945 902.679 534.315C902.441 533.646 902.339 532.935 902.38 532.225C902.343 526.708 902.494 521.194 902.834 515.683C901.383 513.078 899.871 510.413 898.42 507.808C896.732 504.776 895.02 501.681 894.339 498.278C893.887 496.026 893.903 493.706 893.58 491.432C893.546 490.854 893.346 490.299 893.002 489.833C892.448 489.205 891.511 489.115 890.675 489.142C889.641 489.174 888.619 489.362 887.641 489.7Z" fill="#FED136"/>
<path opacity="0.1" d="M947.501 479.876C946.474 480.669 945.25 481.167 943.961 481.316C942.275 481.431 938.695 480.44 937.647 478.996C937.205 478.27 936.995 477.427 937.044 476.578C937.272 476.504 937.509 476.458 937.748 476.442C939.578 476.239 941.427 476.313 943.234 476.662C945.018 477.098 946.739 478.181 947.492 479.859C947.497 479.863 947.497 479.872 947.501 479.876Z" fill="black"/>
<path d="M893.102 515.238C894.098 516.478 895.135 517.754 896.547 518.487C898.171 519.33 900.084 519.349 901.914 519.31C909.448 519.15 916.953 518.325 924.342 516.847C925.184 516.702 926.011 516.48 926.812 516.185C927.7 515.762 928.538 515.239 929.309 514.628C931.741 512.879 934.208 511.097 936.058 508.74C938.259 505.894 939.642 502.502 940.059 498.928C941.819 497.307 942.753 495.003 943.634 492.778C944.069 491.835 944.344 490.825 944.448 489.792C944.496 488.734 943.795 487.625 943.989 486.584C944.328 484.79 945.238 483.153 946.583 481.917C946.868 481.714 947.084 481.428 947.2 481.097C947.236 480.822 947.185 480.542 947.053 480.298C946.3 478.621 944.579 477.54 942.794 477.1C940.986 476.751 939.136 476.678 937.306 476.882C936.696 476.998 936.095 477.157 935.508 477.36L934.229 480.727C934.058 481.29 933.773 481.812 933.394 482.262C933.109 482.521 932.806 482.758 932.486 482.972C931.837 483.523 931.334 484.225 931.02 485.017C930.706 485.808 930.592 486.664 930.687 487.51C929.531 487.959 928.59 488.831 928.054 489.949C927.518 491.067 927.429 492.348 927.804 493.53C926.842 493.736 925.949 494.185 925.211 494.835C924.473 495.485 923.914 496.313 923.588 497.241C923.497 497.664 923.308 498.059 923.037 498.396C922.615 498.716 922.094 498.877 921.565 498.849C920.12 498.938 918.857 500.076 917.547 499.459C916.06 498.762 914.397 498.529 912.775 498.792C912.442 498.87 912.099 498.901 911.757 498.882C911.464 498.832 911.182 498.734 910.922 498.591C910.332 498.248 909.693 497.996 909.028 497.846C908.693 497.776 908.346 497.805 908.027 497.928C907.708 498.051 907.432 498.264 907.231 498.54C906.772 498.037 906.499 497.393 906.081 496.856C905.896 496.57 905.635 496.341 905.327 496.194C905.02 496.047 904.677 495.988 904.338 496.024C904.773 495.637 904.328 494.865 903.762 494.724C903.182 494.676 902.598 494.697 902.023 494.787C900.511 494.779 899.35 493.406 897.881 493.046C896.531 492.716 894.732 493.11 894.04 491.904C893.794 491.477 893.746 490.897 893.329 490.636C893.046 490.497 892.724 490.459 892.416 490.53C891.457 490.658 890.526 490.94 889.658 491.367C888.242 496.905 888.985 502.657 890.063 508.27C890.458 510.816 891.505 513.217 893.102 515.238V515.238Z" fill="#FED136"/>
<path opacity="0.1" d="M893.06 535.083L886.02 549.281C886.78 547.965 888.385 547.457 889.651 546.616C891.263 545.456 892.477 543.825 893.126 541.948C893.766 540.082 894.211 538.155 894.455 536.197C894.599 535.296 894.897 534.034 894.462 533.218C893.653 533.384 893.391 534.416 893.06 535.083Z" fill="black"/>
<path opacity="0.1" d="M872.801 547.136C871.212 548.708 869.267 549.864 867.519 551.258C863.436 554.511 860.523 558.972 857.682 563.351C856.88 564.494 856.206 565.722 855.672 567.013C856.005 567.298 856.503 567.002 856.832 566.713L862.361 561.854C863.04 561.299 863.658 560.673 864.205 559.988C865.165 558.695 865.59 557.081 866.462 555.728C867.411 554.431 868.543 553.277 869.822 552.303C871.091 551.215 876.928 546.28 875.505 544.364C874.479 544.881 873.64 546.305 872.801 547.136Z" fill="black"/>
<path d="M884.881 485.596C883.127 484.504 881.062 484.041 879.029 483.67C877.809 483.392 876.554 483.302 875.306 483.402C874.155 483.546 873.05 483.99 871.892 484.055C870.266 484.145 868.708 483.486 867.138 483.056C865.567 482.626 863.753 482.462 862.431 483.412C862.15 483.689 861.794 483.878 861.407 483.956C861.005 483.908 860.632 483.725 860.348 483.437C859.236 482.641 857.886 482.246 856.519 482.318C855.153 482.39 853.852 482.925 852.83 483.833C849.832 486.644 850.171 492.137 846.658 494.269C845.689 494.856 844.451 495.167 843.886 496.149C843.749 496.462 843.589 496.764 843.408 497.053C843.173 497.312 842.885 497.517 842.563 497.655C841.544 498.11 840.574 498.668 839.667 499.32C839.215 499.649 838.835 500.066 838.548 500.546C838.262 501.026 838.076 501.559 838.001 502.114C837.988 502.926 838.163 503.73 838.512 504.463C840.232 508.68 843.214 512.261 847.051 514.714C850.887 517.167 855.389 518.372 859.938 518.164C860.746 518.205 861.542 517.957 862.183 517.463C862.521 517.082 862.787 516.643 862.969 516.168C864.621 512.704 867.723 510.148 869.693 506.855C870.867 504.893 871.62 502.698 872.842 500.765C874.695 497.836 877.513 495.671 880.27 493.571C881.825 492.386 883.557 491.143 885.51 491.226C887.251 491.3 888.518 491.394 887.88 489.258C887.348 487.72 886.285 486.421 884.881 485.596Z" fill="#FED136"/>
<path opacity="0.05" d="M884.881 485.596C883.127 484.504 881.062 484.041 879.029 483.67C877.809 483.392 876.554 483.302 875.306 483.402C874.155 483.546 873.05 483.99 871.892 484.055C870.266 484.145 868.708 483.486 867.138 483.056C865.567 482.626 863.753 482.462 862.431 483.412C862.15 483.689 861.794 483.878 861.407 483.956C861.005 483.908 860.632 483.725 860.348 483.437C859.236 482.641 857.886 482.246 856.519 482.318C855.153 482.39 853.852 482.925 852.83 483.833C849.832 486.644 850.171 492.137 846.658 494.269C845.689 494.856 844.451 495.167 843.886 496.149C843.749 496.462 843.589 496.764 843.408 497.053C843.173 497.312 842.885 497.517 842.563 497.655C841.544 498.11 840.574 498.668 839.667 499.32C839.215 499.649 838.835 500.066 838.548 500.546C838.262 501.026 838.076 501.559 838.001 502.114C837.988 502.926 838.163 503.73 838.512 504.463C840.232 508.68 843.214 512.261 847.051 514.714C850.887 517.167 855.389 518.372 859.938 518.164C860.746 518.205 861.542 517.957 862.183 517.463C862.521 517.082 862.787 516.643 862.969 516.168C864.621 512.704 867.723 510.148 869.693 506.855C870.867 504.893 871.62 502.698 872.842 500.765C874.695 497.836 877.513 495.671 880.27 493.571C881.825 492.386 883.557 491.143 885.51 491.226C887.251 491.3 888.518 491.394 887.88 489.258C887.348 487.72 886.285 486.421 884.881 485.596Z" fill="black"/>
<path d="M893.39 722.575C892.206 723.68 890.577 724.165 888.996 724.508C885.386 725.212 881.731 725.664 878.058 725.86C876.869 725.948 875.676 726.04 874.487 726.133C871 726.397 867.508 726.666 864.008 726.679C859.687 726.694 855.374 726.321 851.12 725.565C850.949 725.581 850.778 725.557 850.618 725.495C850.459 725.433 850.316 725.335 850.202 725.207C850.088 725.08 850.005 724.928 849.96 724.763C849.915 724.598 849.91 724.425 849.944 724.257C850.02 719.901 850.551 715.566 851.529 711.321C851.934 709.577 855.061 713.487 855.201 713.65C856.069 714.636 856.725 715.09 858.042 715.16C861.639 715.358 865.668 713.17 868.525 711.224C869.137 710.769 869.787 710.366 870.467 710.022C870.967 709.797 871.496 709.646 872.039 709.573C873.89 709.402 875.75 709.779 877.389 710.656C879.538 711.721 881.422 713.254 883.549 714.35C885.278 715.239 887.145 715.83 889.071 716.098C891.017 716.367 893.342 716.494 894.341 718.181C894.343 718.182 894.344 718.185 894.345 718.187C894.346 718.189 894.346 718.192 894.346 718.194C895.165 719.59 894.57 721.474 893.39 722.575Z" fill="#2F2E41"/>
<path d="M893.39 723.22C892.206 724.325 890.577 724.809 888.996 725.153C885.386 725.857 881.731 726.308 878.058 726.504C876.87 726.592 875.676 726.685 874.488 726.777C871 727.042 867.509 727.31 864.008 727.323C859.687 727.338 855.374 726.965 851.12 726.209C850.925 726.202 850.734 726.154 850.558 726.069C850.382 725.984 850.226 725.864 850.098 725.716C849.762 725.271 849.493 724.78 849.3 724.257C849.375 719.907 850.552 715.561 851.529 711.321C851.935 709.577 855.061 713.487 855.202 713.65C856.069 714.636 856.725 715.09 858.042 715.16C861.639 715.358 865.668 713.17 868.526 711.224C869.138 710.769 869.787 710.366 870.467 710.022C870.967 709.797 871.497 709.646 872.039 709.573C871.577 712.162 867.865 715.288 865.95 716.239C862.075 718.163 857.469 717.203 853.145 717.428C852.829 717.419 852.516 717.495 852.238 717.648C851.719 717.991 851.688 718.727 851.706 719.348C851.741 720.378 851.873 721.589 852.767 722.113C853.214 722.327 853.706 722.43 854.202 722.412C864.857 722.879 875.533 722.505 886.13 721.294C887.912 721.175 889.665 720.784 891.33 720.136C892.417 719.626 893.432 718.973 894.346 718.194C895.707 719.263 894.57 722.119 893.39 723.22Z" fill="#E8EAF2"/>
<path d="M884.487 462.757C884.425 464.447 885.579 467.728 882.418 466.812C880.533 466.266 880 464.034 877.609 464.531C875.196 465.037 874.668 467.974 873.858 469.903C873.198 471.436 872.175 472.785 870.877 473.833C869.579 474.882 868.045 475.599 866.408 475.922C865.733 476.079 865.03 476.078 864.356 475.918C862.815 475.477 861.934 473.888 861.304 472.413C860.759 471.165 860.307 469.879 859.953 468.564C859.707 467.64 859.543 466.695 859.464 465.742V465.738C859.41 465.089 859.407 464.436 859.455 463.787C859.741 459.943 861.93 456.438 864.73 453.787C867.531 451.137 870.934 449.221 874.294 447.332C875.391 446.648 876.578 446.118 877.821 445.76C879.047 445.513 880.304 445.461 881.546 445.606C883.181 445.676 884.789 446.054 886.284 446.72C886.897 447.023 887.46 447.418 887.952 447.892C888.654 448.542 889.155 449.379 889.397 450.304C890.004 452.788 888.419 455.025 887.133 456.988C885.989 458.732 884.571 460.581 884.487 462.757Z" fill="#2F2E41"/>
<path opacity="0.1" d="M937.692 499.044C937.015 497.34 934.176 492.63 934.998 491.01C935.851 492.22 936.575 493.515 937.158 494.875C937.695 496.192 937.256 497.958 937.692 499.044Z" fill="black"/>
<path opacity="0.1" d="M887.204 456.988C888.492 455.023 890.077 452.786 889.47 450.303C889.172 449.21 888.527 448.244 887.631 447.551C887.839 447.914 887.996 448.305 888.097 448.711C888.704 451.194 887.119 453.431 885.831 455.396C884.688 457.14 883.269 458.991 883.187 461.165C883.124 462.854 884.279 466.137 881.115 465.221C879.232 464.676 878.7 462.441 876.308 462.94C873.894 463.444 873.368 466.381 872.557 468.312C871.896 469.844 870.873 471.193 869.575 472.242C868.276 473.29 866.742 474.007 865.105 474.331C864.431 474.487 863.729 474.486 863.055 474.326C862.708 474.225 862.381 474.065 862.089 473.852C862.572 474.817 863.41 475.558 864.428 475.918C865.102 476.077 865.804 476.079 866.478 475.923C868.115 475.599 869.649 474.882 870.947 473.833C872.246 472.785 873.269 471.436 873.93 469.903C874.74 467.973 875.267 465.035 877.681 464.532C880.073 464.033 880.605 466.267 882.488 466.812C885.652 467.729 884.497 464.446 884.56 462.756C884.642 460.583 886.061 458.731 887.204 456.988Z" fill="black"/>
<path opacity="0.1" d="M887.904 453.629C887.608 454.108 887.285 454.57 886.935 455.011C886.268 455.855 885.518 456.631 884.699 457.328C884.216 457.748 883.712 458.143 883.188 458.512C882.218 459.195 881.198 459.804 880.137 460.335C877.046 461.894 873.699 462.871 870.371 463.835C868.195 464.47 866.019 465.102 863.841 465.733C863.039 466.341 861.573 467.433 859.953 468.564C859.707 467.64 859.543 466.695 859.464 465.742V465.738C859.41 465.089 859.407 464.436 859.455 463.787C859.741 459.943 861.93 456.438 864.73 453.787C867.531 451.137 870.934 449.221 874.294 447.332C875.391 446.648 876.578 446.118 877.821 445.76C879.047 445.513 880.304 445.461 881.546 445.606C883.181 445.676 884.789 446.054 886.284 446.72C886.897 447.023 887.46 447.418 887.952 447.892C888.321 448.435 888.603 449.032 888.789 449.662C889.203 451 888.635 452.44 887.904 453.629Z" fill="black"/>
<path d="M887.904 453.188C887.608 453.668 887.285 454.13 886.935 454.571C886.267 455.415 885.518 456.191 884.698 456.887C884.216 457.308 883.711 457.703 883.188 458.072C882.218 458.755 881.198 459.364 880.137 459.895C877.046 461.453 873.699 462.431 870.37 463.395C868.195 464.029 866.019 464.662 863.84 465.293C861.564 467.014 853.938 472.664 852.656 471.959C851.146 471.127 859.422 465.268 859.422 465.268L859.803 465.557C858.592 464.795 857.958 463.03 857.685 461.502C857.2 458.767 856.971 455.927 857.619 453.224C858.266 450.525 859.891 447.953 862.365 446.689C863.462 446.126 864.791 445.743 865.584 444.875C865.704 444.747 865.809 444.605 865.897 444.453C865.945 444.382 865.986 444.307 866.02 444.228C866.107 443.99 866.224 443.764 866.368 443.554C866.821 443.03 867.645 443.189 868.332 443.273C868.407 443.281 868.477 443.29 868.552 443.295C868.675 443.307 868.798 443.313 868.922 443.312C871.374 443.365 873.752 442 876.235 442C878.957 441.996 881.273 443.572 883.668 444.646C884.152 444.866 884.61 445.065 885.042 445.267C886.772 446.073 888.075 446.932 888.789 449.221C889.203 450.56 888.635 452 887.904 453.188Z" fill="#3F3D56"/>
<path opacity="0.1" d="M868.922 443.312C869.057 443.543 869.106 443.815 869.058 444.078C869.01 444.341 868.87 444.579 868.662 444.748C868.359 444.962 868.002 445.089 867.631 445.113C867.366 445.149 867.098 445.17 866.83 445.175C866.467 445.204 866.102 445.142 865.769 444.994C865.704 444.96 865.642 444.92 865.584 444.875C865.704 444.747 865.809 444.605 865.897 444.453C865.958 444.501 866.02 444.488 866.266 444.47C866.714 444.448 867.158 444.373 867.587 444.246C867.767 444.198 867.935 444.118 868.085 444.008C868.305 443.819 868.467 443.572 868.552 443.295L868.922 443.312Z" fill="black"/>
<path opacity="0.1" d="M859.585 465.203C859.93 465.418 860.314 465.561 860.715 465.624C861.22 465.771 861.751 465.806 862.271 465.728C862.791 465.65 863.288 465.461 863.728 465.172" fill="black"/>
<g clip-path="url(#clip1)">
<path d="M881.496 147.589C878.399 148.729 872.96 149.666 866.664 150.419C849.547 152.471 826.09 153.199 826.09 153.199C826.09 153.199 705.504 163.188 615.127 126.037C615.127 126.037 601.982 119.153 614.176 109.889C616.054 108.505 618.051 107.289 620.142 106.255L620.291 106.106C621.678 104.825 623.177 103.671 624.77 102.658C629.452 99.6341 637.358 96.05 646.982 97.6743L884.349 136.02C884.349 136.02 893.019 143.337 881.496 147.589Z" fill="#828282"/>
<path d="M834.201 130.21L883.892 94.9957L905.793 98.7793L884.349 136.02C884.349 136.02 834.772 136.415 834.201 130.21Z" fill="#828282"/>
<path d="M709.099 108.816L808.078 81.09L824.032 84.4208L779.321 104.51L765.348 120.126L709.099 108.816Z" fill="#828282"/>
<path d="M866.664 150.419C849.547 152.471 826.09 153.199 826.09 153.199C826.09 153.199 705.504 163.189 615.127 126.037C615.127 126.037 601.982 119.154 614.176 109.889L614.218 110.06C614.218 110.06 633.719 123.225 726.894 134.215L866.664 150.419Z" fill="#FED136"/>
<path d="M850.755 149.659L895.006 167.706L906.123 166.475L879.654 146.604C879.654 146.604 847.639 139.781 850.755 149.659Z" fill="#828282"/>
<path d="M630.264 111.989C628.153 112.023 623.315 108.487 620.307 106.106C621.694 104.825 623.193 103.671 624.786 102.658C627.211 104.516 631.525 107.524 633.925 107.407C637.39 107.265 633.443 111.932 630.264 111.989Z" fill="#FED136"/>
<path d="M831.301 212.042L802.889 213.527L723.008 159.728L708.18 149.739L700.978 144.885C714.491 133.487 769.625 149.207 769.625 149.207C770.68 150.096 771.016 151.575 770.969 153.209C770.877 156.267 769.438 159.858 768.883 161.149C768.75 161.466 768.667 161.634 768.667 161.634L831.301 212.042Z" fill="#828282"/>
<path d="M737.732 184.148L732.803 187.264L735.789 181.84C734.943 181.166 733.897 180.793 732.816 180.78H732.736C732.395 180.786 732.053 180.761 731.716 180.704L730.048 181.761L730.762 180.463C729.58 180.049 728.56 179.273 727.845 178.247L724.862 180.146L726.745 176.721C725.002 174.628 722.65 173.345 720.06 173.345C716.957 173.345 714.193 175.188 712.408 178.063C711.879 178.924 711.131 179.629 710.24 180.108C709.349 180.586 708.347 180.82 707.336 180.786H707.171C703.745 180.786 700.968 184.664 700.968 189.452C700.968 194.239 703.745 198.117 707.171 198.117C707.924 198.115 708.665 197.929 709.33 197.576C710.497 197.011 711.772 196.705 713.069 196.68C714.365 196.655 715.652 196.911 716.839 197.43C717.844 197.878 718.932 198.11 720.031 198.11C721.131 198.11 722.219 197.878 723.224 197.43C724.401 196.92 725.675 196.669 726.959 196.694C728.242 196.718 729.506 197.018 730.663 197.573C731.324 197.917 732.058 198.099 732.803 198.102C736.23 198.102 739.006 194.223 739.006 189.436C739.031 187.595 738.593 185.777 737.732 184.148Z" fill="#F2F2F2"/>
<path opacity="0.03" d="M728.46 196.829C726.67 196.491 724.82 196.691 723.145 197.405C722.141 197.854 721.054 198.086 719.954 198.086C718.854 198.086 717.767 197.854 716.764 197.405C715.576 196.884 714.289 196.627 712.993 196.652C711.696 196.677 710.42 196.984 709.254 197.551C708.588 197.903 707.846 198.089 707.092 198.092C704.049 198.092 701.516 195.027 700.99 190.987C701.599 190.546 702.116 189.99 702.512 189.35C704.296 186.479 707.061 184.636 710.164 184.636C713.267 184.636 716.003 186.441 717.784 189.29C718.316 190.149 719.061 190.856 719.947 191.343C720.833 191.829 721.829 192.079 722.84 192.067H722.919C725.341 192.061 727.44 193.998 728.46 196.829Z" fill="black"/>
<path d="M876.89 180.032L871.961 183.148L874.947 177.724C874.102 177.05 873.055 176.677 871.974 176.664H871.895C871.553 176.67 871.211 176.645 870.874 176.588L869.207 177.645L869.92 176.347C868.739 175.933 867.718 175.157 867.003 174.131L864.021 176.03L865.903 172.604C864.16 170.512 861.808 169.229 859.218 169.229C856.115 169.229 853.351 171.072 851.566 173.947C851.037 174.808 850.289 175.513 849.398 175.992C848.507 176.47 847.505 176.704 846.494 176.67H846.329C842.903 176.67 840.126 180.548 840.126 185.336C840.126 190.123 842.903 194.001 846.329 194.001C847.082 193.999 847.823 193.813 848.488 193.46C849.655 192.895 850.93 192.589 852.227 192.564C853.523 192.539 854.81 192.795 855.998 193.314C857.002 193.762 858.09 193.993 859.19 193.993C860.29 193.993 861.377 193.762 862.382 193.314C863.56 192.804 864.834 192.553 866.117 192.578C867.401 192.602 868.664 192.902 869.821 193.457C870.482 193.801 871.216 193.983 871.961 193.986C875.388 193.986 878.165 190.107 878.165 185.32C878.189 183.479 877.751 181.661 876.89 180.032V180.032Z" fill="#F2F2F2"/>
<path opacity="0.03" d="M867.618 192.713C865.828 192.375 863.978 192.575 862.302 193.289C861.299 193.738 860.211 193.97 859.112 193.97C858.012 193.97 856.925 193.738 855.921 193.289C854.734 192.768 853.447 192.511 852.15 192.536C850.854 192.561 849.578 192.868 848.412 193.435C847.746 193.787 847.004 193.973 846.25 193.976C843.207 193.976 840.674 190.911 840.148 186.871C840.757 186.43 841.274 185.874 841.669 185.234C843.454 182.363 846.218 180.52 849.322 180.52C852.425 180.52 855.161 182.325 856.942 185.174C857.475 186.035 858.222 186.744 859.111 187.231C860 187.717 861 187.965 862.014 187.951H862.093C864.499 187.945 866.597 189.882 867.618 192.713Z" fill="black"/>
<path d="M876.89 76.1824L871.961 79.2979L874.947 73.8743C874.102 73.2005 873.055 72.8273 871.974 72.8137H871.895C871.553 72.8203 871.211 72.7949 870.874 72.7377L869.206 73.7952L869.92 72.497C868.738 72.0829 867.718 71.3074 867.003 70.2807L864.021 72.1804L865.903 68.7546C864.16 66.6618 861.808 65.3795 859.218 65.3795C856.115 65.3795 853.351 67.2222 851.566 70.0971C851.037 70.958 850.289 71.6635 849.398 72.1418C848.507 72.6201 847.505 72.8541 846.494 72.82H846.329C842.903 72.82 840.126 76.6985 840.126 81.4858C840.126 86.273 842.903 90.1515 846.329 90.1515C847.082 90.1491 847.823 89.9633 848.488 89.6101C849.655 89.0448 850.93 88.739 852.227 88.7139C853.523 88.6887 854.81 88.9448 855.998 89.4645C857.001 89.9147 858.088 90.1488 859.188 90.1515C860.288 90.1543 861.376 89.9256 862.382 89.4803C863.56 88.9704 864.834 88.7192 866.117 88.7438C867.401 88.7684 868.664 89.0681 869.821 89.6228C870.482 89.9672 871.216 90.1485 871.961 90.1515C875.388 90.1515 878.165 86.273 878.165 81.4858C878.192 79.6392 877.754 77.8155 876.89 76.1824V76.1824Z" fill="#F2F2F2"/>
<path opacity="0.03" d="M867.618 88.8629C865.828 88.5246 863.978 88.7252 862.302 89.4392C861.299 89.888 860.211 90.12 859.112 90.12C858.012 90.12 856.925 89.888 855.921 89.4392C854.734 88.918 853.447 88.6612 852.15 88.6863C850.854 88.7115 849.578 89.018 848.412 89.5848C847.746 89.9369 847.004 90.1227 846.25 90.1262C843.207 90.1262 840.674 87.0614 840.148 83.0214C840.757 82.5797 841.274 82.0237 841.669 81.3845C843.454 78.5128 846.218 76.67 849.322 76.67C852.425 76.67 855.161 78.4748 856.942 81.3243C857.475 82.1855 858.222 82.894 859.111 83.3806C860 83.8673 861 84.1155 862.014 84.101H862.093C864.499 84.0947 866.597 86.0324 867.618 88.8629Z" fill="black"/>
<path d="M673.377 64.9773L670.92 66.5319L672.41 63.828C671.989 63.49 671.467 63.3027 670.927 63.2961H670.889C670.718 63.2979 670.547 63.2852 670.378 63.2581L669.548 63.7837L669.903 63.1505C669.314 62.9442 668.804 62.5576 668.448 62.0455L666.961 62.9953L667.912 61.2888C667.517 60.778 667.012 60.3617 666.435 60.0703C665.859 59.7789 665.224 59.6197 664.578 59.6044C663.031 59.6044 661.652 60.5226 660.774 61.9568C660.509 62.3874 660.135 62.74 659.69 62.9787C659.244 63.2174 658.743 63.3335 658.238 63.3151H658.155C656.447 63.3151 655.062 65.2528 655.062 67.6401C655.062 70.0274 656.447 71.9619 658.155 71.9619C658.531 71.9607 658.901 71.8683 659.233 71.6927C659.815 71.4098 660.451 71.2568 661.098 71.2442C661.745 71.2316 662.387 71.3598 662.98 71.6199C663.479 71.8415 664.019 71.9559 664.565 71.9559C665.111 71.9559 665.651 71.8415 666.15 71.6199C666.737 71.3653 667.373 71.24 668.014 71.2525C668.654 71.2651 669.284 71.4152 669.862 71.6927C670.191 71.863 670.556 71.953 670.927 71.9555C672.635 71.9555 674.021 70.021 674.021 67.6337C674.033 66.7084 673.811 65.7949 673.377 64.9773Z" fill="#F2F2F2"/>
<path opacity="0.03" d="M668.752 71.3034C667.859 71.1325 666.935 71.2328 666.099 71.5915C665.6 71.8117 665.06 71.926 664.514 71.9271C663.962 71.9269 663.417 71.8093 662.914 71.582C662.321 71.323 661.679 71.1957 661.032 71.2088C660.385 71.2219 659.749 71.3752 659.167 71.658C658.836 71.8335 658.467 71.9259 658.092 71.9271C656.574 71.9271 655.309 70.3978 655.046 68.3842C655.349 68.1622 655.607 67.885 655.807 67.5673C656.694 66.133 658.073 65.2148 659.611 65.2148C661.148 65.2148 662.52 66.1235 663.414 67.5388C663.681 67.9692 664.055 68.323 664.499 68.5655C664.944 68.8081 665.444 68.9311 665.95 68.9224H665.991C667.187 68.9224 668.242 69.8913 668.752 71.3034Z" fill="black"/>
<path d="M892.099 219.802L889.643 221.357L891.132 218.653C890.711 218.315 890.189 218.128 889.649 218.121H889.611C889.44 218.123 889.269 218.11 889.101 218.083L888.27 218.609L888.625 217.976C888.036 217.769 887.527 217.383 887.17 216.871L885.683 217.82L886.634 216.114C886.239 215.603 885.734 215.187 885.158 214.895C884.581 214.604 883.946 214.445 883.3 214.429C881.753 214.429 880.374 215.348 879.496 216.782C879.232 217.212 878.857 217.565 878.412 217.804C877.966 218.042 877.465 218.159 876.96 218.14H876.878C875.169 218.14 873.784 220.078 873.784 222.465C873.784 224.852 875.169 226.787 876.878 226.787C877.253 226.786 877.623 226.693 877.955 226.518C878.537 226.235 879.174 226.082 879.821 226.069C880.468 226.057 881.11 226.185 881.702 226.445C882.201 226.667 882.741 226.781 883.287 226.781C883.833 226.781 884.373 226.667 884.872 226.445C885.46 226.19 886.095 226.065 886.736 226.078C887.376 226.09 888.007 226.24 888.584 226.518C888.913 226.688 889.278 226.778 889.649 226.781C891.358 226.781 892.743 224.846 892.743 222.459C892.755 221.533 892.534 220.62 892.099 219.802V219.802Z" fill="#F2F2F2"/>
<path opacity="0.03" d="M887.475 226.128C886.581 225.958 885.657 226.058 884.821 226.417C884.322 226.637 883.782 226.751 883.237 226.752C882.684 226.752 882.139 226.634 881.636 226.407C881.043 226.148 880.401 226.021 879.754 226.034C879.107 226.047 878.471 226.2 877.889 226.483C877.558 226.659 877.189 226.751 876.814 226.752C875.296 226.752 874.031 225.223 873.768 223.209C874.071 222.987 874.329 222.71 874.529 222.392C875.416 220.958 876.795 220.04 878.333 220.04C879.87 220.04 881.243 220.949 882.137 222.364C882.403 222.794 882.777 223.148 883.221 223.391C883.666 223.633 884.166 223.756 884.672 223.747H884.714C885.909 223.747 886.964 224.716 887.475 226.128Z" fill="black"/>
<path d="M663.867 228.034L661.411 229.589L662.901 226.885C662.479 226.547 661.957 226.36 661.417 226.353H661.379C661.208 226.355 661.037 226.342 660.869 226.315L660.038 226.841L660.393 226.208C659.804 226.001 659.295 225.615 658.938 225.103L657.451 226.052L658.402 224.346C658.007 223.835 657.503 223.419 656.926 223.127C656.349 222.836 655.714 222.677 655.068 222.661C653.521 222.661 652.142 223.58 651.264 225.014C651 225.445 650.626 225.797 650.18 226.036C649.734 226.275 649.233 226.391 648.728 226.372H648.646C646.937 226.372 645.552 228.31 645.552 230.697C645.552 233.085 646.937 235.019 648.646 235.019C649.021 235.018 649.391 234.925 649.723 234.75C650.305 234.467 650.942 234.314 651.589 234.301C652.236 234.289 652.878 234.417 653.47 234.677C653.969 234.899 654.509 235.013 655.055 235.013C655.601 235.013 656.141 234.899 656.64 234.677C657.228 234.422 657.863 234.297 658.504 234.31C659.144 234.322 659.775 234.472 660.352 234.75C660.681 234.92 661.046 235.01 661.417 235.013C663.126 235.013 664.511 233.078 664.511 230.691C664.523 229.766 664.302 228.852 663.867 228.034V228.034Z" fill="#F2F2F2"/>
<path opacity="0.03" d="M659.243 234.36C658.349 234.19 657.425 234.29 656.59 234.649C656.09 234.869 655.55 234.983 655.005 234.984C654.453 234.984 653.907 234.866 653.404 234.639C652.811 234.38 652.169 234.253 651.522 234.266C650.875 234.279 650.239 234.432 649.657 234.715C649.326 234.891 648.957 234.983 648.582 234.984C647.064 234.984 645.799 233.455 645.536 231.441C645.839 231.219 646.097 230.942 646.297 230.624C647.184 229.19 648.563 228.272 650.101 228.272C651.638 228.272 653.011 229.181 653.905 230.596C654.171 231.026 654.545 231.38 654.989 231.623C655.434 231.865 655.934 231.988 656.441 231.979H656.482C657.677 231.979 658.732 232.948 659.243 234.36Z" fill="black"/>
<path d="M777.356 32.8061L772.427 35.9216L775.413 30.498C774.567 29.8241 773.521 29.4509 772.44 29.4373H772.36C772.019 29.444 771.677 29.4185 771.34 29.3613L769.672 30.4188L770.386 29.1207C769.204 28.7066 768.184 27.931 767.469 26.9044L764.486 28.8041L766.369 25.3783C764.626 23.2855 762.274 22.0032 759.684 22.0032C756.581 22.0032 753.817 23.8459 752.032 26.7207C751.503 27.5817 750.755 28.2872 749.864 28.7654C748.973 29.2437 747.971 29.4777 746.96 29.4436H746.795C743.369 29.4436 740.592 33.3222 740.592 38.1094C740.592 42.8966 743.369 46.7752 746.795 46.7752C747.548 46.7728 748.289 46.5869 748.954 46.2338C750.121 45.6684 751.396 45.3627 752.693 45.3375C753.989 45.3124 755.276 45.5685 756.463 46.0881C757.467 46.5384 758.554 46.7725 759.654 46.7752C760.754 46.7779 761.842 46.5492 762.848 46.104C764.025 45.594 765.299 45.3429 766.583 45.3674C767.866 45.392 769.13 45.6918 770.287 46.2464C770.948 46.5908 771.682 46.7721 772.427 46.7752C775.854 46.7752 778.63 42.8966 778.63 38.1094C778.658 36.2629 778.22 34.4391 777.356 32.8061V32.8061Z" fill="#F2F2F2"/>
<path opacity="0.03" d="M768.083 45.4866C766.293 45.1483 764.443 45.3489 762.768 46.0628C761.764 46.5116 760.677 46.7437 759.577 46.7437C758.477 46.7437 757.39 46.5116 756.387 46.0628C755.199 45.5417 753.913 45.2848 752.616 45.31C751.319 45.3351 750.043 45.6417 748.877 46.2085C748.211 46.5606 747.469 46.7463 746.715 46.7499C743.672 46.7499 741.139 43.685 740.613 39.645C741.222 39.2034 741.739 38.6473 742.135 38.0081C743.919 35.1364 746.684 33.2937 749.787 33.2937C752.89 33.2937 755.626 35.0984 757.407 37.948C757.94 38.8091 758.688 39.5176 759.577 40.0043C760.466 40.4909 761.466 40.7391 762.479 40.7247H762.558C764.964 40.7183 767.063 42.656 768.083 45.4866Z" fill="black"/>
<path d="M945.353 87.1404L942.897 88.695L944.386 85.9911C943.965 85.6531 943.443 85.4658 942.903 85.4592H942.865C942.694 85.461 942.523 85.4482 942.354 85.4212L941.524 85.9468L941.879 85.3136C941.29 85.1073 940.78 84.7206 940.424 84.2086L938.937 85.1584L939.888 83.4519C939.493 82.941 938.988 82.5248 938.411 82.2334C937.835 81.942 937.2 81.7828 936.554 81.7675C935.007 81.7675 933.628 82.6856 932.75 84.1199C932.485 84.5505 932.111 84.9031 931.666 85.1418C931.22 85.3804 930.719 85.4965 930.214 85.4782H930.131C928.423 85.4782 927.038 87.4159 927.038 89.8032C927.038 92.1904 928.423 94.1249 930.131 94.1249C930.507 94.1237 930.877 94.0314 931.209 93.8558C931.791 93.5729 932.428 93.4199 933.075 93.4073C933.722 93.3947 934.364 93.5229 934.956 93.783C935.455 94.0045 935.995 94.119 936.541 94.119C937.087 94.119 937.627 94.0045 938.126 93.783C938.714 93.5284 939.349 93.4031 939.99 93.4156C940.63 93.4282 941.261 93.5783 941.838 93.8558C942.167 94.0261 942.532 94.1161 942.903 94.1186C944.611 94.1186 945.997 92.1841 945.997 89.7968C946.009 88.8715 945.787 87.9579 945.353 87.1404V87.1404Z" fill="#F2F2F2"/>
<path opacity="0.03" d="M940.728 93.4664C939.835 93.2956 938.911 93.3959 938.075 93.7546C937.576 93.9748 937.036 94.0891 936.49 94.0902C935.943 94.0878 935.403 93.9702 934.905 93.7451C934.312 93.4861 933.67 93.3588 933.024 93.3719C932.377 93.385 931.74 93.5383 931.158 93.8211C930.827 93.9966 930.459 94.089 930.084 94.0902C928.565 94.0902 927.301 92.5609 927.038 90.5473C927.34 90.3253 927.599 90.0481 927.798 89.7304C928.686 88.2961 930.065 87.3779 931.602 87.3779C933.14 87.3779 934.512 88.2866 935.406 89.7019C935.671 90.1299 936.042 90.4823 936.484 90.7247C936.926 90.9671 937.422 91.0914 937.926 91.0855H937.967C939.162 91.0855 940.218 92.0543 940.728 93.4664Z" fill="black"/>
</g>
</g>
<defs>
<linearGradient id="paint0_linear" x1="197.91" y1="750.82" x2="197.91" y2="468.18" gradientUnits="userSpaceOnUse">
<stop stop-color="#808080" stop-opacity="0.25"/>
<stop offset="0.54" stop-color="#808080" stop-opacity="0.12"/>
<stop offset="1" stop-color="#808080" stop-opacity="0.1"/>
</linearGradient>
<clipPath id="clip0">
<rect width="1078" height="778" fill="white"/>
</clipPath>
<clipPath id="clip1">
<rect width="337" height="213" fill="white" transform="translate(609 22)"/>
</clipPath>
</defs>
</svg>
