<svg width="40" height="36" viewBox="0 0 40 36" fill="none" xmlns="http://www.w3.org/2000/svg">
<path d="M14 0C12.9 0 12.01 0.9 12.01 2L12 18C12 19.1 12.89 20 13.99 20H26C27.1 20 28 19.1 28 18V6.83C28 6.3 27.79 5.79 27.41 5.42L22.58 0.59C22.21 0.21 21.7 0 21.17 0H14ZM21 6V1.5L26.5 7H22C21.45 7 21 6.55 21 6Z" fill="white"/>
<path d="M4.11617 31.305V34H2.42617V26.715H4.79617C5.32284 26.715 5.77117 26.77 6.14117 26.88C6.51451 26.9867 6.81784 27.1367 7.05117 27.33C7.28784 27.5233 7.45951 27.7517 7.56617 28.015C7.67284 28.2783 7.72617 28.565 7.72617 28.875C7.72617 29.1117 7.69451 29.335 7.63117 29.545C7.56784 29.755 7.47284 29.95 7.34617 30.13C7.22284 30.3067 7.06951 30.465 6.88617 30.605C6.70617 30.745 6.49784 30.86 6.26117 30.95C6.37451 31.0067 6.47951 31.0767 6.57617 31.16C6.67617 31.2433 6.76284 31.345 6.83617 31.465L8.38617 34H6.85617C6.57284 34 6.36951 33.8933 6.24617 33.68L5.03617 31.565C4.98284 31.4717 4.91951 31.405 4.84617 31.365C4.77617 31.325 4.67617 31.305 4.54617 31.305H4.11617ZM4.11617 30.14H4.79617C5.02617 30.14 5.22117 30.1117 5.38117 30.055C5.54451 29.995 5.67784 29.9133 5.78117 29.81C5.88451 29.7067 5.95951 29.5867 6.00617 29.45C6.05284 29.31 6.07617 29.16 6.07617 29C6.07617 28.68 5.97117 28.43 5.76117 28.25C5.55451 28.07 5.23284 27.98 4.79617 27.98H4.11617V30.14ZM11.2966 28.735C11.6399 28.735 11.9532 28.7883 12.2366 28.895C12.5232 29.0017 12.7682 29.1567 12.9716 29.36C13.1782 29.5633 13.3382 29.8133 13.4516 30.11C13.5682 30.4033 13.6266 30.7367 13.6266 31.11C13.6266 31.2267 13.6216 31.3217 13.6116 31.395C13.6016 31.4683 13.5832 31.5267 13.5566 31.57C13.5299 31.6133 13.4932 31.6433 13.4466 31.66C13.4032 31.6767 13.3466 31.685 13.2766 31.685H10.2866C10.3366 32.1183 10.4682 32.4333 10.6816 32.63C10.8949 32.8233 11.1699 32.92 11.5066 32.92C11.6866 32.92 11.8416 32.8983 11.9716 32.855C12.1016 32.8117 12.2166 32.7633 12.3166 32.71C12.4199 32.6567 12.5132 32.6083 12.5966 32.565C12.6832 32.5217 12.7732 32.5 12.8666 32.5C12.9899 32.5 13.0832 32.545 13.1466 32.635L13.5966 33.19C13.4366 33.3733 13.2632 33.5233 13.0766 33.64C12.8932 33.7533 12.7032 33.8433 12.5066 33.91C12.3132 33.9733 12.1182 34.0167 11.9216 34.04C11.7282 34.0667 11.5432 34.08 11.3666 34.08C11.0032 34.08 10.6616 34.0217 10.3416 33.905C10.0249 33.785 9.74656 33.6083 9.50656 33.375C9.2699 33.1417 9.08156 32.8517 8.94156 32.505C8.8049 32.1583 8.73656 31.755 8.73656 31.295C8.73656 30.9483 8.7949 30.62 8.91156 30.31C9.03156 30 9.20156 29.7283 9.42156 29.495C9.6449 29.2617 9.91323 29.0767 10.2266 28.94C10.5432 28.8033 10.8999 28.735 11.2966 28.735ZM11.3266 29.805C11.0299 29.805 10.7982 29.89 10.6316 30.06C10.4649 30.2267 10.3549 30.4683 10.3016 30.785H12.2366C12.2366 30.6617 12.2199 30.5417 12.1866 30.425C12.1566 30.3083 12.1049 30.205 12.0316 30.115C11.9616 30.0217 11.8682 29.9467 11.7516 29.89C11.6349 29.8333 11.4932 29.805 11.3266 29.805ZM17.686 29.95C17.646 30.0133 17.6027 30.0583 17.556 30.085C17.5127 30.1117 17.456 30.125 17.386 30.125C17.3127 30.125 17.2393 30.11 17.166 30.08C17.0927 30.0467 17.0127 30.0117 16.926 29.975C16.8427 29.9383 16.7477 29.905 16.641 29.875C16.5343 29.8417 16.4127 29.825 16.276 29.825C16.0793 29.825 15.9277 29.8633 15.821 29.94C15.7177 30.0133 15.666 30.1167 15.666 30.25C15.666 30.3467 15.6993 30.4267 15.766 30.49C15.836 30.5533 15.9277 30.61 16.041 30.66C16.1543 30.7067 16.2827 30.7517 16.426 30.795C16.5693 30.8383 16.716 30.8867 16.866 30.94C17.016 30.9933 17.1627 31.0567 17.306 31.13C17.4493 31.2 17.5777 31.2883 17.691 31.395C17.8043 31.4983 17.8943 31.625 17.961 31.775C18.031 31.925 18.066 32.105 18.066 32.315C18.066 32.5717 18.0193 32.8083 17.926 33.025C17.8327 33.2417 17.6927 33.4283 17.506 33.585C17.3227 33.7417 17.0943 33.8633 16.821 33.95C16.551 34.0367 16.2393 34.08 15.886 34.08C15.7093 34.08 15.5327 34.0633 15.356 34.03C15.1793 33.9967 15.0077 33.9517 14.841 33.895C14.6777 33.8383 14.526 33.7717 14.386 33.695C14.246 33.615 14.126 33.53 14.026 33.44L14.386 32.87C14.4293 32.8033 14.481 32.7517 14.541 32.715C14.601 32.675 14.6793 32.655 14.776 32.655C14.866 32.655 14.946 32.675 15.016 32.715C15.0893 32.755 15.1677 32.7983 15.251 32.845C15.3343 32.8917 15.431 32.935 15.541 32.975C15.6543 33.015 15.796 33.035 15.966 33.035C16.086 33.035 16.1877 33.0233 16.271 33C16.3543 32.9733 16.421 32.9383 16.471 32.895C16.521 32.8517 16.5577 32.8033 16.581 32.75C16.6043 32.6967 16.616 32.6417 16.616 32.585C16.616 32.4817 16.581 32.3967 16.511 32.33C16.441 32.2633 16.3493 32.2067 16.236 32.16C16.1227 32.11 15.9927 32.065 15.846 32.025C15.7027 31.9817 15.556 31.9333 15.406 31.88C15.256 31.8267 15.1077 31.7633 14.961 31.69C14.8177 31.6133 14.6893 31.5183 14.576 31.405C14.4627 31.2883 14.371 31.1467 14.301 30.98C14.231 30.8133 14.196 30.6117 14.196 30.375C14.196 30.155 14.2377 29.9467 14.321 29.75C14.4077 29.55 14.536 29.375 14.706 29.225C14.876 29.075 15.0893 28.9567 15.346 28.87C15.6027 28.78 15.9027 28.735 16.246 28.735C16.4327 28.735 16.6127 28.7517 16.786 28.785C16.9627 28.8183 17.1277 28.865 17.281 28.925C17.4343 28.985 17.5743 29.0567 17.701 29.14C17.8277 29.22 17.9393 29.3083 18.036 29.405L17.686 29.95ZM20.3703 28.815V32.105C20.3703 32.3617 20.4286 32.56 20.5453 32.7C20.662 32.84 20.8336 32.91 21.0603 32.91C21.2303 32.91 21.3886 32.875 21.5353 32.805C21.6853 32.735 21.8303 32.6367 21.9703 32.51V28.815H23.5203V34H22.5603C22.367 34 22.2403 33.9133 22.1803 33.74L22.0853 33.44C21.9853 33.5367 21.882 33.625 21.7753 33.705C21.6686 33.7817 21.5536 33.8483 21.4303 33.905C21.3103 33.9583 21.1803 34 21.0403 34.03C20.9003 34.0633 20.747 34.08 20.5803 34.08C20.297 34.08 20.0453 34.0317 19.8253 33.935C19.6086 33.835 19.4253 33.6967 19.2753 33.52C19.1253 33.3433 19.012 33.135 18.9353 32.895C18.8586 32.655 18.8203 32.3917 18.8203 32.105V28.815H20.3703ZM24.7211 34V28.815H25.6811C25.7778 28.815 25.8578 28.8367 25.9211 28.88C25.9878 28.9233 26.0344 28.9883 26.0611 29.075L26.1461 29.355C26.2328 29.265 26.3228 29.1833 26.4161 29.11C26.5094 29.0333 26.6094 28.9683 26.7161 28.915C26.8261 28.8583 26.9428 28.815 27.0661 28.785C27.1928 28.7517 27.3311 28.735 27.4811 28.735C27.7944 28.735 28.0528 28.8167 28.2561 28.98C28.4628 29.14 28.6194 29.355 28.7261 29.625C28.8128 29.465 28.9178 29.3283 29.0411 29.215C29.1678 29.1017 29.3028 29.01 29.4461 28.94C29.5928 28.87 29.7461 28.8183 29.9061 28.785C30.0694 28.7517 30.2311 28.735 30.3911 28.735C30.6878 28.735 30.9511 28.78 31.1811 28.87C31.4111 28.9567 31.6028 29.085 31.7561 29.255C31.9128 29.4217 32.0311 29.6283 32.1111 29.875C32.1911 30.1183 32.2311 30.395 32.2311 30.705V34H30.6811V30.705C30.6811 30.1683 30.4511 29.9 29.9911 29.9C29.7811 29.9 29.6061 29.97 29.4661 30.11C29.3294 30.2467 29.2611 30.445 29.2611 30.705V34H27.7111V30.705C27.7111 30.4083 27.6528 30.2 27.5361 30.08C27.4194 29.96 27.2478 29.9 27.0211 29.9C26.8811 29.9 26.7478 29.9317 26.6211 29.995C26.4978 30.0583 26.3811 30.1433 26.2711 30.25V34H24.7211ZM35.5544 28.735C35.8977 28.735 36.211 28.7883 36.4944 28.895C36.781 29.0017 37.026 29.1567 37.2294 29.36C37.436 29.5633 37.596 29.8133 37.7094 30.11C37.826 30.4033 37.8844 30.7367 37.8844 31.11C37.8844 31.2267 37.8794 31.3217 37.8694 31.395C37.8594 31.4683 37.841 31.5267 37.8144 31.57C37.7877 31.6133 37.751 31.6433 37.7044 31.66C37.661 31.6767 37.6044 31.685 37.5344 31.685H34.5444C34.5944 32.1183 34.726 32.4333 34.9394 32.63C35.1527 32.8233 35.4277 32.92 35.7644 32.92C35.9444 32.92 36.0994 32.8983 36.2294 32.855C36.3594 32.8117 36.4744 32.7633 36.5744 32.71C36.6777 32.6567 36.771 32.6083 36.8544 32.565C36.941 32.5217 37.031 32.5 37.1244 32.5C37.2477 32.5 37.341 32.545 37.4044 32.635L37.8544 33.19C37.6944 33.3733 37.521 33.5233 37.3344 33.64C37.151 33.7533 36.961 33.8433 36.7644 33.91C36.571 33.9733 36.376 34.0167 36.1794 34.04C35.986 34.0667 35.801 34.08 35.6244 34.08C35.261 34.08 34.9194 34.0217 34.5994 33.905C34.2827 33.785 34.0044 33.6083 33.7644 33.375C33.5277 33.1417 33.3394 32.8517 33.1994 32.505C33.0627 32.1583 32.9944 31.755 32.9944 31.295C32.9944 30.9483 33.0527 30.62 33.1694 30.31C33.2894 30 33.4594 29.7283 33.6794 29.495C33.9027 29.2617 34.171 29.0767 34.4844 28.94C34.801 28.8033 35.1577 28.735 35.5544 28.735ZM35.5844 29.805C35.2877 29.805 35.056 29.89 34.8894 30.06C34.7227 30.2267 34.6127 30.4683 34.5594 30.785H36.4944C36.4944 30.6617 36.4777 30.5417 36.4444 30.425C36.4144 30.3083 36.3627 30.205 36.2894 30.115C36.2194 30.0217 36.126 29.9467 36.0094 29.89C35.8927 29.8333 35.751 29.805 35.5844 29.805Z" fill="white"/>
</svg>
