<svg width="640" height="1570" viewBox="0 0 640 1570" fill="none" xmlns="http://www.w3.org/2000/svg">
<rect width="640" height="1570" fill="#4F4F4F"/>
<g clip-path="url(#clip0)">
<path d="M580 1136.56H180V1150.12H580V1136.56Z" fill="#E0E0E0"/>
<g opacity="0.7">
<path opacity="0.7" d="M443.102 1045.81C438.815 1030.24 414.51 1018.87 396.223 1016.35C396.225 1016.24 396.231 1016.12 396.231 1016.01V1002.68C396.251 1002.68 396.271 1002.67 396.29 1002.66V1002.16C402.781 999.743 408.637 995.884 413.417 990.873C418.197 985.862 421.776 979.829 423.883 973.23C425.013 971.186 425.997 969.064 426.827 966.881C428.779 966.17 430.253 962.949 430.253 959.08C430.261 957.756 430.075 956.439 429.702 955.169C429.942 953.198 430.064 951.215 430.068 949.23C430.076 942.29 428.625 935.426 425.809 929.084C422.993 922.741 418.875 917.062 413.723 912.414C413.876 911.617 413.928 910.804 413.877 909.993C413.464 903.598 406.635 899.253 400.235 898.962C401.925 897.044 403.037 894.685 403.44 892.159C403.843 889.634 403.521 887.046 402.512 884.696C398.431 890.643 390.053 891.276 382.842 891.322C385.953 890.117 387.354 885.804 385.544 883C378.007 893.105 363.315 894.977 354.351 903.839C352.398 905.778 350.761 908.011 349.5 910.457C343.675 915.099 338.971 920.997 335.74 927.71C332.509 934.423 330.834 941.779 330.84 949.23C330.844 951.197 330.963 953.162 331.199 955.115C330.814 956.402 330.623 957.738 330.63 959.08C330.63 962.967 332.119 966.197 334.084 966.888C334.918 969.079 335.906 971.208 337.042 973.259C339.141 979.819 342.696 985.82 347.441 990.811C352.185 995.803 357.997 999.657 364.441 1002.09V1016.01C364.441 1016.12 364.447 1016.22 364.449 1016.33C346.092 1018.8 321.593 1030.26 317.344 1045.95C313.675 1059.5 309.758 1074.38 307.809 1083.12C324.514 1094.86 359.565 1101.76 381.531 1101.76C402.402 1101.76 436.515 1095.53 452.727 1084.84C450.971 1075.24 446.931 1059.71 443.102 1045.81Z" fill="url(#paint0_linear)"/>
</g>
<path d="M381.487 1097.89C401.62 1097.89 434.527 1091.89 450.167 1081.58C448.473 1072.31 444.575 1057.33 440.882 1043.92C436.177 1026.84 406.488 1015 388.777 1015H371.711C353.945 1015 324.213 1026.91 319.568 1044.06C316.028 1057.13 312.25 1071.49 310.37 1079.91C326.484 1091.24 360.296 1097.89 381.487 1097.89Z" fill="#FDC503"/>
<path d="M380.447 998.631C406.88 998.631 428.309 977.196 428.309 950.755C428.309 924.313 406.88 902.878 380.447 902.878C354.014 902.878 332.586 924.313 332.586 950.755C332.586 977.196 354.014 998.631 380.447 998.631Z" fill="#72351C"/>
<path opacity="0.1" d="M365 990.631H395.667V1015.17C395.667 1019.24 394.052 1023.14 391.176 1026.02C388.301 1028.9 384.4 1030.51 380.334 1030.51H380.334C376.267 1030.51 372.367 1028.9 369.491 1026.02C366.616 1023.14 365 1019.24 365 1015.17V990.631H365Z" fill="black"/>
<path d="M369.399 989.495H391.269C392.435 989.495 393.554 989.959 394.379 990.784C395.204 991.609 395.667 992.728 395.667 993.895V1014.04C395.667 1018.1 394.052 1022.01 391.176 1024.88C388.301 1027.76 384.4 1029.38 380.334 1029.38H380.334C376.267 1029.38 372.367 1027.76 369.491 1024.88C366.616 1022.01 365 1018.1 365 1014.04V993.895C365 992.728 365.464 991.609 366.288 990.784C367.113 989.959 368.232 989.495 369.399 989.495V989.495Z" fill="#FDA57D"/>
<path opacity="0.1" d="M365.057 1002.21C374.941 1005.91 385.82 1005.94 395.724 1002.3V998.531H365.057V1002.21Z" fill="black"/>
<path d="M380.447 1004.27C404.724 1004.27 424.404 984.583 424.404 960.298C424.404 936.014 404.724 916.328 380.447 916.328C356.171 916.328 336.491 936.014 336.491 960.298C336.491 984.583 356.171 1004.27 380.447 1004.27Z" fill="#FDA57D"/>
<path opacity="0.1" d="M349.137 920.303C349.137 920.303 367.662 957.918 419.919 936.068L407.753 916.984L386.187 909.24L349.137 920.303Z" fill="black"/>
<path d="M349.137 919.75C349.137 919.75 367.662 957.364 419.919 935.515L407.753 916.431L386.187 908.686L349.137 919.75Z" fill="#72351C"/>
<path d="M348.972 917.208C350.221 913.34 352.38 909.828 355.266 906.968C363.914 898.418 378.087 896.613 385.357 886.865C387.103 889.57 385.752 893.731 382.751 894.893C389.707 894.848 397.789 894.238 401.726 888.501C402.7 890.768 403.01 893.264 402.621 895.701C402.232 898.137 401.16 900.413 399.529 902.263C405.703 902.544 412.291 906.735 412.69 912.905C412.955 917.015 410.379 920.906 407.003 923.263C403.626 925.62 399.541 926.703 395.52 927.589C383.783 930.178 341.314 941.028 348.972 917.208Z" fill="#72351C"/>
<path d="M424.402 960.683H423.237L400.565 980.874C378.722 970.64 362.685 980.874 362.685 980.874L338.907 961.513L336.509 961.814C336.834 973.355 341.684 984.304 350.01 992.298C358.337 1000.29 369.472 1004.69 381.013 1004.54C392.553 1004.39 403.572 999.71 411.69 991.504C419.808 983.299 424.374 972.228 424.402 960.683V960.683ZM380.381 988.618C371.829 988.618 364.897 986.884 364.897 984.746C364.897 982.607 371.829 980.874 380.381 980.874C388.932 980.874 395.864 982.607 395.864 984.746C395.864 986.884 388.932 988.618 380.381 988.618Z" fill="#72351C"/>
<path d="M336.473 967.926C338.732 967.926 340.562 964.492 340.562 960.257C340.562 956.021 338.732 952.587 336.473 952.587C334.215 952.587 332.384 956.021 332.384 960.257C332.384 964.492 334.215 967.926 336.473 967.926Z" fill="#FDA57D"/>
<path d="M424.398 967.926C426.656 967.926 428.487 964.492 428.487 960.257C428.487 956.021 426.656 952.587 424.398 952.587C422.14 952.587 420.309 956.021 420.309 960.257C420.309 964.492 422.14 967.926 424.398 967.926Z" fill="#FDA57D"/>
<g opacity="0.7">
<path opacity="0.7" d="M459.083 1038.57H300.917C297.619 1038.57 294.946 1041.25 294.946 1044.54V1130.59C294.946 1133.88 297.619 1136.56 300.917 1136.56H459.083C462.381 1136.56 465.054 1133.88 465.054 1130.59V1044.54C465.054 1041.25 462.381 1038.57 459.083 1038.57Z" fill="url(#paint1_linear)"/>
</g>
<path d="M450.923 1040.38H309.077C302.975 1040.38 298.028 1045.33 298.028 1051.43V1125.51C298.028 1131.61 302.975 1136.56 309.077 1136.56H450.923C457.025 1136.56 461.972 1131.61 461.972 1125.51V1051.43C461.972 1045.33 457.025 1040.38 450.923 1040.38Z" fill="#333333"/>
<path d="M380 1094.02C383.064 1094.02 385.547 1091.53 385.547 1088.47C385.547 1085.4 383.064 1082.92 380 1082.92C376.937 1082.92 374.453 1085.4 374.453 1088.47C374.453 1091.53 376.937 1094.02 380 1094.02Z" fill="white"/>
<path d="M563.051 1150.12H196.949V1155.67H563.051V1150.12Z" fill="#E0E0E0"/>
<path opacity="0.1" d="M563.051 1150.12H196.949V1151.97H563.051V1150.12Z" fill="black"/>
<g opacity="0.7">
<path opacity="0.7" d="M519.905 1107.14V1100.39H486.154V1131.62C486.154 1132.48 486.324 1133.34 486.655 1134.14C486.986 1134.94 487.47 1135.66 488.082 1136.27C488.693 1136.89 489.418 1137.37 490.217 1137.7C491.015 1138.03 491.871 1138.2 492.735 1138.2H513.324C515.069 1138.2 516.743 1137.51 517.978 1136.27C519.212 1135.04 519.905 1133.36 519.905 1131.62V1124.7C522.23 1124.69 524.457 1123.77 526.099 1122.12C527.741 1120.47 528.664 1118.24 528.664 1115.92C528.664 1113.59 527.741 1111.36 526.099 1109.72C524.457 1108.07 522.23 1107.15 519.905 1107.14V1107.14ZM519.905 1121.32V1110.52C521.338 1110.52 522.711 1111.09 523.724 1112.1C524.737 1113.11 525.306 1114.49 525.306 1115.92C525.306 1117.35 524.737 1118.73 523.724 1119.74C522.711 1120.75 521.338 1121.32 519.905 1121.32V1121.32Z" fill="url(#paint2_linear)"/>
</g>
<path d="M518.819 1108.2C517.235 1108.2 515.686 1108.67 514.368 1109.55C513.05 1110.43 512.023 1111.68 511.417 1113.15C510.81 1114.61 510.652 1116.22 510.961 1117.78C511.27 1119.33 512.033 1120.76 513.154 1121.88C514.274 1123 515.702 1123.76 517.256 1124.07C518.811 1124.38 520.422 1124.22 521.886 1123.62C523.35 1123.01 524.601 1121.98 525.481 1120.67C526.362 1119.35 526.832 1117.8 526.832 1116.21C526.832 1114.09 525.988 1112.05 524.485 1110.55C522.982 1109.04 520.944 1108.2 518.819 1108.2ZM518.819 1121.15C517.844 1121.15 516.891 1120.86 516.08 1120.31C515.269 1119.77 514.637 1119 514.264 1118.1C513.891 1117.2 513.793 1116.21 513.983 1115.25C514.174 1114.29 514.643 1113.42 515.333 1112.73C516.022 1112.04 516.901 1111.57 517.857 1111.38C518.814 1111.19 519.805 1111.28 520.706 1111.66C521.607 1112.03 522.377 1112.66 522.919 1113.47C523.461 1114.28 523.75 1115.24 523.75 1116.21C523.75 1117.52 523.231 1118.78 522.306 1119.7C521.381 1120.63 520.127 1121.15 518.819 1121.15V1121.15Z" fill="#FDC503"/>
<path opacity="0.1" d="M518.819 1108.2C517.235 1108.2 515.686 1108.67 514.368 1109.55C513.05 1110.43 512.023 1111.68 511.417 1113.15C510.81 1114.61 510.652 1116.22 510.961 1117.78C511.27 1119.33 512.033 1120.76 513.154 1121.88C514.274 1123 515.702 1123.76 517.256 1124.07C518.811 1124.38 520.422 1124.22 521.886 1123.62C523.35 1123.01 524.601 1121.98 525.481 1120.67C526.362 1119.35 526.832 1117.8 526.832 1116.21C526.832 1114.09 525.988 1112.05 524.485 1110.55C522.982 1109.04 520.944 1108.2 518.819 1108.2ZM518.819 1121.15C517.844 1121.15 516.891 1120.86 516.08 1120.31C515.269 1119.77 514.637 1119 514.264 1118.1C513.891 1117.2 513.793 1116.21 513.983 1115.25C514.174 1114.29 514.643 1113.42 515.333 1112.73C516.022 1112.04 516.901 1111.57 517.857 1111.38C518.814 1111.19 519.805 1111.28 520.706 1111.66C521.607 1112.03 522.377 1112.66 522.919 1113.47C523.461 1114.28 523.75 1115.24 523.75 1116.21C523.75 1117.52 523.231 1118.78 522.306 1119.7C521.381 1120.63 520.127 1121.15 518.819 1121.15V1121.15Z" fill="black"/>
<path d="M488.003 1102.03H518.819V1132.54C518.819 1133.61 518.396 1134.63 517.643 1135.38C516.89 1136.14 515.869 1136.56 514.805 1136.56H492.017C490.953 1136.56 489.931 1136.14 489.179 1135.38C488.426 1134.63 488.003 1133.61 488.003 1132.54V1102.03Z" fill="#FDC503"/>
<path opacity="0.1" d="M513.272 1102.03V1130.55C513.272 1132.14 512.639 1133.67 511.512 1134.8C510.385 1135.93 508.857 1136.56 507.263 1136.56H510.345C511.939 1136.56 513.467 1135.93 514.594 1134.8C515.721 1133.67 516.354 1132.14 516.354 1130.55V1102.03H513.272Z" fill="black"/>
<path d="M494.084 1079.05C493.564 1079.14 492.978 1079.28 492.723 1079.74C492.319 1080.48 493.051 1081.3 493.72 1081.81C494.955 1082.74 496.256 1083.65 497.096 1084.95C497.935 1086.25 498.199 1088.06 497.281 1089.3C496.083 1090.93 493.225 1091.28 492.948 1093.28C492.77 1094.56 493.88 1095.66 495.005 1096.3C497.781 1097.9 501.359 1098.32 503.37 1100.81C504.202 1099.1 506.062 1098.11 507.916 1097.69C509.771 1097.26 511.698 1097.3 513.578 1097.01C514.185 1096.92 514.868 1096.73 515.14 1096.18C515.665 1095.11 514.167 1093.83 514.684 1092.76C515.078 1091.95 516.234 1092.01 517.078 1091.68C518.452 1091.15 519.019 1089.38 518.629 1087.96C518.239 1086.54 517.137 1085.43 515.978 1084.52C512.856 1082.06 509.101 1080.62 505.303 1079.58C503.536 1079.1 501.463 1078.34 499.628 1078.27C497.857 1078.2 495.837 1078.75 494.084 1079.05Z" fill="#EEEEEE"/>
</g>
<path d="M228.343 840.471C258.266 840.471 282.523 815.741 282.523 785.235C282.523 754.73 258.266 730 228.343 730C198.419 730 174.162 754.73 174.162 785.235C174.162 815.741 198.419 840.471 228.343 840.471Z" fill="url(#paint3_linear)"/>
<path d="M169.152 796.249C169.161 804.882 167.12 813.393 163.198 821.081C159.276 828.769 153.584 835.415 146.592 840.471H82.605C75.0314 834.993 68.9903 827.661 65.0605 819.177C61.1306 810.693 59.4436 801.342 60.1611 792.018C60.8786 782.695 63.9766 773.712 69.1582 765.93C74.3398 758.148 81.4315 751.828 89.7539 747.575C98.0763 743.323 107.351 741.28 116.688 741.642C126.026 742.005 135.114 744.761 143.082 749.646C151.05 754.531 157.631 761.382 162.195 769.542C166.758 777.702 169.151 786.898 169.145 796.249H169.152Z" fill="url(#paint4_linear)"/>
<path d="M259.586 833.518C259.586 835.828 259.483 838.113 259.278 840.374C259.286 840.405 259.286 840.438 259.278 840.469H105.403C105.191 838.18 105.085 835.86 105.085 833.528C105.071 815.061 111.693 797.202 123.746 783.2C135.798 769.199 152.48 759.984 170.758 757.233C174.578 756.659 178.435 756.368 182.298 756.364C184.271 756.364 186.233 756.438 188.174 756.576C202.019 757.634 215.323 762.398 226.689 770.367C238.055 778.336 247.063 789.217 252.766 801.866C253.084 802.565 253.392 803.275 253.678 803.985C257.579 813.343 259.586 823.381 259.586 833.518V833.518Z" fill="url(#paint5_linear)"/>
<path d="M340 824.644C340.006 830.006 339.218 835.34 337.662 840.471H233.178C230.652 832.079 230.171 823.204 231.776 814.588C231.866 814.116 231.956 813.636 232.061 813.172C234.691 800.97 241.424 790.037 251.137 782.196C260.85 774.354 272.958 770.076 285.442 770.076C287.159 770.076 288.845 770.151 290.517 770.315C291.266 770.375 292.016 770.465 292.765 770.563C305.848 772.342 317.843 778.802 326.528 788.746C335.213 798.69 339.999 811.443 340 824.644V824.644Z" fill="url(#paint6_linear)"/>
<path d="M233.879 839.209C266.86 839.209 293.597 865.945 293.597 898.926C293.597 931.907 266.86 958.644 233.879 958.644C200.898 958.644 174.162 931.907 174.162 898.926C174.162 865.945 200.898 839.209 233.879 839.209Z" fill="url(#paint7_linear)"/>
<path d="M169.152 883.428C169.161 874.796 167.12 866.285 163.198 858.597C159.276 850.908 153.584 844.262 146.592 839.207H82.605C75.0314 844.684 68.9903 852.016 65.0605 860.5C61.1306 868.984 59.4436 878.336 60.1611 887.66C60.8786 896.983 63.9766 905.966 69.1582 913.748C74.3398 921.53 81.4315 927.85 89.7539 932.102C98.0763 936.355 107.351 938.398 116.688 938.036C126.026 937.673 135.114 934.917 143.082 930.032C151.05 925.147 157.631 918.296 162.195 910.136C166.758 901.976 169.151 892.779 169.145 883.428H169.152Z" fill="url(#paint8_linear)"/>
<path d="M259.586 848.36C259.586 845.319 259.483 842.31 259.278 839.333C259.286 839.292 259.286 839.249 259.278 839.208H105.403C105.191 842.221 105.085 845.277 105.085 848.346C105.071 872.661 111.693 896.174 123.746 914.609C135.798 933.044 152.48 945.176 170.758 948.798C174.578 949.554 178.435 949.936 182.298 949.942C184.271 949.942 186.233 949.844 188.174 949.663C202.019 948.27 215.323 941.998 226.689 931.505C238.055 921.013 247.063 906.687 252.766 890.034C253.084 889.113 253.392 888.178 253.678 887.243C257.579 874.922 259.586 861.707 259.586 848.36V848.36Z" fill="url(#paint9_linear)"/>
<path d="M340 855.035C340.006 849.673 339.218 844.34 337.662 839.208H233.178C230.652 847.601 230.171 856.476 231.776 865.092C231.866 865.564 231.956 866.043 232.061 866.508C234.691 878.71 241.424 889.642 251.137 897.484C260.85 905.325 272.958 909.603 285.442 909.604C287.159 909.604 288.845 909.529 290.517 909.364C291.266 909.304 292.016 909.214 292.765 909.117C305.848 907.337 317.843 900.877 326.528 890.933C335.213 880.99 339.999 868.236 340 855.035V855.035Z" fill="url(#paint10_linear)"/>
<path d="M193.656 904.252C193.656 905.516 193.436 906.684 192.996 907.756C192.564 908.82 191.952 909.744 191.16 910.528C190.368 911.304 189.412 911.912 188.292 912.352C187.18 912.784 185.944 913 184.584 913H177.792V895.516H184.584C185.944 895.516 187.18 895.736 188.292 896.176C189.412 896.616 190.368 897.224 191.16 898C191.952 898.776 192.564 899.7 192.996 900.772C193.436 901.836 193.656 902.996 193.656 904.252ZM189.504 904.252C189.504 903.388 189.392 902.608 189.168 901.912C188.944 901.216 188.62 900.628 188.196 900.148C187.78 899.66 187.268 899.288 186.66 899.032C186.052 898.768 185.36 898.636 184.584 898.636H181.872V909.88H184.584C185.36 909.88 186.052 909.752 186.66 909.496C187.268 909.232 187.78 908.86 188.196 908.38C188.62 907.892 188.944 907.3 189.168 906.604C189.392 905.908 189.504 905.124 189.504 904.252ZM204.196 913C203.844 913 203.576 912.952 203.392 912.856C203.216 912.76 203.068 912.56 202.948 912.256L202.684 911.572C202.372 911.836 202.072 912.068 201.784 912.268C201.496 912.468 201.196 912.64 200.884 912.784C200.58 912.92 200.252 913.02 199.9 913.084C199.556 913.156 199.172 913.192 198.748 913.192C198.18 913.192 197.664 913.12 197.2 912.976C196.736 912.824 196.34 912.604 196.012 912.316C195.692 912.028 195.444 911.672 195.268 911.248C195.092 910.816 195.004 910.32 195.004 909.76C195.004 909.32 195.116 908.868 195.34 908.404C195.564 907.94 195.952 907.52 196.504 907.144C197.056 906.76 197.8 906.44 198.736 906.184C199.672 905.928 200.852 905.784 202.276 905.752V905.224C202.276 904.496 202.124 903.972 201.82 903.652C201.524 903.324 201.1 903.16 200.548 903.16C200.108 903.16 199.748 903.208 199.468 903.304C199.188 903.4 198.936 903.508 198.712 903.628C198.496 903.748 198.284 903.856 198.076 903.952C197.868 904.048 197.62 904.096 197.332 904.096C197.076 904.096 196.856 904.036 196.672 903.916C196.496 903.788 196.356 903.632 196.252 903.448L195.58 902.284C196.332 901.62 197.164 901.128 198.076 900.808C198.996 900.48 199.98 900.316 201.028 900.316C201.78 900.316 202.456 900.44 203.056 900.688C203.664 900.928 204.176 901.268 204.592 901.708C205.016 902.14 205.34 902.656 205.564 903.256C205.788 903.856 205.9 904.512 205.9 905.224V913H204.196ZM199.924 910.732C200.404 910.732 200.824 910.648 201.184 910.48C201.544 910.312 201.908 910.04 202.276 909.664V907.936C201.532 907.968 200.92 908.032 200.44 908.128C199.96 908.224 199.58 908.344 199.3 908.488C199.02 908.632 198.824 908.796 198.712 908.98C198.608 909.164 198.556 909.364 198.556 909.58C198.556 910.004 198.672 910.304 198.904 910.48C199.136 910.648 199.476 910.732 199.924 910.732ZM212.91 913.192C212.318 913.192 211.794 913.108 211.338 912.94C210.89 912.764 210.51 912.52 210.198 912.208C209.894 911.888 209.662 911.504 209.502 911.056C209.342 910.608 209.262 910.108 209.262 909.556V903.124H208.206C208.014 903.124 207.85 903.064 207.714 902.944C207.578 902.816 207.51 902.632 207.51 902.392V900.94L209.49 900.556L210.222 897.52C210.318 897.136 210.59 896.944 211.038 896.944H212.982V900.58H216.006V903.124H212.982V909.304C212.982 909.592 213.05 909.832 213.186 910.024C213.33 910.208 213.534 910.3 213.798 910.3C213.934 910.3 214.046 910.288 214.134 910.264C214.23 910.232 214.31 910.2 214.374 910.168C214.446 910.128 214.51 910.096 214.566 910.072C214.63 910.04 214.702 910.024 214.782 910.024C214.894 910.024 214.982 910.052 215.046 910.108C215.118 910.156 215.19 910.236 215.262 910.348L216.39 912.112C215.91 912.472 215.37 912.744 214.77 912.928C214.17 913.104 213.55 913.192 212.91 913.192ZM226.743 913C226.391 913 226.123 912.952 225.939 912.856C225.763 912.76 225.615 912.56 225.495 912.256L225.231 911.572C224.919 911.836 224.619 912.068 224.331 912.268C224.043 912.468 223.743 912.64 223.431 912.784C223.127 912.92 222.799 913.02 222.447 913.084C222.103 913.156 221.719 913.192 221.295 913.192C220.727 913.192 220.211 913.12 219.747 912.976C219.283 912.824 218.887 912.604 218.559 912.316C218.239 912.028 217.991 911.672 217.815 911.248C217.639 910.816 217.551 910.32 217.551 909.76C217.551 909.32 217.663 908.868 217.887 908.404C218.111 907.94 218.499 907.52 219.051 907.144C219.603 906.76 220.347 906.44 221.283 906.184C222.219 905.928 223.399 905.784 224.823 905.752V905.224C224.823 904.496 224.671 903.972 224.367 903.652C224.071 903.324 223.647 903.16 223.095 903.16C222.655 903.16 222.295 903.208 222.015 903.304C221.735 903.4 221.483 903.508 221.259 903.628C221.043 903.748 220.831 903.856 220.623 903.952C220.415 904.048 220.167 904.096 219.879 904.096C219.623 904.096 219.403 904.036 219.219 903.916C219.043 903.788 218.903 903.632 218.799 903.448L218.127 902.284C218.879 901.62 219.711 901.128 220.623 900.808C221.543 900.48 222.527 900.316 223.575 900.316C224.327 900.316 225.003 900.44 225.603 900.688C226.211 900.928 226.723 901.268 227.139 901.708C227.563 902.14 227.887 902.656 228.111 903.256C228.335 903.856 228.447 904.512 228.447 905.224V913H226.743ZM222.471 910.732C222.951 910.732 223.371 910.648 223.731 910.48C224.091 910.312 224.455 910.04 224.823 909.664V907.936C224.079 907.968 223.467 908.032 222.987 908.128C222.507 908.224 222.127 908.344 221.847 908.488C221.567 908.632 221.371 908.796 221.259 908.98C221.155 909.164 221.103 909.364 221.103 909.58C221.103 910.004 221.219 910.304 221.451 910.48C221.683 910.648 222.023 910.732 222.471 910.732Z" fill="#828282" fill-opacity="0.5"/>
<g clip-path="url(#clip1)">
<g filter="url(#filter0_d)">
<path d="M227.369 776.532H152.676V876.459H227.369V776.532Z" fill="#F2F2F2"/>
</g>
<path d="M184.2 780.745H158.499V781.548H184.2V780.745Z" fill="#E0E0E0"/>
<path opacity="0.7" d="M184.2 784.357H158.499V785.159H184.2V784.357Z" fill="#FDC503"/>
<path d="M213.716 780.745H188.015V781.548H213.716V780.745Z" fill="#E0E0E0"/>
<path d="M217.73 803.621H192.03V804.424H217.73V803.621Z" fill="#E0E0E0"/>
<path d="M218.334 805.827H192.633V806.63H218.334V805.827Z" fill="#E0E0E0"/>
<path d="M219.539 808.035H193.838V808.838H219.539V808.035Z" fill="#E0E0E0"/>
<path d="M217.73 839.136H192.03V839.939H217.73V839.136Z" fill="#E0E0E0"/>
<path d="M218.334 841.344H192.633V842.146H218.334V841.344Z" fill="#E0E0E0"/>
<path d="M219.539 843.55H193.838V844.353H219.539V843.55Z" fill="#E0E0E0"/>
<g opacity="0.5">
<path opacity="0.5" d="M186.007 795.393H158.7V823.083H186.007V795.393Z" fill="url(#paint11_linear)"/>
</g>
<path d="M185.749 795.996H158.872V822.482H185.749V795.996Z" fill="#F5F5F5"/>
<g opacity="0.5">
<path opacity="0.5" d="M184.887 797.601H159.82V814.856H184.887V797.601Z" fill="url(#paint12_linear)"/>
</g>
<path d="M184.714 797.802H159.992V814.456H184.714V797.802Z" fill="white"/>
<path opacity="0.4" d="M157.896 813.855L164.121 804.223L166.731 808.436L172.354 802.618L177.173 808.436L181.389 799.809L192.231 817.064L157.093 815.86L157.896 813.855Z" fill="#FDC503"/>
<path opacity="0.4" d="M162.715 802.015C163.713 802.015 164.522 801.206 164.522 800.209C164.522 799.212 163.713 798.403 162.715 798.403C161.717 798.403 160.908 799.212 160.908 800.209C160.908 801.206 161.717 802.015 162.715 802.015Z" fill="#FDC503"/>
<g opacity="0.5">
<path opacity="0.5" d="M186.007 830.909H158.7V858.6H186.007V830.909Z" fill="url(#paint13_linear)"/>
</g>
<path d="M185.749 831.511H158.872V857.997H185.749V831.511Z" fill="#F5F5F5"/>
<g opacity="0.5">
<path opacity="0.5" d="M184.887 833.117H159.82V850.373H184.887V833.117Z" fill="url(#paint14_linear)"/>
</g>
<path d="M184.714 833.317H159.992V849.971H184.714V833.317Z" fill="white"/>
<path opacity="0.4" d="M157.896 849.37L164.121 839.738L166.731 843.952L172.354 838.133L177.173 843.952L181.389 835.324L192.231 852.579L157.093 851.377L157.896 849.37Z" fill="#BDBDBD"/>
<path opacity="0.4" d="M162.715 837.531C163.713 837.531 164.522 836.723 164.522 835.726C164.522 834.728 163.713 833.92 162.715 833.92C161.717 833.92 160.908 834.728 160.908 835.726C160.908 836.723 161.717 837.531 162.715 837.531Z" fill="#BDBDBD"/>
<g filter="url(#filter1_d)">
<path d="M183.896 771.585L164.406 869.595L237.666 884.144L257.157 786.134L183.896 771.585Z" fill="white"/>
</g>
<path d="M240.315 787.491L188.323 777.166L188.166 777.953L240.158 788.278L240.315 787.491Z" fill="#E0E0E0"/>
<path d="M225.521 861.886L173.529 851.56L173.372 852.347L225.364 862.673L225.521 861.886Z" fill="#E0E0E0"/>
<path d="M212.803 864.064L172.627 856.085L172.471 856.872L212.646 864.851L212.803 864.064Z" fill="#E0E0E0"/>
<path opacity="0.7" d="M186.694 863.585L171.727 860.613L171.571 861.4L186.537 864.372L186.694 863.585Z" fill="#FDC503"/>
<path opacity="0.7" d="M213.416 786.856L187.421 781.693L187.264 782.48L213.26 787.643L213.416 786.856Z" fill="#FDC503"/>
<path d="M233.393 795.528L186.523 786.219L186.366 787.006L233.237 796.315L233.393 795.528Z" fill="#E0E0E0"/>
<path opacity="0.7" d="M197.043 793.015L185.622 790.747L185.465 791.534L196.887 793.802L197.043 793.015Z" fill="#3AD29F"/>
<path d="M236.714 805.599L184.722 795.273L184.566 796.06L236.558 806.386L236.714 805.599Z" fill="#E0E0E0"/>
<g opacity="0.5">
<path opacity="0.5" d="M189.303 814.393L183.981 841.158L230.654 850.427L235.976 823.662L189.303 814.393Z" fill="url(#paint15_linear)"/>
</g>
<path d="M235.651 823.801L189.568 814.649L184.362 840.824L230.445 849.976L235.651 823.801Z" fill="white"/>
<path d="M235.814 810.127L183.822 799.801L183.666 800.588L235.658 810.914L235.814 810.127Z" fill="#E0E0E0"/>
<path d="M199.401 820.284L193.689 819.149L189.893 838.24L195.605 839.374L199.401 820.284Z" fill="#FDC503"/>
<path d="M208.389 828.616L202.677 827.481L200.133 840.274L205.845 841.408L208.389 828.616Z" fill="#3AD29F"/>
<path d="M217.457 836.554L211.745 835.42L210.376 842.307L216.087 843.442L217.457 836.554Z" fill="#F55F44"/>
<path d="M229.107 831.503L223.395 830.368L220.616 844.342L226.328 845.477L229.107 831.503Z" fill="#FDD835"/>
<path d="M245.771 812.893C243.293 810.318 240.326 808.264 237.042 806.852C233.759 805.441 230.226 804.699 226.652 804.673C223.077 804.646 219.534 805.333 216.229 806.696C212.925 808.058 209.927 810.067 207.411 812.604C197.267 822.824 197.095 839.464 207.017 849.901C211.376 854.486 217.218 857.381 223.508 858.075C229.799 858.769 236.132 857.216 241.386 853.691L260.762 873.83C261.001 874.079 261.331 874.223 261.677 874.23C262.023 874.236 262.357 874.106 262.606 873.866L267.434 869.227C267.684 868.987 267.828 868.658 267.834 868.313C267.841 867.967 267.71 867.633 267.47 867.383L248.1 847.246C251.814 842.16 253.617 835.928 253.191 829.646C252.765 823.363 250.138 817.432 245.771 812.893ZM239.736 845.272C237.003 847.898 233.552 849.655 229.819 850.321C226.086 850.987 222.24 850.532 218.767 849.013C215.293 847.494 212.348 844.98 210.304 841.789C208.26 838.598 207.208 834.873 207.283 831.084C207.358 827.296 208.555 823.615 210.722 820.507C212.89 817.398 215.932 815.002 219.463 813.621C222.994 812.24 226.855 811.936 230.558 812.748C234.262 813.56 237.641 815.452 240.269 818.183C242.014 819.996 243.384 822.136 244.302 824.479C245.219 826.822 245.666 829.322 245.617 831.838C245.567 834.353 245.022 836.834 244.013 839.139C243.004 841.444 241.551 843.528 239.736 845.272V845.272Z" fill="url(#paint16_linear)"/>
<path d="M212.251 826.131C210.095 826.131 210.091 829.48 212.251 829.48C214.41 829.48 214.41 826.131 212.251 826.131Z" fill="url(#paint17_linear)"/>
<path d="M227.279 815.405C221.477 815.274 216.197 818.183 213.389 822.575C212.472 824.008 215.074 825.274 215.985 823.848C218.31 820.212 222.727 817.903 227.505 818.023C232.511 818.148 237.068 821.011 239.48 824.983C240.394 826.49 242.793 825.121 241.887 823.623C238.954 818.812 233.273 815.547 227.279 815.405Z" fill="url(#paint18_linear)"/>
<path d="M247.874 811.875C245.396 809.3 242.428 807.247 239.145 805.835C235.861 804.423 232.329 803.682 228.754 803.655C225.18 803.628 221.636 804.316 218.332 805.678C215.028 807.04 212.029 809.049 209.513 811.587C199.369 821.806 199.197 838.447 209.12 848.883C213.479 853.468 219.321 856.364 225.611 857.057C231.902 857.75 238.235 856.197 243.489 852.672L262.863 872.813C263.103 873.062 263.432 873.206 263.778 873.213C264.124 873.219 264.458 873.088 264.708 872.849L269.535 868.21C269.785 867.97 269.929 867.641 269.935 867.295C269.942 866.95 269.811 866.615 269.571 866.366L250.196 846.227C253.911 841.142 255.714 834.911 255.289 828.629C254.864 822.347 252.239 816.415 247.874 811.875V811.875ZM241.839 844.241C239.105 846.867 235.654 848.624 231.922 849.29C228.189 849.956 224.343 849.501 220.869 847.982C217.396 846.463 214.451 843.95 212.406 840.758C210.362 837.567 209.311 833.842 209.386 830.053C209.46 826.265 210.657 822.584 212.825 819.476C214.993 816.367 218.035 813.971 221.566 812.59C225.096 811.209 228.958 810.905 232.661 811.717C236.364 812.529 239.744 814.421 242.372 817.152C244.117 818.966 245.487 821.105 246.405 823.448C247.322 825.791 247.769 828.291 247.719 830.807C247.67 833.322 247.125 835.803 246.116 838.108C245.107 840.413 243.654 842.497 241.839 844.241V844.241Z" fill="#FDC503"/>
<path d="M214.353 825.112C212.197 825.112 212.194 828.461 214.353 828.461C216.513 828.461 216.513 825.112 214.353 825.112Z" fill="#FDC503"/>
<path d="M229.382 814.387C223.579 814.257 218.299 817.166 215.492 821.557C214.575 822.99 217.177 824.257 218.088 822.831C220.412 819.195 224.829 816.886 229.607 817.006C234.614 817.131 239.17 819.994 241.582 823.966C242.497 825.473 244.896 824.104 243.99 822.605C241.051 817.781 235.377 814.516 229.382 814.387Z" fill="#FDC503"/>
</g>
<defs>
<filter id="filter0_d" x="144.676" y="772.532" width="90.693" height="115.927" filterUnits="userSpaceOnUse" color-interpolation-filters="sRGB">
<feFlood flood-opacity="0" result="BackgroundImageFix"/>
<feColorMatrix in="SourceAlpha" type="matrix" values="0 0 0 0 0 0 0 0 0 0 0 0 0 0 0 0 0 0 127 0"/>
<feOffset dy="4"/>
<feGaussianBlur stdDeviation="4"/>
<feColorMatrix type="matrix" values="0 0 0 0 0 0 0 0 0 0 0 0 0 0 0 0 0 0 0.25 0"/>
<feBlend mode="normal" in2="BackgroundImageFix" result="effect1_dropShadow"/>
<feBlend mode="normal" in="SourceGraphic" in2="effect1_dropShadow" result="shape"/>
</filter>
<filter id="filter1_d" x="156.406" y="767.585" width="108.751" height="128.559" filterUnits="userSpaceOnUse" color-interpolation-filters="sRGB">
<feFlood flood-opacity="0" result="BackgroundImageFix"/>
<feColorMatrix in="SourceAlpha" type="matrix" values="0 0 0 0 0 0 0 0 0 0 0 0 0 0 0 0 0 0 127 0"/>
<feOffset dy="4"/>
<feGaussianBlur stdDeviation="4"/>
<feColorMatrix type="matrix" values="0 0 0 0 0 0 0 0 0 0 0 0 0 0 0 0 0 0 0.25 0"/>
<feBlend mode="normal" in2="BackgroundImageFix" result="effect1_dropShadow"/>
<feBlend mode="normal" in="SourceGraphic" in2="effect1_dropShadow" result="shape"/>
</filter>
<linearGradient id="paint0_linear" x1="87353" y1="143098" x2="87353" y2="26915" gradientUnits="userSpaceOnUse">
<stop stop-color="#808080" stop-opacity="0.25"/>
<stop offset="0.53514" stop-color="#808080" stop-opacity="0.12"/>
<stop offset="1" stop-color="#808080" stop-opacity="0.1"/>
</linearGradient>
<linearGradient id="paint1_linear" x1="82919.8" y1="61358.6" x2="82919.8" y2="38048.3" gradientUnits="userSpaceOnUse">
<stop stop-color="#808080" stop-opacity="0.25"/>
<stop offset="0.53514" stop-color="#808080" stop-opacity="0.12"/>
<stop offset="1" stop-color="#808080" stop-opacity="0.1"/>
</linearGradient>
<linearGradient id="paint2_linear" x1="507.417" y1="1138.2" x2="507.417" y2="1100.39" gradientUnits="userSpaceOnUse">
<stop stop-color="#808080" stop-opacity="0.25"/>
<stop offset="0.53514" stop-color="#808080" stop-opacity="0.12"/>
<stop offset="1" stop-color="#808080" stop-opacity="0.1"/>
</linearGradient>
<linearGradient id="paint3_linear" x1="64806.4" y1="67775.8" x2="64806.4" y2="85395.9" gradientUnits="userSpaceOnUse">
<stop stop-color="#F2F2F2"/>
<stop offset="0.31" stop-color="#E6E6E6"/>
<stop offset="0.77" stop-color="#CCCCCC"/>
</linearGradient>
<linearGradient id="paint4_linear" x1="62792.1" y1="69905.1" x2="62792.1" y2="82939.2" gradientUnits="userSpaceOnUse">
<stop stop-color="#F2F2F2"/>
<stop offset="0.31" stop-color="#E6E6E6"/>
<stop offset="0.77" stop-color="#CCCCCC"/>
</linearGradient>
<linearGradient id="paint5_linear" x1="102853" y1="64001.9" x2="102853" y2="70679" gradientUnits="userSpaceOnUse">
<stop stop-color="#F2F2F2"/>
<stop offset="0.31" stop-color="#E6E6E6"/>
<stop offset="0.77" stop-color="#CCCCCC"/>
</linearGradient>
<linearGradient id="paint6_linear" x1="87846.4" y1="52680.3" x2="87846.4" y2="59294.7" gradientUnits="userSpaceOnUse">
<stop stop-color="#F2F2F2"/>
<stop offset="0.31" stop-color="#E6E6E6"/>
<stop offset="0.77" stop-color="#CCCCCC"/>
</linearGradient>
<linearGradient id="paint7_linear" x1="71411.2" y1="-71527.7" x2="71411.2" y2="-90577.6" gradientUnits="userSpaceOnUse">
<stop stop-color="#F2F2F2"/>
<stop offset="0.31" stop-color="#E6E6E6"/>
<stop offset="0.77" stop-color="#CCCCCC"/>
</linearGradient>
<linearGradient id="paint8_linear" x1="62792.1" y1="-68225.4" x2="62792.1" y2="-81259.5" gradientUnits="userSpaceOnUse">
<stop stop-color="#F2F2F2"/>
<stop offset="0.31" stop-color="#E6E6E6"/>
<stop offset="0.77" stop-color="#CCCCCC"/>
</linearGradient>
<linearGradient id="paint9_linear" x1="102853" y1="-82320.1" x2="102853" y2="-91111.3" gradientUnits="userSpaceOnUse">
<stop stop-color="#F2F2F2"/>
<stop offset="0.31" stop-color="#E6E6E6"/>
<stop offset="0.77" stop-color="#CCCCCC"/>
</linearGradient>
<linearGradient id="paint10_linear" x1="87846.4" y1="-51000.6" x2="87846.4" y2="-57615" gradientUnits="userSpaceOnUse">
<stop stop-color="#F2F2F2"/>
<stop offset="0.31" stop-color="#E6E6E6"/>
<stop offset="0.77" stop-color="#CCCCCC"/>
</linearGradient>
<linearGradient id="paint11_linear" x1="7652.68" y1="12129.6" x2="7652.68" y2="7667.03" gradientUnits="userSpaceOnUse">
<stop stop-color="#808080" stop-opacity="0.25"/>
<stop offset="0.54" stop-color="#808080" stop-opacity="0.12"/>
<stop offset="1" stop-color="#808080" stop-opacity="0.1"/>
</linearGradient>
<linearGradient id="paint12_linear" x1="7039.43" y1="7034.53" x2="7039.43" y2="5301.53" gradientUnits="userSpaceOnUse">
<stop stop-color="#808080" stop-opacity="0.25"/>
<stop offset="0.54" stop-color="#808080" stop-opacity="0.12"/>
<stop offset="1" stop-color="#808080" stop-opacity="0.1"/>
</linearGradient>
<linearGradient id="paint13_linear" x1="7652.68" y1="17889" x2="7652.68" y2="13426.4" gradientUnits="userSpaceOnUse">
<stop stop-color="#808080" stop-opacity="0.25"/>
<stop offset="0.54" stop-color="#808080" stop-opacity="0.12"/>
<stop offset="1" stop-color="#808080" stop-opacity="0.1"/>
</linearGradient>
<linearGradient id="paint14_linear" x1="7039.43" y1="10637" x2="7039.43" y2="8904" gradientUnits="userSpaceOnUse">
<stop stop-color="#808080" stop-opacity="0.25"/>
<stop offset="0.54" stop-color="#808080" stop-opacity="0.12"/>
<stop offset="1" stop-color="#808080" stop-opacity="0.1"/>
</linearGradient>
<linearGradient id="paint15_linear" x1="13355.7" y1="30988" x2="14826.9" y2="23579.8" gradientUnits="userSpaceOnUse">
<stop stop-color="#808080" stop-opacity="0.25"/>
<stop offset="0.54" stop-color="#808080" stop-opacity="0.12"/>
<stop offset="1" stop-color="#808080" stop-opacity="0.1"/>
</linearGradient>
<linearGradient id="paint16_linear" x1="233.761" y1="874.23" x2="233.761" y2="804.673" gradientUnits="userSpaceOnUse">
<stop stop-color="#B3B3B3" stop-opacity="0.25"/>
<stop offset="0.54" stop-color="#B3B3B3" stop-opacity="0.1"/>
<stop offset="1" stop-color="#B3B3B3" stop-opacity="0.05"/>
</linearGradient>
<linearGradient id="paint17_linear" x1="212.251" y1="829.478" x2="212.251" y2="826.131" gradientUnits="userSpaceOnUse">
<stop stop-opacity="0.12"/>
<stop offset="0.55" stop-opacity="0.09"/>
<stop offset="1" stop-opacity="0.02"/>
</linearGradient>
<linearGradient id="paint18_linear" x1="22603.9" y1="5777.66" x2="22603.9" y2="5167.73" gradientUnits="userSpaceOnUse">
<stop stop-opacity="0.12"/>
<stop offset="0.55" stop-opacity="0.09"/>
<stop offset="1" stop-opacity="0.02"/>
</linearGradient>
<clipPath id="clip0">
<rect width="400" height="272.671" fill="white" transform="translate(180 883)"/>
</clipPath>
<clipPath id="clip1">
<rect width="133.936" height="122.335" fill="white" transform="translate(136 764.266)"/>
</clipPath>
</defs>
</svg>
