<svg width="4096" height="3072" viewBox="0 0 4096 3072" fill="none" xmlns="http://www.w3.org/2000/svg">
<rect width="4096" height="3072" fill="white"/>
<path d="M3096 900.917H1760.9V1445.56H3096V900.917Z" fill="#3F3D56"/>
<path d="M1952.78 1103.68H1853.24C1846.45 1064.41 1846.45 1024.26 1853.24 984.994H1952.78C1941.57 1023.76 1941.57 1064.91 1952.78 1103.68V1103.68Z" fill="white"/>
<path d="M2038.95 1154.23H2138.49C2145.29 1114.96 2145.29 1074.82 2138.49 1035.55H2038.95C2050.17 1074.31 2050.17 1115.46 2038.95 1154.23V1154.23Z" fill="#FED136"/>
<path d="M2260.27 980.119C2276.62 1062.49 2281.27 1146.76 2274.1 1230.44C2272.21 1252.22 2269.51 1273.92 2266.01 1295.52C2264.41 1305.34 2262.59 1315.12 2260.72 1324.89C2259.65 1330.49 2257.4 1337.46 2260.92 1342.73C2267.78 1352.99 2291.28 1350.32 2301.64 1350.65C2323.18 1351.35 2344.76 1351.46 2366.31 1351.84L2431.15 1352.97L2462.37 1353.52C2473 1353.7 2484.65 1355.35 2495.21 1353.99C2509.1 1352.2 2505.71 1337.66 2505.5 1326.85C2505.09 1305.49 2504.52 1284.13 2503.79 1262.77C2500.93 1178.14 2495.65 1093.64 2487.97 1009.26C2486.99 998.5 2487.6 985.622 2484.7 975.214C2483.53 971.006 2482.36 969.789 2477.79 969.034C2467.33 967.302 2454.85 969.125 2444.26 969.199L2408.85 969.445L2264.83 970.448C2263.89 970.48 2263.01 970.875 2262.36 971.55C2261.7 972.224 2261.34 973.125 2261.34 974.062C2261.34 975 2261.7 975.901 2262.36 976.575C2263.01 977.25 2263.89 977.645 2264.83 977.677L2382.88 976.856L2434.82 976.494L2463.15 976.297C2468.97 976.257 2474.41 974.494 2478.06 980.9C2480.37 984.954 2479.43 995.091 2479.87 999.808C2486.92 1075.45 2492.04 1151.24 2495.22 1227.18C2496.01 1246.16 2496.68 1265.14 2497.24 1284.13C2497.47 1292.04 2497.67 1299.95 2497.86 1307.86C2497.97 1312.61 2498.08 1317.35 2498.18 1322.1C2498.28 1327 2500.3 1336.59 2498.53 1341.09C2494.73 1350.68 2477.84 1346.56 2469.57 1346.41L2440.75 1345.91L2383.12 1344.9L2325.49 1343.9C2315.96 1343.73 2306.42 1343.66 2296.89 1343.25C2293.73 1343.12 2290.57 1342.97 2287.42 1342.74C2278.02 1342.07 2267.91 1344.29 2266.79 1331.31C2266.1 1323.3 2270.48 1312.25 2271.85 1304.23C2273.4 1295.18 2274.8 1286.11 2276.06 1277.01C2278.43 1260.02 2280.31 1242.97 2281.71 1225.86C2288.33 1143.03 2283.46 1059.69 2267.24 978.197C2266.34 973.637 2259.37 975.567 2260.27 980.119V980.119Z" fill="#F1F1F1"/>
<path d="M2735.03 980.119C2751.38 1062.49 2756.03 1146.76 2748.85 1230.44C2746.97 1252.22 2744.27 1273.92 2740.77 1295.52C2739.17 1305.34 2737.35 1315.12 2735.48 1324.89C2734.41 1330.49 2732.16 1337.46 2735.68 1342.73C2742.54 1352.99 2766.04 1350.32 2776.39 1350.65C2797.94 1351.35 2819.51 1351.46 2841.07 1351.84L2905.91 1352.97L2937.12 1353.52C2947.76 1353.7 2959.41 1355.35 2969.96 1353.99C2983.85 1352.2 2980.47 1337.66 2980.26 1326.85C2979.84 1305.49 2979.27 1284.13 2978.55 1262.77C2975.68 1178.14 2970.41 1093.64 2962.73 1009.26C2961.75 998.5 2962.36 985.622 2959.46 975.214C2958.29 971.006 2957.12 969.789 2952.55 969.034C2942.08 967.302 2929.61 969.125 2919.02 969.199L2883.6 969.445L2739.59 970.448C2738.65 970.48 2737.76 970.875 2737.11 971.55C2736.46 972.224 2736.1 973.125 2736.1 974.062C2736.1 975 2736.46 975.901 2737.11 976.575C2737.76 977.25 2738.65 977.645 2739.59 977.677L2857.63 976.856L2909.57 976.494L2937.9 976.297C2943.73 976.257 2949.17 974.494 2952.82 980.9C2955.13 984.954 2954.18 995.091 2954.62 999.808C2961.68 1075.45 2966.79 1151.24 2969.97 1227.18C2970.77 1246.16 2971.44 1265.14 2971.99 1284.13C2972.22 1292.04 2972.43 1299.95 2972.62 1307.86C2972.73 1312.61 2972.84 1317.35 2972.93 1322.1C2973.03 1327 2975.06 1336.59 2973.28 1341.09C2969.49 1350.68 2952.59 1346.56 2944.33 1346.41L2915.51 1345.91L2857.88 1344.9L2800.24 1343.9C2790.71 1343.73 2781.17 1343.66 2771.65 1343.25C2768.49 1343.12 2765.33 1342.97 2762.17 1342.74C2752.78 1342.07 2742.66 1344.29 2741.55 1331.31C2740.86 1323.3 2745.24 1312.25 2746.61 1304.23C2748.15 1295.18 2749.56 1286.11 2750.82 1277.01C2753.18 1260.02 2755.06 1242.97 2756.47 1225.86C2763.08 1143.03 2758.22 1059.69 2742 978.197C2741.1 973.637 2734.13 975.567 2735.03 980.119V980.119Z" fill="#F1F1F1"/>
<path d="M2293.51 998.729H2341.33C2342.27 998.696 2343.16 998.301 2343.81 997.627C2344.46 996.953 2344.82 996.052 2344.82 995.114C2344.82 994.176 2344.46 993.275 2343.81 992.601C2343.16 991.927 2342.27 991.531 2341.33 991.499H2293.51C2292.57 991.531 2291.69 991.927 2291.04 992.601C2290.38 993.275 2290.02 994.176 2290.02 995.114C2290.02 996.052 2290.38 996.953 2291.04 997.627C2291.69 998.301 2292.57 998.696 2293.51 998.729V998.729Z" fill="#F1F1F1"/>
<path d="M2293.51 1015.04L2338.58 1013.33C2343.22 1013.16 2343.24 1005.93 2338.58 1006.1L2293.51 1007.81C2288.87 1007.98 2288.85 1015.21 2293.51 1015.04Z" fill="#F1F1F1"/>
<path d="M2293.51 1028.79H2337.23C2338.17 1028.75 2339.06 1028.36 2339.71 1027.68C2340.36 1027.01 2340.72 1026.11 2340.72 1025.17C2340.72 1024.23 2340.36 1023.33 2339.71 1022.66C2339.06 1021.98 2338.17 1021.59 2337.23 1021.56H2293.51C2292.57 1021.59 2291.69 1021.98 2291.04 1022.66C2290.38 1023.33 2290.02 1024.23 2290.02 1025.17C2290.02 1026.11 2290.38 1027.01 2291.04 1027.68C2291.69 1028.36 2292.57 1028.75 2293.51 1028.79V1028.79Z" fill="#F1F1F1"/>
<path d="M2438.39 995.333C2428.58 990.213 2419.67 998.633 2418.29 1008.25C2417.62 1012.96 2417.47 1019.39 2420.47 1023.38C2423.53 1027.46 2429.41 1029.17 2434.3 1029.47C2443.63 1030.05 2453.56 1024.84 2455.86 1015.29C2456.94 1011.04 2456.41 1006.55 2454.38 1002.67C2452.34 998.798 2448.94 995.813 2444.84 994.295C2440.43 992.768 2438.54 999.75 2442.92 1001.27C2444.94 1002.11 2446.64 1003.59 2447.76 1005.48C2448.88 1007.37 2449.35 1009.58 2449.1 1011.76C2448.81 1014.27 2447.71 1016.62 2445.97 1018.45C2444.23 1020.28 2441.93 1021.49 2439.44 1021.9C2433.47 1023.27 2426.48 1021.8 2425.32 1015.07C2424.46 1010.03 2427.2 997.637 2434.75 1001.58C2438.87 1003.73 2442.53 997.489 2438.39 995.333V995.333Z" fill="#F1F1F1"/>
<path d="M2768.27 998.729H2816.09C2817.02 998.696 2817.91 998.301 2818.56 997.627C2819.21 996.953 2819.58 996.052 2819.58 995.114C2819.58 994.176 2819.21 993.275 2818.56 992.601C2817.91 991.927 2817.02 991.531 2816.09 991.499H2768.27C2767.33 991.531 2766.44 991.927 2765.79 992.601C2765.14 993.275 2764.78 994.176 2764.78 995.114C2764.78 996.052 2765.14 996.953 2765.79 997.627C2766.44 998.301 2767.33 998.696 2768.27 998.729V998.729Z" fill="#F1F1F1"/>
<path d="M2768.27 1015.04L2813.34 1013.33C2817.98 1013.16 2818 1005.93 2813.34 1006.1L2768.27 1007.81C2763.63 1007.98 2763.6 1015.21 2768.27 1015.04Z" fill="#F1F1F1"/>
<path d="M2768.27 1028.79H2811.99C2812.92 1028.75 2813.81 1028.36 2814.46 1027.68C2815.12 1027.01 2815.48 1026.11 2815.48 1025.17C2815.48 1024.23 2815.12 1023.33 2814.46 1022.66C2813.81 1021.98 2812.92 1021.59 2811.99 1021.56H2768.27C2767.33 1021.59 2766.44 1021.98 2765.79 1022.66C2765.14 1023.33 2764.78 1024.23 2764.78 1025.17C2764.78 1026.11 2765.14 1027.01 2765.79 1027.68C2766.44 1028.36 2767.33 1028.75 2768.27 1028.79V1028.79Z" fill="#F1F1F1"/>
<path d="M2913.15 995.333C2903.34 990.213 2894.43 998.633 2893.05 1008.25C2892.37 1012.96 2892.23 1019.39 2895.22 1023.38C2898.28 1027.46 2904.17 1029.17 2909.06 1029.47C2918.39 1030.05 2928.32 1024.84 2930.62 1015.29C2931.7 1011.04 2931.17 1006.55 2929.14 1002.67C2927.1 998.798 2923.7 995.813 2919.59 994.295C2915.19 992.768 2913.3 999.75 2917.67 1001.27C2919.7 1002.11 2921.4 1003.59 2922.52 1005.48C2923.63 1007.37 2924.1 1009.58 2923.86 1011.76C2923.57 1014.27 2922.47 1016.62 2920.73 1018.45C2918.98 1020.28 2916.69 1021.49 2914.2 1021.9C2908.23 1023.27 2901.24 1021.8 2900.08 1015.07C2899.22 1010.03 2901.95 997.637 2909.5 1001.58C2913.62 1003.73 2917.28 997.489 2913.15 995.333V995.333Z" fill="#F1F1F1"/>
<path d="M2303.08 1068.43C2355.67 1068.99 2408.22 1067.36 2460.71 1063.56L2457.22 1058.99C2448.63 1080.76 2448.87 1103.7 2450.01 1126.73C2450.29 1132.51 2452.1 1140.29 2450.93 1146C2449.46 1153.19 2443.01 1151.47 2436.59 1151.68C2422.46 1152.14 2408.32 1152.46 2394.18 1152.66C2380.82 1152.85 2367.47 1152.93 2354.11 1152.89C2347.83 1152.87 2341.54 1152.82 2335.26 1152.75C2327.88 1152.67 2319.49 1154.81 2317.59 1146.27C2316.37 1140.79 2317.59 1133.59 2317.6 1127.96L2317.61 1107.36L2317.64 1066.16C2317.61 1065.23 2317.21 1064.34 2316.54 1063.69C2315.86 1063.04 2314.96 1062.67 2314.02 1062.67C2313.09 1062.67 2312.19 1063.04 2311.51 1063.69C2310.84 1064.34 2310.44 1065.23 2310.41 1066.16L2310.38 1116.51L2310.36 1139.4C2310.36 1143.95 2309.41 1149.44 2311.11 1153.75C2315.01 1163.68 2331.89 1159.96 2339.97 1160.03C2356.47 1160.18 2372.97 1160.16 2389.47 1159.96C2405.96 1159.76 2422.46 1159.38 2438.94 1158.83C2446.05 1158.6 2455.88 1160.21 2458.03 1151.45C2459.54 1145.31 2457.78 1137.3 2457.46 1131.03C2457.09 1123.88 2456.7 1116.72 2456.6 1109.56C2456.38 1092.83 2458.02 1076.56 2464.19 1060.91C2464.34 1060.37 2464.36 1059.81 2464.25 1059.26C2464.14 1058.72 2463.91 1058.2 2463.58 1057.76C2463.24 1057.32 2462.81 1056.96 2462.31 1056.71C2461.81 1056.47 2461.26 1056.34 2460.71 1056.33C2408.24 1060.13 2355.7 1061.76 2303.08 1061.2C2302.14 1061.24 2301.25 1061.63 2300.6 1062.31C2299.95 1062.98 2299.58 1063.88 2299.58 1064.82C2299.58 1065.76 2299.95 1066.66 2300.6 1067.33C2301.25 1068.01 2302.14 1068.4 2303.08 1068.43L2303.08 1068.43Z" fill="#F1F1F1"/>
<path d="M2318.07 1072.36C2340.58 1080.33 2362.53 1089.81 2383.77 1100.74C2402.82 1110.58 2427.77 1121.34 2440.88 1138.94C2443.63 1142.63 2449.91 1139.03 2447.12 1135.29C2433.73 1117.32 2410.68 1106.74 2391.32 1096.53C2368.32 1084.46 2344.48 1074.05 2319.99 1065.39C2315.6 1063.83 2313.71 1070.81 2318.07 1072.36Z" fill="#F1F1F1"/>
<path d="M2459.48 1059.49C2435.59 1069.7 2415.35 1089.39 2394 1103.97C2370.89 1119.76 2347.09 1134.45 2322.6 1148.05C2318.54 1150.32 2322.18 1156.56 2326.25 1154.29C2350.69 1140.65 2374.48 1125.95 2397.65 1110.21C2418.99 1095.63 2439.24 1075.94 2463.13 1065.73C2467.39 1063.91 2463.71 1057.68 2459.48 1059.49V1059.49Z" fill="#F1F1F1"/>
<path d="M2777.83 1068.43C2830.43 1068.99 2882.97 1067.36 2935.46 1063.56L2931.98 1058.99C2923.39 1080.76 2923.62 1103.7 2924.76 1126.73C2925.05 1132.51 2926.86 1140.29 2925.69 1146C2924.21 1153.19 2917.76 1151.47 2911.35 1151.68C2897.21 1152.14 2883.07 1152.46 2868.93 1152.66C2855.58 1152.85 2842.23 1152.93 2828.87 1152.89C2822.59 1152.87 2816.3 1152.82 2810.02 1152.75C2802.64 1152.67 2794.25 1154.81 2792.34 1146.27C2791.12 1140.79 2792.35 1133.59 2792.35 1127.96L2792.37 1107.36L2792.4 1066.16C2792.36 1065.23 2791.97 1064.34 2791.29 1063.69C2790.62 1063.04 2789.72 1062.67 2788.78 1062.67C2787.84 1062.67 2786.94 1063.04 2786.27 1063.69C2785.59 1064.34 2785.2 1065.23 2785.17 1066.16L2785.13 1116.51L2785.12 1139.4C2785.11 1143.95 2784.17 1149.44 2785.87 1153.75C2789.77 1163.68 2806.64 1159.96 2814.73 1160.03C2831.23 1160.18 2847.72 1160.16 2864.22 1159.96C2880.72 1159.76 2897.21 1159.38 2913.7 1158.83C2920.8 1158.6 2930.63 1160.21 2932.79 1151.45C2934.3 1145.31 2932.54 1137.3 2932.22 1131.03C2931.85 1123.88 2931.45 1116.72 2931.36 1109.56C2931.13 1092.83 2932.77 1076.56 2938.95 1060.91C2939.09 1060.37 2939.11 1059.81 2939.01 1059.26C2938.9 1058.72 2938.67 1058.2 2938.33 1057.76C2938 1057.32 2937.56 1056.96 2937.06 1056.71C2936.57 1056.47 2936.02 1056.34 2935.46 1056.33C2883 1060.13 2830.46 1061.76 2777.83 1061.2C2776.89 1061.24 2776.01 1061.63 2775.36 1062.31C2774.7 1062.98 2774.34 1063.88 2774.34 1064.82C2774.34 1065.76 2774.7 1066.66 2775.36 1067.33C2776.01 1068.01 2776.89 1068.4 2777.83 1068.43L2777.83 1068.43Z" fill="#F1F1F1"/>
<path d="M2792.82 1072.36C2815.34 1080.33 2837.29 1089.81 2858.52 1100.74C2877.58 1110.58 2902.52 1121.34 2915.64 1138.94C2918.38 1142.63 2924.66 1139.03 2921.88 1135.29C2908.49 1117.32 2885.44 1106.74 2866.07 1096.53C2843.07 1084.46 2819.23 1074.05 2794.74 1065.39C2790.35 1063.83 2788.46 1070.81 2792.82 1072.36V1072.36Z" fill="#F1F1F1"/>
<path d="M2934.23 1059.49C2910.34 1069.7 2890.1 1089.39 2868.75 1103.97C2845.64 1119.76 2821.84 1134.45 2797.36 1148.05C2793.3 1150.32 2796.94 1156.56 2801.01 1154.29C2825.44 1140.65 2849.24 1125.95 2872.4 1110.21C2893.75 1095.63 2914 1075.94 2937.88 1065.73C2942.15 1063.91 2938.47 1057.68 2934.23 1059.49V1059.49Z" fill="#F1F1F1"/>
<path d="M2777.83 1213.03C2830.43 1213.58 2882.97 1211.96 2935.46 1208.16L2931.98 1203.58C2923.39 1225.35 2923.62 1248.3 2924.76 1271.33C2925.05 1277.1 2926.86 1284.88 2925.69 1290.6C2924.21 1297.78 2917.76 1296.07 2911.35 1296.27C2897.21 1296.73 2883.07 1297.06 2868.93 1297.26C2855.58 1297.45 2842.23 1297.52 2828.87 1297.48C2822.59 1297.46 2816.3 1297.42 2810.02 1297.35C2802.64 1297.27 2794.25 1299.41 2792.34 1290.86C2791.12 1285.39 2792.35 1278.18 2792.35 1272.55L2792.37 1251.96L2792.4 1210.76C2792.36 1209.82 2791.97 1208.94 2791.29 1208.28C2790.62 1207.63 2789.72 1207.27 2788.78 1207.27C2787.84 1207.27 2786.94 1207.63 2786.27 1208.28C2785.59 1208.94 2785.2 1209.82 2785.17 1210.76L2785.13 1261.11L2785.12 1284C2785.11 1288.54 2784.17 1294.03 2785.87 1298.35C2789.77 1308.28 2806.64 1304.55 2814.73 1304.63C2831.23 1304.78 2847.72 1304.75 2864.22 1304.55C2880.72 1304.35 2897.21 1303.98 2913.7 1303.43C2920.8 1303.19 2930.63 1304.81 2932.79 1296.05C2934.3 1289.9 2932.54 1281.89 2932.22 1275.63C2931.85 1268.47 2931.45 1261.32 2931.36 1254.16C2931.13 1237.43 2932.77 1221.16 2938.95 1205.5C2939.09 1204.97 2939.11 1204.4 2939.01 1203.86C2938.9 1203.31 2938.67 1202.8 2938.33 1202.36C2938 1201.92 2937.56 1201.56 2937.06 1201.31C2936.57 1201.06 2936.02 1200.93 2935.46 1200.93C2883 1204.73 2830.46 1206.35 2777.83 1205.8C2776.89 1205.83 2776.01 1206.23 2775.36 1206.9C2774.7 1207.58 2774.34 1208.48 2774.34 1209.41C2774.34 1210.35 2774.7 1211.25 2775.36 1211.93C2776.01 1212.6 2776.89 1213 2777.83 1213.03H2777.83Z" fill="#F1F1F1"/>
<path d="M2792.82 1216.96C2815.34 1224.93 2837.29 1234.41 2858.52 1245.33C2877.58 1255.18 2902.52 1265.93 2915.64 1283.53C2918.38 1287.22 2924.66 1283.62 2921.88 1279.88C2908.49 1261.91 2885.44 1251.34 2866.07 1241.12C2843.07 1229.05 2819.23 1218.65 2794.74 1209.99C2790.35 1208.42 2788.46 1215.41 2792.82 1216.96V1216.96Z" fill="#F1F1F1"/>
<path d="M2934.23 1204.08C2910.34 1214.3 2890.1 1233.98 2868.75 1248.57C2845.64 1264.36 2821.84 1279.05 2797.36 1292.64C2793.3 1294.91 2796.94 1301.16 2801.01 1298.89C2825.44 1285.24 2849.24 1270.55 2872.4 1254.81C2893.75 1240.23 2914 1220.54 2937.88 1210.33C2942.15 1208.5 2938.47 1202.27 2934.23 1204.08V1204.08Z" fill="#F1F1F1"/>
<path d="M2316.74 1207.58C2365.48 1208.32 2414.21 1208.13 2462.94 1207C2467.59 1206.89 2467.61 1199.66 2462.94 1199.77C2414.22 1200.9 2365.48 1201.09 2316.74 1200.35C2315.81 1200.38 2314.92 1200.78 2314.27 1201.45C2313.62 1202.13 2313.25 1203.03 2313.25 1203.96C2313.25 1204.9 2313.62 1205.8 2314.27 1206.48C2314.92 1207.15 2315.81 1207.55 2316.74 1207.58V1207.58Z" fill="#F1F1F1"/>
<path d="M2320.84 1240.36C2370.94 1241.16 2421.04 1240.94 2471.14 1239.71C2475.78 1239.6 2475.8 1232.37 2471.14 1232.48C2421.05 1233.71 2370.95 1233.93 2320.84 1233.13C2316.19 1233.05 2316.19 1240.28 2320.84 1240.36Z" fill="#F1F1F1"/>
<path d="M2315.36 1275.75L2457.46 1269.15C2462.09 1268.94 2462.12 1261.71 2457.46 1261.92L2315.36 1268.52C2310.73 1268.74 2310.7 1275.97 2315.36 1275.75Z" fill="#F1F1F1"/>
<path d="M2536.71 1173.61H2671.97C2672.9 1173.58 2673.79 1173.18 2674.44 1172.51C2675.1 1171.83 2675.46 1170.93 2675.46 1169.99C2675.46 1169.06 2675.1 1168.16 2674.44 1167.48C2673.79 1166.81 2672.9 1166.41 2671.97 1166.38H2536.71C2535.77 1166.41 2534.88 1166.81 2534.23 1167.48C2533.58 1168.16 2533.22 1169.06 2533.22 1169.99C2533.22 1170.93 2533.58 1171.83 2534.23 1172.51C2534.88 1173.18 2535.77 1173.58 2536.71 1173.61V1173.61Z" fill="#F1F1F1"/>
<path d="M2666.04 1132.28L2687.18 1151.56C2689.59 1153.77 2696.24 1158.32 2697.74 1161.21C2700.85 1167.17 2697.51 1165.81 2692.19 1167.88C2679.12 1173.08 2667.07 1180.56 2656.61 1189.97C2653.11 1193.05 2658.24 1198.15 2661.72 1195.08C2671.26 1186.51 2682.22 1179.66 2694.11 1174.85C2698.37 1173.16 2706.46 1172.18 2708.49 1167.1C2710.97 1160.88 2703.07 1156.3 2699.33 1152.88L2671.15 1127.16C2667.72 1124.03 2662.6 1129.13 2666.04 1132.27V1132.28Z" fill="#F1F1F1"/>
<path d="M2337.79 1414.5H2437.32C2444.12 1375.23 2444.12 1335.09 2437.32 1295.82H2337.79C2349 1334.59 2349 1375.74 2337.79 1414.5Z" fill="#FED136"/>
<path d="M1923.28 1325.33H2022.82C2029.61 1286.07 2029.61 1245.92 2022.82 1206.65H1923.28C1934.49 1245.42 1934.49 1286.57 1923.28 1325.33V1325.33Z" fill="#FED136"/>
<path d="M2552.27 1065.06H2651.81C2658.6 1025.79 2658.6 985.65 2651.81 946.381H2552.27C2563.48 985.147 2563.48 1026.3 2552.27 1065.06Z" fill="#FED136"/>
<path d="M1582.69 1357.39C1625.53 1357.39 1660.25 1322.66 1660.25 1279.82C1660.25 1236.98 1625.53 1202.26 1582.69 1202.26C1539.85 1202.26 1505.12 1236.98 1505.12 1279.82C1505.12 1322.66 1539.85 1357.39 1582.69 1357.39Z" fill="#2F2E41"/>
<path d="M1499.01 2251.82L1484.25 2315.05H1520.08L1534.84 2243.39L1499.01 2251.82Z" fill="#9F616A"/>
<path d="M1671.85 2251.82V2310.84L1707.68 2315.05V2251.82H1671.85Z" fill="#9F616A"/>
<path d="M1488.47 1581.55C1488.47 1581.55 1492.68 1672.18 1496.9 1678.5C1501.12 1684.83 1539.06 1775.46 1539.06 1775.46L1558.03 1716.44C1558.03 1716.44 1528.52 1667.96 1532.73 1640.56C1536.95 1613.16 1537.98 1585.73 1537.98 1585.73L1488.47 1581.55Z" fill="#9F616A"/>
<path d="M1608.61 1362.34C1641.21 1362.34 1667.63 1335.91 1667.63 1303.32C1667.63 1270.72 1641.21 1244.3 1608.61 1244.3C1576.02 1244.3 1549.59 1270.72 1549.59 1303.32C1549.59 1335.91 1576.02 1362.34 1608.61 1362.34Z" fill="#9F616A"/>
<path d="M1560.13 1309.64C1560.13 1309.64 1562.24 1393.95 1547.49 1406.6C1532.73 1419.25 1631.8 1408.71 1631.8 1408.71C1631.8 1408.71 1610.72 1349.69 1627.58 1337.04C1644.44 1324.4 1560.13 1309.64 1560.13 1309.64Z" fill="#9F616A"/>
<path d="M1638.12 1404.49C1638.12 1404.49 1625.47 1381.3 1608.61 1383.41C1591.75 1385.52 1536.95 1389.74 1534.84 1393.95C1532.73 1398.17 1526.41 1412.92 1522.19 1417.14C1517.98 1421.35 1488.27 1418.25 1486.17 1443.54C1484.06 1468.83 1560.13 1632.13 1560.13 1632.13C1560.13 1632.13 1549.59 1667.96 1551.7 1676.39C1553.81 1684.83 1541.16 1710.12 1543.27 1720.66C1545.38 1731.2 1511.65 1794.43 1528.51 1876.63V2009.42C1528.51 2009.42 1471.6 2239.17 1488.47 2256.03C1505.33 2272.9 1562.24 2262.36 1572.78 2256.03C1583.32 2249.71 1627.58 1931.44 1627.58 1931.44L1648.66 1823.94L1650.77 2060.01C1650.77 2060.01 1646.55 2258.14 1661.31 2264.47C1676.06 2270.79 1732.97 2272.9 1737.19 2260.25C1740.47 2250.39 1756.58 1987.95 1763.51 1872.91C1765.91 1833.2 1762.79 1793.35 1754.23 1754.5C1745.46 1714.71 1732.72 1667.97 1718.22 1648.99C1690.81 1613.16 1673.95 1499.34 1673.95 1499.34L1709.78 1434C1709.78 1434 1688.71 1412.92 1676.06 1412.92C1663.41 1412.92 1638.12 1404.49 1638.12 1404.49Z" fill="#FED136"/>
<path d="M1486.17 1443.54L1486.17 1454.04C1486.17 1454.04 1485.87 1601.4 1492.19 1609.83C1498.52 1618.26 1534.54 1594.29 1537.85 1586.86C1541.16 1579.44 1486.17 1443.54 1486.17 1443.54Z" fill="#9F616A"/>
<path d="M1669.74 1564.68C1669.74 1564.68 1671.85 1653.21 1684.49 1678.5C1697.14 1703.8 1743.51 1809.19 1743.51 1809.19C1743.51 1809.19 1740.82 1925.18 1764.3 1896.69C1787.77 1868.2 1773.02 1800.75 1773.02 1800.75L1732.97 1644.78C1732.97 1644.78 1711.89 1575.22 1714 1554.14C1716.11 1533.07 1669.74 1564.68 1669.74 1564.68Z" fill="#9F616A"/>
<path d="M1707.68 2276.69C1707.68 2276.69 1709.79 2275 1716.11 2281.33C1722.43 2287.65 1739.29 2296.08 1737.19 2319.27C1735.08 2342.45 1722.43 2346.67 1722.43 2346.67V2340.35H1716.11V2350.88C1716.11 2350.88 1705.57 2384.61 1657.09 2363.53C1657.09 2363.53 1654.98 2346.67 1657.09 2336.13C1659.2 2325.59 1659.2 2275 1665.52 2277.11C1671.85 2279.22 1688.71 2281.33 1692.92 2289.76C1697.14 2298.19 1709.79 2295.24 1707.68 2276.69Z" fill="#2F2E41"/>
<path d="M1490.57 2278.8C1490.57 2278.8 1488.47 2277.11 1482.14 2283.44C1475.82 2289.76 1458.96 2298.19 1461.06 2321.38C1463.17 2344.56 1475.82 2348.78 1475.82 2348.78V2342.45H1482.14V2352.99C1482.14 2352.99 1492.68 2386.72 1541.16 2365.64C1541.16 2365.64 1543.27 2348.78 1541.16 2338.24C1539.05 2327.7 1539.05 2277.11 1532.73 2279.22C1526.41 2281.33 1509.54 2283.44 1505.33 2291.87C1501.11 2300.3 1488.47 2297.34 1490.57 2278.8Z" fill="#2F2E41"/>
<path d="M1680.28 1427.68L1709.79 1434C1709.79 1434 1716.77 1477.28 1718.22 1499.34C1719.93 1525.48 1722.64 1600.49 1716.32 1602.6C1709.99 1604.71 1677.15 1606.2 1672.94 1589.34C1668.72 1572.48 1650.77 1427.68 1680.28 1427.68Z" fill="#9F616A"/>
<path d="M1498.66 1255.26C1541.5 1255.26 1576.22 1220.53 1576.22 1177.69C1576.22 1134.85 1541.5 1100.13 1498.66 1100.13C1455.82 1100.13 1421.09 1134.85 1421.09 1177.69C1421.09 1220.53 1455.82 1255.26 1498.66 1255.26Z" fill="#2F2E41"/>
<path d="M1431.75 1241.92C1441.79 1249.18 1453.42 1253.93 1465.67 1255.76C1477.92 1257.6 1490.43 1256.48 1502.16 1252.5C1513.89 1248.51 1524.49 1241.77 1533.08 1232.84C1541.67 1223.92 1548 1213.07 1551.53 1201.19C1550.2 1211.83 1546.67 1222.08 1541.17 1231.29C1535.67 1240.49 1528.33 1248.46 1519.59 1254.68C1510.86 1260.91 1500.94 1265.25 1490.44 1267.45C1479.94 1269.64 1469.11 1269.63 1458.61 1267.43C1448.12 1265.22 1438.2 1260.86 1429.47 1254.63C1420.75 1248.4 1413.41 1240.42 1407.92 1231.21C1402.44 1221.99 1398.92 1211.74 1397.59 1201.1C1396.27 1190.46 1397.16 1179.66 1400.22 1169.39C1398.49 1183.19 1400.5 1197.21 1406.04 1209.98C1411.59 1222.74 1420.47 1233.77 1431.75 1241.92V1241.92Z" fill="#2F2E41"/>
<path d="M1562 1349.63C1593.42 1349.63 1618.89 1324.16 1618.89 1292.75C1618.89 1261.33 1593.42 1235.87 1562 1235.87C1530.59 1235.87 1505.12 1261.33 1505.12 1292.75C1505.12 1324.16 1530.59 1349.63 1562 1349.63Z" fill="#2F2E41"/>
<path d="M1609.84 1310.85C1637.68 1310.85 1660.25 1293.19 1660.25 1271.42C1660.25 1249.64 1637.68 1231.99 1609.84 1231.99C1581.99 1231.99 1559.42 1249.64 1559.42 1271.42C1559.42 1293.19 1581.99 1310.85 1609.84 1310.85Z" fill="#2F2E41"/>
<path d="M1623.28 1328.75C1628.57 1328.75 1632.85 1321.17 1632.85 1311.82C1632.85 1302.47 1628.57 1294.89 1623.28 1294.89C1618 1294.89 1613.71 1302.47 1613.71 1311.82C1613.71 1321.17 1618 1328.75 1623.28 1328.75Z" fill="#A0616A"/>
<path opacity="0.1" d="M2037.63 2376.87C2146.54 2376.87 2234.83 2362.07 2234.83 2343.81C2234.83 2325.55 2146.54 2310.75 2037.63 2310.75C1928.72 2310.75 1840.43 2325.55 1840.43 2343.81C1840.43 2362.07 1928.72 2376.87 2037.63 2376.87Z" fill="#FED136"/>
<path d="M2250.83 1424.12C2247.06 1422.12 2206.04 1391.14 2206.04 1391.14L2139.83 1349.15C2139.83 1349.15 2139.48 1348.16 2138.85 1346.45C2157.02 1325.83 2153.05 1295.9 2134.57 1274.87C2112.18 1249.36 2010.99 1194.43 1980.5 1241.41C1976.24 1248.05 1976.09 1255.58 1974.98 1262.88C1972.37 1279.91 1963.98 1296.42 1950.81 1310.32C1940.65 1321.05 1927.33 1330.94 1921.5 1343.08C1921.5 1342.93 1921.38 1342.78 1921.33 1342.62C1919.92 1345.22 1918.9 1348.01 1918.29 1350.91C1915.39 1365.72 1925.34 1379.92 1930.64 1394.34C1932.41 1399.22 1933.7 1404.27 1934.48 1409.4C1934.62 1408.37 1934.73 1407.36 1934.85 1406.33C1936.14 1413.64 1936.58 1421.08 1936.16 1428.49C1899.42 1435.98 1899.4 1498.83 1899.4 1498.83C1899.4 1498.83 1894.87 1523.81 1895.63 1532.82C1896.4 1541.83 1896.38 1561.3 1896.38 1566C1896.38 1570.69 1891.85 1599.97 1891.4 1603.49C1891.41 1603.54 1891.41 1603.59 1891.4 1603.64C1890.74 1607.48 1883.86 1626.03 1900.49 1630.18C1901.66 1630.48 1902.88 1630.72 1904.16 1630.96C1904.87 1645.97 1906.17 1677.4 1905.02 1684.4C1905.02 1684.4 1911.08 1726.64 1916.1 1737.37C1919.28 1743.66 1923 1749.67 1927.22 1755.32C1926.85 1757.89 1925.99 1760.37 1924.66 1762.6C1922.09 1766.3 1923.42 1769.34 1927.72 1770.65C1927.57 1771.92 1927.4 1773.37 1927.22 1774.99C1925.38 1791.28 1922.62 1823.66 1927.3 1840.07C1933.72 1862.56 1934.1 1870.06 1934.1 1870.06C1934.1 1870.06 1934.1 1876.8 1936.76 1880.55C1939.41 1884.29 1944.3 1919.16 1944.3 1924.79C1944.3 1930.41 1957.14 1981 1953.36 1993C1949.58 2004.99 1952.62 2021.86 1952.62 2021.86C1952.62 2021.86 1950.34 2051.47 1947.64 2057.84C1944.93 2064.21 1943.86 2166.91 1948 2193.52C1952.15 2220.13 1954.8 2242.24 1954.8 2242.24C1954.8 2242.24 1952.17 2266.61 1954.42 2269.97C1956.68 2273.34 1960.84 2293.6 1957.82 2294.71C1954.8 2295.82 1953.3 2304.08 1953.3 2304.08C1954.89 2306.51 1956.61 2308.85 1958.45 2311.1C1957.29 2310.69 1956.15 2310.21 1955.05 2309.65C1956.25 2311.31 1958.04 2313.67 1960.25 2316.29L1958.17 2343.25C1958.09 2344.3 1958.37 2345.35 1958.98 2346.21C1959.58 2347.07 1960.47 2347.7 1961.49 2347.97C1968.11 2349.77 1975.1 2349.74 1981.71 2347.89C1988.32 2346.03 1994.3 2342.41 1999.01 2337.42C2017.89 2318.31 2024.31 2320.93 2027.71 2309.32C2028.08 2308.08 2028.39 2306.85 2028.66 2305.69C2031.09 2295.34 2020.06 2287.64 2011.29 2292.05C2012.5 2283.86 2013.44 2274.55 2012.53 2269.29C2010.64 2258.43 2011.02 2229.95 2011.02 2229.95L2008.39 2093.51C2008.39 2093.51 2013.28 2066.52 2018.95 2056.03C2024.63 2045.55 2023.93 2008.81 2023.93 2008.81L2030.35 1888.11L2036.39 1829.27C2036.39 1829.27 2042.42 1809.03 2049.97 1831.53C2049.97 1831.53 2045.83 1876.86 2047.72 1887.74C2049.61 1898.63 2052.25 1951.46 2050.35 1963.07C2048.46 1974.68 2040.17 2038.42 2045.38 2054.52C2050.59 2070.63 2056.39 2090.16 2055.23 2096.54C2054.07 2102.93 2050.25 2241.21 2050.25 2241.21C2050.25 2241.21 2060.46 2267.75 2052.91 2276.44C2045.36 2285.14 2052.53 2319.57 2052.53 2319.57C2052.53 2319.57 2053.44 2320.22 2055 2321.12L2054.78 2323.99L2052.41 2354.99C2052.33 2356.04 2052.61 2357.09 2053.22 2357.96C2053.82 2358.83 2054.71 2359.45 2055.73 2359.73C2062.35 2361.54 2069.34 2361.51 2075.95 2359.65C2082.56 2357.79 2088.54 2354.17 2093.25 2349.18C2112.13 2330.06 2118.55 2332.7 2121.95 2321.07C2122.31 2319.82 2122.63 2318.61 2122.91 2317.43C2125.57 2306.14 2112.13 2297.94 2103.14 2305.32L2102.69 2305.71C2102.22 2306.11 2101.73 2306.48 2101.21 2306.82C2100.98 2306.99 2100.73 2307.15 2100.47 2307.3C2102.36 2298.74 2105.11 2284.08 2103.79 2277.21C2101.89 2267.09 2105.66 2236.37 2105.66 2236.37C2105.66 2236.37 2116.61 2199.62 2116.99 2184.94L2120.01 2068.01C2120.01 2068.01 2119.64 2020.4 2121.15 2008.79C2122.66 1997.18 2134.74 1896.72 2146.82 1866.73C2156.09 1843.77 2160.24 1785.18 2157.78 1755.47C2157.65 1754.01 2157.52 1752.6 2157.35 1751.29C2172.16 1740.36 2173.64 1722.18 2173.64 1722.18C2173.64 1722.18 2160.04 1696.2 2146.95 1685.2C2133.86 1674.2 2131.04 1655.29 2131.5 1647.25C2131.73 1642.34 2130.11 1637.53 2126.98 1633.76C2126.98 1633.76 2120.94 1614.27 2116.91 1612.28C2116.58 1612.11 2116.28 1611.89 2116.03 1611.61C2113.29 1608.68 2115.4 1600.28 2115.4 1600.28V1600.02C2115.88 1598.08 2118.71 1585.5 2117.87 1582.29C2116.86 1578.8 2118.37 1562.3 2118.37 1562.3C2118.37 1562.3 2127.94 1533.81 2126.43 1511.32C2124.92 1488.83 2146.07 1490.83 2146.07 1490.83L2211.38 1490.15H2218.81C2221.43 1487.93 2223.82 1485.45 2225.96 1482.76C2238.4 1481.28 2263.56 1476.58 2266.38 1462.85C2270.22 1444.62 2254.61 1426.12 2250.83 1424.12ZM1948.25 1632.07L1948.7 1620.64C1950.24 1621.97 1951.27 1622.81 1951.27 1622.81C1952.1 1625.8 1952.14 1628.96 1951.39 1631.97C1950.98 1633.38 1950.26 1634.69 1949.28 1635.78C1948.3 1636.88 1947.09 1637.74 1945.73 1638.3C1945.42 1638.44 1945.11 1638.6 1944.82 1638.79L1944.19 1632.33L1948.25 1632.07ZM2185.13 1431.35C2182.36 1430.1 2173.04 1430.35 2168.25 1430.35C2163.45 1430.35 2155.67 1426.35 2155.67 1426.35C2154.01 1423.12 2144.84 1421.2 2136.68 1420.1C2130.48 1404.81 2121.75 1389.89 2120.57 1373.95C2120.57 1373.37 2120.57 1372.79 2120.49 1372.21L2121.44 1373.87C2121.44 1373.87 2159.46 1398.12 2163.74 1405.39C2167.05 1410.93 2183.03 1423.3 2190.43 1428.84C2189.41 1430.17 2187.98 1431.13 2186.36 1431.56C2185.94 1431.61 2185.52 1431.53 2185.13 1431.35V1431.35Z" fill="url(#paint0_linear)"/>
<path d="M2122.35 2317.53C2122.06 2318.69 2121.77 2319.91 2121.4 2321.13C2118.08 2332.75 2111.73 2330.06 2093.2 2349.02C2088.58 2353.97 2082.7 2357.56 2076.19 2359.41C2069.68 2361.26 2062.79 2361.29 2056.26 2359.5C2055.24 2359.23 2054.35 2358.61 2053.74 2357.75C2053.13 2356.89 2052.85 2355.84 2052.94 2354.79L2055.28 2324.04L2056.39 2309.24C2056.39 2309.24 2085.99 2317.53 2101.05 2307C2101.55 2306.65 2102.04 2306.28 2102.51 2305.89C2102.62 2305.78 2102.73 2305.67 2102.84 2305.56C2104.78 2303.95 2107.18 2302.99 2109.7 2302.81C2112.22 2302.63 2114.73 2303.25 2116.88 2304.57C2119.03 2305.89 2120.71 2307.85 2121.69 2310.17C2122.67 2312.5 2122.9 2315.07 2122.35 2317.53V2317.53Z" fill="#67647E"/>
<path d="M2029.45 2305.92C2029.17 2307.08 2028.87 2308.29 2028.51 2309.52C2025.19 2321.13 2018.84 2318.45 2000.31 2337.41C1995.69 2342.36 1989.81 2345.95 1983.3 2347.8C1976.78 2349.64 1969.89 2349.68 1963.36 2347.89C1962.35 2347.62 1961.45 2347 1960.85 2346.14C1960.24 2345.28 1959.96 2344.23 1960.05 2343.18L1962.39 2312.42L1963.5 2297.63C1963.5 2297.63 1993.09 2305.92 2008.15 2295.39C2008.66 2295.04 2009.15 2294.67 2009.61 2294.28C2009.73 2294.17 2009.84 2294.06 2009.94 2293.94C2011.89 2292.34 2014.29 2291.37 2016.8 2291.2C2019.32 2291.02 2021.83 2291.63 2023.98 2292.95C2026.13 2294.27 2027.82 2296.24 2028.8 2298.56C2029.78 2300.89 2030.01 2303.46 2029.45 2305.92V2305.92Z" fill="#67647E"/>
<path opacity="0.1" d="M1998.88 2310.53L2000.07 2326.52C1983.09 2343.49 1962.87 2318.23 1956.94 2309.94C1972.52 2317.96 1998.88 2310.53 1998.88 2310.53Z" fill="black"/>
<path opacity="0.1" d="M2098.73 2317.04L2100.95 2315.56C2085.44 2339.15 2062.4 2328.27 2055.21 2324.04L2056.33 2309.24C2056.33 2309.24 2085.92 2317.53 2100.98 2307C2099.8 2312.77 2098.73 2317.04 2098.73 2317.04Z" fill="black"/>
<path d="M2145.97 1870.43C2134.06 1900.17 2122.16 1999.82 2120.67 2011.43C2119.18 2023.04 2119.56 2070.18 2119.56 2070.18L2116.57 2186.12C2116.19 2200.63 2105.41 2237.08 2105.41 2237.08C2105.41 2237.08 2101.69 2267.57 2103.55 2277.61C2105.41 2287.64 2098.73 2314.1 2098.73 2314.1L2100.95 2312.61C2082.35 2340.81 2052.97 2319.67 2052.97 2319.67C2052.97 2319.67 2045.91 2285.47 2053.36 2276.91C2060.8 2268.35 2050.75 2241.96 2050.75 2241.96C2050.75 2241.96 2054.47 2104.74 2055.58 2098.42C2056.69 2092.1 2051.12 2072.75 2045.91 2056.76C2040.7 2040.77 2048.89 1977.55 2050.75 1966.02C2052.61 1954.5 2050.01 1902.06 2048.15 1891.28C2046.29 1880.5 2050.37 1835.49 2050.37 1835.49C2042.94 1813.18 2036.98 1833.27 2036.98 1833.27L2031.03 1891.64L2024.71 2011.39C2024.71 2011.39 2025.45 2047.89 2019.88 2058.26C2014.31 2068.62 2009.46 2095.43 2009.46 2095.43L2012.07 2230.81C2012.07 2230.81 2011.7 2259.01 2013.56 2269.84C2015.42 2280.67 2009.46 2308.53 2009.46 2308.53C1988.64 2357.58 1955.2 2304.4 1955.2 2304.4C1955.2 2304.4 1956.7 2296.22 1959.66 2295.11C1962.63 2293.99 1958.55 2273.91 1956.35 2270.56C1954.14 2267.2 1956.71 2243.03 1956.71 2243.03C1956.71 2243.03 1954.11 2221.1 1950.08 2194.7C1946.05 2168.29 1947.11 2066.4 1949.71 2060.08C1952.32 2053.76 1954.54 2024.38 1954.54 2024.38C1954.54 2024.38 1951.57 2007.65 1955.29 1995.73C1959 1983.82 1946.36 1933.64 1946.36 1928.05C1946.36 1922.46 1941.53 1887.89 1938.93 1884.18C1936.32 1880.46 1936.32 1873.76 1936.32 1873.76C1936.32 1873.76 1935.96 1866.33 1929.69 1844.02C1925.08 1827.73 1927.8 1795.61 1929.61 1779.44C1930.25 1773.45 1930.82 1769.63 1930.82 1769.63C1930.82 1769.63 2144.09 1735.05 2152.6 1742.86C2154.6 1744.7 2155.92 1751.02 2156.7 1760.03C2159.24 1789.49 2155.06 1847.72 2145.97 1870.43Z" fill="#444053"/>
<path opacity="0.1" d="M2065.25 2037.64C2066.25 2037.64 2089.8 2039.63 2098.43 2037.89C2107.05 2036.14 2065.25 2037.64 2065.25 2037.64Z" fill="black"/>
<path opacity="0.1" d="M2066.99 2051.52C2066.99 2051.52 2099.52 2057.23 2101.18 2054.26C2102.84 2051.29 2066.99 2051.52 2066.99 2051.52Z" fill="black"/>
<path opacity="0.1" d="M1967.58 2045.57C1967.58 2045.57 1984.43 2046.31 1993.6 2050.54C2002.78 2054.77 1967.58 2045.57 1967.58 2045.57Z" fill="black"/>
<path d="M1906.33 1628.58C1906.33 1628.58 1909.05 1680.39 1907.58 1689.56C1907.58 1689.56 1913.52 1731.46 1918.48 1742.11C1923.44 1752.76 1934.1 1766.17 1934.1 1766.17L1948.73 1663.32L1945.25 1628.09L1906.33 1628.58Z" fill="#EFB7B9"/>
<path d="M2060.04 1392.56C2091.67 1392.56 2117.3 1366.93 2117.3 1335.3C2117.3 1303.68 2091.67 1278.04 2060.04 1278.04C2028.41 1278.04 2002.78 1303.68 2002.78 1335.3C2002.78 1366.93 2028.41 1392.56 2060.04 1392.56Z" fill="#EFB7B9"/>
<path d="M2030.3 1362.06C2030.3 1362.06 2012.45 1397.03 1994.6 1413.38C1976.75 1429.74 2101.69 1448.33 2104.66 1448.33C2107.63 1448.33 2082.35 1373.97 2086.81 1364.99C2091.28 1356.02 2030.3 1362.06 2030.3 1362.06Z" fill="#EFB7B9"/>
<path opacity="0.1" d="M2156.73 1760.03C2153.93 1762.17 2150.84 1763.9 2147.54 1765.17C2124.75 1774.1 2099.95 1786.49 2083.1 1781.55C2066.24 1776.6 2030.55 1781.55 2030.55 1781.55C2030.55 1781.55 1958.64 1775.59 1944.29 1779.06C1937.75 1780.63 1932.68 1780.57 1929.36 1779.44C1930 1773.45 1930.57 1769.63 1930.57 1769.63C1930.57 1769.63 2144.09 1735.05 2152.6 1742.86C2154.63 1744.7 2155.92 1751.02 2156.73 1760.03Z" fill="black"/>
<path d="M2172.35 1726.99C2172.35 1726.99 2170.37 1751.79 2147.55 1760.71C2124.72 1769.64 2099.95 1782.03 2083.1 1777.08C2066.25 1772.14 2030.55 1777.08 2030.55 1777.08C2030.55 1777.08 1958.64 1771.13 1944.29 1774.6C1929.94 1778.06 1922.46 1773.62 1926.92 1767.16C1931.38 1760.71 1930.9 1739.39 1930.9 1730.47C1930.9 1721.55 1925.93 1685.35 1930.39 1678.9C1934.85 1672.44 1938.81 1647.66 1947.74 1643.68C1949.08 1643.12 1950.28 1642.26 1951.24 1641.17C1952.21 1640.08 1952.91 1638.79 1953.31 1637.39C1954.05 1634.41 1954.01 1631.28 1953.2 1628.32C1953.2 1628.32 1951.69 1627.07 1949.61 1625.23C1944.36 1620.54 1935.46 1611.83 1938.32 1608.98C1942.28 1605 1938.32 1579.22 1938.32 1579.22C1938.32 1579.22 1928.89 1559.39 1932.38 1551.96C1935.86 1544.53 1902.12 1505.35 1902.12 1505.35C1902.12 1505.35 1902.12 1437.93 1942.78 1434.95C1942.78 1434.95 1971.54 1435.94 1975.01 1423.05C1978.48 1410.16 2001.29 1402.72 2001.29 1402.72L2053.36 1414.13C2053.36 1414.13 2099.46 1424.08 2107.9 1418.09C2116.34 1412.11 2122.83 1426.02 2122.83 1426.02C2122.83 1426.02 2151.58 1427.52 2154.55 1433.47C2157.52 1439.43 2145.14 1497.42 2145.14 1497.42C2145.14 1497.42 2124.31 1495.45 2125.8 1517.76C2127.29 1540.07 2117.77 1568.33 2117.77 1568.33C2117.77 1568.33 2116.28 1584.69 2117.27 1588.16C2118.2 1591.36 2115.32 1603.83 2114.85 1605.76V1606.01C2114.85 1606.01 2112.78 1614.3 2115.46 1617.25C2115.71 1617.52 2116.01 1617.75 2116.33 1617.92C2120.31 1619.89 2126.28 1639.23 2126.28 1639.23C2129.38 1642.99 2130.97 1647.76 2130.74 1652.62C2130.26 1660.57 2133.23 1679.39 2146.12 1690.31C2159.01 1701.22 2172.35 1726.99 2172.35 1726.99Z" fill="#A36468"/>
<path d="M1951.21 1612.16V1614.27L1950.31 1637.49C1950.31 1637.49 1919.8 1639.96 1903.2 1635.83C1886.59 1631.7 1893.58 1613.27 1894.24 1609.46C1894.25 1609.41 1894.25 1609.36 1894.24 1609.31C1894.72 1605.83 1899.22 1576.83 1899.22 1572.12C1899.22 1567.41 1899.22 1548.06 1898.47 1539.14C1897.72 1530.22 1902.12 1505.35 1902.12 1505.35L1905.34 1501.4L1940.27 1514.79L1951.21 1612.16Z" fill="#A36468"/>
<path opacity="0.1" d="M1951.12 1614.32L1950.23 1637.54C1950.23 1637.54 1919.72 1640.01 1903.11 1635.88C1886.51 1631.75 1893.49 1613.32 1894.16 1609.51L1951.12 1614.32Z" fill="black"/>
<path opacity="0.1" d="M1953.31 1637.41C1954.05 1634.42 1954.01 1631.3 1953.19 1628.34C1953.19 1628.34 1951.68 1627.09 1949.61 1625.25C1975.87 1621.58 2079.86 1607.32 2114.88 1605.76V1606.01C2114.88 1606.01 2112.81 1614.3 2115.5 1617.25L1953.31 1637.41Z" fill="black"/>
<path opacity="0.1" d="M2118.8 1655.29C2118.8 1655.29 2125.25 1691.79 2101.2 1704.63C2101.18 1704.69 2114.83 1686.59 2118.8 1655.29Z" fill="black"/>
<path opacity="0.1" d="M1961.37 1705.67C1961.37 1705.67 2019.43 1695.72 2030.8 1703.45C2042.16 1711.18 1961.37 1705.67 1961.37 1705.67Z" fill="black"/>
<path opacity="0.1" d="M2098.73 1479.82C2098.73 1479.82 2089.8 1516.51 2096.49 1524.94C2103.17 1533.37 2098.73 1479.82 2098.73 1479.82Z" fill="black"/>
<path opacity="0.1" d="M1930.64 1449.83C1930.64 1449.83 1938.81 1463.46 1933.85 1477.6C1928.89 1491.73 1930.64 1449.83 1930.64 1449.83Z" fill="black"/>
<path opacity="0.1" d="M1913.73 1569.33C1913.73 1569.33 1924.15 1575.52 1920.68 1585.19C1917.22 1594.86 1913.73 1569.33 1913.73 1569.33Z" fill="black"/>
<path opacity="0.1" d="M1912.79 1541.06C1912.79 1541.06 1922.44 1546.27 1923.68 1553.95C1924.93 1561.63 1912.79 1541.06 1912.79 1541.06Z" fill="black"/>
<path opacity="0.1" d="M2056.08 1837.56C2056.08 1837.56 2116.82 1843.77 2128.97 1829.39C2128.97 1829.47 2074.17 1840.3 2056.08 1837.56Z" fill="black"/>
<path opacity="0.1" d="M1951.2 1834.1C1951.2 1834.1 2016.41 1849.47 2029.3 1837.32C2029.3 1837.32 1973.27 1841.53 1951.2 1834.1Z" fill="black"/>
<path opacity="0.1" d="M2060.79 1857.67C2060.79 1857.67 2088.06 1857.67 2100.7 1858.42C2113.34 1859.16 2060.79 1857.67 2060.79 1857.67Z" fill="black"/>
<path opacity="0.1" d="M1955.67 1869.28C1955.67 1869.28 1969.05 1884.41 1984.18 1881.69C1999.31 1878.97 1955.67 1869.28 1955.67 1869.28Z" fill="black"/>
<path d="M1981.96 1249.95C1977.76 1256.47 1977.61 1264.02 1976.52 1271.25C1973.96 1288.16 1965.69 1304.53 1952.73 1318.33C1940.84 1330.97 1924.53 1342.43 1921.45 1357.88C1918.53 1372.54 1928.43 1386.66 1933.62 1401.01C1947.31 1438.65 1928.2 1478.13 1922.62 1516.98C1921.08 1527.71 1922.94 1541.43 1936.16 1545C1940.29 1546.12 1945.02 1545.97 1948.73 1547.77C1953.71 1550.15 1955.24 1555.11 1956.15 1559.58C1959.48 1575.54 1960.63 1591.88 1959.57 1608.15C1958.97 1617.27 1958.31 1627.77 1966.93 1634.04C1970.85 1636.91 1976.12 1638.37 1981.21 1639.75C1994.8 1643.41 2012.37 1646.38 2021.52 1637.77C2025.37 1634.17 2026.82 1629.1 2031.61 1626.25C2038.79 1621.98 2048.98 1624.87 2058.02 1625.32C2076.58 1626.25 2093.63 1615.36 2100.95 1602.24C2108.26 1589.12 2107.58 1574.04 2104.93 1559.89C2102.28 1545.74 2097.53 1531.69 2097.2 1517.33C2097.08 1512.35 2097.53 1507.29 2100.39 1502.88C2105.91 1494.33 2118.77 1490.45 2127.56 1483.73C2144.03 1471.13 2143.98 1450.47 2137.99 1433.19C2132 1415.9 2121.25 1399.33 2119.93 1381.47C2119.33 1377.15 2120.19 1372.75 2122.36 1368.98C2124.72 1365.34 2128.83 1362.62 2132.32 1359.62C2156.35 1339.32 2153.52 1305.97 2133.64 1283.15C2111.65 1257.85 2011.99 1203.36 1981.96 1249.95Z" fill="#E3787D"/>
<g opacity="0.1">
<path opacity="0.1" d="M1936.68 1416.63C1938.55 1401.56 1938.2 1386.61 1932.88 1371.93C1930.26 1364.73 1926.46 1357.58 1923.69 1350.36C1922.3 1352.97 1921.3 1355.77 1920.7 1358.66C1917.78 1373.32 1927.68 1387.44 1932.88 1401.79C1934.62 1406.6 1935.9 1411.57 1936.68 1416.63Z" fill="black"/>
<path opacity="0.1" d="M1958.82 1579.07C1959.88 1562.8 1958.73 1546.46 1955.42 1530.5C1954.49 1526.03 1952.96 1521.09 1947.99 1518.7C1944.27 1516.91 1939.54 1517.04 1935.41 1515.93C1932.88 1515.32 1930.51 1514.14 1928.5 1512.48C1926.49 1510.82 1924.88 1508.72 1923.8 1506.34C1923.04 1510.13 1922.38 1513.89 1921.83 1517.67C1920.29 1528.41 1922.14 1542.13 1935.36 1545.69C1939.49 1546.8 1944.22 1546.65 1947.94 1548.45C1952.91 1550.83 1954.44 1555.79 1955.37 1560.26C1956.89 1567.66 1957.95 1575.15 1958.55 1582.68C1958.67 1581.46 1958.74 1580.26 1958.82 1579.07Z" fill="black"/>
<path opacity="0.1" d="M2100.22 1573.18C2092.89 1586.35 2075.84 1597.18 2057.27 1596.25C2048.23 1595.79 2038.05 1592.94 2030.88 1597.18C2026.09 1600.02 2024.63 1605.11 2020.78 1608.71C2011.62 1617.25 1994.05 1614.35 1980.47 1610.68C1975.38 1609.29 1970.12 1607.85 1966.19 1604.98C1962.44 1602.22 1959.91 1598.12 1959.14 1593.53C1959.24 1598.62 1959.14 1603.73 1958.82 1608.83C1958.22 1617.95 1957.56 1628.45 1966.19 1634.74C1970.12 1637.59 1975.38 1639.05 1980.47 1640.43C1994.05 1644.09 2011.62 1647.06 2020.78 1638.45C2024.63 1634.85 2026.09 1629.78 2030.88 1626.84C2038.05 1622.58 2048.23 1625.46 2057.27 1625.91C2075.84 1626.84 2092.89 1615.96 2100.22 1602.84C2107.25 1590.16 2106.94 1575.83 2104.48 1562.15C2103.56 1566 2102.13 1569.71 2100.22 1573.18Z" fill="black"/>
<path opacity="0.1" d="M2131.64 1330.62C2128.09 1333.61 2123.97 1336.35 2121.69 1339.98C2119.51 1343.76 2118.65 1348.15 2119.25 1352.47C2119.73 1357.9 2120.88 1363.25 2122.66 1368.39C2125.43 1365.45 2128.45 1362.76 2131.7 1360.37C2147.96 1346.65 2151.91 1326.96 2146.63 1308.58C2143.85 1317.21 2138.65 1324.86 2131.64 1330.62V1330.62Z" fill="black"/>
<path opacity="0.1" d="M2126.81 1454.65C2118.04 1461.37 2105.16 1465.27 2099.66 1473.81C2096.79 1478.23 2096.34 1483.32 2096.45 1488.25C2096.66 1494.05 2097.37 1499.82 2098.58 1505.5C2098.89 1504.83 2099.25 1504.18 2099.66 1503.56C2105.16 1495.01 2118.04 1491.13 2126.81 1484.41C2141.86 1472.9 2143.12 1454.69 2138.67 1438.45C2136.42 1444.91 2132.29 1450.55 2126.81 1454.65V1454.65Z" fill="black"/>
</g>
<path d="M2216.97 1489.99C2216.97 1489.99 2259.87 1487.76 2263.58 1469.67C2267.3 1451.57 2251.97 1433.17 2248.22 1431.23C2244.47 1429.29 2204.03 1398.5 2204.03 1398.5L2138.84 1356.87C2138.84 1356.87 2107.6 1267.29 2100.68 1301.58C2093.77 1335.86 2120.77 1381.4 2120.77 1381.4C2120.77 1381.4 2158.2 1405.45 2162.41 1412.64C2166.62 1419.82 2192.42 1438.66 2192.42 1438.66L2216.97 1489.99Z" fill="#EFB7B9"/>
<path d="M2240.03 1460.73C2229.87 1486.52 2216.72 1496.69 2216.72 1496.69H2209.4L2145.09 1497.35L2137.67 1477.1L2148.09 1433.21L2154.53 1433.47C2154.53 1433.47 2162.23 1437.44 2166.92 1437.44C2171.61 1437.44 2180.82 1437.19 2183.51 1438.41C2183.88 1438.6 2184.31 1438.66 2184.72 1438.6C2187.16 1438.35 2189.7 1434.7 2189.7 1434.7C2189.7 1434.7 2250.19 1434.95 2240.03 1460.73Z" fill="#A36468"/>
<path opacity="0.1" d="M2240.03 1460.73C2229.88 1486.52 2216.72 1496.69 2216.72 1496.69H2209.41C2213.22 1486.47 2221.27 1465.5 2224.33 1460.66C2227.34 1456.08 2200.4 1444.69 2184.64 1438.53C2187.08 1438.28 2189.62 1434.63 2189.62 1434.63C2189.62 1434.63 2250.2 1434.95 2240.03 1460.73Z" fill="black"/>
<path d="M2824.24 1325.62C2789.68 1325.62 2761.67 1297.6 2761.67 1263.04C2761.67 1228.48 2789.68 1200.46 2824.24 1200.46C2858.8 1200.46 2886.82 1228.48 2886.82 1263.04C2886.82 1297.6 2858.8 1325.62 2824.24 1325.62Z" fill="#A0616A"/>
<path d="M2864.73 1292.49C2864.73 1292.49 2864.73 1358.74 2875.78 1366.11C2886.82 1373.47 2787.43 1380.83 2787.43 1380.83V1296.17L2864.73 1292.49Z" fill="#A0616A"/>
<path d="M2986.21 1660.59C2986.21 1660.59 2916.27 1741.58 2901.54 1741.58C2886.82 1741.58 2872.1 1686.36 2872.1 1686.36L2942.04 1634.83L2986.21 1660.59Z" fill="#A0616A"/>
<path d="M2636.51 1296.17L2625.46 1218.86C2625.46 1218.86 2618.1 1112.11 2596.02 1137.88C2573.93 1163.65 2588.65 1222.54 2588.65 1222.54C2588.65 1222.54 2577.61 1307.21 2588.65 1318.25C2599.7 1329.3 2636.51 1296.17 2636.51 1296.17Z" fill="#A0616A"/>
<path d="M2699.09 1712.13L2897.87 1693.72C2897.87 1693.72 2923.63 1815.2 2916.27 1863.05C2908.91 1910.91 2905.23 2047.11 2905.23 2047.11C2905.23 2047.11 2897.87 2293.74 2886.82 2308.46C2875.78 2323.19 2838.97 2319.51 2827.92 2326.87C2816.88 2334.23 2798.48 2312.15 2798.48 2308.46C2798.48 2304.78 2820.56 2304.78 2809.52 2282.7C2798.48 2260.61 2838.97 2198.03 2827.92 2168.58C2816.88 2139.13 2798.48 2098.64 2809.52 2083.92C2820.56 2069.19 2802.16 1881.46 2802.16 1881.46C2802.16 1881.46 2710.13 2013.98 2710.13 2072.88C2710.13 2131.77 2717.49 2267.97 2721.17 2282.7C2724.85 2297.42 2728.54 2301.1 2721.17 2312.15C2713.81 2323.19 2706.45 2334.23 2710.13 2337.91C2713.81 2341.59 2643.87 2337.91 2643.87 2315.83C2643.87 2293.74 2647.55 2293.74 2640.19 2275.33C2632.83 2256.93 2629.15 2036.06 2629.15 2036.06L2699.09 1712.13Z" fill="#2F2E41"/>
<path d="M2875.78 1340.34L2886.82 1362.43C2886.82 1362.43 3004.62 1399.24 3008.3 1476.54L2908.91 1642.19C2908.91 1642.19 2901.55 1653.23 2905.23 1660.59C2908.91 1667.96 2912.59 1664.27 2908.91 1675.32C2905.23 1686.36 2905.23 1682.68 2905.23 1690.04C2905.23 1697.4 2916.27 1693.72 2905.23 1697.4C2894.18 1701.09 2908.91 1697.4 2868.42 1708.45C2827.92 1719.49 2706.45 1715.81 2706.45 1715.81L2728.54 1502.31L2706.45 1458.13L2735.9 1369.79C2735.9 1369.79 2754.3 1366.11 2765.35 1373.47C2776.39 1380.83 2791.11 1366.11 2791.11 1366.11C2791.11 1366.11 2809.52 1340.34 2875.78 1340.34Z" fill="#BDBDBD"/>
<path d="M2754.3 1373.47L2735.9 1369.79C2735.9 1369.79 2662.27 1347.7 2658.59 1329.3C2654.91 1310.89 2636.51 1288.8 2636.51 1288.8C2636.51 1288.8 2577.61 1274.08 2581.29 1321.93C2584.97 1369.79 2599.7 1384.51 2607.06 1391.87C2614.42 1399.24 2695.4 1458.13 2710.13 1458.13C2724.85 1458.13 2754.3 1373.47 2754.3 1373.47Z" fill="#BDBDBD"/>
<path d="M3000.93 1461.81L3008.3 1476.54L3011.98 1609.06C3011.98 1609.06 3034.06 1623.78 3023.02 1631.14C3011.98 1638.51 2986.21 1671.64 2978.85 1671.64C2971.49 1671.64 2930.99 1653.23 2930.99 1645.87C2930.99 1638.51 2938.36 1572.25 2938.36 1572.25L3000.93 1461.81Z" fill="#BDBDBD"/>
<path d="M2864.73 2308.46C2864.73 2308.46 2864.73 2345.27 2868.41 2352.64C2872.1 2360 2879.46 2396.81 2857.37 2396.81C2844.72 2396.99 2832.17 2394.48 2820.56 2389.45C2820.56 2389.45 2820.56 2367.36 2809.52 2363.68C2798.47 2360 2772.71 2330.55 2783.75 2323.19C2794.79 2315.83 2816.88 2308.46 2816.88 2308.46L2864.73 2308.46Z" fill="#2F2E41"/>
<path d="M2706.45 2326.87C2706.45 2326.87 2728.54 2378.4 2706.45 2382.09C2684.36 2385.77 2654.92 2382.09 2651.23 2374.72C2647.55 2367.36 2640.19 2360 2632.83 2363.68C2625.47 2367.36 2562.89 2323.19 2584.97 2315.83C2598.11 2311.42 2612.33 2311.42 2625.47 2315.83L2647.55 2304.78L2706.45 2326.87Z" fill="#2F2E41"/>
<path d="M2816.33 1332.01C2815.29 1331.95 2814.27 1331.66 2813.34 1331.18C2811.84 1329.98 2810.84 1328.25 2810.55 1326.35L2803.03 1299.72C2800.18 1289.61 2795.59 1277.81 2785.31 1275.67C2783.16 1275.53 2781.05 1274.97 2779.11 1274.02C2777.98 1272.96 2777.1 1271.67 2776.52 1270.23C2775.93 1268.8 2775.67 1267.26 2775.74 1265.71L2772.52 1231.29C2771.65 1221.98 2770.82 1212.3 2774.07 1203.53C2778.86 1190.6 2791.99 1182.09 2805.56 1179.64C2819.13 1177.19 2833.11 1179.93 2846.32 1183.89C2866.35 1189.89 2887.1 1200.22 2895.81 1219.24C2900.85 1230.26 2901.16 1242.81 2900.48 1254.9C2899.79 1267.35 2898.06 1280.04 2892.34 1291.12C2889.16 1296.85 2885.46 1302.28 2881.3 1307.34C2875.09 1315.38 2867.47 1331.11 2857.18 1334.11C2845.59 1337.49 2828.08 1333.54 2816.33 1332.01Z" fill="#2F2E41"/>
<defs>
<linearGradient id="paint0_linear" x1="2078.19" y1="2361" x2="2078.19" y2="1223.03" gradientUnits="userSpaceOnUse">
<stop stop-color="#808080" stop-opacity="0.25"/>
<stop offset="0.54" stop-color="#808080" stop-opacity="0.12"/>
<stop offset="1" stop-color="#808080" stop-opacity="0.1"/>
</linearGradient>
</defs>
</svg>
